<svg xmlns="http://www.w3.org/2000/svg" width="1180" height="600" viewBox="0 0 1180 600">
<style>
  .axis { stroke: #202020; stroke-width: 1; }
  .grid { stroke: #dddddd; stroke-width: 1; }
  .title { font-family: Helvetica, Arial, sans-serif; font-size: 16px; font-weight: 600; fill: #111111; }
  .label { font-family: Helvetica, Arial, sans-serif; font-size: 12px; fill: #222222; }
  .legend-h { font-family: Helvetica, Arial, sans-serif; font-size: 12px; font-weight: 600; fill: #222222; }
  .legend-row { font-family: Helvetica, Arial, sans-serif; font-size: 11px; fill: #333333; }
  .rass { fill: none; stroke: #0077b6; stroke-width: 2; }
  .dalr { fill: none; stroke: #d1495b; stroke-width: 2; stroke-dasharray: 6 4; }
  .rass-point { fill: #0077b6; }
  .station { fill: #f4a261; stroke: #8b4c12; stroke-width: 1; }
  .station-label { font-family: Helvetica, Arial, sans-serif; font-size: 11px; fill: #444444; }
</style>
<rect x="0" y="0" width="1180" height="600" fill="#ffffff" />
<text class="title" x="90" y="28">Estimated LCL @ VOR: 1094 m - winds 154, 7g16mph (15:00 PST)</text>
<line class="grid" x1="90" y1="520.00" x2="760" y2="520.00" />
<text class="label" x="82" y="524.00" text-anchor="end">0</text>
<line class="grid" x1="90" y1="447.69" x2="760" y2="447.69" />
<text class="label" x="82" y="451.69" text-anchor="end">200</text>
<line class="grid" x1="90" y1="375.38" x2="760" y2="375.38" />
<text class="label" x="82" y="379.38" text-anchor="end">400</text>
<line class="grid" x1="90" y1="303.08" x2="760" y2="303.08" />
<text class="label" x="82" y="307.08" text-anchor="end">600</text>
<line class="grid" x1="90" y1="230.77" x2="760" y2="230.77" />
<text class="label" x="82" y="234.77" text-anchor="end">800</text>
<line class="grid" x1="90" y1="158.46" x2="760" y2="158.46" />
<text class="label" x="82" y="162.46" text-anchor="end">1000</text>
<line class="grid" x1="90" y1="86.15" x2="760" y2="86.15" />
<text class="label" x="82" y="90.15" text-anchor="end">1200</text>
<line class="grid" x1="142.99" y1="50" x2="142.99" y2="520" />
<text class="label" x="142.99" y="538" text-anchor="middle">5.0</text>
<line class="grid" x1="386.80" y1="50" x2="386.80" y2="520" />
<text class="label" x="386.80" y="538" text-anchor="middle">10.0</text>
<line class="grid" x1="630.62" y1="50" x2="630.62" y2="520" />
<text class="label" x="630.62" y="538" text-anchor="middle">15.0</text>
<line class="axis" x1="90" y1="50" x2="90" y2="520" />
<line class="axis" x1="90" y1="520" x2="760" y2="520" />
<text class="label" x="425.00" y="570" text-anchor="middle">Temperature (C)</text>
<text class="label" x="26" y="285.00" text-anchor="middle" transform="rotate(-90 26 285.00)">Altitude (m)</text>
<path class="rass" d="M640.04,447.69 L607.54,411.54 L566.11,375.38 L536.99,339.23 L489.16,303.08 L464.40,266.92 L449.36,230.77 L432.13,194.62" />
<path class="dalr" d="M735.62,520.00 L114.38,50.00" />
<circle class="rass-point" cx="640.04" cy="447.69" r="2" />
<circle class="rass-point" cx="607.54" cy="411.54" r="2" />
<circle class="rass-point" cx="566.11" cy="375.38" r="2" />
<circle class="rass-point" cx="536.99" cy="339.23" r="2" />
<circle class="rass-point" cx="489.16" cy="303.08" r="2" />
<circle class="rass-point" cx="464.40" cy="266.92" r="2" />
<circle class="rass-point" cx="449.36" cy="230.77" r="2" />
<circle class="rass-point" cx="432.13" cy="194.62" r="2" />
<rect class="station" x="329.62" y="82.79" width="6" height="6" />
<text class="station-label" x="338.62" y="89.79" text-anchor="start">La Cumbre</text>
<rect class="station" x="264.33" y="130.19" width="6" height="6" />
<text class="station-label" x="273.33" y="137.19" text-anchor="start">VOR</text>
<rect class="station" x="381.07" y="257.49" width="6" height="6" />
<text class="station-label" x="390.07" y="264.49" text-anchor="start">AntFarm</text>
<rect class="station" x="519.27" y="338.58" width="6" height="6" />
<text class="station-label" x="528.27" y="345.58" text-anchor="start">Montecito</text>
<rect class="station" x="636.83" y="431.06" width="6" height="6" />
<text class="station-label" x="645.83" y="438.06" text-anchor="start">Upper Parma</text>
<rect class="station" x="595.09" y="424.12" width="6" height="6" />
<text class="station-label" x="604.09" y="455.12" text-anchor="start">Romero Cyn</text>
<rect class="station" x="725.14" y="515.92" width="6" height="6" />
<text class="station-label" x="722.14" y="520.00" text-anchor="end">Airport</text>
<line class="rass" x1="774" y1="60" x2="798" y2="60" />
<text class="label" x="804" y="64">RASS @ 14:55</text>
<line class="dalr" x1="774" y1="80" x2="798" y2="80" />
<text class="label" x="804" y="84">DALR (9.8 C/km)</text>
<text class="legend-h" x="774" y="122">Stations (PST)</text>
<text class="legend-row" x="774" y="138">La Cumbre @ 15:17 - 8.9C, winds 166, 10g17mph</text>
<text class="legend-row" x="774" y="152">VOR @ 15:00 - 7.6C, winds 154, 7g16mph</text>
<text class="legend-row" x="774" y="166">AntFarm @ 15:00 - 9.9C, winds 056, 7g11mph</text>
<text class="legend-row" x="774" y="180">Montecito @ 14:47 - 12.8C, winds 212, 2g17mph</text>
<text class="legend-row" x="774" y="194">SM Pass @ 14:06 - 13.9C, winds 126, 9g17mph</text>
<text class="legend-row" x="774" y="208">Upper Parma @ 15:00 - 15.2C, winds 211, 3g9mph</text>
<text class="legend-row" x="774" y="222">Romero Cyn @ 15:00 - 14.3C, winds 152, 5g11mph</text>
<text class="legend-row" x="774" y="236">Airport @ 15:05 - 17.0C, winds 210, 7g17mph</text>
</svg>