<svg xmlns="http://www.w3.org/2000/svg" width="1180" height="760" viewBox="0 0 1180 760">
<style>
  .axis { stroke: #202020; stroke-width: 1; }
  .grid { stroke: #dddddd; stroke-width: 1; }
  .title { font-family: Helvetica, Arial, sans-serif; font-size: 16px; font-weight: 600; fill: #111111; }
  .label { font-family: Helvetica, Arial, sans-serif; font-size: 12px; fill: #222222; }
  .legend-h { font-family: Helvetica, Arial, sans-serif; font-size: 12px; font-weight: 600; fill: #222222; }
  .legend-row { font-family: Helvetica, Arial, sans-serif; font-size: 11px; fill: #333333; }
  .rass { fill: none; stroke: #0077b6; stroke-width: 2; }
  .dalr { fill: none; stroke: #d1495b; stroke-width: 2; stroke-dasharray: 6 4; }
  .rass-point { fill: #0077b6; }
  .station { fill: #f4a261; stroke: #8b4c12; stroke-width: 1; }
  .station-label { font-family: Helvetica, Arial, sans-serif; font-size: 11px; fill: #444444; }
</style>
<rect x="0" y="0" width="1180" height="760" fill="#ffffff" />
<text class="title" x="90" y="28">Estimated LCL @ VOR: 1103 m - winds 164, 7g16mph (15:20 PST)</text>
<line class="grid" x1="90" y1="510.00" x2="1110" y2="510.00" />
<text class="label" x="82" y="514.00" text-anchor="end">0</text>
<line class="grid" x1="90" y1="439.23" x2="1110" y2="439.23" />
<text class="label" x="82" y="443.23" text-anchor="end">200</text>
<line class="grid" x1="90" y1="368.46" x2="1110" y2="368.46" />
<text class="label" x="82" y="372.46" text-anchor="end">400</text>
<line class="grid" x1="90" y1="297.69" x2="1110" y2="297.69" />
<text class="label" x="82" y="301.69" text-anchor="end">600</text>
<line class="grid" x1="90" y1="226.92" x2="1110" y2="226.92" />
<text class="label" x="82" y="230.92" text-anchor="end">800</text>
<line class="grid" x1="90" y1="156.15" x2="1110" y2="156.15" />
<text class="label" x="82" y="160.15" text-anchor="end">1000</text>
<line class="grid" x1="90" y1="85.38" x2="1110" y2="85.38" />
<text class="label" x="82" y="89.38" text-anchor="end">1200</text>
<line class="grid" x1="170.67" y1="50" x2="170.67" y2="510" />
<text class="label" x="170.67" y="528" text-anchor="middle">5.0</text>
<line class="grid" x1="541.85" y1="50" x2="541.85" y2="510" />
<text class="label" x="541.85" y="528" text-anchor="middle">10.0</text>
<line class="grid" x1="913.03" y1="50" x2="913.03" y2="510" />
<text class="label" x="913.03" y="528" text-anchor="middle">15.0</text>
<line class="axis" x1="90" y1="50" x2="90" y2="510" />
<line class="axis" x1="90" y1="510" x2="1110" y2="510" />
<text class="label" x="600.00" y="546" text-anchor="middle">Temperature (C)</text>
<text class="label" x="26" y="280.00" text-anchor="middle" transform="rotate(-90 26 280.00)">Altitude (m)</text>
<path class="rass" d="M927.38,439.23 L877.89,403.85 L814.82,368.46 L770.49,333.08 L697.67,297.69 L659.99,262.31 L637.08,226.92 L610.85,191.54" />
<path class="dalr" d="M1072.88,510.00 L127.12,50.00" />
<circle class="rass-point" cx="927.38" cy="439.23" r="2" />
<circle class="rass-point" cx="877.89" cy="403.85" r="2" />
<circle class="rass-point" cx="814.82" cy="368.46" r="2" />
<circle class="rass-point" cx="770.49" cy="333.08" r="2" />
<circle class="rass-point" cx="697.67" cy="297.69" r="2" />
<circle class="rass-point" cx="659.99" cy="262.31" r="2" />
<circle class="rass-point" cx="637.08" cy="226.92" r="2" />
<circle class="rass-point" cx="610.85" cy="191.54" r="2" />
<rect class="station" x="456.36" y="82.03" width="6" height="6" />
<text class="station-label" x="465.36" y="89.03" text-anchor="start">La Cumbre</text>
<rect class="station" x="372.26" y="128.42" width="6" height="6" />
<text class="station-label" x="381.26" y="135.42" text-anchor="start">VOR</text>
<rect class="station" x="534.69" y="253.01" width="6" height="6" />
<text class="station-label" x="543.69" y="260.01" text-anchor="start">AntFarm</text>
<rect class="station" x="745.08" y="332.38" width="6" height="6" />
<text class="station-label" x="754.08" y="339.38" text-anchor="start">Montecito</text>
<rect class="station" x="827.55" y="346.18" width="6" height="6" />
<text class="station-label" x="836.55" y="353.18" text-anchor="start">SM Pass</text>
<rect class="station" x="941.35" y="422.89" width="6" height="6" />
<text class="station-label" x="950.35" y="429.89" text-anchor="start">Upper Parma</text>
<rect class="station" x="852.27" y="416.10" width="6" height="6" />
<text class="station-label" x="861.27" y="447.10" text-anchor="start">Romero Cyn</text>
<rect class="station" x="1058.50" y="505.94" width="6" height="6" />
<text class="station-label" x="1055.50" y="510.00" text-anchor="end">Airport</text>
<line class="rass" x1="90" y1="562" x2="114" y2="562" />
<text class="label" x="120" y="566">RASS @ 14:55</text>
<line class="dalr" x1="90" y1="582" x2="114" y2="582" />
<text class="label" x="120" y="586">DALR (9.8 C/km)</text>
<text class="legend-h" x="90" y="624">Stations (PST)</text>
<text class="legend-row" x="90" y="640">La Cumbre @ 15:33 - 8.9C, winds 190, 9g18mph</text>
<text class="legend-row" x="90" y="654">VOR @ 15:20 - 7.8C, winds 164, 7g16mph</text>
<text class="legend-row" x="90" y="668">AntFarm @ 15:20 - 9.9C, winds 060, 9g15mph</text>
<text class="legend-row" x="90" y="682">Montecito @ 14:47 - 12.8C, winds 212, 2g17mph</text>
<text class="legend-row" x="90" y="696">SM Pass @ 15:06 - 13.9C, winds 139, 8g17mph</text>
<text class="legend-row" x="90" y="710">Upper Parma @ 15:20 - 15.4C, winds 192, 3g7mph</text>
<text class="legend-row" x="90" y="724">Romero Cyn @ 15:20 - 14.2C, winds 152, 5g12mph</text>
<text class="legend-row" x="90" y="738">Airport @ 15:25 - 17.0C, winds 230, 6g17mph</text>
</svg>