<svg xmlns="http://www.w3.org/2000/svg" width="1180" height="760" viewBox="0 0 1180 760">
<style>
  .axis { stroke: #202020; stroke-width: 1; }
  .grid { stroke: #dddddd; stroke-width: 1; }
  .title { font-family: Helvetica, Arial, sans-serif; font-size: 16px; font-weight: 600; fill: #111111; }
  .label { font-family: Helvetica, Arial, sans-serif; font-size: 12px; fill: #222222; }
  .legend-h { font-family: Helvetica, Arial, sans-serif; font-size: 12px; font-weight: 600; fill: #222222; }
  .legend-row { font-family: Helvetica, Arial, sans-serif; font-size: 11px; fill: #333333; }
  .rass { fill: none; stroke: #000000; stroke-width: 2; }
  .dalr { fill: none; stroke: #000000; stroke-width: 1.5; stroke-dasharray: 6 4; stroke-opacity: 0.45; }
  .rass-point { fill: #0077b6; }
  .station { fill: #f4a261; stroke: #8b4c12; stroke-width: 1; }
  .barb-shaft { stroke: #1f2937; stroke-width: 1.3; }
  .barb-feather { stroke: #1f2937; stroke-width: 1.2; }
  .barb-flag { fill: #1f2937; stroke: #1f2937; stroke-width: 1; }
  .station-label { font-family: Helvetica, Arial, sans-serif; font-size: 11px; fill: #444444; }
  .station-dev-pos { font-family: Helvetica, Arial, sans-serif; font-size: 10px; fill: #c62828; }
  .station-dev-neg { font-family: Helvetica, Arial, sans-serif; font-size: 10px; fill: #1565c0; }
  .station-dev-na { font-family: Helvetica, Arial, sans-serif; font-size: 10px; fill: #666666; }
  .rass-dev-pos { font-family: Helvetica, Arial, sans-serif; font-size: 9px; fill: #c62828; }
  .rass-dev-neg { font-family: Helvetica, Arial, sans-serif; font-size: 9px; fill: #1565c0; }
  .rass-dev-na { font-family: Helvetica, Arial, sans-serif; font-size: 9px; fill: #666666; }
</style>
<rect x="0" y="0" width="1180" height="760" fill="#ffffff" />
<text class="title" x="90" y="28">Estimated LCL @ VOR: 3511 ft - winds 213, 10g16mph (00:00 PST)</text>
<line class="grid" x1="90" y1="510.00" x2="1110" y2="510.00" />
<text class="label" x="82" y="514.00" text-anchor="end">0</text>
<line class="grid" x1="90" y1="460.00" x2="1110" y2="460.00" />
<text class="label" x="82" y="464.00" text-anchor="end">500</text>
<line class="grid" x1="90" y1="410.00" x2="1110" y2="410.00" />
<text class="label" x="82" y="414.00" text-anchor="end">1000</text>
<line class="grid" x1="90" y1="360.00" x2="1110" y2="360.00" />
<text class="label" x="82" y="364.00" text-anchor="end">1500</text>
<line class="grid" x1="90" y1="310.00" x2="1110" y2="310.00" />
<text class="label" x="82" y="314.00" text-anchor="end">2000</text>
<line class="grid" x1="90" y1="260.00" x2="1110" y2="260.00" />
<text class="label" x="82" y="264.00" text-anchor="end">2500</text>
<line class="grid" x1="90" y1="210.00" x2="1110" y2="210.00" />
<text class="label" x="82" y="214.00" text-anchor="end">3000</text>
<line class="grid" x1="90" y1="160.00" x2="1110" y2="160.00" />
<text class="label" x="82" y="164.00" text-anchor="end">3500</text>
<line class="grid" x1="90" y1="110.00" x2="1110" y2="110.00" />
<text class="label" x="82" y="114.00" text-anchor="end">4000</text>
<line class="grid" x1="90" y1="60.00" x2="1110" y2="60.00" />
<text class="label" x="82" y="64.00" text-anchor="end">4500</text>
<line class="grid" x1="109.82" y1="50" x2="109.82" y2="510" />
<text class="label" x="109.82" y="528" text-anchor="middle">35.0</text>
<line class="grid" x1="307.19" y1="50" x2="307.19" y2="510" />
<text class="label" x="307.19" y="528" text-anchor="middle">40.0</text>
<line class="grid" x1="504.56" y1="50" x2="504.56" y2="510" />
<text class="label" x="504.56" y="528" text-anchor="middle">45.0</text>
<line class="grid" x1="701.92" y1="50" x2="701.92" y2="510" />
<text class="label" x="701.92" y="528" text-anchor="middle">50.0</text>
<line class="grid" x1="899.29" y1="50" x2="899.29" y2="510" />
<text class="label" x="899.29" y="528" text-anchor="middle">55.0</text>
<line class="grid" x1="1096.66" y1="50" x2="1096.66" y2="510" />
<text class="label" x="1096.66" y="528" text-anchor="middle">60.0</text>
<line class="axis" x1="90" y1="50" x2="90" y2="510" />
<line class="axis" x1="90" y1="510" x2="1110" y2="510" />
<text class="label" x="600.00" y="546" text-anchor="middle">Temperature (F)</text>
<text class="label" x="26" y="280.00" text-anchor="middle" transform="rotate(-90 26 280.00)">Altitude (ft)</text>
<path class="rass" d="M950.40,444.38 L930.07,411.57 L825.34,378.77 L772.48,345.96 L742.57,313.15 L699.08,280.34 L641.46,247.53 L546.89,214.72 L451.46,181.92 L405.14,149.11 L377.14,116.30 L336.22,83.49 L301.61,50.68" />
<path class="dalr" d="M1090.26,510.00 L109.74,50.00" />
<circle class="rass-point" cx="950.40" cy="444.38" r="2" />
<text class="rass-dev-na" x="956.40" y="441.38" text-anchor="start">(n/a)</text>
<circle class="rass-point" cx="930.07" cy="411.57" r="2" />
<text class="rass-dev-pos" x="924.07" y="408.57" text-anchor="end">(+1.3)</text>
<circle class="rass-point" cx="825.34" cy="378.77" r="2" />
<text class="rass-dev-neg" x="831.34" y="375.77" text-anchor="start">(-0.9)</text>
<circle class="rass-point" cx="772.48" cy="345.96" r="2" />
<text class="rass-dev-pos" x="766.48" y="342.96" text-anchor="end">(+0.4)</text>
<circle class="rass-point" cx="742.57" cy="313.15" r="2" />
<text class="rass-dev-pos" x="748.57" y="310.15" text-anchor="start">(+1.0)</text>
<circle class="rass-point" cx="699.08" cy="280.34" r="2" />
<text class="rass-dev-pos" x="693.08" y="277.34" text-anchor="end">(+0.7)</text>
<circle class="rass-point" cx="641.46" cy="247.53" r="2" />
<text class="rass-dev-pos" x="647.46" y="244.53" text-anchor="start">(+0.3)</text>
<circle class="rass-point" cx="546.89" cy="214.72" r="2" />
<text class="rass-dev-neg" x="540.89" y="211.72" text-anchor="end">(-0.6)</text>
<circle class="rass-point" cx="451.46" cy="181.92" r="2" />
<text class="rass-dev-neg" x="457.46" y="178.92" text-anchor="start">(-0.6)</text>
<circle class="rass-point" cx="405.14" cy="149.11" r="2" />
<text class="rass-dev-pos" x="399.14" y="146.11" text-anchor="end">(+0.6)</text>
<circle class="rass-point" cx="377.14" cy="116.30" r="2" />
<text class="rass-dev-pos" x="383.14" y="113.30" text-anchor="start">(+1.1)</text>
<circle class="rass-point" cx="336.22" cy="83.49" r="2" />
<text class="rass-dev-pos" x="330.22" y="80.49" text-anchor="end">(+0.7)</text>
<circle class="rass-point" cx="301.61" cy="50.68" r="2" />
<text class="rass-dev-pos" x="307.61" y="58.00" text-anchor="start">(+0.9)</text>
<rect class="station" x="383.14" y="112.97" width="6" height="6" />
<line class="barb-shaft" x1="386.14" y1="115.97" x2="386.45" y2="133.97" />
<line class="barb-feather" x1="386.45" y1="133.97" x2="379.42" y2="132.09" />
<text class="station-label" x="392.14" y="119.97" text-anchor="start">La Cumbre</text>
<text class="station-dev-na" x="392.14" y="129.97" text-anchor="start"><tspan class="station-dev-pos">(+2.4)</tspan><tspan fill="#444444"> (-57min)</tspan></text>
<rect class="station" x="379.97" y="155.98" width="6" height="6" />
<line class="barb-shaft" x1="382.97" y1="158.98" x2="373.06" y2="174.01" />
<line class="barb-feather" x1="373.06" y1="174.01" x2="368.32" y2="168.49" />
<text class="station-label" x="388.97" y="162.98" text-anchor="start">VOR</text>
<text class="station-dev-na" x="388.97" y="172.98" text-anchor="start"><tspan class="station-dev-pos">(+1.1)</tspan><tspan fill="#444444"> (+40min)</tspan></text>
<rect class="station" x="581.69" y="271.50" width="6" height="6" />
<line class="barb-shaft" x1="584.69" y1="274.50" x2="601.49" y2="268.04" />
<line class="barb-feather" x1="601.49" y1="268.04" x2="601.80" y2="272.21" />
<text class="station-label" x="590.69" y="278.50" text-anchor="start">AntFarm</text>
<text class="station-dev-na" x="590.69" y="288.50" text-anchor="start"><tspan class="station-dev-pos">(+1.7)</tspan><tspan fill="#444444"> (-34min)</tspan></text>
<rect class="station" x="698.92" y="357.89" width="6" height="6" />
<circle class="barb-shaft" cx="701.92" cy="360.89" r="2.5" fill="none" />
<text class="station-label" x="707.92" y="364.89" text-anchor="start">SM Pass</text>
<text class="station-dev-na" x="707.92" y="374.89" text-anchor="start"><tspan class="station-dev-pos">(+0.7)</tspan><tspan fill="#444444"> (+34min)</tspan></text>
<rect class="station" x="822.49" y="429.01" width="6" height="6" />
<circle class="barb-shaft" cx="825.49" cy="432.01" r="2.5" fill="none" />
<text class="station-label" x="831.49" y="436.01" text-anchor="start">Parma</text>
<text class="station-dev-na" x="831.49" y="446.01" text-anchor="start"><tspan class="station-dev-pos">(+3.7)</tspan><tspan fill="#444444"> (+5min)</tspan></text>
<rect class="station" x="841.03" y="506.02" width="6" height="6" />
<circle class="barb-shaft" cx="844.03" cy="509.02" r="2.5" fill="none" />
<text class="station-label" x="850.03" y="498.00" text-anchor="start">Airport</text>
<text class="station-dev-na" x="850.03" y="508.00" text-anchor="start">(n/a)</text>
<line class="rass" x1="90" y1="562" x2="114" y2="562" />
<text class="label" x="120" y="566">RASS @ 23:55</text>
<line class="dalr" x1="310" y1="562" x2="334" y2="562" />
<text class="label" x="340" y="566">DALR (5.4 F/1000 ft)</text>
<text class="legend-h" x="90" y="596">Stations</text>
<text class="legend-row" x="90" y="612"><tspan>La Cumbre 3940ft @ 00:57 - 42.0F, winds 179, 10g15mph, DALR dev </tspan><tspan fill="#c62828">VOR:+2.4F</tspan><tspan>; </tspan><tspan fill="#c62828">AntFarm:+3.5F</tspan><tspan>; </tspan><tspan fill="#c62828">Montecito:+4.5F</tspan><tspan>; </tspan><tspan fill="#c62828">SM Pass:+5.2F</tspan><tspan>; </tspan><tspan fill="#c62828">Parma:+5.9F</tspan><tspan>; </tspan><tspan fill="#c62828">Airport:+9.6F</tspan></text>
<text class="legend-row" x="90" y="626"><tspan>VOR 3510ft @ 00:30 - 41.9F, winds 213, 10g16mph, DALR dev </tspan><tspan fill="#c62828">AntFarm:+1.1F</tspan><tspan>; </tspan><tspan fill="#c62828">Montecito:+2.1F</tspan><tspan>; </tspan><tspan fill="#c62828">SM Pass:+2.8F</tspan><tspan>; </tspan><tspan fill="#c62828">Parma:+3.5F</tspan><tspan>; </tspan><tspan fill="#c62828">Airport:+7.2F</tspan></text>
<text class="legend-row" x="90" y="640"><tspan>AntFarm 2355ft @ 00:40 - 47.0F, winds 069, 3g9mph, DALR dev </tspan><tspan fill="#c62828">Montecito:+1.0F</tspan><tspan>; </tspan><tspan fill="#c62828">SM Pass:+1.7F</tspan><tspan>; </tspan><tspan fill="#c62828">Parma:+2.4F</tspan><tspan>; </tspan><tspan fill="#c62828">Airport:+6.1F</tspan></text>
<text class="legend-row" x="90" y="654"><tspan>Montecito 1619ft @ 23:47 - 50.0F, winds 209, 4g12mph, DALR dev </tspan><tspan fill="#c62828">SM Pass:+0.7F</tspan><tspan>; </tspan><tspan fill="#c62828">Parma:+1.4F</tspan><tspan>; </tspan><tspan fill="#c62828">Airport:+5.1F</tspan></text>
<text class="legend-row" x="90" y="668"><tspan>SM Pass 1491ft @ 00:06 - 50.0F, winds 168, 2g10mph, DALR dev </tspan><tspan fill="#c62828">Parma:+0.7F</tspan><tspan>; </tspan><tspan fill="#c62828">Airport:+4.4F</tspan></text>
<text class="legend-row" x="90" y="682"><tspan>Parma 780ft @ 00:40 - 53.1F, winds 143, 0g1mph, DALR dev </tspan><tspan fill="#c62828">Airport:+3.7F</tspan></text>
<text class="legend-row" x="90" y="696">Airport 10ft @ 00:45 - 53.6F, winds 000, 0g17mph, DALR dev n/a</text>
</svg>