<svg xmlns="http://www.w3.org/2000/svg" width="1180" height="760" viewBox="0 0 1180 760">
<style>
  .axis { stroke: #202020; stroke-width: 1; }
  .grid { stroke: #dddddd; stroke-width: 1; }
  .title { font-family: Helvetica, Arial, sans-serif; font-size: 16px; font-weight: 600; fill: #111111; }
  .label { font-family: Helvetica, Arial, sans-serif; font-size: 12px; fill: #222222; }
  .legend-h { font-family: Helvetica, Arial, sans-serif; font-size: 12px; font-weight: 600; fill: #222222; }
  .legend-row { font-family: Helvetica, Arial, sans-serif; font-size: 11px; fill: #333333; }
  .rass { fill: none; stroke: #000000; stroke-width: 2; }
  .dalr { fill: none; stroke: #000000; stroke-width: 1.5; stroke-dasharray: 6 4; stroke-opacity: 0.45; }
  .rass-point { fill: #0077b6; }
  .station { fill: #f4a261; stroke: #8b4c12; stroke-width: 1; }
  .barb-shaft { stroke: #1f2937; stroke-width: 1.3; }
  .barb-feather { stroke: #1f2937; stroke-width: 1.2; }
  .barb-flag { fill: #1f2937; stroke: #1f2937; stroke-width: 1; }
  .station-label { font-family: Helvetica, Arial, sans-serif; font-size: 11px; fill: #444444; }
  .station-dev-pos { font-family: Helvetica, Arial, sans-serif; font-size: 10px; fill: #c62828; }
  .station-dev-neg { font-family: Helvetica, Arial, sans-serif; font-size: 10px; fill: #1565c0; }
  .station-dev-na { font-family: Helvetica, Arial, sans-serif; font-size: 10px; fill: #666666; }
  .rass-dev-pos { font-family: Helvetica, Arial, sans-serif; font-size: 9px; fill: #c62828; }
  .rass-dev-neg { font-family: Helvetica, Arial, sans-serif; font-size: 9px; fill: #1565c0; }
  .rass-dev-na { font-family: Helvetica, Arial, sans-serif; font-size: 9px; fill: #666666; }
</style>
<rect x="0" y="0" width="1180" height="760" fill="#ffffff" />
<text class="title" x="90" y="28">Estimated LCL @ VOR: 3538 ft - winds 150, 7g15mph (20:10 PST)</text>
<line class="grid" x1="90" y1="510.00" x2="1110" y2="510.00" />
<text class="label" x="82" y="514.00" text-anchor="end">0</text>
<line class="grid" x1="90" y1="456.51" x2="1110" y2="456.51" />
<text class="label" x="82" y="460.51" text-anchor="end">500</text>
<line class="grid" x1="90" y1="403.02" x2="1110" y2="403.02" />
<text class="label" x="82" y="407.02" text-anchor="end">1000</text>
<line class="grid" x1="90" y1="349.53" x2="1110" y2="349.53" />
<text class="label" x="82" y="353.53" text-anchor="end">1500</text>
<line class="grid" x1="90" y1="296.05" x2="1110" y2="296.05" />
<text class="label" x="82" y="300.05" text-anchor="end">2000</text>
<line class="grid" x1="90" y1="242.56" x2="1110" y2="242.56" />
<text class="label" x="82" y="246.56" text-anchor="end">2500</text>
<line class="grid" x1="90" y1="189.07" x2="1110" y2="189.07" />
<text class="label" x="82" y="193.07" text-anchor="end">3000</text>
<line class="grid" x1="90" y1="135.58" x2="1110" y2="135.58" />
<text class="label" x="82" y="139.58" text-anchor="end">3500</text>
<line class="grid" x1="90" y1="82.09" x2="1110" y2="82.09" />
<text class="label" x="82" y="86.09" text-anchor="end">4000</text>
<line class="grid" x1="238.41" y1="50" x2="238.41" y2="510" />
<text class="label" x="238.41" y="528" text-anchor="middle">40.0</text>
<line class="grid" x1="448.97" y1="50" x2="448.97" y2="510" />
<text class="label" x="448.97" y="528" text-anchor="middle">45.0</text>
<line class="grid" x1="659.54" y1="50" x2="659.54" y2="510" />
<text class="label" x="659.54" y="528" text-anchor="middle">50.0</text>
<line class="grid" x1="870.11" y1="50" x2="870.11" y2="510" />
<text class="label" x="870.11" y="528" text-anchor="middle">55.0</text>
<line class="grid" x1="1080.68" y1="50" x2="1080.68" y2="510" />
<text class="label" x="1080.68" y="528" text-anchor="middle">60.0</text>
<line class="axis" x1="90" y1="50" x2="90" y2="510" />
<line class="axis" x1="90" y1="510" x2="1110" y2="510" />
<text class="label" x="600.00" y="546" text-anchor="middle">Temperature (F)</text>
<text class="label" x="26" y="280.00" text-anchor="middle" transform="rotate(-90 26 280.00)">Altitude (ft)</text>
<path class="rass" d="M939.72,439.81 L910.84,404.71 L868.08,369.61 L791.98,334.51 L706.32,299.42 L643.09,264.32 L596.32,229.22 L547.88,194.12 L492.17,159.03 L461.09,123.93 L450.78,88.83 L436.00,53.73" />
<path class="dalr" d="M1088.94,510.00 L111.06,50.00" />
<circle class="rass-point" cx="939.72" cy="439.81" r="2" />
<text class="rass-dev-na" x="945.72" y="436.81" text-anchor="start">(n/a)</text>
<circle class="rass-point" cx="910.84" cy="404.71" r="2" />
<text class="rass-dev-pos" x="904.84" y="401.71" text-anchor="end">(+1.1)</text>
<circle class="rass-point" cx="868.08" cy="369.61" r="2" />
<text class="rass-dev-pos" x="874.08" y="366.61" text-anchor="start">(+0.8)</text>
<circle class="rass-point" cx="791.98" cy="334.51" r="2" />
<text class="rass-dev-neg" x="785.98" y="331.51" text-anchor="end">(-0.0)</text>
<circle class="rass-point" cx="706.32" cy="299.42" r="2" />
<text class="rass-dev-neg" x="712.32" y="296.42" text-anchor="start">(-0.3)</text>
<circle class="rass-point" cx="643.09" cy="264.32" r="2" />
<text class="rass-dev-pos" x="637.09" y="261.32" text-anchor="end">(+0.3)</text>
<circle class="rass-point" cx="596.32" cy="229.22" r="2" />
<text class="rass-dev-pos" x="602.32" y="226.22" text-anchor="start">(+0.7)</text>
<circle class="rass-point" cx="547.88" cy="194.12" r="2" />
<text class="rass-dev-pos" x="541.88" y="191.12" text-anchor="end">(+0.6)</text>
<circle class="rass-point" cx="492.17" cy="159.03" r="2" />
<text class="rass-dev-pos" x="498.17" y="156.03" text-anchor="start">(+0.4)</text>
<circle class="rass-point" cx="461.09" cy="123.93" r="2" />
<text class="rass-dev-pos" x="455.09" y="120.93" text-anchor="end">(+1.0)</text>
<circle class="rass-point" cx="450.78" cy="88.83" r="2" />
<text class="rass-dev-pos" x="456.78" y="85.83" text-anchor="start">(+1.5)</text>
<circle class="rass-point" cx="436.00" cy="53.73" r="2" />
<text class="rass-dev-pos" x="430.00" y="58.00" text-anchor="end">(+1.4)</text>
<rect class="station" x="361.75" y="85.48" width="6" height="6" />
<line class="barb-shaft" x1="364.75" y1="88.48" x2="364.12" y2="106.47" />
<line class="barb-feather" x1="364.12" y1="106.47" x2="357.19" y2="104.23" />
<text class="station-label" x="370.75" y="92.48" text-anchor="start">La Cumbre</text>
<text class="station-dev-na" x="370.75" y="102.48" text-anchor="start"><tspan class="station-dev-pos">(+2.6)</tspan><tspan fill="#444444"> (20:31)</tspan></text>
<rect class="station" x="348.70" y="131.49" width="6" height="6" />
<line class="barb-shaft" x1="351.70" y1="134.49" x2="360.64" y2="150.11" />
<line class="barb-feather" x1="360.64" y1="150.11" x2="356.58" y2="151.06" />
<text class="station-label" x="357.70" y="138.49" text-anchor="start">VOR</text>
<text class="station-dev-na" x="357.70" y="148.49" text-anchor="start"><tspan class="station-dev-pos">(+0.8)</tspan><tspan fill="#444444"> (20:10)</tspan></text>
<rect class="station" x="578.62" y="255.07" width="6" height="6" />
<line class="barb-shaft" x1="581.62" y1="258.07" x2="597.21" y2="249.08" />
<line class="barb-feather" x1="597.21" y1="249.08" x2="598.98" y2="256.15" />
<text class="station-label" x="587.62" y="262.07" text-anchor="start">AntFarm</text>
<text class="station-dev-na" x="587.62" y="272.07" text-anchor="start"><tspan class="station-dev-pos">(+1.1)</tspan><tspan fill="#444444"> (20:10)</tspan></text>
<rect class="station" x="698.69" y="333.79" width="6" height="6" />
<line class="barb-shaft" x1="701.69" y1="336.79" x2="702.32" y2="354.78" />
<line class="barb-feather" x1="702.32" y1="354.78" x2="698.28" y2="353.72" />
<text class="station-label" x="707.69" y="340.79" text-anchor="start">Montecito</text>
<text class="station-dev-na" x="707.69" y="350.79" text-anchor="start"><tspan class="station-dev-pos">(+0.1)</tspan><tspan fill="#444444"> (19:47)</tspan></text>
<rect class="station" x="861.67" y="423.57" width="6" height="6" />
<circle class="barb-shaft" cx="864.67" cy="426.57" r="2.5" fill="none" />
<text class="station-label" x="870.67" y="430.57" text-anchor="start">Parma</text>
<text class="station-dev-na" x="870.67" y="440.57" text-anchor="start"><tspan class="station-dev-pos">(+3.6)</tspan><tspan fill="#444444"> (20:10)</tspan></text>
<rect class="station" x="872.59" y="416.83" width="6" height="6" />
<circle class="barb-shaft" cx="875.59" cy="419.83" r="2.5" fill="none" />
<text class="station-label" x="881.59" y="459.83" text-anchor="start">Romero Cyn</text>
<text class="station-dev-na" x="881.59" y="469.83" text-anchor="start"><tspan class="station-dev-pos">(+0.6)</tspan><tspan fill="#444444"> (20:10)</tspan></text>
<rect class="station" x="883.96" y="505.95" width="6" height="6" />
<circle class="barb-shaft" cx="886.96" cy="508.95" r="2.5" fill="none" />
<text class="station-label" x="892.96" y="498.00" text-anchor="start">Airport</text>
<text class="station-dev-na" x="892.96" y="508.00" text-anchor="start"><tspan class="station-dev-na">(n/a)</tspan><tspan fill="#444444"> (20:15)</tspan></text>
<line class="rass" x1="90" y1="562" x2="114" y2="562" />
<text class="label" x="120" y="566">RASS @ 19:55</text>
<line class="dalr" x1="310" y1="562" x2="334" y2="562" />
<text class="label" x="340" y="566">DALR (5.4 F/1000 ft)</text>
<text class="legend-h" x="90" y="596">Stations</text>
<text class="legend-row" x="90" y="612"><tspan>La Cumbre @ 20:31 - 43.0F, winds 182, 12g22mph, DALR dev </tspan><tspan fill="#c62828">VOR:+2.6F</tspan><tspan>; </tspan><tspan fill="#c62828">AntFarm:+3.4F</tspan><tspan>; </tspan><tspan fill="#c62828">Montecito:+4.5F</tspan><tspan>; </tspan><tspan fill="#c62828">SM Pass:+4.2F</tspan><tspan>; </tspan><tspan fill="#c62828">Romero Cyn:+4.6F</tspan><tspan>; </tspan><tspan fill="#c62828">Parma:+5.2F</tspan><tspan>; </tspan><tspan fill="#c62828">Airport:+8.8F</tspan></text>
<text class="legend-row" x="90" y="626"><tspan>VOR @ 20:10 - 42.7F, winds 150, 7g15mph, DALR dev </tspan><tspan fill="#c62828">AntFarm:+0.8F</tspan><tspan>; </tspan><tspan fill="#c62828">Montecito:+1.9F</tspan><tspan>; </tspan><tspan fill="#c62828">SM Pass:+1.6F</tspan><tspan>; </tspan><tspan fill="#c62828">Romero Cyn:+2.0F</tspan><tspan>; </tspan><tspan fill="#c62828">Parma:+2.6F</tspan><tspan>; </tspan><tspan fill="#c62828">Airport:+6.2F</tspan></text>
<text class="legend-row" x="90" y="640"><tspan>AntFarm @ 20:10 - 48.1F, winds 060, 9g15mph, DALR dev </tspan><tspan fill="#c62828">Montecito:+1.1F</tspan><tspan>; </tspan><tspan fill="#c62828">SM Pass:+0.8F</tspan><tspan>; </tspan><tspan fill="#c62828">Romero Cyn:+1.2F</tspan><tspan>; </tspan><tspan fill="#c62828">Parma:+1.8F</tspan><tspan>; </tspan><tspan fill="#c62828">Airport:+5.4F</tspan></text>
<text class="legend-row" x="90" y="654"><tspan>Montecito @ 19:47 - 51.0F, winds 178, 4g11mph, DALR dev </tspan><tspan fill="#1565c0">SM Pass:-0.3F</tspan><tspan>; </tspan><tspan fill="#c62828">Romero Cyn:+0.1F</tspan><tspan>; </tspan><tspan fill="#c62828">Parma:+0.7F</tspan><tspan>; </tspan><tspan fill="#c62828">Airport:+4.3F</tspan></text>
<text class="legend-row" x="90" y="668"><tspan>SM Pass @ 20:06 - 52.0F, winds 137, 4g9mph, DALR dev </tspan><tspan fill="#c62828">Romero Cyn:+0.4F</tspan><tspan>; </tspan><tspan fill="#c62828">Parma:+1.0F</tspan><tspan>; </tspan><tspan fill="#c62828">Airport:+4.6F</tspan></text>
<text class="legend-row" x="90" y="682"><tspan>Parma @ 20:10 - 54.9F, winds 198, 1g3mph, DALR dev </tspan><tspan fill="#c62828">Airport:+3.6F</tspan></text>
<text class="legend-row" x="90" y="696"><tspan>Romero Cyn @ 20:10 - 55.1F, winds 160, 2g6mph, DALR dev </tspan><tspan fill="#c62828">Parma:+0.6F</tspan><tspan>; </tspan><tspan fill="#c62828">Airport:+4.2F</tspan></text>
<text class="legend-row" x="90" y="710">Airport @ 20:15 - 55.4F, winds 000, 0g17mph, DALR dev n/a</text>
</svg>