<svg xmlns="http://www.w3.org/2000/svg" width="1180" height="760" viewBox="0 0 1180 760">
<style>
  .axis { stroke: #202020; stroke-width: 1; }
  .grid { stroke: #dddddd; stroke-width: 1; }
  .title { font-family: Helvetica, Arial, sans-serif; font-size: 16px; font-weight: 600; fill: #111111; }
  .label { font-family: Helvetica, Arial, sans-serif; font-size: 12px; fill: #222222; }
  .legend-h { font-family: Helvetica, Arial, sans-serif; font-size: 12px; font-weight: 600; fill: #222222; }
  .legend-row { font-family: Helvetica, Arial, sans-serif; font-size: 11px; fill: #333333; }
  .rass { fill: none; stroke: #000000; stroke-width: 2; }
  .dalr { fill: none; stroke: #000000; stroke-width: 1.5; stroke-dasharray: 6 4; stroke-opacity: 0.45; }
  .rass-point { fill: #0077b6; }
  .station { fill: #f4a261; stroke: #8b4c12; stroke-width: 1; }
  .barb-shaft { stroke: #1f2937; stroke-width: 1.3; }
  .barb-feather { stroke: #1f2937; stroke-width: 1.2; }
  .barb-flag { fill: #1f2937; stroke: #1f2937; stroke-width: 1; }
  .station-label { font-family: Helvetica, Arial, sans-serif; font-size: 11px; fill: #444444; }
  .station-dev-pos { font-family: Helvetica, Arial, sans-serif; font-size: 10px; fill: #c62828; }
  .station-dev-neg { font-family: Helvetica, Arial, sans-serif; font-size: 10px; fill: #1565c0; }
  .station-dev-na { font-family: Helvetica, Arial, sans-serif; font-size: 10px; fill: #666666; }
  .rass-dev-pos { font-family: Helvetica, Arial, sans-serif; font-size: 9px; fill: #c62828; }
  .rass-dev-neg { font-family: Helvetica, Arial, sans-serif; font-size: 9px; fill: #1565c0; }
  .rass-dev-na { font-family: Helvetica, Arial, sans-serif; font-size: 9px; fill: #666666; }
</style>
<rect x="0" y="0" width="1180" height="760" fill="#ffffff" />
<text class="title" x="90" y="28">Estimated LCL @ VOR: 1070 m - winds 213, 12g16mph (00:40 PST)</text>
<line class="grid" x1="90" y1="510.00" x2="1110" y2="510.00" />
<text class="label" x="82" y="514.00" text-anchor="end">0</text>
<line class="grid" x1="90" y1="452.50" x2="1110" y2="452.50" />
<text class="label" x="82" y="456.50" text-anchor="end">200</text>
<line class="grid" x1="90" y1="395.00" x2="1110" y2="395.00" />
<text class="label" x="82" y="399.00" text-anchor="end">400</text>
<line class="grid" x1="90" y1="337.50" x2="1110" y2="337.50" />
<text class="label" x="82" y="341.50" text-anchor="end">600</text>
<line class="grid" x1="90" y1="280.00" x2="1110" y2="280.00" />
<text class="label" x="82" y="284.00" text-anchor="end">800</text>
<line class="grid" x1="90" y1="222.50" x2="1110" y2="222.50" />
<text class="label" x="82" y="226.50" text-anchor="end">1000</text>
<line class="grid" x1="90" y1="165.00" x2="1110" y2="165.00" />
<text class="label" x="82" y="169.00" text-anchor="end">1200</text>
<line class="grid" x1="90" y1="107.50" x2="1110" y2="107.50" />
<text class="label" x="82" y="111.50" text-anchor="end">1400</text>
<line class="grid" x1="90" y1="50.00" x2="1110" y2="50.00" />
<text class="label" x="82" y="54.00" text-anchor="end">1600</text>
<line class="grid" x1="128.40" y1="50" x2="128.40" y2="510" />
<text class="label" x="128.40" y="528" text-anchor="middle">0.0</text>
<line class="grid" x1="434.16" y1="50" x2="434.16" y2="510" />
<text class="label" x="434.16" y="528" text-anchor="middle">5.0</text>
<line class="grid" x1="739.91" y1="50" x2="739.91" y2="510" />
<text class="label" x="739.91" y="528" text-anchor="middle">10.0</text>
<line class="grid" x1="1045.67" y1="50" x2="1045.67" y2="510" />
<text class="label" x="1045.67" y="528" text-anchor="middle">15.0</text>
<line class="axis" x1="90" y1="50" x2="90" y2="510" />
<line class="axis" x1="90" y1="510" x2="1110" y2="510" />
<text class="label" x="600.00" y="546" text-anchor="middle">Temperature (C)</text>
<text class="label" x="26" y="280.00" text-anchor="middle" transform="rotate(-90 26 280.00)">Altitude (m)</text>
<path class="rass" d="M959.57,452.50 L912.97,423.75 L855.24,395.00 L807.61,366.25 L761.01,337.50 L719.12,308.75 L673.93,280.00 L610.82,251.25 L544.35,222.50 L501.73,193.75 L459.29,165.00 L405.42,136.25 L350.08,107.50 L303.29,78.75 L272.66,50.00" />
<path class="dalr" d="M1079.42,510.00 L120.58,50.00" />
<circle class="rass-point" cx="959.57" cy="452.50" r="2" />
<text class="rass-dev-na" x="965.57" y="449.50" text-anchor="start">(n/a)</text>
<circle class="rass-point" cx="912.97" cy="423.75" r="2" />
<text class="rass-dev-pos" x="906.97" y="420.75" text-anchor="end">(+0.2)</text>
<circle class="rass-point" cx="855.24" cy="395.00" r="2" />
<text class="rass-dev-pos" x="861.24" y="392.00" text-anchor="start">(+0.0)</text>
<circle class="rass-point" cx="807.61" cy="366.25" r="2" />
<text class="rass-dev-pos" x="801.61" y="363.25" text-anchor="end">(+0.2)</text>
<circle class="rass-point" cx="761.01" cy="337.50" r="2" />
<text class="rass-dev-pos" x="767.01" y="334.50" text-anchor="start">(+0.2)</text>
<circle class="rass-point" cx="719.12" cy="308.75" r="2" />
<text class="rass-dev-pos" x="713.12" y="305.75" text-anchor="end">(+0.3)</text>
<circle class="rass-point" cx="673.93" cy="280.00" r="2" />
<text class="rass-dev-pos" x="679.93" y="277.00" text-anchor="start">(+0.2)</text>
<circle class="rass-point" cx="610.82" cy="251.25" r="2" />
<text class="rass-dev-neg" x="604.82" y="248.25" text-anchor="end">(-0.1)</text>
<circle class="rass-point" cx="544.35" cy="222.50" r="2" />
<text class="rass-dev-neg" x="550.35" y="219.50" text-anchor="start">(-0.1)</text>
<circle class="rass-point" cx="501.73" cy="193.75" r="2" />
<text class="rass-dev-pos" x="495.73" y="190.75" text-anchor="end">(+0.3)</text>
<circle class="rass-point" cx="459.29" cy="165.00" r="2" />
<text class="rass-dev-pos" x="465.29" y="162.00" text-anchor="start">(+0.3)</text>
<circle class="rass-point" cx="405.42" cy="136.25" r="2" />
<text class="rass-dev-pos" x="399.42" y="133.25" text-anchor="end">(+0.1)</text>
<circle class="rass-point" cx="350.08" cy="107.50" r="2" />
<text class="rass-dev-pos" x="356.08" y="104.50" text-anchor="start">(+0.1)</text>
<circle class="rass-point" cx="303.29" cy="78.75" r="2" />
<text class="rass-dev-pos" x="297.29" y="75.75" text-anchor="end">(+0.2)</text>
<circle class="rass-point" cx="272.66" cy="50.00" r="2" />
<text class="rass-dev-pos" x="278.66" y="58.00" text-anchor="start">(+0.5)</text>
<rect class="station" x="465.13" y="161.71" width="6" height="6" />
<line class="barb-shaft" x1="468.13" y1="164.71" x2="465.94" y2="182.58" />
<line class="barb-feather" x1="465.94" y1="182.58" x2="459.23" y2="179.74" />
<text class="station-label" x="474.13" y="168.71" text-anchor="start">La Cumbre</text>
<text class="station-dev-na" x="474.13" y="178.71" text-anchor="start"><tspan class="station-dev-pos">(+1.6)</tspan><tspan fill="#444444"> (-33min)</tspan></text>
<rect class="station" x="443.02" y="199.40" width="6" height="6" />
<line class="barb-shaft" x1="446.02" y1="202.40" x2="436.27" y2="217.53" />
<line class="barb-feather" x1="436.27" y1="217.53" x2="431.47" y2="212.06" />
<text class="station-label" x="452.02" y="206.40" text-anchor="start">VOR</text>
<text class="station-dev-na" x="452.02" y="216.40" text-anchor="start"><tspan class="station-dev-pos">(+0.6)</tspan><tspan fill="#444444"> (+20min)</tspan></text>
<rect class="station" x="619.01" y="300.63" width="6" height="6" />
<circle class="barb-shaft" cx="622.01" cy="303.63" r="2.5" fill="none" />
<text class="station-label" x="628.01" y="307.63" text-anchor="start">AntFarm</text>
<text class="station-dev-na" x="628.01" y="317.63" text-anchor="start"><tspan class="station-dev-pos">(+0.8)</tspan><tspan fill="#444444"> (-13min)</tspan></text>
<rect class="station" x="702.91" y="365.12" width="6" height="6" />
<line class="barb-shaft" x1="705.91" y1="368.12" x2="700.65" y2="385.33" />
<line class="barb-feather" x1="700.65" y1="385.33" x2="697.18" y2="383.02" />
<text class="station-label" x="711.91" y="372.12" text-anchor="start">Montecito</text>
<text class="station-dev-na" x="711.91" y="382.12" text-anchor="start"><tspan class="station-dev-pos">(+0.4)</tspan><tspan fill="#444444"> (+13min)</tspan></text>
<rect class="station" x="829.01" y="438.66" width="6" height="6" />
<circle class="barb-shaft" cx="832.01" cy="441.66" r="2.5" fill="none" />
<text class="station-label" x="838.01" y="445.66" text-anchor="start">Parma</text>
<text class="station-dev-na" x="838.01" y="455.66" text-anchor="start"><tspan class="station-dev-pos">(+0.8)</tspan><tspan fill="#444444"> (+0min)</tspan></text>
<rect class="station" x="920.37" y="506.14" width="6" height="6" />
<line class="barb-shaft" x1="923.37" y1="509.14" x2="934.94" y2="495.35" />
<line class="barb-feather" x1="934.94" y1="495.35" x2="937.23" y2="498.84" />
<text class="station-label" x="929.37" y="498.00" text-anchor="start">Airport</text>
<text class="station-dev-na" x="929.37" y="508.00" text-anchor="start">(n/a)</text>
<line class="rass" x1="90" y1="562" x2="114" y2="562" />
<text class="label" x="120" y="566">RASS @ 00:55</text>
<line class="dalr" x1="310" y1="562" x2="334" y2="562" />
<text class="label" x="340" y="566">DALR (9.8 C/km)</text>
<text class="legend-h" x="90" y="596">Stations</text>
<text class="legend-row" x="90" y="612"><tspan>La Cumbre 1201m @ 01:13 - 5.6C, winds 187, 12g12mph, DALR dev </tspan><tspan fill="#c62828">VOR:+1.6C</tspan><tspan>; </tspan><tspan fill="#c62828">AntFarm:+2.2C</tspan><tspan>; </tspan><tspan fill="#c62828">Montecito:+3.0C</tspan><tspan>; </tspan><tspan fill="#c62828">SM Pass:+2.9C</tspan><tspan>; </tspan><tspan fill="#c62828">Parma:+3.5C</tspan><tspan>; </tspan><tspan fill="#c62828">Airport:+4.3C</tspan></text>
<text class="legend-row" x="90" y="626"><tspan>VOR 1070m @ 00:40 - 5.2C, winds 213, 12g16mph, DALR dev </tspan><tspan fill="#c62828">AntFarm:+0.6C</tspan><tspan>; </tspan><tspan fill="#c62828">Montecito:+1.4C</tspan><tspan>; </tspan><tspan fill="#c62828">SM Pass:+1.2C</tspan><tspan>; </tspan><tspan fill="#c62828">Parma:+1.8C</tspan><tspan>; </tspan><tspan fill="#c62828">Airport:+2.6C</tspan></text>
<text class="legend-row" x="90" y="640"><tspan>AntFarm 718m @ 01:00 - 8.1C, winds 262, 2g5mph, DALR dev </tspan><tspan fill="#c62828">Montecito:+0.8C</tspan><tspan>; </tspan><tspan fill="#c62828">SM Pass:+0.7C</tspan><tspan>; </tspan><tspan fill="#c62828">Parma:+1.3C</tspan><tspan>; </tspan><tspan fill="#c62828">Airport:+2.1C</tspan></text>
<text class="legend-row" x="90" y="654"><tspan>Montecito 494m @ 00:47 - 9.4C, winds 197, 5g9mph, DALR dev </tspan><tspan fill="#1565c0">SM Pass:-0.2C</tspan><tspan>; </tspan><tspan fill="#c62828">Parma:+0.4C</tspan><tspan>; </tspan><tspan fill="#c62828">Airport:+1.3C</tspan></text>
<text class="legend-row" x="90" y="668"><tspan>SM Pass 454m @ 00:06 - 10.0C, winds 168, 2g10mph, DALR dev </tspan><tspan fill="#c62828">Parma:+0.6C</tspan><tspan>; </tspan><tspan fill="#c62828">Airport:+1.4C</tspan></text>
<text class="legend-row" x="90" y="682"><tspan>Parma 238m @ 01:00 - 11.5C, winds 011, 0g1mph, DALR dev </tspan><tspan fill="#c62828">Airport:+0.8C</tspan></text>
<text class="legend-row" x="90" y="696">Airport 3m @ 01:00 - 13.0C, winds 040, 6g17mph, DALR dev n/a</text>
</svg>