<svg xmlns="http://www.w3.org/2000/svg" width="1180" height="760" viewBox="0 0 1180 760">
<style>
  .axis { stroke: #202020; stroke-width: 1; }
  .grid { stroke: #dddddd; stroke-width: 1; }
  .title { font-family: Helvetica, Arial, sans-serif; font-size: 16px; font-weight: 600; fill: #111111; }
  .label { font-family: Helvetica, Arial, sans-serif; font-size: 12px; fill: #222222; }
  .legend-h { font-family: Helvetica, Arial, sans-serif; font-size: 12px; font-weight: 600; fill: #222222; }
  .legend-row { font-family: Helvetica, Arial, sans-serif; font-size: 11px; fill: #333333; }
  .rass { fill: none; stroke: #000000; stroke-width: 2; }
  .dalr { fill: none; stroke: #000000; stroke-width: 1.5; stroke-dasharray: 6 4; stroke-opacity: 0.45; }
  .rass-point { fill: #0077b6; }
  .station { fill: #f4a261; stroke: #8b4c12; stroke-width: 1; }
  .barb-shaft { stroke: #1f2937; stroke-width: 1.3; }
  .barb-feather { stroke: #1f2937; stroke-width: 1.2; }
  .barb-flag { fill: #1f2937; stroke: #1f2937; stroke-width: 1; }
  .station-label { font-family: Helvetica, Arial, sans-serif; font-size: 11px; fill: #444444; }
  .station-dev-pos { font-family: Helvetica, Arial, sans-serif; font-size: 10px; fill: #c62828; }
  .station-dev-neg { font-family: Helvetica, Arial, sans-serif; font-size: 10px; fill: #1565c0; }
  .station-dev-na { font-family: Helvetica, Arial, sans-serif; font-size: 10px; fill: #666666; }
  .rass-dev-pos { font-family: Helvetica, Arial, sans-serif; font-size: 9px; fill: #c62828; }
  .rass-dev-neg { font-family: Helvetica, Arial, sans-serif; font-size: 9px; fill: #1565c0; }
  .rass-dev-na { font-family: Helvetica, Arial, sans-serif; font-size: 9px; fill: #666666; }
</style>
<rect x="0" y="0" width="1180" height="760" fill="#ffffff" />
<text class="title" x="90" y="28">Estimated LCL @ VOR: missing - winds 164, 8g14mph</text>
<line class="grid" x1="90" y1="510.00" x2="1110" y2="510.00" />
<text class="label" x="82" y="514.00" text-anchor="end">0</text>
<line class="grid" x1="90" y1="439.23" x2="1110" y2="439.23" />
<text class="label" x="82" y="443.23" text-anchor="end">200</text>
<line class="grid" x1="90" y1="368.46" x2="1110" y2="368.46" />
<text class="label" x="82" y="372.46" text-anchor="end">400</text>
<line class="grid" x1="90" y1="297.69" x2="1110" y2="297.69" />
<text class="label" x="82" y="301.69" text-anchor="end">600</text>
<line class="grid" x1="90" y1="226.92" x2="1110" y2="226.92" />
<text class="label" x="82" y="230.92" text-anchor="end">800</text>
<line class="grid" x1="90" y1="156.15" x2="1110" y2="156.15" />
<text class="label" x="82" y="160.15" text-anchor="end">1000</text>
<line class="grid" x1="90" y1="85.38" x2="1110" y2="85.38" />
<text class="label" x="82" y="89.38" text-anchor="end">1200</text>
<line class="grid" x1="281.81" y1="50" x2="281.81" y2="510" />
<text class="label" x="281.81" y="528" text-anchor="middle">5.0</text>
<line class="grid" x1="652.99" y1="50" x2="652.99" y2="510" />
<text class="label" x="652.99" y="528" text-anchor="middle">10.0</text>
<line class="grid" x1="1024.17" y1="50" x2="1024.17" y2="510" />
<text class="label" x="1024.17" y="528" text-anchor="middle">15.0</text>
<line class="axis" x1="90" y1="50" x2="90" y2="510" />
<line class="axis" x1="90" y1="510" x2="1110" y2="510" />
<text class="label" x="600.00" y="546" text-anchor="middle">Temperature (C)</text>
<text class="label" x="26" y="280.00" text-anchor="middle" transform="rotate(-90 26 280.00)">Altitude (m)</text>
<path class="rass" d="M927.38,439.23 L899.10,403.85 L864.03,368.46 L835.12,333.08 L758.19,297.69 L667.63,262.31 L559.59,226.92 L506.71,191.54 L468.83,156.15 L417.49,120.77" />
<path class="dalr" d="M1072.88,510.00 L127.12,50.00" />
<circle class="rass-point" cx="927.38" cy="439.23" r="2" />
<text class="rass-dev-na" x="933.38" y="436.23" text-anchor="start">(n/a)</text>
<circle class="rass-point" cx="899.10" cy="403.85" r="2" />
<text class="rass-dev-pos" x="893.10" y="400.85" text-anchor="end">(+0.6)</text>
<circle class="rass-point" cx="864.03" cy="368.46" r="2" />
<text class="rass-dev-pos" x="870.03" y="365.46" text-anchor="start">(+0.5)</text>
<circle class="rass-point" cx="835.12" cy="333.08" r="2" />
<text class="rass-dev-pos" x="829.12" y="330.08" text-anchor="end">(+0.6)</text>
<circle class="rass-point" cx="758.19" cy="297.69" r="2" />
<text class="rass-dev-neg" x="764.19" y="294.69" text-anchor="start">(-0.1)</text>
<circle class="rass-point" cx="667.63" cy="262.31" r="2" />
<text class="rass-dev-neg" x="661.63" y="259.31" text-anchor="end">(-0.2)</text>
<circle class="rass-point" cx="559.59" cy="226.92" r="2" />
<text class="rass-dev-neg" x="565.59" y="223.92" text-anchor="start">(-0.5)</text>
<circle class="rass-point" cx="506.71" cy="191.54" r="2" />
<text class="rass-dev-pos" x="500.71" y="188.54" text-anchor="end">(+0.3)</text>
<circle class="rass-point" cx="468.83" cy="156.15" r="2" />
<text class="rass-dev-pos" x="474.83" y="153.15" text-anchor="start">(+0.5)</text>
<circle class="rass-point" cx="417.49" cy="120.77" r="2" />
<text class="rass-dev-pos" x="411.49" y="117.77" text-anchor="end">(+0.3)</text>
<rect class="station" x="320.05" y="82.03" width="6" height="6" />
<line class="barb-shaft" x1="323.05" y1="85.03" x2="322.11" y2="103.01" />
<line class="barb-feather" x1="322.11" y1="103.01" x2="315.23" y2="100.64" />
<line class="barb-feather" x1="322.32" y1="99.01" x2="318.39" y2="97.60" />
<text class="station-label" x="329.05" y="89.03" text-anchor="start">La Cumbre</text>
<text class="station-dev-na" x="329.05" y="99.03" text-anchor="start"><tspan class="station-dev-pos">(+2.3)</tspan><tspan fill="#444444"> (-12min)</tspan></text>
<rect class="station" x="501.07" y="253.01" width="6" height="6" />
<line class="barb-shaft" x1="504.07" y1="256.01" x2="519.70" y2="247.08" />
<line class="barb-feather" x1="519.70" y1="247.08" x2="521.44" y2="254.15" />
<text class="station-label" x="510.07" y="260.01" text-anchor="start">AntFarm</text>
<text class="station-dev-na" x="510.07" y="270.01" text-anchor="start"><tspan class="station-dev-pos">(+0.2)</tspan><tspan fill="#444444"> (-43min)</tspan></text>
<rect class="station" x="649.99" y="332.38" width="6" height="6" />
<line class="barb-shaft" x1="652.99" y1="335.38" x2="669.43" y2="328.06" />
<line class="barb-feather" x1="669.43" y1="328.06" x2="669.96" y2="332.20" />
<text class="station-label" x="658.99" y="339.38" text-anchor="start">Montecito</text>
<text class="station-dev-na" x="658.99" y="349.38" text-anchor="start"><tspan class="station-dev-pos">(+0.4)</tspan><tspan fill="#444444"> (+19min)</tspan></text>
<rect class="station" x="649.99" y="346.18" width="6" height="6" />
<line class="barb-shaft" x1="652.99" y1="349.18" x2="670.38" y2="353.84" />
<line class="barb-feather" x1="670.38" y1="353.84" x2="668.18" y2="357.39" />
<text class="station-label" x="658.99" y="365.18" text-anchor="start">SM Pass</text>
<text class="station-dev-na" x="658.99" y="375.18" text-anchor="start"><tspan class="station-dev-pos">(+0.1)</tspan><tspan fill="#444444"> (+24min)</tspan></text>
<rect class="station" x="801.73" y="422.89" width="6" height="6" />
<circle class="barb-shaft" cx="804.73" cy="425.89" r="2.5" fill="none" />
<text class="station-label" x="810.73" y="429.89" text-anchor="start">Parma</text>
<text class="station-dev-na" x="810.73" y="439.89" text-anchor="start"><tspan class="station-dev-pos">(+1.3)</tspan><tspan fill="#444444"> (+5min)</tspan></text>
<rect class="station" x="872.70" y="505.94" width="6" height="6" />
<line class="barb-shaft" x1="875.70" y1="508.94" x2="893.42" y2="505.81" />
<line class="barb-feather" x1="893.42" y1="505.81" x2="892.94" y2="509.96" />
<text class="station-label" x="881.70" y="498.00" text-anchor="start">Airport</text>
<text class="station-dev-na" x="881.70" y="508.00" text-anchor="start">(n/a)</text>
<line class="rass" x1="90" y1="562" x2="114" y2="562" />
<text class="label" x="120" y="566">RASS @ 18:55</text>
<line class="dalr" x1="310" y1="562" x2="334" y2="562" />
<text class="label" x="340" y="566">DALR (9.8 C/km)</text>
<text class="legend-h" x="90" y="596">Stations</text>
<text class="legend-row" x="90" y="612"><tspan>La Cumbre 1201m @ 19:42 - 5.6C, winds 183, 16g19mph, DALR dev </tspan><tspan fill="#c62828">AntFarm:+2.3C</tspan><tspan>; </tspan><tspan fill="#c62828">Montecito:+2.5C</tspan><tspan>; </tspan><tspan fill="#c62828">SM Pass:+2.9C</tspan><tspan>; </tspan><tspan fill="#c62828">Parma:+3.0C</tspan><tspan>; </tspan><tspan fill="#c62828">Airport:+4.3C</tspan></text>
<text class="legend-row" x="90" y="626">VOR 1070m @ 19:30 - temp missing, winds 164, 8g14mph, DALR dev missing</text>
<text class="legend-row" x="90" y="640"><tspan>AntFarm 718m @ 19:30 - 8.0C, winds 060, 12g16mph, DALR dev </tspan><tspan fill="#c62828">Montecito:+0.2C</tspan><tspan>; </tspan><tspan fill="#c62828">SM Pass:+0.6C</tspan><tspan>; </tspan><tspan fill="#c62828">Parma:+0.7C</tspan><tspan>; </tspan><tspan fill="#c62828">Airport:+2.0C</tspan></text>
<text class="legend-row" x="90" y="654"><tspan>Montecito 494m @ 18:47 - 10.0C, winds 066, 5g11mph, DALR dev </tspan><tspan fill="#c62828">SM Pass:+0.4C</tspan><tspan>; </tspan><tspan fill="#c62828">Parma:+0.5C</tspan><tspan>; </tspan><tspan fill="#c62828">Airport:+1.8C</tspan></text>
<text class="legend-row" x="90" y="668"><tspan>SM Pass 454m @ 19:06 - 10.0C, winds 105, 7g14mph, DALR dev </tspan><tspan fill="#c62828">Parma:+0.1C</tspan><tspan>; </tspan><tspan fill="#c62828">Airport:+1.4C</tspan></text>
<text class="legend-row" x="90" y="682"><tspan>Parma 238m @ 19:30 - 12.0C, winds 231, 1g3mph, DALR dev </tspan><tspan fill="#c62828">Airport:+1.3C</tspan></text>
<text class="legend-row" x="90" y="696">Airport 3m @ 19:35 - 13.0C, winds 080, 8g18mph, DALR dev n/a</text>
</svg>