<svg xmlns="http://www.w3.org/2000/svg" width="1180" height="760" viewBox="0 0 1180 760">
<style>
  .axis { stroke: #202020; stroke-width: 1; }
  .grid { stroke: #dddddd; stroke-width: 1; }
  .title { font-family: Helvetica, Arial, sans-serif; font-size: 16px; font-weight: 600; fill: #111111; }
  .label { font-family: Helvetica, Arial, sans-serif; font-size: 12px; fill: #222222; }
  .legend-h { font-family: Helvetica, Arial, sans-serif; font-size: 12px; font-weight: 600; fill: #222222; }
  .legend-row { font-family: Helvetica, Arial, sans-serif; font-size: 11px; fill: #333333; }
  .rass { fill: none; stroke: #000000; stroke-width: 2; }
  .dalr { fill: none; stroke: #000000; stroke-width: 1.5; stroke-dasharray: 6 4; stroke-opacity: 0.45; }
  .rass-point { fill: #0077b6; }
  .station { fill: #f4a261; stroke: #8b4c12; stroke-width: 1; }
  .barb-shaft { stroke: #1f2937; stroke-width: 1.3; }
  .barb-feather { stroke: #1f2937; stroke-width: 1.2; }
  .barb-flag { fill: #1f2937; stroke: #1f2937; stroke-width: 1; }
  .station-label { font-family: Helvetica, Arial, sans-serif; font-size: 11px; fill: #444444; }
  .station-dev-pos { font-family: Helvetica, Arial, sans-serif; font-size: 10px; fill: #c62828; }
  .station-dev-neg { font-family: Helvetica, Arial, sans-serif; font-size: 10px; fill: #1565c0; }
  .station-dev-na { font-family: Helvetica, Arial, sans-serif; font-size: 10px; fill: #666666; }
  .rass-dev-pos { font-family: Helvetica, Arial, sans-serif; font-size: 9px; fill: #c62828; }
  .rass-dev-neg { font-family: Helvetica, Arial, sans-serif; font-size: 9px; fill: #1565c0; }
  .rass-dev-na { font-family: Helvetica, Arial, sans-serif; font-size: 9px; fill: #666666; }
</style>
<rect x="0" y="0" width="1180" height="760" fill="#ffffff" />
<text class="title" x="90" y="28">Estimated LCL @ VOR: 3782 ft - winds 196, 7g12mph (06:10 PST)</text>
<line class="grid" x1="90" y1="510.00" x2="1110" y2="510.00" />
<text class="label" x="82" y="514.00" text-anchor="end">0</text>
<line class="grid" x1="90" y1="452.50" x2="1110" y2="452.50" />
<text class="label" x="82" y="456.50" text-anchor="end">500</text>
<line class="grid" x1="90" y1="395.00" x2="1110" y2="395.00" />
<text class="label" x="82" y="399.00" text-anchor="end">1000</text>
<line class="grid" x1="90" y1="337.50" x2="1110" y2="337.50" />
<text class="label" x="82" y="341.50" text-anchor="end">1500</text>
<line class="grid" x1="90" y1="280.00" x2="1110" y2="280.00" />
<text class="label" x="82" y="284.00" text-anchor="end">2000</text>
<line class="grid" x1="90" y1="222.50" x2="1110" y2="222.50" />
<text class="label" x="82" y="226.50" text-anchor="end">2500</text>
<line class="grid" x1="90" y1="165.00" x2="1110" y2="165.00" />
<text class="label" x="82" y="169.00" text-anchor="end">3000</text>
<line class="grid" x1="90" y1="107.50" x2="1110" y2="107.50" />
<text class="label" x="82" y="111.50" text-anchor="end">3500</text>
<line class="grid" x1="90" y1="50.00" x2="1110" y2="50.00" />
<text class="label" x="82" y="54.00" text-anchor="end">4000</text>
<line class="grid" x1="232.63" y1="50" x2="232.63" y2="510" />
<text class="label" x="232.63" y="528" text-anchor="middle">40.0</text>
<line class="grid" x1="458.30" y1="50" x2="458.30" y2="510" />
<text class="label" x="458.30" y="528" text-anchor="middle">45.0</text>
<line class="grid" x1="683.96" y1="50" x2="683.96" y2="510" />
<text class="label" x="683.96" y="528" text-anchor="middle">50.0</text>
<line class="grid" x1="909.62" y1="50" x2="909.62" y2="510" />
<text class="label" x="909.62" y="528" text-anchor="middle">55.0</text>
<line class="axis" x1="90" y1="50" x2="90" y2="510" />
<line class="axis" x1="90" y1="510" x2="1110" y2="510" />
<text class="label" x="600.00" y="546" text-anchor="middle">Temperature (F)</text>
<text class="label" x="26" y="280.00" text-anchor="middle" transform="rotate(-90 26 280.00)">Altitude (ft)</text>
<path class="rass" d="M927.51,434.54 L912.08,396.81 L881.70,359.08 L822.63,321.35 L740.75,283.62 L661.94,245.89 L596.30,208.16 L534.40,170.43 L446.34,132.70 L369.40,94.97" />
<path class="dalr" d="M1087.43,510.00 L112.57,50.00" />
<circle class="rass-point" cx="927.51" cy="434.54" r="2" />
<text class="rass-dev-na" x="933.51" y="431.54" text-anchor="start">(n/a)</text>
<circle class="rass-point" cx="912.08" cy="396.81" r="2" />
<text class="rass-dev-pos" x="906.08" y="393.81" text-anchor="end">(+1.4)</text>
<circle class="rass-point" cx="881.70" cy="359.08" r="2" />
<text class="rass-dev-pos" x="887.70" y="356.08" text-anchor="start">(+1.1)</text>
<circle class="rass-point" cx="822.63" cy="321.35" r="2" />
<text class="rass-dev-pos" x="816.63" y="318.35" text-anchor="end">(+0.5)</text>
<circle class="rass-point" cx="740.75" cy="283.62" r="2" />
<text class="rass-dev-neg" x="746.75" y="280.62" text-anchor="start">(-0.0)</text>
<circle class="rass-point" cx="661.94" cy="245.89" r="2" />
<text class="rass-dev-pos" x="655.94" y="242.89" text-anchor="end">(+0.0)</text>
<circle class="rass-point" cx="596.30" cy="208.16" r="2" />
<text class="rass-dev-pos" x="602.30" y="205.16" text-anchor="start">(+0.3)</text>
<circle class="rass-point" cx="534.40" cy="170.43" r="2" />
<text class="rass-dev-pos" x="528.40" y="167.43" text-anchor="end">(+0.4)</text>
<circle class="rass-point" cx="446.34" cy="132.70" r="2" />
<text class="rass-dev-neg" x="452.34" y="129.70" text-anchor="start">(-0.2)</text>
<circle class="rass-point" cx="369.40" cy="94.97" r="2" />
<text class="rass-dev-pos" x="363.40" y="91.97" text-anchor="end">(+0.1)</text>
<rect class="station" x="229.63" y="53.87" width="6" height="6" />
<line class="barb-shaft" x1="232.63" y1="56.87" x2="234.83" y2="74.73" />
<line class="barb-feather" x1="234.83" y1="74.73" x2="227.63" y2="73.60" />
<text class="station-label" x="238.63" y="64.00" text-anchor="start">La Cumbre</text>
<text class="station-dev-na" x="238.63" y="74.00" text-anchor="start"><tspan class="station-dev-pos">(+1.6)</tspan><tspan fill="#444444"> (-20min)</tspan></text>
<rect class="station" x="260.30" y="103.33" width="6" height="6" />
<line class="barb-shaft" x1="263.30" y1="106.33" x2="258.31" y2="123.62" />
<line class="barb-feather" x1="258.31" y1="123.62" x2="254.80" y2="121.36" />
<text class="station-label" x="269.30" y="110.33" text-anchor="start">VOR</text>
<text class="station-dev-na" x="269.30" y="120.33" text-anchor="start"><tspan class="station-dev-pos">(+1.1)</tspan><tspan fill="#444444"> (+0min)</tspan></text>
<rect class="station" x="490.94" y="236.18" width="6" height="6" />
<line class="barb-shaft" x1="493.94" y1="239.18" x2="509.32" y2="229.81" />
<line class="barb-feather" x1="509.32" y1="229.81" x2="510.37" y2="233.85" />
<text class="station-label" x="499.94" y="243.18" text-anchor="start">AntFarm</text>
<text class="station-dev-na" x="499.94" y="253.18" text-anchor="start"><tspan class="station-dev-pos">(+0.8)</tspan><tspan fill="#444444"> (-23min)</tspan></text>
<rect class="station" x="635.79" y="320.80" width="6" height="6" />
<line class="barb-shaft" x1="638.79" y1="323.80" x2="656.26" y2="319.45" />
<line class="barb-feather" x1="656.26" y1="319.45" x2="656.06" y2="323.62" />
<text class="station-label" x="644.79" y="327.80" text-anchor="start">Montecito</text>
<text class="station-dev-na" x="644.79" y="337.80" text-anchor="start"><tspan class="station-dev-neg">(-0.3)</tspan><tspan fill="#444444"> (+19min)</tspan></text>
<rect class="station" x="680.96" y="335.52" width="6" height="6" />
<circle class="barb-shaft" cx="683.96" cy="338.52" r="2.5" fill="none" />
<text class="station-label" x="689.96" y="354.52" text-anchor="start">SM Pass</text>
<text class="station-dev-na" x="689.96" y="364.52" text-anchor="start"><tspan class="station-dev-pos">(+3.4)</tspan><tspan fill="#444444"> (+4min)</tspan></text>
<rect class="station" x="699.89" y="417.32" width="6" height="6" />
<circle class="barb-shaft" cx="702.89" cy="420.32" r="2.5" fill="none" />
<text class="station-label" x="708.89" y="424.32" text-anchor="start">Parma</text>
<text class="station-dev-na" x="708.89" y="434.32" text-anchor="start"><tspan class="station-dev-neg">(-0.8)</tspan><tspan fill="#444444"> (+10min)</tspan></text>
<rect class="station" x="924.68" y="505.87" width="6" height="6" />
<line class="barb-shaft" x1="927.68" y1="508.87" x2="933.83" y2="491.95" />
<line class="barb-feather" x1="933.83" y1="491.95" x2="937.18" y2="494.45" />
<text class="station-label" x="933.68" y="498.00" text-anchor="start">Airport</text>
<text class="station-dev-na" x="933.68" y="508.00" text-anchor="start">(n/a)</text>
<line class="rass" x1="90" y1="562" x2="114" y2="562" />
<text class="label" x="120" y="566">RASS @ 05:55</text>
<line class="dalr" x1="310" y1="562" x2="334" y2="562" />
<text class="label" x="340" y="566">DALR (5.4 F/1000 ft)</text>
<text class="legend-h" x="90" y="596">Stations</text>
<text class="legend-row" x="90" y="612"><tspan>La Cumbre 3940ft @ 06:30 - 40.0F, winds 173, 11g17mph, DALR dev </tspan><tspan fill="#c62828">VOR:+1.6F</tspan><tspan>; </tspan><tspan fill="#c62828">AntFarm:+2.8F</tspan><tspan>; </tspan><tspan fill="#c62828">Montecito:+3.5F</tspan><tspan>; </tspan><tspan fill="#c62828">SM Pass:+3.2F</tspan><tspan>; </tspan><tspan fill="#c62828">Parma:+6.6F</tspan><tspan>; </tspan><tspan fill="#c62828">Airport:+5.8F</tspan></text>
<text class="legend-row" x="90" y="626"><tspan>VOR 3510ft @ 06:10 - 40.7F, winds 196, 7g12mph, DALR dev </tspan><tspan fill="#c62828">AntFarm:+1.1F</tspan><tspan>; </tspan><tspan fill="#c62828">Montecito:+1.9F</tspan><tspan>; </tspan><tspan fill="#c62828">SM Pass:+1.6F</tspan><tspan>; </tspan><tspan fill="#c62828">Parma:+5.0F</tspan><tspan>; </tspan><tspan fill="#c62828">Airport:+4.2F</tspan></text>
<text class="legend-row" x="90" y="640"><tspan>AntFarm 2355ft @ 06:10 - 45.8F, winds 059, 9g12mph, DALR dev </tspan><tspan fill="#c62828">Montecito:+0.8F</tspan><tspan>; </tspan><tspan fill="#c62828">SM Pass:+0.5F</tspan><tspan>; </tspan><tspan fill="#c62828">Parma:+3.9F</tspan><tspan>; </tspan><tspan fill="#c62828">Airport:+3.1F</tspan></text>
<text class="legend-row" x="90" y="654"><tspan>Montecito 1619ft @ 05:47 - 49.0F, winds 076, 3g9mph, DALR dev </tspan><tspan fill="#1565c0">SM Pass:-0.3F</tspan><tspan>; </tspan><tspan fill="#c62828">Parma:+3.1F</tspan><tspan>; </tspan><tspan fill="#c62828">Airport:+2.3F</tspan></text>
<text class="legend-row" x="90" y="668"><tspan>SM Pass 1491ft @ 06:06 - 50.0F, winds 092, 2g9mph, DALR dev </tspan><tspan fill="#c62828">Parma:+3.4F</tspan><tspan>; </tspan><tspan fill="#c62828">Airport:+2.6F</tspan></text>
<text class="legend-row" x="90" y="682"><tspan>Parma 780ft @ 06:10 - 50.4F, winds 010, 1g2mph, DALR dev </tspan><tspan fill="#1565c0">Airport:-0.8F</tspan></text>
<text class="legend-row" x="90" y="696">Airport 10ft @ 06:20 - 55.4F, winds 020, 6g17mph, DALR dev n/a</text>
</svg>