<svg xmlns="http://www.w3.org/2000/svg" width="1180" height="760" viewBox="0 0 1180 760">
<style>
  .axis { stroke: #202020; stroke-width: 1; }
  .grid { stroke: #dddddd; stroke-width: 1; }
  .title { font-family: Helvetica, Arial, sans-serif; font-size: 16px; font-weight: 600; fill: #111111; }
  .label { font-family: Helvetica, Arial, sans-serif; font-size: 12px; fill: #222222; }
  .legend-h { font-family: Helvetica, Arial, sans-serif; font-size: 12px; font-weight: 600; fill: #222222; }
  .legend-row { font-family: Helvetica, Arial, sans-serif; font-size: 11px; fill: #333333; }
  .rass { fill: none; stroke: #000000; stroke-width: 2; }
  .dalr { fill: none; stroke: #000000; stroke-width: 1.5; stroke-dasharray: 6 4; stroke-opacity: 0.45; }
  .rass-point { fill: #0077b6; }
  .station { fill: #f4a261; stroke: #8b4c12; stroke-width: 1; }
  .barb-shaft { stroke: #1f2937; stroke-width: 1.3; }
  .barb-feather { stroke: #1f2937; stroke-width: 1.2; }
  .barb-flag { fill: #1f2937; stroke: #1f2937; stroke-width: 1; }
  .station-label { font-family: Helvetica, Arial, sans-serif; font-size: 11px; fill: #444444; }
  .station-dev-pos { font-family: Helvetica, Arial, sans-serif; font-size: 10px; fill: #c62828; }
  .station-dev-neg { font-family: Helvetica, Arial, sans-serif; font-size: 10px; fill: #1565c0; }
  .station-dev-na { font-family: Helvetica, Arial, sans-serif; font-size: 10px; fill: #666666; }
  .rass-dev-pos { font-family: Helvetica, Arial, sans-serif; font-size: 9px; fill: #c62828; }
  .rass-dev-neg { font-family: Helvetica, Arial, sans-serif; font-size: 9px; fill: #1565c0; }
  .rass-dev-na { font-family: Helvetica, Arial, sans-serif; font-size: 9px; fill: #666666; }
</style>
<rect x="0" y="0" width="1180" height="760" fill="#ffffff" />
<text class="title" x="90" y="28">Estimated LCL @ VOR: 3510 ft - winds 199, 6g10mph (02:30 PST)</text>
<line class="grid" x1="90" y1="510.00" x2="1110" y2="510.00" />
<text class="label" x="82" y="514.00" text-anchor="end">0</text>
<line class="grid" x1="90" y1="460.00" x2="1110" y2="460.00" />
<text class="label" x="82" y="464.00" text-anchor="end">500</text>
<line class="grid" x1="90" y1="410.00" x2="1110" y2="410.00" />
<text class="label" x="82" y="414.00" text-anchor="end">1000</text>
<line class="grid" x1="90" y1="360.00" x2="1110" y2="360.00" />
<text class="label" x="82" y="364.00" text-anchor="end">1500</text>
<line class="grid" x1="90" y1="310.00" x2="1110" y2="310.00" />
<text class="label" x="82" y="314.00" text-anchor="end">2000</text>
<line class="grid" x1="90" y1="260.00" x2="1110" y2="260.00" />
<text class="label" x="82" y="264.00" text-anchor="end">2500</text>
<line class="grid" x1="90" y1="210.00" x2="1110" y2="210.00" />
<text class="label" x="82" y="214.00" text-anchor="end">3000</text>
<line class="grid" x1="90" y1="160.00" x2="1110" y2="160.00" />
<text class="label" x="82" y="164.00" text-anchor="end">3500</text>
<line class="grid" x1="90" y1="110.00" x2="1110" y2="110.00" />
<text class="label" x="82" y="114.00" text-anchor="end">4000</text>
<line class="grid" x1="90" y1="60.00" x2="1110" y2="60.00" />
<text class="label" x="82" y="64.00" text-anchor="end">4500</text>
<line class="grid" x1="138.31" y1="50" x2="138.31" y2="510" />
<text class="label" x="138.31" y="528" text-anchor="middle">35.0</text>
<line class="grid" x1="335.68" y1="50" x2="335.68" y2="510" />
<text class="label" x="335.68" y="528" text-anchor="middle">40.0</text>
<line class="grid" x1="533.05" y1="50" x2="533.05" y2="510" />
<text class="label" x="533.05" y="528" text-anchor="middle">45.0</text>
<line class="grid" x1="730.42" y1="50" x2="730.42" y2="510" />
<text class="label" x="730.42" y="528" text-anchor="middle">50.0</text>
<line class="grid" x1="927.79" y1="50" x2="927.79" y2="510" />
<text class="label" x="927.79" y="528" text-anchor="middle">55.0</text>
<line class="axis" x1="90" y1="50" x2="90" y2="510" />
<line class="axis" x1="90" y1="510" x2="1110" y2="510" />
<text class="label" x="600.00" y="546" text-anchor="middle">Temperature (F)</text>
<text class="label" x="26" y="280.00" text-anchor="middle" transform="rotate(-90 26 280.00)">Altitude (ft)</text>
<path class="rass" d="M950.40,444.38 L923.32,411.57 L857.32,378.77 L814.26,345.96 L773.69,313.15 L661.78,280.34 L574.39,247.53 L533.60,214.72 L483.79,181.92 L418.50,149.11 L350.78,116.30 L286.62,83.49 L238.45,50.68" />
<path class="dalr" d="M1090.26,510.00 L109.74,50.00" />
<circle class="rass-point" cx="950.40" cy="444.38" r="2" />
<text class="rass-dev-na" x="956.40" y="441.38" text-anchor="start">(n/a)</text>
<circle class="rass-point" cx="923.32" cy="411.57" r="2" />
<text class="rass-dev-pos" x="917.32" y="408.57" text-anchor="end">(+1.1)</text>
<circle class="rass-point" cx="857.32" cy="378.77" r="2" />
<text class="rass-dev-pos" x="863.32" y="375.77" text-anchor="start">(+0.1)</text>
<circle class="rass-point" cx="814.26" cy="345.96" r="2" />
<text class="rass-dev-pos" x="808.26" y="342.96" text-anchor="end">(+0.7)</text>
<circle class="rass-point" cx="773.69" cy="313.15" r="2" />
<text class="rass-dev-pos" x="779.69" y="310.15" text-anchor="start">(+0.7)</text>
<circle class="rass-point" cx="661.78" cy="280.34" r="2" />
<text class="rass-dev-neg" x="655.78" y="277.34" text-anchor="end">(-1.1)</text>
<circle class="rass-point" cx="574.39" cy="247.53" r="2" />
<text class="rass-dev-neg" x="580.39" y="244.53" text-anchor="start">(-0.4)</text>
<circle class="rass-point" cx="533.60" cy="214.72" r="2" />
<text class="rass-dev-pos" x="527.60" y="211.72" text-anchor="end">(+0.7)</text>
<circle class="rass-point" cx="483.79" cy="181.92" r="2" />
<text class="rass-dev-pos" x="489.79" y="178.92" text-anchor="start">(+0.5)</text>
<circle class="rass-point" cx="418.50" cy="149.11" r="2" />
<text class="rass-dev-pos" x="412.50" y="146.11" text-anchor="end">(+0.1)</text>
<circle class="rass-point" cx="350.78" cy="116.30" r="2" />
<text class="rass-dev-pos" x="356.78" y="113.30" text-anchor="start">(+0.1)</text>
<circle class="rass-point" cx="286.62" cy="83.49" r="2" />
<text class="rass-dev-pos" x="280.62" y="80.49" text-anchor="end">(+0.1)</text>
<circle class="rass-point" cx="238.45" cy="50.68" r="2" />
<text class="rass-dev-pos" x="244.45" y="58.00" text-anchor="start">(+0.6)</text>
<rect class="station" x="411.63" y="112.97" width="6" height="6" />
<line class="barb-shaft" x1="414.63" y1="115.97" x2="405.90" y2="131.71" />
<line class="barb-feather" x1="405.90" y1="131.71" x2="402.98" y2="128.73" />
<text class="station-label" x="420.63" y="119.97" text-anchor="start">La Cumbre</text>
<text class="station-dev-na" x="420.63" y="129.97" text-anchor="start"><tspan class="station-dev-pos">(+4.4)</tspan><tspan fill="#444444"> (-16min)</tspan></text>
<rect class="station" x="329.52" y="155.98" width="6" height="6" />
<line class="barb-shaft" x1="332.52" y1="158.98" x2="326.63" y2="175.99" />
<line class="barb-feather" x1="326.63" y1="175.99" x2="323.24" y2="173.55" />
<text class="station-label" x="338.52" y="162.98" text-anchor="start">VOR</text>
<text class="station-dev-na" x="338.52" y="172.98" text-anchor="start"><tspan class="station-dev-neg">(-0.1)</tspan><tspan fill="#444444"> (-20min)</tspan></text>
<rect class="station" x="579.77" y="271.50" width="6" height="6" />
<circle class="barb-shaft" cx="582.77" cy="274.50" r="2.5" fill="none" />
<text class="station-label" x="588.77" y="278.50" text-anchor="start">AntFarm</text>
<text class="station-dev-na" x="588.77" y="288.50" text-anchor="start"><tspan class="station-dev-pos">(+1.2)</tspan><tspan fill="#444444"> (-23min)</tspan></text>
<rect class="station" x="687.91" y="345.09" width="6" height="6" />
<circle class="barb-shaft" cx="690.91" cy="348.09" r="2.5" fill="none" />
<text class="station-label" x="696.91" y="352.09" text-anchor="start">Montecito</text>
<text class="station-dev-na" x="696.91" y="362.09" text-anchor="start"><tspan class="station-dev-neg">(-0.3)</tspan><tspan fill="#444444"> (+19min)</tspan></text>
<rect class="station" x="727.42" y="357.89" width="6" height="6" />
<line class="barb-shaft" x1="730.42" y1="360.89" x2="746.00" y2="351.89" />
<line class="barb-feather" x1="746.00" y1="351.89" x2="746.97" y2="355.95" />
<text class="station-label" x="736.42" y="376.89" text-anchor="start">SM Pass</text>
<text class="station-dev-na" x="736.42" y="386.89" text-anchor="start"><tspan class="station-dev-pos">(+1.3)</tspan><tspan fill="#444444"> (+24min)</tspan></text>
<rect class="station" x="829.66" y="429.01" width="6" height="6" />
<circle class="barb-shaft" cx="832.66" cy="432.01" r="2.5" fill="none" />
<text class="station-label" x="838.66" y="436.01" text-anchor="start">Parma</text>
<text class="station-dev-na" x="838.66" y="446.01" text-anchor="start"><tspan class="station-dev-pos">(+1.3)</tspan><tspan fill="#444444"> (+5min)</tspan></text>
<rect class="station" x="940.57" y="506.02" width="6" height="6" />
<line class="barb-shaft" x1="943.57" y1="509.02" x2="955.14" y2="495.23" />
<line class="barb-feather" x1="955.14" y1="495.23" x2="957.44" y2="498.72" />
<text class="station-label" x="949.57" y="498.00" text-anchor="start">Airport</text>
<text class="station-dev-na" x="949.57" y="508.00" text-anchor="start">(n/a)</text>
<line class="rass" x1="90" y1="562" x2="114" y2="562" />
<text class="label" x="120" y="566">RASS @ 01:55</text>
<line class="dalr" x1="310" y1="562" x2="334" y2="562" />
<text class="label" x="340" y="566">DALR (5.4 F/1000 ft)</text>
<text class="legend-h" x="90" y="596">Stations</text>
<text class="legend-row" x="90" y="612"><tspan>La Cumbre 3940ft @ 02:46 - 42.0F, winds 209, 6g11mph, DALR dev </tspan><tspan fill="#c62828">VOR:+4.4F</tspan><tspan>; </tspan><tspan fill="#c62828">AntFarm:+4.3F</tspan><tspan>; </tspan><tspan fill="#c62828">Montecito:+5.5F</tspan><tspan>; </tspan><tspan fill="#c62828">SM Pass:+5.2F</tspan><tspan>; </tspan><tspan fill="#c62828">Parma:+6.5F</tspan><tspan>; </tspan><tspan fill="#c62828">Airport:+7.8F</tspan></text>
<text class="legend-row" x="90" y="626"><tspan>VOR 3510ft @ 02:30 - 39.9F, winds 199, 6g10mph, DALR dev </tspan><tspan fill="#1565c0">AntFarm:-0.1F</tspan><tspan>; </tspan><tspan fill="#c62828">Montecito:+1.1F</tspan><tspan>; </tspan><tspan fill="#c62828">SM Pass:+0.8F</tspan><tspan>; </tspan><tspan fill="#c62828">Parma:+2.1F</tspan><tspan>; </tspan><tspan fill="#c62828">Airport:+3.4F</tspan></text>
<text class="legend-row" x="90" y="640"><tspan>AntFarm 2355ft @ 02:30 - 46.3F, winds 054, 0g2mph, DALR dev </tspan><tspan fill="#c62828">Montecito:+1.2F</tspan><tspan>; </tspan><tspan fill="#c62828">SM Pass:+0.9F</tspan><tspan>; </tspan><tspan fill="#c62828">Parma:+2.2F</tspan><tspan>; </tspan><tspan fill="#c62828">Airport:+3.5F</tspan></text>
<text class="legend-row" x="90" y="654"><tspan>Montecito 1619ft @ 01:47 - 49.0F, winds 215, 2g8mph, DALR dev </tspan><tspan fill="#1565c0">SM Pass:-0.3F</tspan><tspan>; </tspan><tspan fill="#c62828">Parma:+0.9F</tspan><tspan>; </tspan><tspan fill="#c62828">Airport:+2.3F</tspan></text>
<text class="legend-row" x="90" y="668"><tspan>SM Pass 1491ft @ 02:06 - 50.0F, winds 060, 5g8mph, DALR dev </tspan><tspan fill="#c62828">Parma:+1.3F</tspan><tspan>; </tspan><tspan fill="#c62828">Airport:+2.6F</tspan></text>
<text class="legend-row" x="90" y="682"><tspan>Parma 780ft @ 02:30 - 52.6F, winds 013, 0g1mph, DALR dev </tspan><tspan fill="#c62828">Airport:+1.3F</tspan></text>
<text class="legend-row" x="90" y="696">Airport 10ft @ 02:35 - 55.4F, winds 040, 5g17mph, DALR dev n/a</text>
</svg>