<svg xmlns="http://www.w3.org/2000/svg" width="1180" height="760" viewBox="0 0 1180 760">
<style>
  .axis { stroke: #202020; stroke-width: 1; }
  .grid { stroke: #dddddd; stroke-width: 1; }
  .title { font-family: Helvetica, Arial, sans-serif; font-size: 16px; font-weight: 600; fill: #111111; }
  .label { font-family: Helvetica, Arial, sans-serif; font-size: 12px; fill: #222222; }
  .legend-h { font-family: Helvetica, Arial, sans-serif; font-size: 12px; font-weight: 600; fill: #222222; }
  .legend-row { font-family: Helvetica, Arial, sans-serif; font-size: 11px; fill: #333333; }
  .rass { fill: none; stroke: #000000; stroke-width: 2; }
  .dalr { fill: none; stroke: #000000; stroke-width: 1.5; stroke-dasharray: 6 4; stroke-opacity: 0.45; }
  .rass-point { fill: #0077b6; }
  .station { fill: #f4a261; stroke: #8b4c12; stroke-width: 1; }
  .barb-shaft { stroke: #1f2937; stroke-width: 1.3; }
  .barb-feather { stroke: #1f2937; stroke-width: 1.2; }
  .barb-flag { fill: #1f2937; stroke: #1f2937; stroke-width: 1; }
  .station-label { font-family: Helvetica, Arial, sans-serif; font-size: 11px; fill: #444444; }
  .station-dev-pos { font-family: Helvetica, Arial, sans-serif; font-size: 10px; fill: #c62828; }
  .station-dev-neg { font-family: Helvetica, Arial, sans-serif; font-size: 10px; fill: #1565c0; }
  .station-dev-na { font-family: Helvetica, Arial, sans-serif; font-size: 10px; fill: #666666; }
  .rass-dev-pos { font-family: Helvetica, Arial, sans-serif; font-size: 9px; fill: #c62828; }
  .rass-dev-neg { font-family: Helvetica, Arial, sans-serif; font-size: 9px; fill: #1565c0; }
  .rass-dev-na { font-family: Helvetica, Arial, sans-serif; font-size: 9px; fill: #666666; }
</style>
<rect x="0" y="0" width="1180" height="760" fill="#ffffff" />
<text class="title" x="90" y="28">Estimated LCL @ VOR: 1075 m - winds 191, 6g11mph (07:50 PST)</text>
<line class="grid" x1="90" y1="510.00" x2="1110" y2="510.00" />
<text class="label" x="82" y="514.00" text-anchor="end">0</text>
<line class="grid" x1="90" y1="439.23" x2="1110" y2="439.23" />
<text class="label" x="82" y="443.23" text-anchor="end">200</text>
<line class="grid" x1="90" y1="368.46" x2="1110" y2="368.46" />
<text class="label" x="82" y="372.46" text-anchor="end">400</text>
<line class="grid" x1="90" y1="297.69" x2="1110" y2="297.69" />
<text class="label" x="82" y="301.69" text-anchor="end">600</text>
<line class="grid" x1="90" y1="226.92" x2="1110" y2="226.92" />
<text class="label" x="82" y="230.92" text-anchor="end">800</text>
<line class="grid" x1="90" y1="156.15" x2="1110" y2="156.15" />
<text class="label" x="82" y="160.15" text-anchor="end">1000</text>
<line class="grid" x1="90" y1="85.38" x2="1110" y2="85.38" />
<text class="label" x="82" y="89.38" text-anchor="end">1200</text>
<line class="grid" x1="326.29" y1="50" x2="326.29" y2="510" />
<text class="label" x="326.29" y="528" text-anchor="middle">5.0</text>
<line class="grid" x1="697.47" y1="50" x2="697.47" y2="510" />
<text class="label" x="697.47" y="528" text-anchor="middle">10.0</text>
<line class="grid" x1="1068.65" y1="50" x2="1068.65" y2="510" />
<text class="label" x="1068.65" y="528" text-anchor="middle">15.0</text>
<line class="axis" x1="90" y1="50" x2="90" y2="510" />
<line class="axis" x1="90" y1="510" x2="1110" y2="510" />
<text class="label" x="600.00" y="546" text-anchor="middle">Temperature (C)</text>
<text class="label" x="26" y="280.00" text-anchor="middle" transform="rotate(-90 26 280.00)">Altitude (m)</text>
<path class="rass" d="M927.38,439.23 L906.15,403.85 L857.82,368.46 L801.92,333.08 L702.74,297.69 L648.25,262.31 L595.10,226.92 L523.46,191.54 L459.32,156.15 L411.37,120.77 L372.99,85.38 L341.29,50.00" />
<path class="dalr" d="M1072.88,510.00 L127.12,50.00" />
<circle class="rass-point" cx="927.38" cy="439.23" r="2" />
<text class="rass-dev-na" x="933.38" y="436.23" text-anchor="start">(n/a)</text>
<circle class="rass-point" cx="906.15" cy="403.85" r="2" />
<text class="rass-dev-pos" x="900.15" y="400.85" text-anchor="end">(+0.7)</text>
<circle class="rass-point" cx="857.82" cy="368.46" r="2" />
<text class="rass-dev-pos" x="863.82" y="365.46" text-anchor="start">(+0.3)</text>
<circle class="rass-point" cx="801.92" cy="333.08" r="2" />
<text class="rass-dev-pos" x="795.92" y="330.08" text-anchor="end">(+0.2)</text>
<circle class="rass-point" cx="702.74" cy="297.69" r="2" />
<text class="rass-dev-neg" x="708.74" y="294.69" text-anchor="start">(-0.4)</text>
<circle class="rass-point" cx="648.25" cy="262.31" r="2" />
<text class="rass-dev-pos" x="642.25" y="259.31" text-anchor="end">(+0.2)</text>
<circle class="rass-point" cx="595.10" cy="226.92" r="2" />
<text class="rass-dev-pos" x="601.10" y="223.92" text-anchor="start">(+0.3)</text>
<circle class="rass-point" cx="523.46" cy="191.54" r="2" />
<text class="rass-dev-pos" x="517.46" y="188.54" text-anchor="end">(+0.0)</text>
<circle class="rass-point" cx="459.32" cy="156.15" r="2" />
<text class="rass-dev-pos" x="465.32" y="153.15" text-anchor="start">(+0.1)</text>
<circle class="rass-point" cx="411.37" cy="120.77" r="2" />
<text class="rass-dev-pos" x="405.37" y="117.77" text-anchor="end">(+0.3)</text>
<circle class="rass-point" cx="372.99" cy="85.38" r="2" />
<text class="rass-dev-pos" x="378.99" y="82.38" text-anchor="start">(+0.5)</text>
<circle class="rass-point" cx="341.29" cy="50.00" r="2" />
<text class="rass-dev-pos" x="335.29" y="58.00" text-anchor="end">(+0.6)</text>
<rect class="station" x="323.29" y="82.03" width="6" height="6" />
<line class="barb-shaft" x1="326.29" y1="85.03" x2="337.37" y2="99.21" />
<line class="barb-feather" x1="337.37" y1="99.21" x2="333.48" y2="100.73" />
<text class="station-label" x="332.29" y="89.03" text-anchor="start">La Cumbre</text>
<text class="station-dev-na" x="332.29" y="99.03" text-anchor="start"><tspan class="station-dev-pos">(+1.4)</tspan><tspan fill="#444444"> (-17min)</tspan></text>
<rect class="station" x="317.50" y="128.42" width="6" height="6" />
<line class="barb-shaft" x1="320.50" y1="131.42" x2="317.01" y2="149.08" />
<line class="barb-feather" x1="317.01" y1="149.08" x2="313.31" y2="147.12" />
<text class="station-label" x="326.50" y="135.42" text-anchor="start">VOR</text>
<text class="station-dev-na" x="326.50" y="145.42" text-anchor="start"><tspan class="station-dev-pos">(+0.7)</tspan><tspan fill="#444444"> (+0min)</tspan></text>
<rect class="station" x="519.20" y="253.01" width="6" height="6" />
<line class="barb-shaft" x1="522.20" y1="256.01" x2="537.73" y2="246.91" />
<line class="barb-feather" x1="537.73" y1="246.91" x2="539.55" y2="253.97" />
<text class="station-label" x="528.20" y="260.01" text-anchor="start">AntFarm</text>
<text class="station-dev-na" x="528.20" y="270.01" text-anchor="start"><tspan class="station-dev-pos">(+0.4)</tspan><tspan fill="#444444"> (-3min)</tspan></text>
<rect class="station" x="653.20" y="332.38" width="6" height="6" />
<line class="barb-shaft" x1="656.20" y1="335.38" x2="673.66" y2="339.73" />
<line class="barb-feather" x1="673.66" y1="339.73" x2="671.53" y2="343.32" />
<text class="station-label" x="662.20" y="339.38" text-anchor="start">Montecito</text>
<text class="station-dev-na" x="662.20" y="349.38" text-anchor="start"><tspan class="station-dev-pos">(+1.0)</tspan><tspan fill="#444444"> (+3min)</tspan></text>
<rect class="station" x="767.07" y="422.89" width="6" height="6" />
<circle class="barb-shaft" cx="770.07" cy="425.89" r="2.5" fill="none" />
<text class="station-label" x="776.07" y="429.89" text-anchor="start">Parma</text>
<text class="station-dev-na" x="776.07" y="439.89" text-anchor="start"><tspan class="station-dev-pos">(+0.3)</tspan><tspan fill="#444444"> (+5min)</tspan></text>
<rect class="station" x="917.18" y="505.94" width="6" height="6" />
<line class="barb-shaft" x1="920.18" y1="508.94" x2="937.09" y2="502.78" />
<line class="barb-feather" x1="937.09" y1="502.78" x2="937.33" y2="506.95" />
<text class="station-label" x="926.18" y="498.00" text-anchor="start">Airport</text>
<text class="station-dev-na" x="926.18" y="508.00" text-anchor="start">(n/a)</text>
<line class="rass" x1="90" y1="562" x2="114" y2="562" />
<text class="label" x="120" y="566">RASS @ 07:55</text>
<line class="dalr" x1="310" y1="562" x2="334" y2="562" />
<text class="label" x="340" y="566">DALR (9.8 C/km)</text>
<text class="legend-h" x="90" y="596">Stations</text>
<text class="legend-row" x="90" y="612"><tspan>La Cumbre 1201m @ 08:07 - 5.0C, winds 142, 6g16mph, DALR dev </tspan><tspan fill="#c62828">VOR:+1.4C</tspan><tspan>; </tspan><tspan fill="#c62828">AntFarm:+2.1C</tspan><tspan>; </tspan><tspan fill="#c62828">Montecito:+2.5C</tspan><tspan>; </tspan><tspan fill="#c62828">SM Pass:+2.3C</tspan><tspan>; </tspan><tspan fill="#c62828">Parma:+3.5C</tspan><tspan>; </tspan><tspan fill="#c62828">Airport:+3.7C</tspan></text>
<text class="legend-row" x="90" y="626"><tspan>VOR 1070m @ 07:50 - 4.9C, winds 191, 6g11mph, DALR dev </tspan><tspan fill="#c62828">AntFarm:+0.7C</tspan><tspan>; </tspan><tspan fill="#c62828">Montecito:+1.1C</tspan><tspan>; </tspan><tspan fill="#c62828">SM Pass:+1.0C</tspan><tspan>; </tspan><tspan fill="#c62828">Parma:+2.1C</tspan><tspan>; </tspan><tspan fill="#c62828">Airport:+2.4C</tspan></text>
<text class="legend-row" x="90" y="640"><tspan>AntFarm 718m @ 07:50 - 7.6C, winds 060, 9g11mph, DALR dev </tspan><tspan fill="#c62828">Montecito:+0.4C</tspan><tspan>; </tspan><tspan fill="#c62828">SM Pass:+0.2C</tspan><tspan>; </tspan><tspan fill="#c62828">Parma:+1.4C</tspan><tspan>; </tspan><tspan fill="#c62828">Airport:+1.6C</tspan></text>
<text class="legend-row" x="90" y="654"><tspan>Montecito 494m @ 07:47 - 9.4C, winds 104, 5g8mph, DALR dev </tspan><tspan fill="#1565c0">SM Pass:-0.2C</tspan><tspan>; </tspan><tspan fill="#c62828">Parma:+1.0C</tspan><tspan>; </tspan><tspan fill="#c62828">Airport:+1.3C</tspan></text>
<text class="legend-row" x="90" y="668"><tspan>SM Pass 454m @ 07:06 - 10.0C, winds 065, 5g10mph, DALR dev </tspan><tspan fill="#c62828">Parma:+1.1C</tspan><tspan>; </tspan><tspan fill="#c62828">Airport:+1.4C</tspan></text>
<text class="legend-row" x="90" y="682"><tspan>Parma 238m @ 07:50 - 11.0C, winds 358, 0g1mph, DALR dev </tspan><tspan fill="#c62828">Airport:+0.3C</tspan></text>
<text class="legend-row" x="90" y="696">Airport 3m @ 07:55 - 13.0C, winds 070, 7g17mph, DALR dev n/a</text>
</svg>