<svg xmlns="http://www.w3.org/2000/svg" width="1180" height="760" viewBox="0 0 1180 760">
<style>
  .axis { stroke: #202020; stroke-width: 1; }
  .grid { stroke: #dddddd; stroke-width: 1; }
  .title { font-family: Helvetica, Arial, sans-serif; font-size: 16px; font-weight: 600; fill: #111111; }
  .label { font-family: Helvetica, Arial, sans-serif; font-size: 12px; fill: #222222; }
  .legend-h { font-family: Helvetica, Arial, sans-serif; font-size: 12px; font-weight: 600; fill: #222222; }
  .legend-row { font-family: Helvetica, Arial, sans-serif; font-size: 11px; fill: #333333; }
  .rass { fill: none; stroke: #000000; stroke-width: 2; }
  .dalr { fill: none; stroke: #000000; stroke-width: 1.5; stroke-dasharray: 6 4; stroke-opacity: 0.45; }
  .rass-point { fill: #0077b6; }
  .station { fill: #f4a261; stroke: #8b4c12; stroke-width: 1; }
  .barb-shaft { stroke: #1f2937; stroke-width: 1.3; }
  .barb-feather { stroke: #1f2937; stroke-width: 1.2; }
  .barb-flag { fill: #1f2937; stroke: #1f2937; stroke-width: 1; }
  .station-label { font-family: Helvetica, Arial, sans-serif; font-size: 11px; fill: #444444; }
  .station-dev-pos { font-family: Helvetica, Arial, sans-serif; font-size: 10px; fill: #c62828; }
  .station-dev-neg { font-family: Helvetica, Arial, sans-serif; font-size: 10px; fill: #1565c0; }
  .station-dev-na { font-family: Helvetica, Arial, sans-serif; font-size: 10px; fill: #666666; }
  .rass-dev-pos { font-family: Helvetica, Arial, sans-serif; font-size: 9px; fill: #c62828; }
  .rass-dev-neg { font-family: Helvetica, Arial, sans-serif; font-size: 9px; fill: #1565c0; }
  .rass-dev-na { font-family: Helvetica, Arial, sans-serif; font-size: 9px; fill: #666666; }
</style>
<rect x="0" y="0" width="1180" height="760" fill="#ffffff" />
<text class="title" x="90" y="28">Estimated LCL @ VOR: 1083 m - winds 201, 9g14mph (14:30 PST)</text>
<line class="grid" x1="90" y1="510.00" x2="1110" y2="510.00" />
<text class="label" x="82" y="514.00" text-anchor="end">0</text>
<line class="grid" x1="90" y1="439.23" x2="1110" y2="439.23" />
<text class="label" x="82" y="443.23" text-anchor="end">200</text>
<line class="grid" x1="90" y1="368.46" x2="1110" y2="368.46" />
<text class="label" x="82" y="372.46" text-anchor="end">400</text>
<line class="grid" x1="90" y1="297.69" x2="1110" y2="297.69" />
<text class="label" x="82" y="301.69" text-anchor="end">600</text>
<line class="grid" x1="90" y1="226.92" x2="1110" y2="226.92" />
<text class="label" x="82" y="230.92" text-anchor="end">800</text>
<line class="grid" x1="90" y1="156.15" x2="1110" y2="156.15" />
<text class="label" x="82" y="160.15" text-anchor="end">1000</text>
<line class="grid" x1="90" y1="85.38" x2="1110" y2="85.38" />
<text class="label" x="82" y="89.38" text-anchor="end">1200</text>
<line class="grid" x1="252.28" y1="50" x2="252.28" y2="510" />
<text class="label" x="252.28" y="528" text-anchor="middle">5.0</text>
<line class="grid" x1="623.46" y1="50" x2="623.46" y2="510" />
<text class="label" x="623.46" y="528" text-anchor="middle">10.0</text>
<line class="grid" x1="994.64" y1="50" x2="994.64" y2="510" />
<text class="label" x="994.64" y="528" text-anchor="middle">15.0</text>
<line class="axis" x1="90" y1="50" x2="90" y2="510" />
<line class="axis" x1="90" y1="510" x2="1110" y2="510" />
<text class="label" x="600.00" y="546" text-anchor="middle">Temperature (C)</text>
<text class="label" x="26" y="280.00" text-anchor="middle" transform="rotate(-90 26 280.00)">Altitude (m)</text>
<path class="rass" d="M927.38,439.23 L884.99,403.85 L815.43,368.46 L763.99,333.08 L671.93,297.69 L618.78,262.31 L581.74,226.92" />
<path class="dalr" d="M1072.88,510.00 L127.12,50.00" />
<circle class="rass-point" cx="927.38" cy="439.23" r="2" />
<text class="rass-dev-na" x="933.38" y="436.23" text-anchor="start">(n/a)</text>
<circle class="rass-point" cx="884.99" cy="403.85" r="2" />
<text class="rass-dev-pos" x="878.99" y="400.85" text-anchor="end">(+0.4)</text>
<circle class="rass-point" cx="815.43" cy="368.46" r="2" />
<text class="rass-dev-pos" x="821.43" y="365.46" text-anchor="start">(+0.0)</text>
<circle class="rass-point" cx="763.99" cy="333.08" r="2" />
<text class="rass-dev-pos" x="757.99" y="330.08" text-anchor="end">(+0.3)</text>
<circle class="rass-point" cx="671.93" cy="297.69" r="2" />
<text class="rass-dev-neg" x="677.93" y="294.69" text-anchor="start">(-0.3)</text>
<circle class="rass-point" cx="618.78" cy="262.31" r="2" />
<text class="rass-dev-pos" x="612.78" y="259.31" text-anchor="end">(+0.3)</text>
<circle class="rass-point" cx="581.74" cy="226.92" r="2" />
<text class="rass-dev-pos" x="587.74" y="223.92" text-anchor="start">(+0.5)</text>
<rect class="station" x="414.25" y="82.03" width="6" height="6" />
<line class="barb-shaft" x1="417.25" y1="85.03" x2="420.68" y2="102.70" />
<line class="barb-feather" x1="420.68" y1="102.70" x2="413.43" y2="102.07" />
<line class="barb-feather" x1="419.92" y1="98.77" x2="415.76" y2="98.36" />
<text class="station-label" x="423.25" y="89.03" text-anchor="start">La Cumbre</text>
<text class="station-dev-na" x="423.25" y="99.03" text-anchor="start"><tspan class="station-dev-pos">(+2.4)</tspan><tspan fill="#444444"> (-10min)</tspan></text>
<rect class="station" x="333.39" y="128.42" width="6" height="6" />
<line class="barb-shaft" x1="336.39" y1="131.42" x2="329.91" y2="148.21" />
<line class="barb-feather" x1="329.91" y1="148.21" x2="324.10" y2="143.83" />
<text class="station-label" x="342.39" y="135.42" text-anchor="start">VOR</text>
<text class="station-dev-na" x="342.39" y="145.42" text-anchor="start"><tspan class="station-dev-pos">(+0.4)</tspan><tspan fill="#444444"> (+0min)</tspan></text>
<rect class="station" x="557.80" y="253.01" width="6" height="6" />
<line class="barb-shaft" x1="560.80" y1="256.01" x2="576.19" y2="246.66" />
<line class="barb-feather" x1="576.19" y1="246.66" x2="577.24" y2="250.70" />
<text class="station-label" x="566.80" y="260.01" text-anchor="start">AntFarm</text>
<text class="station-dev-na" x="566.80" y="270.01" text-anchor="start"><tspan class="station-dev-neg">(-0.9)</tspan><tspan fill="#444444"> (-43min)</tspan></text>
<rect class="station" x="785.41" y="332.38" width="6" height="6" />
<line class="barb-shaft" x1="788.41" y1="335.38" x2="780.52" y2="351.56" />
<line class="barb-feather" x1="780.52" y1="351.56" x2="777.45" y2="348.72" />
<text class="station-label" x="794.41" y="339.38" text-anchor="start">Montecito</text>
<text class="station-dev-na" x="794.41" y="349.38" text-anchor="start"><tspan class="station-dev-neg">(-0.7)</tspan><tspan fill="#444444"> (+19min)</tspan></text>
<rect class="station" x="867.89" y="346.18" width="6" height="6" />
<line class="barb-shaft" x1="870.89" y1="349.18" x2="880.43" y2="364.44" />
<line class="barb-feather" x1="880.43" y1="364.44" x2="876.40" y2="365.54" />
<text class="station-label" x="876.89" y="365.18" text-anchor="start">SM Pass</text>
<text class="station-dev-na" x="876.89" y="375.18" text-anchor="start"><tspan class="station-dev-pos">(+1.4)</tspan><tspan fill="#444444"> (+24min)</tspan></text>
<rect class="station" x="919.48" y="422.89" width="6" height="6" />
<circle class="barb-shaft" cx="922.48" cy="425.89" r="2.5" fill="none" />
<text class="station-label" x="928.48" y="429.89" text-anchor="start">Parma</text>
<text class="station-dev-na" x="928.48" y="439.89" text-anchor="start"><tspan class="station-dev-pos">(+0.3)</tspan><tspan fill="#444444"> (+5min)</tspan></text>
<rect class="station" x="1065.87" y="505.94" width="6" height="6" />
<line class="barb-shaft" x1="1068.87" y1="508.94" x2="1084.46" y2="517.94" />
<line class="barb-feather" x1="1084.46" y1="517.94" x2="1079.23" y2="523.00" />
<text class="station-label" x="1062.87" y="498.00" text-anchor="end">Airport</text>
<text class="station-dev-na" x="1062.87" y="508.00" text-anchor="end">(n/a)</text>
<line class="rass" x1="90" y1="562" x2="114" y2="562" />
<text class="label" x="120" y="566">RASS @ 13:55</text>
<line class="dalr" x1="310" y1="562" x2="334" y2="562" />
<text class="label" x="340" y="566">DALR (9.8 C/km)</text>
<text class="legend-h" x="90" y="596">Stations</text>
<text class="legend-row" x="90" y="612"><tspan>La Cumbre 1201m @ 14:40 - 7.2C, winds 169, 15g23mph, DALR dev </tspan><tspan fill="#c62828">VOR:+2.4C</tspan><tspan>; </tspan><tspan fill="#c62828">AntFarm:+2.8C</tspan><tspan>; </tspan><tspan fill="#c62828">Montecito:+1.9C</tspan><tspan>; </tspan><tspan fill="#c62828">SM Pass:+1.2C</tspan><tspan>; </tspan><tspan fill="#c62828">Parma:+2.6C</tspan><tspan>; </tspan><tspan fill="#c62828">Airport:+3.0C</tspan></text>
<text class="legend-row" x="90" y="626"><tspan>VOR 1070m @ 14:30 - 6.1C, winds 201, 9g14mph, DALR dev </tspan><tspan fill="#c62828">AntFarm:+0.4C</tspan><tspan>; </tspan><tspan fill="#1565c0">Montecito:-0.4C</tspan><tspan>; </tspan><tspan fill="#1565c0">SM Pass:-1.2C</tspan><tspan>; </tspan><tspan fill="#c62828">Parma:+0.3C</tspan><tspan>; </tspan><tspan fill="#c62828">Airport:+0.6C</tspan></text>
<text class="legend-row" x="90" y="640"><tspan>AntFarm 718m @ 14:30 - 9.2C, winds 059, 5g9mph, DALR dev </tspan><tspan fill="#1565c0">Montecito:-0.9C</tspan><tspan>; </tspan><tspan fill="#1565c0">SM Pass:-1.6C</tspan><tspan>; </tspan><tspan fill="#1565c0">Parma:-0.2C</tspan><tspan>; </tspan><tspan fill="#c62828">Airport:+0.2C</tspan></text>
<text class="legend-row" x="90" y="654"><tspan>Montecito 494m @ 13:47 - 12.2C, winds 206, 6g15mph, DALR dev </tspan><tspan fill="#1565c0">SM Pass:-0.7C</tspan><tspan>; </tspan><tspan fill="#c62828">Parma:+0.7C</tspan><tspan>; </tspan><tspan fill="#c62828">Airport:+1.0C</tspan></text>
<text class="legend-row" x="90" y="668"><tspan>SM Pass 454m @ 14:06 - 13.3C, winds 148, 6g15mph, DALR dev </tspan><tspan fill="#c62828">Parma:+1.4C</tspan><tspan>; </tspan><tspan fill="#c62828">Airport:+1.8C</tspan></text>
<text class="legend-row" x="90" y="682"><tspan>Parma 238m @ 14:30 - 14.0C, winds 185, 3g9mph, DALR dev </tspan><tspan fill="#c62828">Airport:+0.3C</tspan></text>
<text class="legend-row" x="90" y="696">Airport 3m @ 14:35 - 16.0C, winds 120, 9g18mph, DALR dev n/a</text>
</svg>