<svg xmlns="http://www.w3.org/2000/svg" width="1180" height="760" viewBox="0 0 1180 760">
<style>
  .axis { stroke: #202020; stroke-width: 1; }
  .grid { stroke: #dddddd; stroke-width: 1; }
  .title { font-family: Helvetica, Arial, sans-serif; font-size: 16px; font-weight: 600; fill: #111111; }
  .label { font-family: Helvetica, Arial, sans-serif; font-size: 12px; fill: #222222; }
  .legend-h { font-family: Helvetica, Arial, sans-serif; font-size: 12px; font-weight: 600; fill: #222222; }
  .legend-row { font-family: Helvetica, Arial, sans-serif; font-size: 11px; fill: #333333; }
  .rass { fill: none; stroke: #000000; stroke-width: 2; }
  .dalr { fill: none; stroke: #000000; stroke-width: 1.5; stroke-dasharray: 6 4; stroke-opacity: 0.45; }
  .rass-point { fill: #0077b6; }
  .station { fill: #f4a261; stroke: #8b4c12; stroke-width: 1; }
  .barb-shaft { stroke: #1f2937; stroke-width: 1.3; }
  .barb-feather { stroke: #1f2937; stroke-width: 1.2; }
  .barb-flag { fill: #1f2937; stroke: #1f2937; stroke-width: 1; }
  .station-label { font-family: Helvetica, Arial, sans-serif; font-size: 11px; fill: #444444; }
  .station-dev-pos { font-family: Helvetica, Arial, sans-serif; font-size: 10px; fill: #c62828; }
  .station-dev-neg { font-family: Helvetica, Arial, sans-serif; font-size: 10px; fill: #1565c0; }
  .station-dev-na { font-family: Helvetica, Arial, sans-serif; font-size: 10px; fill: #666666; }
  .rass-dev-pos { font-family: Helvetica, Arial, sans-serif; font-size: 9px; fill: #c62828; }
  .rass-dev-neg { font-family: Helvetica, Arial, sans-serif; font-size: 9px; fill: #1565c0; }
  .rass-dev-na { font-family: Helvetica, Arial, sans-serif; font-size: 9px; fill: #666666; }
</style>
<rect x="0" y="0" width="1180" height="760" fill="#ffffff" />
<text class="title" x="90" y="28">Estimated LCL @ VOR: 4229 ft - winds 197, 11g17mph (11:30 PST)</text>
<line class="grid" x1="90" y1="510.00" x2="1110" y2="510.00" />
<text class="label" x="82" y="514.00" text-anchor="end">0</text>
<line class="grid" x1="90" y1="452.50" x2="1110" y2="452.50" />
<text class="label" x="82" y="456.50" text-anchor="end">500</text>
<line class="grid" x1="90" y1="395.00" x2="1110" y2="395.00" />
<text class="label" x="82" y="399.00" text-anchor="end">1000</text>
<line class="grid" x1="90" y1="337.50" x2="1110" y2="337.50" />
<text class="label" x="82" y="341.50" text-anchor="end">1500</text>
<line class="grid" x1="90" y1="280.00" x2="1110" y2="280.00" />
<text class="label" x="82" y="284.00" text-anchor="end">2000</text>
<line class="grid" x1="90" y1="222.50" x2="1110" y2="222.50" />
<text class="label" x="82" y="226.50" text-anchor="end">2500</text>
<line class="grid" x1="90" y1="165.00" x2="1110" y2="165.00" />
<text class="label" x="82" y="169.00" text-anchor="end">3000</text>
<line class="grid" x1="90" y1="107.50" x2="1110" y2="107.50" />
<text class="label" x="82" y="111.50" text-anchor="end">3500</text>
<line class="grid" x1="90" y1="50.00" x2="1110" y2="50.00" />
<text class="label" x="82" y="54.00" text-anchor="end">4000</text>
<line class="grid" x1="167.60" y1="50" x2="167.60" y2="510" />
<text class="label" x="167.60" y="528" text-anchor="middle">40.0</text>
<line class="grid" x1="371.58" y1="50" x2="371.58" y2="510" />
<text class="label" x="371.58" y="528" text-anchor="middle">45.0</text>
<line class="grid" x1="575.56" y1="50" x2="575.56" y2="510" />
<text class="label" x="575.56" y="528" text-anchor="middle">50.0</text>
<line class="grid" x1="779.55" y1="50" x2="779.55" y2="510" />
<text class="label" x="779.55" y="528" text-anchor="middle">55.0</text>
<line class="grid" x1="983.53" y1="50" x2="983.53" y2="510" />
<text class="label" x="983.53" y="528" text-anchor="middle">60.0</text>
<line class="axis" x1="90" y1="50" x2="90" y2="510" />
<line class="axis" x1="90" y1="510" x2="1110" y2="510" />
<text class="label" x="600.00" y="546" text-anchor="middle">Temperature (F)</text>
<text class="label" x="26" y="280.00" text-anchor="middle" transform="rotate(-90 26 280.00)">Altitude (ft)</text>
<path class="rass" d="M847.05,434.54 L826.05,396.81 L784.92,359.08 L685.72,321.35 L586.80,283.62 L522.91,245.89 L472.24,208.16 L443.16,170.43" />
<path class="dalr" d="M991.60,510.00 L110.40,50.00" />
<circle class="rass-point" cx="847.05" cy="434.54" r="2" />
<text class="rass-dev-na" x="853.05" y="431.54" text-anchor="start">(n/a)</text>
<circle class="rass-point" cx="826.05" cy="396.81" r="2" />
<text class="rass-dev-pos" x="820.05" y="393.81" text-anchor="end">(+1.3)</text>
<circle class="rass-point" cx="784.92" cy="359.08" r="2" />
<text class="rass-dev-pos" x="790.92" y="356.08" text-anchor="start">(+0.8)</text>
<circle class="rass-point" cx="685.72" cy="321.35" r="2" />
<text class="rass-dev-neg" x="679.72" y="318.35" text-anchor="end">(-0.7)</text>
<circle class="rass-point" cx="586.80" cy="283.62" r="2" />
<text class="rass-dev-neg" x="592.80" y="280.62" text-anchor="start">(-0.7)</text>
<circle class="rass-point" cx="522.91" cy="245.89" r="2" />
<text class="rass-dev-pos" x="516.91" y="242.89" text-anchor="end">(+0.2)</text>
<circle class="rass-point" cx="472.24" cy="208.16" r="2" />
<text class="rass-dev-pos" x="478.24" y="205.16" text-anchor="start">(+0.5)</text>
<circle class="rass-point" cx="443.16" cy="170.43" r="2" />
<text class="rass-dev-pos" x="437.16" y="167.43" text-anchor="end">(+1.1)</text>
<rect class="station" x="450.18" y="53.87" width="6" height="6" />
<line class="barb-shaft" x1="453.18" y1="56.87" x2="454.74" y2="74.80" />
<line class="barb-feather" x1="454.74" y1="74.80" x2="447.60" y2="73.42" />
<line class="barb-feather" x1="454.40" y1="70.81" x2="450.31" y2="69.97" />
<text class="station-label" x="459.18" y="64.00" text-anchor="start">La Cumbre</text>
<text class="station-dev-na" x="459.18" y="74.00" text-anchor="start"><tspan class="station-dev-pos">(+4.6)</tspan><tspan fill="#444444"> (-18min)</tspan></text>
<rect class="station" x="357.55" y="103.33" width="6" height="6" />
<line class="barb-shaft" x1="360.55" y1="106.33" x2="355.32" y2="123.55" />
<line class="barb-feather" x1="355.32" y1="123.55" x2="349.20" y2="119.60" />
<text class="station-label" x="366.55" y="110.33" text-anchor="start">VOR</text>
<text class="station-dev-na" x="366.55" y="120.33" text-anchor="start"><tspan class="station-dev-pos">(+0.4)</tspan><tspan fill="#444444"> (+0min)</tspan></text>
<rect class="station" x="593.79" y="236.18" width="6" height="6" />
<line class="barb-shaft" x1="596.79" y1="239.18" x2="612.46" y2="230.33" />
<line class="barb-feather" x1="612.46" y1="230.33" x2="613.38" y2="234.40" />
<text class="station-label" x="602.79" y="243.18" text-anchor="start">AntFarm</text>
<text class="station-dev-na" x="602.79" y="253.18" text-anchor="start"><tspan class="station-dev-neg">(-4.8)</tspan><tspan fill="#444444"> (-24min)</tspan></text>
<rect class="station" x="980.56" y="335.52" width="6" height="6" />
<line class="barb-shaft" x1="983.56" y1="338.52" x2="993.63" y2="353.44" />
<line class="barb-feather" x1="993.63" y1="353.44" x2="989.64" y2="354.68" />
<text class="station-label" x="989.56" y="342.52" text-anchor="start">SM Pass</text>
<text class="station-dev-na" x="989.56" y="352.52" text-anchor="start"><tspan class="station-dev-pos">(+4.4)</tspan><tspan fill="#444444"> (+24min)</tspan></text>
<rect class="station" x="956.48" y="417.32" width="6" height="6" />
<line class="barb-shaft" x1="959.48" y1="420.32" x2="953.79" y2="437.40" />
<line class="barb-feather" x1="953.79" y1="437.40" x2="950.38" y2="435.00" />
<text class="station-label" x="965.48" y="424.32" text-anchor="start">Parma</text>
<text class="station-dev-na" x="965.48" y="434.32" text-anchor="start"><tspan class="station-dev-pos">(+1.0)</tspan><tspan fill="#444444"> (+10min)</tspan></text>
<rect class="station" x="1086.60" y="505.87" width="6" height="6" />
<line class="barb-shaft" x1="1089.60" y1="508.87" x2="1103.39" y2="520.44" />
<line class="barb-feather" x1="1103.39" y1="520.44" x2="1097.36" y2="524.52" />
<text class="station-label" x="1083.60" y="498.00" text-anchor="end">Airport</text>
<text class="station-dev-na" x="1083.60" y="508.00" text-anchor="end">(n/a)</text>
<line class="rass" x1="90" y1="562" x2="114" y2="562" />
<text class="label" x="120" y="566">RASS @ 10:55</text>
<line class="dalr" x1="310" y1="562" x2="334" y2="562" />
<text class="label" x="340" y="566">DALR (5.4 F/1000 ft)</text>
<text class="legend-h" x="90" y="596">Stations</text>
<text class="legend-row" x="90" y="612"><tspan>La Cumbre 3940ft @ 11:48 - 47.0F, winds 175, 16g21mph, DALR dev </tspan><tspan fill="#c62828">VOR:+4.6F</tspan><tspan>; </tspan><tspan fill="#c62828">AntFarm:+5.0F</tspan><tspan>; </tspan><tspan fill="#c62828">Montecito:+1.5F</tspan><tspan>; </tspan><tspan fill="#c62828">SM Pass:+0.2F</tspan><tspan>; </tspan><tspan fill="#c62828">Parma:+4.7F</tspan><tspan>; </tspan><tspan fill="#c62828">Airport:+5.6F</tspan></text>
<text class="legend-row" x="90" y="626"><tspan>VOR 3510ft @ 11:30 - 44.7F, winds 197, 11g17mph, DALR dev </tspan><tspan fill="#c62828">AntFarm:+0.4F</tspan><tspan>; </tspan><tspan fill="#1565c0">Montecito:-3.1F</tspan><tspan>; </tspan><tspan fill="#1565c0">SM Pass:-4.4F</tspan><tspan>; </tspan><tspan fill="#c62828">Parma:+0.1F</tspan><tspan>; </tspan><tspan fill="#c62828">Airport:+1.0F</tspan></text>
<text class="legend-row" x="90" y="640"><tspan>AntFarm 2355ft @ 11:30 - 50.5F, winds 061, 6g12mph, DALR dev </tspan><tspan fill="#1565c0">Montecito:-3.5F</tspan><tspan>; </tspan><tspan fill="#1565c0">SM Pass:-4.8F</tspan><tspan>; </tspan><tspan fill="#1565c0">Parma:-0.4F</tspan><tspan>; </tspan><tspan fill="#c62828">Airport:+0.6F</tspan></text>
<text class="legend-row" x="90" y="654"><tspan>Montecito 1619ft @ 10:47 - 58.0F, winds 209, 5g17mph, DALR dev </tspan><tspan fill="#1565c0">SM Pass:-1.3F</tspan><tspan>; </tspan><tspan fill="#c62828">Parma:+3.1F</tspan><tspan>; </tspan><tspan fill="#c62828">Airport:+4.1F</tspan></text>
<text class="legend-row" x="90" y="668"><tspan>SM Pass 1491ft @ 11:06 - 60.0F, winds 146, 8g18mph, DALR dev </tspan><tspan fill="#c62828">Parma:+4.4F</tspan><tspan>; </tspan><tspan fill="#c62828">Airport:+5.4F</tspan></text>
<text class="legend-row" x="90" y="682"><tspan>Parma 780ft @ 11:30 - 59.4F, winds 198, 3g8mph, DALR dev </tspan><tspan fill="#c62828">Airport:+1.0F</tspan></text>
<text class="legend-row" x="90" y="696">Airport 10ft @ 11:40 - 62.6F, winds 130, 12g18mph, DALR dev n/a</text>
</svg>