<svg xmlns="http://www.w3.org/2000/svg" width="1180" height="760" viewBox="0 0 1180 760">
<style>
  .axis { stroke: #202020; stroke-width: 1; }
  .grid { stroke: #dddddd; stroke-width: 1; }
  .title { font-family: Helvetica, Arial, sans-serif; font-size: 16px; font-weight: 600; fill: #111111; }
  .label { font-family: Helvetica, Arial, sans-serif; font-size: 12px; fill: #222222; }
  .legend-h { font-family: Helvetica, Arial, sans-serif; font-size: 12px; font-weight: 600; fill: #222222; }
  .legend-row { font-family: Helvetica, Arial, sans-serif; font-size: 11px; fill: #333333; }
  .rass { fill: none; stroke: #000000; stroke-width: 2; }
  .dalr { fill: none; stroke: #000000; stroke-width: 1.5; stroke-dasharray: 6 4; stroke-opacity: 0.45; }
  .rass-point { fill: #0077b6; }
  .station { fill: #f4a261; stroke: #8b4c12; stroke-width: 1; }
  .barb-shaft { stroke: #1f2937; stroke-width: 1.3; }
  .barb-feather { stroke: #1f2937; stroke-width: 1.2; }
  .barb-flag { fill: #1f2937; stroke: #1f2937; stroke-width: 1; }
  .station-label { font-family: Helvetica, Arial, sans-serif; font-size: 11px; fill: #444444; }
  .station-dev-pos { font-family: Helvetica, Arial, sans-serif; font-size: 10px; fill: #c62828; }
  .station-dev-neg { font-family: Helvetica, Arial, sans-serif; font-size: 10px; fill: #1565c0; }
  .station-dev-na { font-family: Helvetica, Arial, sans-serif; font-size: 10px; fill: #666666; }
  .rass-dev-pos { font-family: Helvetica, Arial, sans-serif; font-size: 9px; fill: #c62828; }
  .rass-dev-neg { font-family: Helvetica, Arial, sans-serif; font-size: 9px; fill: #1565c0; }
  .rass-dev-na { font-family: Helvetica, Arial, sans-serif; font-size: 9px; fill: #666666; }
</style>
<rect x="0" y="0" width="1180" height="760" fill="#ffffff" />
<text class="title" x="90" y="28">Estimated LCL @ VOR: 1070 m - winds 176, 6g13mph (22:20 PST)</text>
<line class="grid" x1="90" y1="510.00" x2="1110" y2="510.00" />
<text class="label" x="82" y="514.00" text-anchor="end">0</text>
<line class="grid" x1="90" y1="439.23" x2="1110" y2="439.23" />
<text class="label" x="82" y="443.23" text-anchor="end">200</text>
<line class="grid" x1="90" y1="368.46" x2="1110" y2="368.46" />
<text class="label" x="82" y="372.46" text-anchor="end">400</text>
<line class="grid" x1="90" y1="297.69" x2="1110" y2="297.69" />
<text class="label" x="82" y="301.69" text-anchor="end">600</text>
<line class="grid" x1="90" y1="226.92" x2="1110" y2="226.92" />
<text class="label" x="82" y="230.92" text-anchor="end">800</text>
<line class="grid" x1="90" y1="156.15" x2="1110" y2="156.15" />
<text class="label" x="82" y="160.15" text-anchor="end">1000</text>
<line class="grid" x1="90" y1="85.38" x2="1110" y2="85.38" />
<text class="label" x="82" y="89.38" text-anchor="end">1200</text>
<line class="grid" x1="266.76" y1="50" x2="266.76" y2="510" />
<text class="label" x="266.76" y="528" text-anchor="middle">5.0</text>
<line class="grid" x1="637.93" y1="50" x2="637.93" y2="510" />
<text class="label" x="637.93" y="528" text-anchor="middle">10.0</text>
<line class="grid" x1="1009.11" y1="50" x2="1009.11" y2="510" />
<text class="label" x="1009.11" y="528" text-anchor="middle">15.0</text>
<line class="axis" x1="90" y1="50" x2="90" y2="510" />
<line class="axis" x1="90" y1="510" x2="1110" y2="510" />
<text class="label" x="600.00" y="546" text-anchor="middle">Temperature (C)</text>
<text class="label" x="26" y="280.00" text-anchor="middle" transform="rotate(-90 26 280.00)">Altitude (m)</text>
<path class="rass" d="M927.38,439.23 L920.33,403.85 L818.25,368.46 L718.63,333.08 L631.77,297.69 L575.58,262.31 L531.48,226.92 L473.95,191.54 L433.49,156.15 L413.89,120.77 L423.91,85.38" />
<path class="dalr" d="M1072.88,510.00 L127.12,50.00" />
<circle class="rass-point" cx="927.38" cy="439.23" r="2" />
<text class="rass-dev-na" x="933.38" y="436.23" text-anchor="start">(n/a)</text>
<circle class="rass-point" cx="920.33" cy="403.85" r="2" />
<text class="rass-dev-pos" x="914.33" y="400.85" text-anchor="end">(+0.9)</text>
<circle class="rass-point" cx="818.25" cy="368.46" r="2" />
<text class="rass-dev-neg" x="824.25" y="365.46" text-anchor="start">(-0.4)</text>
<circle class="rass-point" cx="718.63" cy="333.08" r="2" />
<text class="rass-dev-neg" x="712.63" y="330.08" text-anchor="end">(-0.4)</text>
<circle class="rass-point" cx="631.77" cy="297.69" r="2" />
<text class="rass-dev-neg" x="637.77" y="294.69" text-anchor="start">(-0.2)</text>
<circle class="rass-point" cx="575.58" cy="262.31" r="2" />
<text class="rass-dev-pos" x="569.58" y="259.31" text-anchor="end">(+0.2)</text>
<circle class="rass-point" cx="531.48" cy="226.92" r="2" />
<text class="rass-dev-pos" x="537.48" y="223.92" text-anchor="start">(+0.4)</text>
<circle class="rass-point" cx="473.95" cy="191.54" r="2" />
<text class="rass-dev-pos" x="467.95" y="188.54" text-anchor="end">(+0.2)</text>
<circle class="rass-point" cx="433.49" cy="156.15" r="2" />
<text class="rass-dev-pos" x="439.49" y="153.15" text-anchor="start">(+0.4)</text>
<circle class="rass-point" cx="413.89" cy="120.77" r="2" />
<text class="rass-dev-pos" x="407.89" y="117.77" text-anchor="end">(+0.7)</text>
<circle class="rass-point" cx="423.91" cy="85.38" r="2" />
<text class="rass-dev-pos" x="429.91" y="82.38" text-anchor="start">(+1.1)</text>
<rect class="station" x="346.24" y="82.03" width="6" height="6" />
<line class="barb-shaft" x1="349.24" y1="85.03" x2="351.12" y2="102.93" />
<line class="barb-feather" x1="351.12" y1="102.93" x2="343.95" y2="101.67" />
<line class="barb-feather" x1="350.70" y1="98.95" x2="346.60" y2="98.18" />
<text class="station-label" x="355.24" y="89.03" text-anchor="start">La Cumbre</text>
<text class="station-dev-na" x="355.24" y="99.03" text-anchor="start"><tspan class="station-dev-pos">(+1.3)</tspan><tspan fill="#444444"> (-13min)</tspan></text>
<rect class="station" x="341.70" y="128.42" width="6" height="6" />
<line class="barb-shaft" x1="344.70" y1="131.42" x2="345.99" y2="149.37" />
<line class="barb-feather" x1="345.99" y1="149.37" x2="341.92" y2="148.46" />
<text class="station-label" x="350.70" y="135.42" text-anchor="start">VOR</text>
<text class="station-dev-na" x="350.70" y="145.42" text-anchor="start"><tspan class="station-dev-pos">(+0.8)</tspan><tspan fill="#444444"> (-30min)</tspan></text>
<rect class="station" x="538.43" y="253.01" width="6" height="6" />
<line class="barb-shaft" x1="541.43" y1="256.01" x2="557.08" y2="247.11" />
<line class="barb-feather" x1="557.08" y1="247.11" x2="558.01" y2="251.18" />
<text class="station-label" x="547.43" y="260.01" text-anchor="start">AntFarm</text>
<text class="station-dev-na" x="547.43" y="270.01" text-anchor="start"><tspan class="station-dev-pos">(+0.9)</tspan><tspan fill="#444444"> (-3min)</tspan></text>
<rect class="station" x="634.93" y="332.38" width="6" height="6" />
<line class="barb-shaft" x1="637.93" y1="335.38" x2="627.61" y2="350.12" />
<line class="barb-feather" x1="627.61" y1="350.12" x2="625.02" y2="346.84" />
<text class="station-label" x="643.93" y="339.38" text-anchor="start">Montecito</text>
<text class="station-dev-na" x="643.93" y="349.38" text-anchor="start"><tspan class="station-dev-pos">(+0.0)</tspan><tspan fill="#444444"> (+33min)</tspan></text>
<rect class="station" x="819.71" y="422.89" width="6" height="6" />
<circle class="barb-shaft" cx="822.71" cy="425.89" r="2.5" fill="none" />
<text class="station-label" x="828.71" y="429.89" text-anchor="start">Parma</text>
<text class="station-dev-na" x="828.71" y="439.89" text-anchor="start"><tspan class="station-dev-pos">(+1.8)</tspan><tspan fill="#444444"> (+5min)</tspan></text>
<rect class="station" x="857.64" y="505.94" width="6" height="6" />
<line class="barb-shaft" x1="860.64" y1="508.94" x2="849.07" y2="522.73" />
<line class="barb-feather" x1="849.07" y1="522.73" x2="846.78" y2="519.24" />
<text class="station-label" x="866.64" y="498.00" text-anchor="start">Airport</text>
<text class="station-dev-na" x="866.64" y="508.00" text-anchor="start">(n/a)</text>
<line class="rass" x1="90" y1="562" x2="114" y2="562" />
<text class="label" x="120" y="566">RASS @ 21:55</text>
<line class="dalr" x1="310" y1="562" x2="334" y2="562" />
<text class="label" x="340" y="566">DALR (9.8 C/km)</text>
<text class="legend-h" x="90" y="596">Stations</text>
<text class="legend-row" x="90" y="612"><tspan>La Cumbre 1201m @ 22:33 - 6.1C, winds 174, 15g22mph, DALR dev </tspan><tspan fill="#c62828">VOR:+1.3C</tspan><tspan>; </tspan><tspan fill="#c62828">AntFarm:+2.1C</tspan><tspan>; </tspan><tspan fill="#c62828">Montecito:+3.0C</tspan><tspan>; </tspan><tspan fill="#c62828">Parma:+3.1C</tspan><tspan>; </tspan><tspan fill="#c62828">Airport:+4.9C</tspan></text>
<text class="legend-row" x="90" y="626"><tspan>VOR 1070m @ 22:20 - 6.1C, winds 176, 6g13mph, DALR dev </tspan><tspan fill="#c62828">AntFarm:+0.8C</tspan><tspan>; </tspan><tspan fill="#c62828">Montecito:+1.7C</tspan><tspan>; </tspan><tspan fill="#c62828">Parma:+1.7C</tspan><tspan>; </tspan><tspan fill="#c62828">Airport:+3.5C</tspan></text>
<text class="legend-row" x="90" y="640"><tspan>AntFarm 718m @ 22:20 - 8.7C, winds 060, 6g11mph, DALR dev </tspan><tspan fill="#c62828">Montecito:+0.9C</tspan><tspan>; </tspan><tspan fill="#c62828">Parma:+0.9C</tspan><tspan>; </tspan><tspan fill="#c62828">Airport:+2.7C</tspan></text>
<text class="legend-row" x="90" y="654"><tspan>Montecito 494m @ 21:47 - 10.0C, winds 215, 4g11mph, DALR dev </tspan><tspan fill="#c62828">Parma:+0.0C</tspan><tspan>; </tspan><tspan fill="#c62828">Airport:+1.8C</tspan></text>
<text class="legend-row" x="90" y="668">SM Pass 454m @ 22:06 - temp missing, winds 132, 5g10mph, DALR dev missing</text>
<text class="legend-row" x="90" y="682"><tspan>Parma 238m @ 22:20 - 12.5C, winds 175, 1g4mph, DALR dev </tspan><tspan fill="#c62828">Airport:+1.8C</tspan></text>
<text class="legend-row" x="90" y="696">Airport 3m @ 22:25 - 13.0C, winds 220, 5g17mph, DALR dev n/a</text>
</svg>