<svg xmlns="http://www.w3.org/2000/svg" width="1180" height="760" viewBox="0 0 1180 760">
<style>
  .axis { stroke: #202020; stroke-width: 1; }
  .grid { stroke: #dddddd; stroke-width: 1; }
  .title { font-family: Helvetica, Arial, sans-serif; font-size: 16px; font-weight: 600; fill: #111111; }
  .label { font-family: Helvetica, Arial, sans-serif; font-size: 12px; fill: #222222; }
  .legend-h { font-family: Helvetica, Arial, sans-serif; font-size: 12px; font-weight: 600; fill: #222222; }
  .legend-row { font-family: Helvetica, Arial, sans-serif; font-size: 11px; fill: #333333; }
  .rass { fill: none; stroke: #000000; stroke-width: 2; }
  .dalr { fill: none; stroke: #000000; stroke-width: 1.5; stroke-dasharray: 6 4; stroke-opacity: 0.45; }
  .rass-point { fill: #0077b6; }
  .station { fill: #f4a261; stroke: #8b4c12; stroke-width: 1; }
  .barb-shaft { stroke: #1f2937; stroke-width: 1.3; }
  .barb-feather { stroke: #1f2937; stroke-width: 1.2; }
  .barb-flag { fill: #1f2937; stroke: #1f2937; stroke-width: 1; }
  .station-label { font-family: Helvetica, Arial, sans-serif; font-size: 11px; fill: #444444; }
  .station-dev-pos { font-family: Helvetica, Arial, sans-serif; font-size: 10px; fill: #c62828; }
  .station-dev-neg { font-family: Helvetica, Arial, sans-serif; font-size: 10px; fill: #1565c0; }
  .station-dev-na { font-family: Helvetica, Arial, sans-serif; font-size: 10px; fill: #666666; }
  .rass-dev-pos { font-family: Helvetica, Arial, sans-serif; font-size: 9px; fill: #c62828; }
  .rass-dev-neg { font-family: Helvetica, Arial, sans-serif; font-size: 9px; fill: #1565c0; }
  .rass-dev-na { font-family: Helvetica, Arial, sans-serif; font-size: 9px; fill: #666666; }
</style>
<rect x="0" y="0" width="1180" height="760" fill="#ffffff" />
<text class="title" x="90" y="28">Estimated LCL @ VOR: 4667 ft - winds 152, 5g10mph (10:00 PST)</text>
<line class="grid" x1="90" y1="510.00" x2="1110" y2="510.00" />
<text class="label" x="82" y="514.00" text-anchor="end">0</text>
<line class="grid" x1="90" y1="452.50" x2="1110" y2="452.50" />
<text class="label" x="82" y="456.50" text-anchor="end">500</text>
<line class="grid" x1="90" y1="395.00" x2="1110" y2="395.00" />
<text class="label" x="82" y="399.00" text-anchor="end">1000</text>
<line class="grid" x1="90" y1="337.50" x2="1110" y2="337.50" />
<text class="label" x="82" y="341.50" text-anchor="end">1500</text>
<line class="grid" x1="90" y1="280.00" x2="1110" y2="280.00" />
<text class="label" x="82" y="284.00" text-anchor="end">2000</text>
<line class="grid" x1="90" y1="222.50" x2="1110" y2="222.50" />
<text class="label" x="82" y="226.50" text-anchor="end">2500</text>
<line class="grid" x1="90" y1="165.00" x2="1110" y2="165.00" />
<text class="label" x="82" y="169.00" text-anchor="end">3000</text>
<line class="grid" x1="90" y1="107.50" x2="1110" y2="107.50" />
<text class="label" x="82" y="111.50" text-anchor="end">3500</text>
<line class="grid" x1="90" y1="50.00" x2="1110" y2="50.00" />
<text class="label" x="82" y="54.00" text-anchor="end">4000</text>
<line class="grid" x1="110.86" y1="50" x2="110.86" y2="510" />
<text class="label" x="110.86" y="528" text-anchor="middle">40.0</text>
<line class="grid" x1="336.52" y1="50" x2="336.52" y2="510" />
<text class="label" x="336.52" y="528" text-anchor="middle">45.0</text>
<line class="grid" x1="562.18" y1="50" x2="562.18" y2="510" />
<text class="label" x="562.18" y="528" text-anchor="middle">50.0</text>
<line class="grid" x1="787.85" y1="50" x2="787.85" y2="510" />
<text class="label" x="787.85" y="528" text-anchor="middle">55.0</text>
<line class="grid" x1="1013.51" y1="50" x2="1013.51" y2="510" />
<text class="label" x="1013.51" y="528" text-anchor="middle">60.0</text>
<line class="axis" x1="90" y1="50" x2="90" y2="510" />
<line class="axis" x1="90" y1="510" x2="1110" y2="510" />
<text class="label" x="600.00" y="546" text-anchor="middle">Temperature (F)</text>
<text class="label" x="26" y="280.00" text-anchor="middle" transform="rotate(-90 26 280.00)">Altitude (ft)</text>
<path class="rass" d="M927.51,434.54 L904.28,396.81 L777.14,359.08 L659.67,321.35 L583.55,283.62 L507.67,245.89 L442.03,208.16 L363.63,170.43 L288.33,132.70" />
<path class="dalr" d="M1087.43,510.00 L112.57,50.00" />
<circle class="rass-point" cx="927.51" cy="434.54" r="2" />
<text class="rass-dev-na" x="933.51" y="431.54" text-anchor="start">(n/a)</text>
<circle class="rass-point" cx="904.28" cy="396.81" r="2" />
<text class="rass-dev-pos" x="898.28" y="393.81" text-anchor="end">(+1.3)</text>
<circle class="rass-point" cx="777.14" cy="359.08" r="2" />
<text class="rass-dev-neg" x="783.14" y="356.08" text-anchor="start">(-1.0)</text>
<circle class="rass-point" cx="659.67" cy="321.35" r="2" />
<text class="rass-dev-neg" x="653.67" y="318.35" text-anchor="end">(-0.8)</text>
<circle class="rass-point" cx="583.55" cy="283.62" r="2" />
<text class="rass-dev-pos" x="589.55" y="280.62" text-anchor="start">(+0.1)</text>
<circle class="rass-point" cx="507.67" cy="245.89" r="2" />
<text class="rass-dev-pos" x="501.67" y="242.89" text-anchor="end">(+0.1)</text>
<circle class="rass-point" cx="442.03" cy="208.16" r="2" />
<text class="rass-dev-pos" x="448.03" y="205.16" text-anchor="start">(+0.3)</text>
<circle class="rass-point" cx="363.63" cy="170.43" r="2" />
<text class="rass-dev-pos" x="357.63" y="167.43" text-anchor="end">(+0.0)</text>
<circle class="rass-point" cx="288.33" cy="132.70" r="2" />
<text class="rass-dev-pos" x="294.33" y="129.70" text-anchor="start">(+0.1)</text>
<rect class="station" x="333.52" y="53.87" width="6" height="6" />
<line class="barb-shaft" x1="336.52" y1="56.87" x2="343.55" y2="73.44" />
<line class="barb-feather" x1="343.55" y1="73.44" x2="336.33" y2="74.33" />
<text class="station-label" x="342.52" y="64.00" text-anchor="start">La Cumbre</text>
<text class="station-dev-na" x="342.52" y="74.00" text-anchor="start"><tspan class="station-dev-pos">(+2.1)</tspan><tspan fill="#444444"> (-11min)</tspan></text>
<rect class="station" x="344.79" y="103.33" width="6" height="6" />
<line class="barb-shaft" x1="347.79" y1="106.33" x2="356.10" y2="122.30" />
<line class="barb-feather" x1="356.10" y1="122.30" x2="352.00" y2="123.08" />
<text class="station-label" x="353.79" y="110.33" text-anchor="start">VOR</text>
<text class="station-dev-na" x="353.79" y="120.33" text-anchor="start"><tspan class="station-dev-pos">(+3.1)</tspan><tspan fill="#444444"> (+0min)</tspan></text>
<rect class="station" x="488.34" y="236.18" width="6" height="6" />
<line class="barb-shaft" x1="491.34" y1="239.18" x2="507.54" y2="231.31" />
<line class="barb-feather" x1="507.54" y1="231.31" x2="508.79" y2="238.48" />
<line class="barb-feather" x1="503.94" y1="233.06" x2="504.61" y2="237.18" />
<text class="station-label" x="497.34" y="243.18" text-anchor="start">AntFarm</text>
<text class="station-dev-na" x="497.34" y="253.18" text-anchor="start"><tspan class="station-dev-pos">(+0.4)</tspan><tspan fill="#444444"> (-13min)</tspan></text>
<rect class="station" x="649.44" y="320.80" width="6" height="6" />
<line class="barb-shaft" x1="652.44" y1="323.80" x2="668.88" y2="331.13" />
<line class="barb-feather" x1="668.88" y1="331.13" x2="664.21" y2="336.71" />
<text class="station-label" x="658.44" y="327.80" text-anchor="start">Montecito</text>
<text class="station-dev-na" x="658.44" y="337.80" text-anchor="start"><tspan class="station-dev-neg">(-0.3)</tspan><tspan fill="#444444"> (+13min)</tspan></text>
<rect class="station" x="865.62" y="417.32" width="6" height="6" />
<circle class="barb-shaft" cx="868.62" cy="420.32" r="2.5" fill="none" />
<text class="station-label" x="874.62" y="424.32" text-anchor="start">Parma</text>
<text class="station-dev-na" x="874.62" y="434.32" text-anchor="start"><tspan class="station-dev-pos">(+0.1)</tspan><tspan fill="#444444"> (-5min)</tspan></text>
<rect class="station" x="1046.62" y="505.87" width="6" height="6" />
<line class="barb-shaft" x1="1049.62" y1="508.87" x2="1066.53" y2="515.02" />
<line class="barb-feather" x1="1066.53" y1="515.02" x2="1062.26" y2="520.92" />
<text class="station-label" x="1055.62" y="498.00" text-anchor="start">Airport</text>
<text class="station-dev-na" x="1055.62" y="508.00" text-anchor="start">(n/a)</text>
<line class="rass" x1="90" y1="562" x2="114" y2="562" />
<text class="label" x="120" y="566">RASS @ 09:55</text>
<line class="dalr" x1="310" y1="562" x2="334" y2="562" />
<text class="label" x="340" y="566">DALR (5.4 F/1000 ft)</text>
<text class="legend-h" x="90" y="596">Stations</text>
<text class="legend-row" x="90" y="612"><tspan>La Cumbre 3940ft @ 10:11 - 45.0F, winds 157, 9g14mph, DALR dev </tspan><tspan fill="#c62828">VOR:+2.1F</tspan><tspan>; </tspan><tspan fill="#c62828">AntFarm:+5.1F</tspan><tspan>; </tspan><tspan fill="#c62828">Montecito:+5.5F</tspan><tspan>; </tspan><tspan fill="#c62828">SM Pass:+7.2F</tspan><tspan>; </tspan><tspan fill="#c62828">Parma:+5.3F</tspan><tspan>; </tspan><tspan fill="#c62828">Airport:+5.4F</tspan></text>
<text class="legend-row" x="90" y="626"><tspan>VOR 3510ft @ 10:00 - 45.2F, winds 152, 5g10mph, DALR dev </tspan><tspan fill="#c62828">AntFarm:+3.1F</tspan><tspan>; </tspan><tspan fill="#c62828">Montecito:+3.5F</tspan><tspan>; </tspan><tspan fill="#c62828">SM Pass:+5.2F</tspan><tspan>; </tspan><tspan fill="#c62828">Parma:+3.2F</tspan><tspan>; </tspan><tspan fill="#c62828">Airport:+3.4F</tspan></text>
<text class="legend-row" x="90" y="640"><tspan>AntFarm 2355ft @ 10:00 - 48.4F, winds 064, 16g23mph, DALR dev </tspan><tspan fill="#c62828">Montecito:+0.4F</tspan><tspan>; </tspan><tspan fill="#c62828">SM Pass:+2.1F</tspan><tspan>; </tspan><tspan fill="#c62828">Parma:+0.1F</tspan><tspan>; </tspan><tspan fill="#c62828">Airport:+0.3F</tspan></text>
<text class="legend-row" x="90" y="654"><tspan>Montecito 1619ft @ 09:47 - 52.0F, winds 114, 9g14mph, DALR dev </tspan><tspan fill="#c62828">SM Pass:+1.7F</tspan><tspan>; </tspan><tspan fill="#1565c0">Parma:-0.3F</tspan><tspan>; </tspan><tspan fill="#1565c0">Airport:-0.1F</tspan></text>
<text class="legend-row" x="90" y="668"><tspan>SM Pass 1491ft @ 09:06 - 51.0F, winds 091, 10g16mph, DALR dev </tspan><tspan fill="#1565c0">Parma:-1.9F</tspan><tspan>; </tspan><tspan fill="#1565c0">Airport:-1.8F</tspan></text>
<text class="legend-row" x="90" y="682"><tspan>Parma 780ft @ 10:00 - 56.8F, winds 209, 3g8mph, DALR dev </tspan><tspan fill="#c62828">Airport:+0.1F</tspan></text>
<text class="legend-row" x="90" y="696">Airport 10ft @ 09:55 - 60.8F, winds 110, 10g17mph, DALR dev n/a</text>
</svg>