<svg xmlns="http://www.w3.org/2000/svg" width="1180" height="760" viewBox="0 0 1180 760">
<style>
  .axis { stroke: #202020; stroke-width: 1; }
  .grid { stroke: #dddddd; stroke-width: 1; }
  .title { font-family: Helvetica, Arial, sans-serif; font-size: 16px; font-weight: 600; fill: #111111; }
  .label { font-family: Helvetica, Arial, sans-serif; font-size: 12px; fill: #222222; }
  .legend-h { font-family: Helvetica, Arial, sans-serif; font-size: 12px; font-weight: 600; fill: #222222; }
  .legend-row { font-family: Helvetica, Arial, sans-serif; font-size: 11px; fill: #333333; }
  .rass { fill: none; stroke: #000000; stroke-width: 2; }
  .dalr { fill: none; stroke: #000000; stroke-width: 1.5; stroke-dasharray: 6 4; stroke-opacity: 0.45; }
  .rass-point { fill: #0077b6; }
  .station { fill: #f4a261; stroke: #8b4c12; stroke-width: 1; }
  .barb-shaft { stroke: #1f2937; stroke-width: 1.3; }
  .barb-feather { stroke: #1f2937; stroke-width: 1.2; }
  .barb-flag { fill: #1f2937; stroke: #1f2937; stroke-width: 1; }
  .station-label { font-family: Helvetica, Arial, sans-serif; font-size: 11px; fill: #444444; }
  .station-dev-pos { font-family: Helvetica, Arial, sans-serif; font-size: 10px; fill: #c62828; }
  .station-dev-neg { font-family: Helvetica, Arial, sans-serif; font-size: 10px; fill: #1565c0; }
  .station-dev-na { font-family: Helvetica, Arial, sans-serif; font-size: 10px; fill: #666666; }
  .rass-dev-pos { font-family: Helvetica, Arial, sans-serif; font-size: 9px; fill: #c62828; }
  .rass-dev-neg { font-family: Helvetica, Arial, sans-serif; font-size: 9px; fill: #1565c0; }
  .rass-dev-na { font-family: Helvetica, Arial, sans-serif; font-size: 9px; fill: #666666; }
</style>
<rect x="0" y="0" width="1180" height="760" fill="#ffffff" />
<text class="title" x="90" y="28">Estimated LCL @ VOR: 3512 ft - winds 213, 12g16mph (00:40 PST)</text>
<line class="grid" x1="90" y1="510.00" x2="1110" y2="510.00" />
<text class="label" x="82" y="514.00" text-anchor="end">0</text>
<line class="grid" x1="90" y1="466.60" x2="1110" y2="466.60" />
<text class="label" x="82" y="470.60" text-anchor="end">500</text>
<line class="grid" x1="90" y1="423.21" x2="1110" y2="423.21" />
<text class="label" x="82" y="427.21" text-anchor="end">1000</text>
<line class="grid" x1="90" y1="379.81" x2="1110" y2="379.81" />
<text class="label" x="82" y="383.81" text-anchor="end">1500</text>
<line class="grid" x1="90" y1="336.42" x2="1110" y2="336.42" />
<text class="label" x="82" y="340.42" text-anchor="end">2000</text>
<line class="grid" x1="90" y1="293.02" x2="1110" y2="293.02" />
<text class="label" x="82" y="297.02" text-anchor="end">2500</text>
<line class="grid" x1="90" y1="249.62" x2="1110" y2="249.62" />
<text class="label" x="82" y="253.62" text-anchor="end">3000</text>
<line class="grid" x1="90" y1="206.23" x2="1110" y2="206.23" />
<text class="label" x="82" y="210.23" text-anchor="end">3500</text>
<line class="grid" x1="90" y1="162.83" x2="1110" y2="162.83" />
<text class="label" x="82" y="166.83" text-anchor="end">4000</text>
<line class="grid" x1="90" y1="119.43" x2="1110" y2="119.43" />
<text class="label" x="82" y="123.43" text-anchor="end">4500</text>
<line class="grid" x1="90" y1="76.04" x2="1110" y2="76.04" />
<text class="label" x="82" y="80.04" text-anchor="end">5000</text>
<line class="grid" x1="231.57" y1="50" x2="231.57" y2="510" />
<text class="label" x="231.57" y="528" text-anchor="middle">35.0</text>
<line class="grid" x1="403.75" y1="50" x2="403.75" y2="510" />
<text class="label" x="403.75" y="528" text-anchor="middle">40.0</text>
<line class="grid" x1="575.93" y1="50" x2="575.93" y2="510" />
<text class="label" x="575.93" y="528" text-anchor="middle">45.0</text>
<line class="grid" x1="748.11" y1="50" x2="748.11" y2="510" />
<text class="label" x="748.11" y="528" text-anchor="middle">50.0</text>
<line class="grid" x1="920.29" y1="50" x2="920.29" y2="510" />
<text class="label" x="920.29" y="528" text-anchor="middle">55.0</text>
<line class="grid" x1="1092.48" y1="50" x2="1092.48" y2="510" />
<text class="label" x="1092.48" y="528" text-anchor="middle">60.0</text>
<line class="axis" x1="90" y1="50" x2="90" y2="510" />
<line class="axis" x1="90" y1="510" x2="1110" y2="510" />
<text class="label" x="600.00" y="546" text-anchor="middle">Temperature (F)</text>
<text class="label" x="26" y="280.00" text-anchor="middle" transform="rotate(-90 26 280.00)">Altitude (ft)</text>
<path class="rass" d="M970.76,453.05 L923.53,424.57 L865.02,396.10 L816.73,367.62 L769.50,339.15 L727.04,310.67 L681.23,282.20 L617.26,253.72 L549.88,225.25 L506.68,196.77 L463.66,168.30 L409.05,139.82 L352.96,111.35 L305.54,82.87 L274.48,54.40" />
<path class="dalr" d="M1092.78,510.00 L107.22,50.00" />
<circle class="rass-point" cx="970.76" cy="453.05" r="2" />
<text class="rass-dev-na" x="976.76" y="450.05" text-anchor="start">(n/a)</text>
<circle class="rass-point" cx="923.53" cy="424.57" r="2" />
<text class="rass-dev-pos" x="917.53" y="421.57" text-anchor="end">(+0.4)</text>
<circle class="rass-point" cx="865.02" cy="396.10" r="2" />
<text class="rass-dev-pos" x="871.02" y="393.10" text-anchor="start">(+0.1)</text>
<circle class="rass-point" cx="816.73" cy="367.62" r="2" />
<text class="rass-dev-pos" x="810.73" y="364.62" text-anchor="end">(+0.4)</text>
<circle class="rass-point" cx="769.50" cy="339.15" r="2" />
<text class="rass-dev-pos" x="775.50" y="336.15" text-anchor="start">(+0.4)</text>
<circle class="rass-point" cx="727.04" cy="310.67" r="2" />
<text class="rass-dev-pos" x="721.04" y="307.67" text-anchor="end">(+0.5)</text>
<circle class="rass-point" cx="681.23" cy="282.20" r="2" />
<text class="rass-dev-pos" x="687.23" y="279.20" text-anchor="start">(+0.4)</text>
<circle class="rass-point" cx="617.26" cy="253.72" r="2" />
<text class="rass-dev-neg" x="611.26" y="250.72" text-anchor="end">(-0.1)</text>
<circle class="rass-point" cx="549.88" cy="225.25" r="2" />
<text class="rass-dev-neg" x="555.88" y="222.25" text-anchor="start">(-0.2)</text>
<circle class="rass-point" cx="506.68" cy="196.77" r="2" />
<text class="rass-dev-pos" x="500.68" y="193.77" text-anchor="end">(+0.5)</text>
<circle class="rass-point" cx="463.66" cy="168.30" r="2" />
<text class="rass-dev-pos" x="469.66" y="165.30" text-anchor="start">(+0.5)</text>
<circle class="rass-point" cx="409.05" cy="139.82" r="2" />
<text class="rass-dev-pos" x="403.05" y="136.82" text-anchor="end">(+0.2)</text>
<circle class="rass-point" cx="352.96" cy="111.35" r="2" />
<text class="rass-dev-pos" x="358.96" y="108.35" text-anchor="start">(+0.1)</text>
<circle class="rass-point" cx="305.54" cy="82.87" r="2" />
<text class="rass-dev-pos" x="299.54" y="79.87" text-anchor="end">(+0.4)</text>
<circle class="rass-point" cx="274.48" cy="54.40" r="2" />
<text class="rass-dev-pos" x="280.48" y="58.00" text-anchor="start">(+0.9)</text>
<rect class="station" x="469.62" y="165.01" width="6" height="6" />
<line class="barb-shaft" x1="472.62" y1="168.01" x2="470.43" y2="185.88" />
<line class="barb-feather" x1="470.43" y1="185.88" x2="463.73" y2="183.04" />
<text class="station-label" x="478.62" y="172.01" text-anchor="start">La Cumbre</text>
<text class="station-dev-na" x="478.62" y="182.01" text-anchor="start"><tspan class="station-dev-pos">(+3.0)</tspan><tspan fill="#444444"> (-33min)</tspan></text>
<rect class="station" x="447.21" y="202.34" width="6" height="6" />
<line class="barb-shaft" x1="450.21" y1="205.34" x2="440.46" y2="220.47" />
<line class="barb-feather" x1="440.46" y1="220.47" x2="435.66" y2="215.00" />
<text class="station-label" x="456.21" y="209.34" text-anchor="start">VOR</text>
<text class="station-dev-na" x="456.21" y="219.34" text-anchor="start"><tspan class="station-dev-pos">(+1.1)</tspan><tspan fill="#444444"> (+20min)</tspan></text>
<rect class="station" x="625.60" y="302.60" width="6" height="6" />
<circle class="barb-shaft" cx="628.60" cy="305.60" r="2.5" fill="none" />
<text class="station-label" x="634.60" y="309.60" text-anchor="start">AntFarm</text>
<text class="station-dev-na" x="634.60" y="319.60" text-anchor="start"><tspan class="station-dev-pos">(+1.5)</tspan><tspan fill="#444444"> (-13min)</tspan></text>
<rect class="station" x="710.65" y="366.47" width="6" height="6" />
<line class="barb-shaft" x1="713.65" y1="369.47" x2="708.39" y2="386.69" />
<line class="barb-feather" x1="708.39" y1="386.69" x2="704.91" y2="384.37" />
<text class="station-label" x="719.65" y="373.47" text-anchor="start">Montecito</text>
<text class="station-dev-na" x="719.65" y="383.47" text-anchor="start"><tspan class="station-dev-pos">(+0.8)</tspan><tspan fill="#444444"> (+13min)</tspan></text>
<rect class="station" x="838.46" y="439.31" width="6" height="6" />
<circle class="barb-shaft" cx="841.46" cy="442.31" r="2.5" fill="none" />
<text class="station-label" x="847.46" y="446.31" text-anchor="start">Parma</text>
<text class="station-dev-na" x="847.46" y="456.31" text-anchor="start"><tspan class="station-dev-pos">(+1.5)</tspan><tspan fill="#444444"> (+0min)</tspan></text>
<rect class="station" x="931.07" y="506.15" width="6" height="6" />
<line class="barb-shaft" x1="934.07" y1="509.15" x2="945.64" y2="495.36" />
<line class="barb-feather" x1="945.64" y1="495.36" x2="947.93" y2="498.85" />
<text class="station-label" x="940.07" y="498.00" text-anchor="start">Airport</text>
<text class="station-dev-na" x="940.07" y="508.00" text-anchor="start">(n/a)</text>
<line class="rass" x1="90" y1="562" x2="114" y2="562" />
<text class="label" x="120" y="566">RASS @ 00:55</text>
<line class="dalr" x1="310" y1="562" x2="334" y2="562" />
<text class="label" x="340" y="566">DALR (5.4 F/1000 ft)</text>
<text class="legend-h" x="90" y="596">Stations</text>
<text class="legend-row" x="90" y="612"><tspan>La Cumbre 3940ft @ 01:13 - 42.0F, winds 187, 12g12mph, DALR dev </tspan><tspan fill="#c62828">VOR:+3.0F</tspan><tspan>; </tspan><tspan fill="#c62828">AntFarm:+4.0F</tspan><tspan>; </tspan><tspan fill="#c62828">Montecito:+5.5F</tspan><tspan>; </tspan><tspan fill="#c62828">SM Pass:+5.2F</tspan><tspan>; </tspan><tspan fill="#c62828">Parma:+6.4F</tspan><tspan>; </tspan><tspan fill="#c62828">Airport:+7.8F</tspan></text>
<text class="legend-row" x="90" y="626"><tspan>VOR 3510ft @ 00:40 - 41.3F, winds 213, 12g16mph, DALR dev </tspan><tspan fill="#c62828">AntFarm:+1.1F</tspan><tspan>; </tspan><tspan fill="#c62828">Montecito:+2.6F</tspan><tspan>; </tspan><tspan fill="#c62828">SM Pass:+2.3F</tspan><tspan>; </tspan><tspan fill="#c62828">Parma:+3.4F</tspan><tspan>; </tspan><tspan fill="#c62828">Airport:+4.9F</tspan></text>
<text class="legend-row" x="90" y="640"><tspan>AntFarm 2355ft @ 01:00 - 46.5F, winds 262, 2g5mph, DALR dev </tspan><tspan fill="#c62828">Montecito:+1.5F</tspan><tspan>; </tspan><tspan fill="#c62828">SM Pass:+1.2F</tspan><tspan>; </tspan><tspan fill="#c62828">Parma:+2.3F</tspan><tspan>; </tspan><tspan fill="#c62828">Airport:+3.8F</tspan></text>
<text class="legend-row" x="90" y="654"><tspan>Montecito 1619ft @ 00:47 - 49.0F, winds 197, 5g9mph, DALR dev </tspan><tspan fill="#1565c0">SM Pass:-0.3F</tspan><tspan>; </tspan><tspan fill="#c62828">Parma:+0.8F</tspan><tspan>; </tspan><tspan fill="#c62828">Airport:+2.3F</tspan></text>
<text class="legend-row" x="90" y="668"><tspan>SM Pass 1491ft @ 00:06 - 50.0F, winds 168, 2g10mph, DALR dev </tspan><tspan fill="#c62828">Parma:+1.1F</tspan><tspan>; </tspan><tspan fill="#c62828">Airport:+2.6F</tspan></text>
<text class="legend-row" x="90" y="682"><tspan>Parma 780ft @ 01:00 - 52.7F, winds 011, 0g1mph, DALR dev </tspan><tspan fill="#c62828">Airport:+1.5F</tspan></text>
<text class="legend-row" x="90" y="696">Airport 10ft @ 01:00 - 55.4F, winds 040, 6g17mph, DALR dev n/a</text>
</svg>