<svg xmlns="http://www.w3.org/2000/svg" width="1180" height="760" viewBox="0 0 1180 760">
<style>
  .axis { stroke: #202020; stroke-width: 1; }
  .grid { stroke: #dddddd; stroke-width: 1; }
  .title { font-family: Helvetica, Arial, sans-serif; font-size: 16px; font-weight: 600; fill: #111111; }
  .label { font-family: Helvetica, Arial, sans-serif; font-size: 12px; fill: #222222; }
  .legend-h { font-family: Helvetica, Arial, sans-serif; font-size: 12px; font-weight: 600; fill: #222222; }
  .legend-row { font-family: Helvetica, Arial, sans-serif; font-size: 11px; fill: #333333; }
  .rass { fill: none; stroke: #000000; stroke-width: 2; }
  .dalr { fill: none; stroke: #000000; stroke-width: 1.5; stroke-dasharray: 6 4; stroke-opacity: 0.45; }
  .rass-point { fill: #0077b6; }
  .station { fill: #f4a261; stroke: #8b4c12; stroke-width: 1; }
  .barb-shaft { stroke: #1f2937; stroke-width: 1.3; }
  .barb-feather { stroke: #1f2937; stroke-width: 1.2; }
  .barb-flag { fill: #1f2937; stroke: #1f2937; stroke-width: 1; }
  .station-label { font-family: Helvetica, Arial, sans-serif; font-size: 11px; fill: #444444; }
  .station-dev-pos { font-family: Helvetica, Arial, sans-serif; font-size: 10px; fill: #c62828; }
  .station-dev-neg { font-family: Helvetica, Arial, sans-serif; font-size: 10px; fill: #1565c0; }
  .station-dev-na { font-family: Helvetica, Arial, sans-serif; font-size: 10px; fill: #666666; }
  .rass-dev-pos { font-family: Helvetica, Arial, sans-serif; font-size: 9px; fill: #c62828; }
  .rass-dev-neg { font-family: Helvetica, Arial, sans-serif; font-size: 9px; fill: #1565c0; }
  .rass-dev-na { font-family: Helvetica, Arial, sans-serif; font-size: 9px; fill: #666666; }
</style>
<rect x="0" y="0" width="1180" height="760" fill="#ffffff" />
<text class="title" x="90" y="28">Estimated LCL @ VOR: 1423 m - winds 152, 5g10mph (10:00 PST)</text>
<line class="grid" x1="90" y1="510.00" x2="1110" y2="510.00" />
<text class="label" x="82" y="514.00" text-anchor="end">0</text>
<line class="grid" x1="90" y1="439.23" x2="1110" y2="439.23" />
<text class="label" x="82" y="443.23" text-anchor="end">200</text>
<line class="grid" x1="90" y1="368.46" x2="1110" y2="368.46" />
<text class="label" x="82" y="372.46" text-anchor="end">400</text>
<line class="grid" x1="90" y1="297.69" x2="1110" y2="297.69" />
<text class="label" x="82" y="301.69" text-anchor="end">600</text>
<line class="grid" x1="90" y1="226.92" x2="1110" y2="226.92" />
<text class="label" x="82" y="230.92" text-anchor="end">800</text>
<line class="grid" x1="90" y1="156.15" x2="1110" y2="156.15" />
<text class="label" x="82" y="160.15" text-anchor="end">1000</text>
<line class="grid" x1="90" y1="85.38" x2="1110" y2="85.38" />
<text class="label" x="82" y="89.38" text-anchor="end">1200</text>
<line class="grid" x1="222.36" y1="50" x2="222.36" y2="510" />
<text class="label" x="222.36" y="528" text-anchor="middle">5.0</text>
<line class="grid" x1="593.54" y1="50" x2="593.54" y2="510" />
<text class="label" x="593.54" y="528" text-anchor="middle">10.0</text>
<line class="grid" x1="964.72" y1="50" x2="964.72" y2="510" />
<text class="label" x="964.72" y="528" text-anchor="middle">15.0</text>
<line class="axis" x1="90" y1="50" x2="90" y2="510" />
<line class="axis" x1="90" y1="510" x2="1110" y2="510" />
<text class="label" x="600.00" y="546" text-anchor="middle">Temperature (C)</text>
<text class="label" x="26" y="280.00" text-anchor="middle" transform="rotate(-90 26 280.00)">Altitude (m)</text>
<path class="rass" d="M927.38,439.23 L906.15,403.85 L789.97,368.46 L682.62,333.08 L613.07,297.69 L543.73,262.31 L483.75,226.92 L412.11,191.54 L343.29,156.15" />
<path class="dalr" d="M1072.88,510.00 L127.12,50.00" />
<circle class="rass-point" cx="927.38" cy="439.23" r="2" />
<text class="rass-dev-na" x="933.38" y="436.23" text-anchor="start">(n/a)</text>
<circle class="rass-point" cx="906.15" cy="403.85" r="2" />
<text class="rass-dev-pos" x="900.15" y="400.85" text-anchor="end">(+0.7)</text>
<circle class="rass-point" cx="789.97" cy="368.46" r="2" />
<text class="rass-dev-neg" x="795.97" y="365.46" text-anchor="start">(-0.6)</text>
<circle class="rass-point" cx="682.62" cy="333.08" r="2" />
<text class="rass-dev-neg" x="676.62" y="330.08" text-anchor="end">(-0.5)</text>
<circle class="rass-point" cx="613.07" cy="297.69" r="2" />
<text class="rass-dev-pos" x="619.07" y="294.69" text-anchor="start">(+0.0)</text>
<circle class="rass-point" cx="543.73" cy="262.31" r="2" />
<text class="rass-dev-pos" x="537.73" y="259.31" text-anchor="end">(+0.0)</text>
<circle class="rass-point" cx="483.75" cy="226.92" r="2" />
<text class="rass-dev-pos" x="489.75" y="223.92" text-anchor="start">(+0.2)</text>
<circle class="rass-point" cx="412.11" cy="191.54" r="2" />
<text class="rass-dev-pos" x="406.11" y="188.54" text-anchor="end">(+0.0)</text>
<circle class="rass-point" cx="343.29" cy="156.15" r="2" />
<text class="rass-dev-pos" x="349.29" y="153.15" text-anchor="start">(+0.1)</text>
<rect class="station" x="384.33" y="82.03" width="6" height="6" />
<line class="barb-shaft" x1="387.33" y1="85.03" x2="394.36" y2="101.60" />
<line class="barb-feather" x1="394.36" y1="101.60" x2="387.14" y2="102.49" />
<text class="station-label" x="393.33" y="89.03" text-anchor="start">La Cumbre</text>
<text class="station-dev-na" x="393.33" y="99.03" text-anchor="start"><tspan class="station-dev-pos">(+1.1)</tspan><tspan fill="#444444"> (-11min)</tspan></text>
<rect class="station" x="394.63" y="128.42" width="6" height="6" />
<line class="barb-shaft" x1="397.63" y1="131.42" x2="405.94" y2="147.39" />
<line class="barb-feather" x1="405.94" y1="147.39" x2="401.84" y2="148.17" />
<text class="station-label" x="403.63" y="135.42" text-anchor="start">VOR</text>
<text class="station-dev-na" x="403.63" y="145.42" text-anchor="start"><tspan class="station-dev-pos">(+1.7)</tspan><tspan fill="#444444"> (+0min)</tspan></text>
<rect class="station" x="525.81" y="253.01" width="6" height="6" />
<line class="barb-shaft" x1="528.81" y1="256.01" x2="545.00" y2="248.15" />
<line class="barb-feather" x1="545.00" y1="248.15" x2="546.26" y2="255.32" />
<line class="barb-feather" x1="541.40" y1="249.89" x2="542.07" y2="254.02" />
<text class="station-label" x="534.81" y="260.01" text-anchor="start">AntFarm</text>
<text class="station-dev-na" x="534.81" y="270.01" text-anchor="start"><tspan class="station-dev-pos">(+0.2)</tspan><tspan fill="#444444"> (-13min)</tspan></text>
<rect class="station" x="673.02" y="332.38" width="6" height="6" />
<line class="barb-shaft" x1="676.02" y1="335.38" x2="692.46" y2="342.70" />
<line class="barb-feather" x1="692.46" y1="342.70" x2="687.79" y2="348.28" />
<text class="station-label" x="682.02" y="339.38" text-anchor="start">Montecito</text>
<text class="station-dev-na" x="682.02" y="349.38" text-anchor="start"><tspan class="station-dev-neg">(-0.2)</tspan><tspan fill="#444444"> (+13min)</tspan></text>
<rect class="station" x="870.56" y="422.89" width="6" height="6" />
<circle class="barb-shaft" cx="873.56" cy="425.89" r="2.5" fill="none" />
<text class="station-label" x="879.56" y="429.89" text-anchor="start">Parma</text>
<text class="station-dev-na" x="879.56" y="439.89" text-anchor="start"><tspan class="station-dev-pos">(+0.1)</tspan><tspan fill="#444444"> (-5min)</tspan></text>
<rect class="station" x="1035.96" y="505.94" width="6" height="6" />
<line class="barb-shaft" x1="1038.96" y1="508.94" x2="1055.87" y2="515.09" />
<line class="barb-feather" x1="1055.87" y1="515.09" x2="1051.60" y2="520.99" />
<text class="station-label" x="1044.96" y="498.00" text-anchor="start">Airport</text>
<text class="station-dev-na" x="1044.96" y="508.00" text-anchor="start">(n/a)</text>
<line class="rass" x1="90" y1="562" x2="114" y2="562" />
<text class="label" x="120" y="566">RASS @ 09:55</text>
<line class="dalr" x1="310" y1="562" x2="334" y2="562" />
<text class="label" x="340" y="566">DALR (9.8 C/km)</text>
<text class="legend-h" x="90" y="596">Stations</text>
<text class="legend-row" x="90" y="612"><tspan>La Cumbre 1201m @ 10:11 - 7.2C, winds 157, 9g14mph, DALR dev </tspan><tspan fill="#c62828">VOR:+1.1C</tspan><tspan>; </tspan><tspan fill="#c62828">AntFarm:+2.8C</tspan><tspan>; </tspan><tspan fill="#c62828">Montecito:+3.0C</tspan><tspan>; </tspan><tspan fill="#c62828">SM Pass:+4.0C</tspan><tspan>; </tspan><tspan fill="#c62828">Parma:+2.9C</tspan><tspan>; </tspan><tspan fill="#c62828">Airport:+3.0C</tspan></text>
<text class="legend-row" x="90" y="626"><tspan>VOR 1070m @ 10:00 - 7.4C, winds 152, 5g10mph, DALR dev </tspan><tspan fill="#c62828">AntFarm:+1.7C</tspan><tspan>; </tspan><tspan fill="#c62828">Montecito:+1.9C</tspan><tspan>; </tspan><tspan fill="#c62828">SM Pass:+2.8C</tspan><tspan>; </tspan><tspan fill="#c62828">Parma:+1.7C</tspan><tspan>; </tspan><tspan fill="#c62828">Airport:+1.8C</tspan></text>
<text class="legend-row" x="90" y="640"><tspan>AntFarm 718m @ 10:00 - 9.1C, winds 064, 16g23mph, DALR dev </tspan><tspan fill="#c62828">Montecito:+0.2C</tspan><tspan>; </tspan><tspan fill="#c62828">SM Pass:+1.2C</tspan><tspan>; </tspan><tspan fill="#c62828">Parma:+0.1C</tspan><tspan>; </tspan><tspan fill="#c62828">Airport:+0.1C</tspan></text>
<text class="legend-row" x="90" y="654"><tspan>Montecito 494m @ 09:47 - 11.1C, winds 114, 9g14mph, DALR dev </tspan><tspan fill="#c62828">SM Pass:+0.9C</tspan><tspan>; </tspan><tspan fill="#1565c0">Parma:-0.2C</tspan><tspan>; </tspan><tspan fill="#1565c0">Airport:-0.1C</tspan></text>
<text class="legend-row" x="90" y="668"><tspan>SM Pass 454m @ 09:06 - 10.6C, winds 091, 10g16mph, DALR dev </tspan><tspan fill="#1565c0">Parma:-1.1C</tspan><tspan>; </tspan><tspan fill="#1565c0">Airport:-1.0C</tspan></text>
<text class="legend-row" x="90" y="682"><tspan>Parma 238m @ 10:00 - 13.8C, winds 209, 3g8mph, DALR dev </tspan><tspan fill="#c62828">Airport:+0.1C</tspan></text>
<text class="legend-row" x="90" y="696">Airport 3m @ 09:55 - 16.0C, winds 110, 10g17mph, DALR dev n/a</text>
</svg>