<svg xmlns="http://www.w3.org/2000/svg" width="1180" height="760" viewBox="0 0 1180 760">
<style>
  .axis { stroke: #202020; stroke-width: 1; }
  .grid { stroke: #dddddd; stroke-width: 1; }
  .title { font-family: Helvetica, Arial, sans-serif; font-size: 16px; font-weight: 600; fill: #111111; }
  .label { font-family: Helvetica, Arial, sans-serif; font-size: 12px; fill: #222222; }
  .legend-h { font-family: Helvetica, Arial, sans-serif; font-size: 12px; font-weight: 600; fill: #222222; }
  .legend-row { font-family: Helvetica, Arial, sans-serif; font-size: 11px; fill: #333333; }
  .rass { fill: none; stroke: #000000; stroke-width: 2; }
  .dalr { fill: none; stroke: #000000; stroke-width: 1.5; stroke-dasharray: 6 4; stroke-opacity: 0.45; }
  .rass-point { fill: #0077b6; }
  .station { fill: #f4a261; stroke: #8b4c12; stroke-width: 1; }
  .barb-shaft { stroke: #1f2937; stroke-width: 1.3; }
  .barb-feather { stroke: #1f2937; stroke-width: 1.2; }
  .barb-flag { fill: #1f2937; stroke: #1f2937; stroke-width: 1; }
  .station-label { font-family: Helvetica, Arial, sans-serif; font-size: 11px; fill: #444444; }
  .station-dev-pos { font-family: Helvetica, Arial, sans-serif; font-size: 10px; fill: #c62828; }
  .station-dev-neg { font-family: Helvetica, Arial, sans-serif; font-size: 10px; fill: #1565c0; }
  .station-dev-na { font-family: Helvetica, Arial, sans-serif; font-size: 10px; fill: #666666; }
  .rass-dev-pos { font-family: Helvetica, Arial, sans-serif; font-size: 9px; fill: #c62828; }
  .rass-dev-neg { font-family: Helvetica, Arial, sans-serif; font-size: 9px; fill: #1565c0; }
  .rass-dev-na { font-family: Helvetica, Arial, sans-serif; font-size: 9px; fill: #666666; }
</style>
<rect x="0" y="0" width="1180" height="760" fill="#ffffff" />
<text class="title" x="90" y="28">Estimated LCL @ VOR: 3630 ft - winds 208, 9g14mph (14:10 PST)</text>
<line class="grid" x1="90" y1="510.00" x2="1110" y2="510.00" />
<text class="label" x="82" y="514.00" text-anchor="end">0</text>
<line class="grid" x1="90" y1="452.50" x2="1110" y2="452.50" />
<text class="label" x="82" y="456.50" text-anchor="end">500</text>
<line class="grid" x1="90" y1="395.00" x2="1110" y2="395.00" />
<text class="label" x="82" y="399.00" text-anchor="end">1000</text>
<line class="grid" x1="90" y1="337.50" x2="1110" y2="337.50" />
<text class="label" x="82" y="341.50" text-anchor="end">1500</text>
<line class="grid" x1="90" y1="280.00" x2="1110" y2="280.00" />
<text class="label" x="82" y="284.00" text-anchor="end">2000</text>
<line class="grid" x1="90" y1="222.50" x2="1110" y2="222.50" />
<text class="label" x="82" y="226.50" text-anchor="end">2500</text>
<line class="grid" x1="90" y1="165.00" x2="1110" y2="165.00" />
<text class="label" x="82" y="169.00" text-anchor="end">3000</text>
<line class="grid" x1="90" y1="107.50" x2="1110" y2="107.50" />
<text class="label" x="82" y="111.50" text-anchor="end">3500</text>
<line class="grid" x1="90" y1="50.00" x2="1110" y2="50.00" />
<text class="label" x="82" y="54.00" text-anchor="end">4000</text>
<line class="grid" x1="143.59" y1="50" x2="143.59" y2="510" />
<text class="label" x="143.59" y="528" text-anchor="middle">40.0</text>
<line class="grid" x1="369.26" y1="50" x2="369.26" y2="510" />
<text class="label" x="369.26" y="528" text-anchor="middle">45.0</text>
<line class="grid" x1="594.92" y1="50" x2="594.92" y2="510" />
<text class="label" x="594.92" y="528" text-anchor="middle">50.0</text>
<line class="grid" x1="820.59" y1="50" x2="820.59" y2="510" />
<text class="label" x="820.59" y="528" text-anchor="middle">55.0</text>
<line class="grid" x1="1046.25" y1="50" x2="1046.25" y2="510" />
<text class="label" x="1046.25" y="528" text-anchor="middle">60.0</text>
<line class="axis" x1="90" y1="50" x2="90" y2="510" />
<line class="axis" x1="90" y1="510" x2="1110" y2="510" />
<text class="label" x="600.00" y="546" text-anchor="middle">Temperature (F)</text>
<text class="label" x="26" y="280.00" text-anchor="middle" transform="rotate(-90 26 280.00)">Altitude (ft)</text>
<path class="rass" d="M927.51,434.54 L881.13,396.81 L805.01,359.08 L748.71,321.35 L647.97,283.62 L589.80,245.89 L549.27,208.16" />
<path class="dalr" d="M1087.43,510.00 L112.57,50.00" />
<circle class="rass-point" cx="927.51" cy="434.54" r="2" />
<text class="rass-dev-na" x="933.51" y="431.54" text-anchor="start">(n/a)</text>
<circle class="rass-point" cx="881.13" cy="396.81" r="2" />
<text class="rass-dev-pos" x="875.13" y="393.81" text-anchor="end">(+0.7)</text>
<circle class="rass-point" cx="805.01" cy="359.08" r="2" />
<text class="rass-dev-pos" x="811.01" y="356.08" text-anchor="start">(+0.1)</text>
<circle class="rass-point" cx="748.71" cy="321.35" r="2" />
<text class="rass-dev-pos" x="742.71" y="318.35" text-anchor="end">(+0.5)</text>
<circle class="rass-point" cx="647.97" cy="283.62" r="2" />
<text class="rass-dev-neg" x="653.97" y="280.62" text-anchor="start">(-0.5)</text>
<circle class="rass-point" cx="589.80" cy="245.89" r="2" />
<text class="rass-dev-pos" x="583.80" y="242.89" text-anchor="end">(+0.5)</text>
<circle class="rass-point" cx="549.27" cy="208.16" r="2" />
<text class="rass-dev-pos" x="555.27" y="205.16" text-anchor="start">(+0.9)</text>
<rect class="station" x="366.26" y="53.87" width="6" height="6" />
<line class="barb-shaft" x1="369.26" y1="56.87" x2="372.38" y2="74.59" />
<line class="barb-feather" x1="372.38" y1="74.59" x2="365.14" y2="73.84" />
<line class="barb-feather" x1="371.69" y1="70.65" x2="367.54" y2="70.17" />
<text class="station-label" x="375.26" y="64.00" text-anchor="start">La Cumbre</text>
<text class="station-dev-na" x="375.26" y="74.00" text-anchor="start"><tspan class="station-dev-pos">(+4.0)</tspan><tspan fill="#444444"> (-14min)</tspan></text>
<rect class="station" x="289.96" y="103.33" width="6" height="6" />
<line class="barb-shaft" x1="292.96" y1="106.33" x2="284.65" y2="122.30" />
<line class="barb-feather" x1="284.65" y1="122.30" x2="279.36" y2="117.29" />
<text class="station-label" x="298.96" y="110.33" text-anchor="start">VOR</text>
<text class="station-dev-na" x="298.96" y="120.33" text-anchor="start"><tspan class="station-dev-pos">(+1.1)</tspan><tspan fill="#444444"> (+0min)</tspan></text>
<rect class="station" x="522.87" y="236.18" width="6" height="6" />
<line class="barb-shaft" x1="525.87" y1="239.18" x2="541.44" y2="230.15" />
<line class="barb-feather" x1="541.44" y1="230.15" x2="542.41" y2="234.22" />
<text class="station-label" x="531.87" y="243.18" text-anchor="start">AntFarm</text>
<text class="station-dev-na" x="531.87" y="253.18" text-anchor="start"><tspan class="station-dev-neg">(-1.6)</tspan><tspan fill="#444444"> (-23min)</tspan></text>
<rect class="station" x="772.44" y="320.80" width="6" height="6" />
<line class="barb-shaft" x1="775.44" y1="323.80" x2="767.55" y2="339.98" />
<line class="barb-feather" x1="767.55" y1="339.98" x2="764.48" y2="337.15" />
<text class="station-label" x="781.44" y="327.80" text-anchor="start">Montecito</text>
<text class="station-dev-na" x="781.44" y="337.80" text-anchor="start"><tspan class="station-dev-neg">(-1.3)</tspan><tspan fill="#444444"> (+19min)</tspan></text>
<rect class="station" x="862.69" y="335.52" width="6" height="6" />
<line class="barb-shaft" x1="865.69" y1="338.52" x2="875.23" y2="353.78" />
<line class="barb-feather" x1="875.23" y1="353.78" x2="871.20" y2="354.89" />
<text class="station-label" x="871.69" y="354.52" text-anchor="start">SM Pass</text>
<text class="station-dev-na" x="871.69" y="364.52" text-anchor="start"><tspan class="station-dev-pos">(+2.6)</tspan><tspan fill="#444444"> (+4min)</tspan></text>
<rect class="station" x="917.37" y="417.32" width="6" height="6" />
<circle class="barb-shaft" cx="920.37" cy="420.32" r="2.5" fill="none" />
<text class="station-label" x="926.37" y="424.32" text-anchor="start">Parma</text>
<text class="station-dev-na" x="926.37" y="434.32" text-anchor="start"><tspan class="station-dev-pos">(+0.6)</tspan><tspan fill="#444444"> (+0min)</tspan></text>
<rect class="station" x="1079.36" y="505.87" width="6" height="6" />
<line class="barb-shaft" x1="1082.36" y1="508.87" x2="1097.94" y2="517.87" />
<line class="barb-feather" x1="1097.94" y1="517.87" x2="1092.71" y2="522.93" />
<text class="station-label" x="1076.36" y="498.00" text-anchor="end">Airport</text>
<text class="station-dev-na" x="1076.36" y="508.00" text-anchor="end">(n/a)</text>
<line class="rass" x1="90" y1="562" x2="114" y2="562" />
<text class="label" x="120" y="566">RASS @ 13:55</text>
<line class="dalr" x1="310" y1="562" x2="334" y2="562" />
<text class="label" x="340" y="566">DALR (5.4 F/1000 ft)</text>
<text class="legend-h" x="90" y="596">Stations</text>
<text class="legend-row" x="90" y="612"><tspan>La Cumbre 3940ft @ 14:24 - 45.0F, winds 170, 16g20mph, DALR dev </tspan><tspan fill="#c62828">VOR:+4.0F</tspan><tspan>; </tspan><tspan fill="#c62828">AntFarm:+5.1F</tspan><tspan>; </tspan><tspan fill="#c62828">Montecito:+3.5F</tspan><tspan>; </tspan><tspan fill="#c62828">SM Pass:+2.2F</tspan><tspan>; </tspan><tspan fill="#c62828">Parma:+4.9F</tspan><tspan>; </tspan><tspan fill="#c62828">Airport:+5.4F</tspan></text>
<text class="legend-row" x="90" y="626"><tspan>VOR 3510ft @ 14:10 - 43.3F, winds 208, 9g14mph, DALR dev </tspan><tspan fill="#c62828">AntFarm:+1.1F</tspan><tspan>; </tspan><tspan fill="#1565c0">Montecito:-0.5F</tspan><tspan>; </tspan><tspan fill="#1565c0">SM Pass:-1.8F</tspan><tspan>; </tspan><tspan fill="#c62828">Parma:+0.8F</tspan><tspan>; </tspan><tspan fill="#c62828">Airport:+1.4F</tspan></text>
<text class="legend-row" x="90" y="640"><tspan>AntFarm 2355ft @ 14:10 - 48.5F, winds 060, 6g9mph, DALR dev </tspan><tspan fill="#1565c0">Montecito:-1.6F</tspan><tspan>; </tspan><tspan fill="#1565c0">SM Pass:-2.9F</tspan><tspan>; </tspan><tspan fill="#1565c0">Parma:-0.2F</tspan><tspan>; </tspan><tspan fill="#c62828">Airport:+0.3F</tspan></text>
<text class="legend-row" x="90" y="654"><tspan>Montecito 1619ft @ 13:47 - 54.0F, winds 206, 6g15mph, DALR dev </tspan><tspan fill="#1565c0">SM Pass:-1.3F</tspan><tspan>; </tspan><tspan fill="#c62828">Parma:+1.3F</tspan><tspan>; </tspan><tspan fill="#c62828">Airport:+1.9F</tspan></text>
<text class="legend-row" x="90" y="668"><tspan>SM Pass 1491ft @ 14:06 - 56.0F, winds 148, 6g15mph, DALR dev </tspan><tspan fill="#c62828">Parma:+2.6F</tspan><tspan>; </tspan><tspan fill="#c62828">Airport:+3.2F</tspan></text>
<text class="legend-row" x="90" y="682"><tspan>Parma 780ft @ 14:10 - 57.2F, winds 194, 2g5mph, DALR dev </tspan><tspan fill="#c62828">Airport:+0.6F</tspan></text>
<text class="legend-row" x="90" y="696">Airport 10ft @ 14:10 - 60.8F, winds 120, 10g18mph, DALR dev n/a</text>
</svg>