<svg xmlns="http://www.w3.org/2000/svg" width="1180" height="760" viewBox="0 0 1180 760">
<style>
  .axis { stroke: #202020; stroke-width: 1; }
  .grid { stroke: #dddddd; stroke-width: 1; }
  .title { font-family: Helvetica, Arial, sans-serif; font-size: 16px; font-weight: 600; fill: #111111; }
  .label { font-family: Helvetica, Arial, sans-serif; font-size: 12px; fill: #222222; }
  .legend-h { font-family: Helvetica, Arial, sans-serif; font-size: 12px; font-weight: 600; fill: #222222; }
  .legend-row { font-family: Helvetica, Arial, sans-serif; font-size: 11px; fill: #333333; }
  .rass { fill: none; stroke: #000000; stroke-width: 2; }
  .dalr { fill: none; stroke: #000000; stroke-width: 1.5; stroke-dasharray: 6 4; stroke-opacity: 0.45; }
  .rass-point { fill: #0077b6; }
  .station { fill: #f4a261; stroke: #8b4c12; stroke-width: 1; }
  .barb-shaft { stroke: #1f2937; stroke-width: 1.3; }
  .barb-feather { stroke: #1f2937; stroke-width: 1.2; }
  .barb-flag { fill: #1f2937; stroke: #1f2937; stroke-width: 1; }
  .station-label { font-family: Helvetica, Arial, sans-serif; font-size: 11px; fill: #444444; }
  .station-dev-pos { font-family: Helvetica, Arial, sans-serif; font-size: 10px; fill: #c62828; }
  .station-dev-neg { font-family: Helvetica, Arial, sans-serif; font-size: 10px; fill: #1565c0; }
  .station-dev-na { font-family: Helvetica, Arial, sans-serif; font-size: 10px; fill: #666666; }
  .rass-dev-pos { font-family: Helvetica, Arial, sans-serif; font-size: 9px; fill: #c62828; }
  .rass-dev-neg { font-family: Helvetica, Arial, sans-serif; font-size: 9px; fill: #1565c0; }
  .rass-dev-na { font-family: Helvetica, Arial, sans-serif; font-size: 9px; fill: #666666; }
</style>
<rect x="0" y="0" width="1180" height="760" fill="#ffffff" />
<text class="title" x="90" y="28">Estimated LCL @ VOR: 1074 m - winds 147, 5g9mph (08:30 PST)</text>
<line class="grid" x1="90" y1="510.00" x2="1110" y2="510.00" />
<text class="label" x="82" y="514.00" text-anchor="end">0</text>
<line class="grid" x1="90" y1="439.23" x2="1110" y2="439.23" />
<text class="label" x="82" y="443.23" text-anchor="end">200</text>
<line class="grid" x1="90" y1="368.46" x2="1110" y2="368.46" />
<text class="label" x="82" y="372.46" text-anchor="end">400</text>
<line class="grid" x1="90" y1="297.69" x2="1110" y2="297.69" />
<text class="label" x="82" y="301.69" text-anchor="end">600</text>
<line class="grid" x1="90" y1="226.92" x2="1110" y2="226.92" />
<text class="label" x="82" y="230.92" text-anchor="end">800</text>
<line class="grid" x1="90" y1="156.15" x2="1110" y2="156.15" />
<text class="label" x="82" y="160.15" text-anchor="end">1000</text>
<line class="grid" x1="90" y1="85.38" x2="1110" y2="85.38" />
<text class="label" x="82" y="89.38" text-anchor="end">1200</text>
<line class="grid" x1="326.29" y1="50" x2="326.29" y2="510" />
<text class="label" x="326.29" y="528" text-anchor="middle">5.0</text>
<line class="grid" x1="697.47" y1="50" x2="697.47" y2="510" />
<text class="label" x="697.47" y="528" text-anchor="middle">10.0</text>
<line class="grid" x1="1068.65" y1="50" x2="1068.65" y2="510" />
<text class="label" x="1068.65" y="528" text-anchor="middle">15.0</text>
<line class="axis" x1="90" y1="50" x2="90" y2="510" />
<line class="axis" x1="90" y1="510" x2="1110" y2="510" />
<text class="label" x="600.00" y="546" text-anchor="middle">Temperature (C)</text>
<text class="label" x="26" y="280.00" text-anchor="middle" transform="rotate(-90 26 280.00)">Altitude (m)</text>
<path class="rass" d="M927.38,439.23 L906.15,403.85 L857.82,368.46 L801.92,333.08 L702.74,297.69 L648.25,262.31 L595.10,226.92 L523.46,191.54 L459.32,156.15 L411.37,120.77 L372.99,85.38 L341.29,50.00" />
<path class="dalr" d="M1072.88,510.00 L127.12,50.00" />
<circle class="rass-point" cx="927.38" cy="439.23" r="2" />
<text class="rass-dev-na" x="933.38" y="436.23" text-anchor="start">(n/a)</text>
<circle class="rass-point" cx="906.15" cy="403.85" r="2" />
<text class="rass-dev-pos" x="900.15" y="400.85" text-anchor="end">(+0.7)</text>
<circle class="rass-point" cx="857.82" cy="368.46" r="2" />
<text class="rass-dev-pos" x="863.82" y="365.46" text-anchor="start">(+0.3)</text>
<circle class="rass-point" cx="801.92" cy="333.08" r="2" />
<text class="rass-dev-pos" x="795.92" y="330.08" text-anchor="end">(+0.2)</text>
<circle class="rass-point" cx="702.74" cy="297.69" r="2" />
<text class="rass-dev-neg" x="708.74" y="294.69" text-anchor="start">(-0.4)</text>
<circle class="rass-point" cx="648.25" cy="262.31" r="2" />
<text class="rass-dev-pos" x="642.25" y="259.31" text-anchor="end">(+0.2)</text>
<circle class="rass-point" cx="595.10" cy="226.92" r="2" />
<text class="rass-dev-pos" x="601.10" y="223.92" text-anchor="start">(+0.3)</text>
<circle class="rass-point" cx="523.46" cy="191.54" r="2" />
<text class="rass-dev-pos" x="517.46" y="188.54" text-anchor="end">(+0.0)</text>
<circle class="rass-point" cx="459.32" cy="156.15" r="2" />
<text class="rass-dev-pos" x="465.32" y="153.15" text-anchor="start">(+0.1)</text>
<circle class="rass-point" cx="411.37" cy="120.77" r="2" />
<text class="rass-dev-pos" x="405.37" y="117.77" text-anchor="end">(+0.3)</text>
<circle class="rass-point" cx="372.99" cy="85.38" r="2" />
<text class="rass-dev-pos" x="378.99" y="82.38" text-anchor="start">(+0.5)</text>
<circle class="rass-point" cx="341.29" cy="50.00" r="2" />
<text class="rass-dev-pos" x="335.29" y="58.00" text-anchor="end">(+0.6)</text>
<rect class="station" x="323.29" y="82.03" width="6" height="6" />
<line class="barb-shaft" x1="326.29" y1="85.03" x2="338.10" y2="98.62" />
<line class="barb-feather" x1="338.10" y1="98.62" x2="334.30" y2="100.33" />
<text class="station-label" x="332.29" y="89.03" text-anchor="start">La Cumbre</text>
<text class="station-dev-na" x="332.29" y="99.03" text-anchor="start"><tspan class="station-dev-pos">(+1.3)</tspan><tspan fill="#444444"> (-17min)</tspan></text>
<rect class="station" x="319.58" y="128.42" width="6" height="6" />
<line class="barb-shaft" x1="322.58" y1="131.42" x2="332.36" y2="146.53" />
<line class="barb-feather" x1="332.36" y1="146.53" x2="328.35" y2="147.70" />
<text class="station-label" x="328.58" y="135.42" text-anchor="start">VOR</text>
<text class="station-dev-na" x="328.58" y="145.42" text-anchor="start"><tspan class="station-dev-pos">(+0.8)</tspan><tspan fill="#444444"> (+0min)</tspan></text>
<rect class="station" x="517.94" y="253.01" width="6" height="6" />
<line class="barb-shaft" x1="520.94" y1="256.01" x2="536.73" y2="247.37" />
<line class="barb-feather" x1="536.73" y1="247.37" x2="538.34" y2="254.47" />
<text class="station-label" x="526.94" y="260.01" text-anchor="start">AntFarm</text>
<text class="station-dev-na" x="526.94" y="270.01" text-anchor="start"><tspan class="station-dev-neg">(-0.4)</tspan><tspan fill="#444444"> (-24min)</tspan></text>
<rect class="station" x="735.75" y="346.18" width="6" height="6" />
<line class="barb-shaft" x1="738.75" y1="349.18" x2="756.52" y2="351.99" />
<line class="barb-feather" x1="756.52" y1="351.99" x2="754.71" y2="355.76" />
<text class="station-label" x="744.75" y="353.18" text-anchor="start">SM Pass</text>
<text class="station-dev-na" x="744.75" y="363.18" text-anchor="start"><tspan class="station-dev-pos">(+1.1)</tspan><tspan fill="#444444"> (+24min)</tspan></text>
<rect class="station" x="814.06" y="422.89" width="6" height="6" />
<circle class="barb-shaft" cx="817.06" cy="425.89" r="2.5" fill="none" />
<text class="station-label" x="823.06" y="429.89" text-anchor="start">Parma</text>
<text class="station-dev-na" x="823.06" y="439.89" text-anchor="start"><tspan class="station-dev-neg">(-0.1)</tspan><tspan fill="#444444"> (+5min)</tspan></text>
<rect class="station" x="991.41" y="505.94" width="6" height="6" />
<line class="barb-shaft" x1="994.41" y1="508.94" x2="1012.14" y2="505.81" />
<line class="barb-feather" x1="1012.14" y1="505.81" x2="1011.65" y2="509.96" />
<text class="station-label" x="1000.41" y="498.00" text-anchor="start">Airport</text>
<text class="station-dev-na" x="1000.41" y="508.00" text-anchor="start">(n/a)</text>
<line class="rass" x1="90" y1="562" x2="114" y2="562" />
<text class="label" x="120" y="566">RASS @ 07:55</text>
<line class="dalr" x1="310" y1="562" x2="334" y2="562" />
<text class="label" x="340" y="566">DALR (9.8 C/km)</text>
<text class="legend-h" x="90" y="596">Stations</text>
<text class="legend-row" x="90" y="612"><tspan>La Cumbre 1201m @ 08:47 - 5.0C, winds 139, 8g13mph, DALR dev </tspan><tspan fill="#c62828">VOR:+1.3C</tspan><tspan>; </tspan><tspan fill="#c62828">AntFarm:+2.1C</tspan><tspan>; </tspan><tspan fill="#c62828">Montecito:+2.5C</tspan><tspan>; </tspan><tspan fill="#c62828">SM Pass:+1.8C</tspan><tspan>; </tspan><tspan fill="#c62828">Parma:+2.8C</tspan><tspan>; </tspan><tspan fill="#c62828">Airport:+2.7C</tspan></text>
<text class="legend-row" x="90" y="626"><tspan>VOR 1070m @ 08:30 - 5.0C, winds 147, 5g9mph, DALR dev </tspan><tspan fill="#c62828">AntFarm:+0.8C</tspan><tspan>; </tspan><tspan fill="#c62828">Montecito:+1.2C</tspan><tspan>; </tspan><tspan fill="#c62828">SM Pass:+0.4C</tspan><tspan>; </tspan><tspan fill="#c62828">Parma:+1.5C</tspan><tspan>; </tspan><tspan fill="#c62828">Airport:+1.4C</tspan></text>
<text class="legend-row" x="90" y="640"><tspan>AntFarm 718m @ 08:30 - 7.6C, winds 061, 10g14mph, DALR dev </tspan><tspan fill="#c62828">Montecito:+0.4C</tspan><tspan>; </tspan><tspan fill="#1565c0">SM Pass:-0.4C</tspan><tspan>; </tspan><tspan fill="#c62828">Parma:+0.7C</tspan><tspan>; </tspan><tspan fill="#c62828">Airport:+0.6C</tspan></text>
<text class="legend-row" x="90" y="654"><tspan>Montecito 494m @ 07:47 - 9.4C, winds 104, 5g8mph, DALR dev </tspan><tspan fill="#1565c0">SM Pass:-0.7C</tspan><tspan>; </tspan><tspan fill="#c62828">Parma:+0.3C</tspan><tspan>; </tspan><tspan fill="#c62828">Airport:+0.3C</tspan></text>
<text class="legend-row" x="90" y="668"><tspan>SM Pass 454m @ 08:06 - 10.6C, winds 099, 4g11mph, DALR dev </tspan><tspan fill="#c62828">Parma:+1.1C</tspan><tspan>; </tspan><tspan fill="#c62828">Airport:+1.0C</tspan></text>
<text class="legend-row" x="90" y="682"><tspan>Parma 238m @ 08:30 - 11.6C, winds 001, 1g3mph, DALR dev </tspan><tspan fill="#1565c0">Airport:-0.1C</tspan></text>
<text class="legend-row" x="90" y="696">Airport 3m @ 08:35 - 14.0C, winds 080, 5g17mph, DALR dev n/a</text>
</svg>