<svg xmlns="http://www.w3.org/2000/svg" width="1180" height="760" viewBox="0 0 1180 760">
<style>
  .axis { stroke: #202020; stroke-width: 1; }
  .grid { stroke: #dddddd; stroke-width: 1; }
  .title { font-family: Helvetica, Arial, sans-serif; font-size: 16px; font-weight: 600; fill: #111111; }
  .label { font-family: Helvetica, Arial, sans-serif; font-size: 12px; fill: #222222; }
  .legend-h { font-family: Helvetica, Arial, sans-serif; font-size: 12px; font-weight: 600; fill: #222222; }
  .legend-row { font-family: Helvetica, Arial, sans-serif; font-size: 11px; fill: #333333; }
  .rass { fill: none; stroke: #000000; stroke-width: 2; }
  .dalr { fill: none; stroke: #000000; stroke-width: 1.5; stroke-dasharray: 6 4; stroke-opacity: 0.45; }
  .rass-point { fill: #0077b6; }
  .station { fill: #f4a261; stroke: #8b4c12; stroke-width: 1; }
  .barb-shaft { stroke: #1f2937; stroke-width: 1.3; }
  .barb-feather { stroke: #1f2937; stroke-width: 1.2; }
  .barb-flag { fill: #1f2937; stroke: #1f2937; stroke-width: 1; }
  .station-label { font-family: Helvetica, Arial, sans-serif; font-size: 11px; fill: #444444; }
  .station-dev-pos { font-family: Helvetica, Arial, sans-serif; font-size: 10px; fill: #c62828; }
  .station-dev-neg { font-family: Helvetica, Arial, sans-serif; font-size: 10px; fill: #1565c0; }
  .station-dev-na { font-family: Helvetica, Arial, sans-serif; font-size: 10px; fill: #666666; }
  .rass-dev-pos { font-family: Helvetica, Arial, sans-serif; font-size: 9px; fill: #c62828; }
  .rass-dev-neg { font-family: Helvetica, Arial, sans-serif; font-size: 9px; fill: #1565c0; }
  .rass-dev-na { font-family: Helvetica, Arial, sans-serif; font-size: 9px; fill: #666666; }
</style>
<rect x="0" y="0" width="1180" height="760" fill="#ffffff" />
<text class="title" x="90" y="28">Estimated LCL @ VOR: 1070 m - winds 189, 8g18mph (22:20 PST)</text>
<line class="grid" x1="90" y1="510.00" x2="1110" y2="510.00" />
<text class="label" x="82" y="514.00" text-anchor="end">0</text>
<line class="grid" x1="90" y1="439.23" x2="1110" y2="439.23" />
<text class="label" x="82" y="443.23" text-anchor="end">200</text>
<line class="grid" x1="90" y1="368.46" x2="1110" y2="368.46" />
<text class="label" x="82" y="372.46" text-anchor="end">400</text>
<line class="grid" x1="90" y1="297.69" x2="1110" y2="297.69" />
<text class="label" x="82" y="301.69" text-anchor="end">600</text>
<line class="grid" x1="90" y1="226.92" x2="1110" y2="226.92" />
<text class="label" x="82" y="230.92" text-anchor="end">800</text>
<line class="grid" x1="90" y1="156.15" x2="1110" y2="156.15" />
<text class="label" x="82" y="160.15" text-anchor="end">1000</text>
<line class="grid" x1="90" y1="85.38" x2="1110" y2="85.38" />
<text class="label" x="82" y="89.38" text-anchor="end">1200</text>
<line class="grid" x1="289.32" y1="50" x2="289.32" y2="510" />
<text class="label" x="289.32" y="528" text-anchor="middle">5.0</text>
<line class="grid" x1="660.50" y1="50" x2="660.50" y2="510" />
<text class="label" x="660.50" y="528" text-anchor="middle">10.0</text>
<line class="grid" x1="1031.68" y1="50" x2="1031.68" y2="510" />
<text class="label" x="1031.68" y="528" text-anchor="middle">15.0</text>
<line class="axis" x1="90" y1="50" x2="90" y2="510" />
<line class="axis" x1="90" y1="510" x2="1110" y2="510" />
<text class="label" x="600.00" y="546" text-anchor="middle">Temperature (C)</text>
<text class="label" x="26" y="280.00" text-anchor="middle" transform="rotate(-90 26 280.00)">Altitude (m)</text>
<path class="rass" d="M927.38,439.23 L892.04,403.85 L849.88,368.46 L788.19,333.08 L700.22,297.69 L614.03,262.31 L572.16,226.92 L548.93,191.54" />
<path class="dalr" d="M1072.88,510.00 L127.12,50.00" />
<circle class="rass-point" cx="927.38" cy="439.23" r="2" />
<text class="rass-dev-na" x="933.38" y="436.23" text-anchor="start">(n/a)</text>
<circle class="rass-point" cx="892.04" cy="403.85" r="2" />
<text class="rass-dev-pos" x="886.04" y="400.85" text-anchor="end">(+0.5)</text>
<circle class="rass-point" cx="849.88" cy="368.46" r="2" />
<text class="rass-dev-pos" x="855.88" y="365.46" text-anchor="start">(+0.4)</text>
<circle class="rass-point" cx="788.19" cy="333.08" r="2" />
<text class="rass-dev-pos" x="782.19" y="330.08" text-anchor="end">(+0.1)</text>
<circle class="rass-point" cx="700.22" cy="297.69" r="2" />
<text class="rass-dev-neg" x="706.22" y="294.69" text-anchor="start">(-0.2)</text>
<circle class="rass-point" cx="614.03" cy="262.31" r="2" />
<text class="rass-dev-neg" x="608.03" y="259.31" text-anchor="end">(-0.2)</text>
<circle class="rass-point" cx="572.16" cy="226.92" r="2" />
<text class="rass-dev-pos" x="578.16" y="223.92" text-anchor="start">(+0.4)</text>
<circle class="rass-point" cx="548.93" cy="191.54" r="2" />
<text class="rass-dev-pos" x="542.93" y="188.54" text-anchor="end">(+0.7)</text>
<rect class="station" x="327.57" y="82.03" width="6" height="6" />
<line class="barb-shaft" x1="330.57" y1="85.03" x2="330.88" y2="103.03" />
<line class="barb-feather" x1="330.88" y1="103.03" x2="326.86" y2="101.90" />
<text class="station-label" x="336.57" y="89.03" text-anchor="start">La Cumbre</text>
<text class="station-dev-na" x="336.57" y="99.03" text-anchor="start"><tspan class="station-dev-pos">(+0.8)</tspan><tspan fill="#444444"> (-45min)</tspan></text>
<rect class="station" x="364.27" y="128.42" width="6" height="6" />
<line class="barb-shaft" x1="367.27" y1="131.42" x2="364.33" y2="149.18" />
<line class="barb-feather" x1="364.33" y1="149.18" x2="360.58" y2="147.34" />
<text class="station-label" x="373.27" y="135.42" text-anchor="start">VOR</text>
<text class="station-dev-na" x="373.27" y="145.42" text-anchor="start"><tspan class="station-dev-pos">(+1.7)</tspan><tspan fill="#444444"> (+27min)</tspan></text>
<rect class="station" x="657.50" y="332.38" width="6" height="6" />
<line class="barb-shaft" x1="660.50" y1="335.38" x2="655.54" y2="352.68" />
<line class="barb-feather" x1="655.54" y1="352.68" x2="652.03" y2="350.42" />
<text class="station-label" x="666.50" y="339.38" text-anchor="start">Montecito</text>
<text class="station-dev-na" x="666.50" y="349.38" text-anchor="start"><tspan class="station-dev-pos">(+0.1)</tspan><tspan fill="#444444"> (+3min)</tspan></text>
<rect class="station" x="838.93" y="422.89" width="6" height="6" />
<circle class="barb-shaft" cx="841.93" cy="425.89" r="2.5" fill="none" />
<text class="station-label" x="847.93" y="429.89" text-anchor="start">Parma</text>
<text class="station-dev-na" x="847.93" y="439.89" text-anchor="start"><tspan class="station-dev-pos">(+1.7)</tspan><tspan fill="#444444"> (+5min)</tspan></text>
<rect class="station" x="880.21" y="505.94" width="6" height="6" />
<line class="barb-shaft" x1="883.21" y1="508.94" x2="877.05" y2="525.85" />
<line class="barb-feather" x1="877.05" y1="525.85" x2="873.70" y2="523.36" />
<text class="station-label" x="889.21" y="498.00" text-anchor="start">Airport</text>
<text class="station-dev-na" x="889.21" y="508.00" text-anchor="start">(n/a)</text>
<line class="rass" x1="90" y1="562" x2="114" y2="562" />
<text class="label" x="120" y="566">RASS @ 22:55</text>
<line class="dalr" x1="310" y1="562" x2="334" y2="562" />
<text class="label" x="340" y="566">DALR (9.8 C/km)</text>
<text class="legend-h" x="90" y="596">Stations</text>
<text class="legend-row" x="90" y="612"><tspan>La Cumbre 1201m @ 23:05 - 5.6C, winds 179, 7g15mph, DALR dev </tspan><tspan fill="#c62828">VOR:+0.8C</tspan><tspan>; </tspan><tspan fill="#c62828">AntFarm:+1.6C</tspan><tspan>; </tspan><tspan fill="#c62828">Montecito:+2.5C</tspan><tspan>; </tspan><tspan fill="#c62828">Parma:+2.6C</tspan><tspan>; </tspan><tspan fill="#c62828">Airport:+4.3C</tspan></text>
<text class="legend-row" x="90" y="626"><tspan>VOR 1070m @ 22:50 - 6.1C, winds 189, 8g18mph, DALR dev </tspan><tspan fill="#c62828">AntFarm:+0.8C</tspan><tspan>; </tspan><tspan fill="#c62828">Montecito:+1.7C</tspan><tspan>; </tspan><tspan fill="#c62828">Parma:+1.8C</tspan><tspan>; </tspan><tspan fill="#c62828">Airport:+3.5C</tspan></text>
<text class="legend-row" x="90" y="640"><tspan>AntFarm 718m @ 22:50 - 8.7C, winds 049, 3g8mph, DALR dev </tspan><tspan fill="#c62828">Montecito:+0.9C</tspan><tspan>; </tspan><tspan fill="#c62828">Parma:+1.0C</tspan><tspan>; </tspan><tspan fill="#c62828">Airport:+2.7C</tspan></text>
<text class="legend-row" x="90" y="654"><tspan>Montecito 494m @ 22:47 - 10.0C, winds 196, 3g15mph, DALR dev </tspan><tspan fill="#c62828">Parma:+0.1C</tspan><tspan>; </tspan><tspan fill="#c62828">Airport:+1.8C</tspan></text>
<text class="legend-row" x="90" y="668">SM Pass 454m @ 22:06 - temp missing, winds 132, 5g10mph, DALR dev missing</text>
<text class="legend-row" x="90" y="682"><tspan>Parma 238m @ 22:50 - 12.4C, winds 180, 1g3mph, DALR dev </tspan><tspan fill="#c62828">Airport:+1.7C</tspan></text>
<text class="legend-row" x="90" y="696">Airport 3m @ 22:55 - 13.0C, winds 200, 3g17mph, DALR dev n/a</text>
</svg>