<svg xmlns="http://www.w3.org/2000/svg" width="1180" height="760" viewBox="0 0 1180 760">
<style>
  .axis { stroke: #202020; stroke-width: 1; }
  .grid { stroke: #dddddd; stroke-width: 1; }
  .title { font-family: Helvetica, Arial, sans-serif; font-size: 16px; font-weight: 600; fill: #111111; }
  .label { font-family: Helvetica, Arial, sans-serif; font-size: 12px; fill: #222222; }
  .legend-h { font-family: Helvetica, Arial, sans-serif; font-size: 12px; font-weight: 600; fill: #222222; }
  .legend-row { font-family: Helvetica, Arial, sans-serif; font-size: 11px; fill: #333333; }
  .rass { fill: none; stroke: #000000; stroke-width: 2; }
  .dalr { fill: none; stroke: #000000; stroke-width: 1.5; stroke-dasharray: 6 4; stroke-opacity: 0.45; }
  .rass-point { fill: #0077b6; }
  .station { fill: #f4a261; stroke: #8b4c12; stroke-width: 1; }
  .barb-shaft { stroke: #1f2937; stroke-width: 1.3; }
  .barb-feather { stroke: #1f2937; stroke-width: 1.2; }
  .barb-flag { fill: #1f2937; stroke: #1f2937; stroke-width: 1; }
  .station-label { font-family: Helvetica, Arial, sans-serif; font-size: 11px; fill: #444444; }
  .station-dev-pos { font-family: Helvetica, Arial, sans-serif; font-size: 10px; fill: #c62828; }
  .station-dev-neg { font-family: Helvetica, Arial, sans-serif; font-size: 10px; fill: #1565c0; }
  .station-dev-na { font-family: Helvetica, Arial, sans-serif; font-size: 10px; fill: #666666; }
  .rass-dev-pos { font-family: Helvetica, Arial, sans-serif; font-size: 9px; fill: #c62828; }
  .rass-dev-neg { font-family: Helvetica, Arial, sans-serif; font-size: 9px; fill: #1565c0; }
  .rass-dev-na { font-family: Helvetica, Arial, sans-serif; font-size: 9px; fill: #666666; }
</style>
<rect x="0" y="0" width="1180" height="760" fill="#ffffff" />
<text class="title" x="90" y="28">Estimated LCL @ VOR: 1070 m - winds 199, 7g11mph (17:20 PST)</text>
<line class="grid" x1="90" y1="510.00" x2="1110" y2="510.00" />
<text class="label" x="82" y="514.00" text-anchor="end">0</text>
<line class="grid" x1="90" y1="439.23" x2="1110" y2="439.23" />
<text class="label" x="82" y="443.23" text-anchor="end">200</text>
<line class="grid" x1="90" y1="368.46" x2="1110" y2="368.46" />
<text class="label" x="82" y="372.46" text-anchor="end">400</text>
<line class="grid" x1="90" y1="297.69" x2="1110" y2="297.69" />
<text class="label" x="82" y="301.69" text-anchor="end">600</text>
<line class="grid" x1="90" y1="226.92" x2="1110" y2="226.92" />
<text class="label" x="82" y="230.92" text-anchor="end">800</text>
<line class="grid" x1="90" y1="156.15" x2="1110" y2="156.15" />
<text class="label" x="82" y="160.15" text-anchor="end">1000</text>
<line class="grid" x1="90" y1="85.38" x2="1110" y2="85.38" />
<text class="label" x="82" y="89.38" text-anchor="end">1200</text>
<line class="grid" x1="214.94" y1="50" x2="214.94" y2="510" />
<text class="label" x="214.94" y="528" text-anchor="middle">5.0</text>
<line class="grid" x1="586.12" y1="50" x2="586.12" y2="510" />
<text class="label" x="586.12" y="528" text-anchor="middle">10.0</text>
<line class="grid" x1="957.30" y1="50" x2="957.30" y2="510" />
<text class="label" x="957.30" y="528" text-anchor="middle">15.0</text>
<line class="axis" x1="90" y1="50" x2="90" y2="510" />
<line class="axis" x1="90" y1="510" x2="1110" y2="510" />
<text class="label" x="600.00" y="546" text-anchor="middle">Temperature (C)</text>
<text class="label" x="26" y="280.00" text-anchor="middle" transform="rotate(-90 26 280.00)">Altitude (m)</text>
<path class="rass" d="M927.38,439.23 L906.15,403.85 L837.48,368.46 L773.19,333.08 L691.31,297.69 L612.17,262.31 L550.56,226.92 L499.04,191.54 L387.98,156.15 L307.44,120.77 L277.07,85.38" />
<path class="dalr" d="M1072.88,510.00 L127.12,50.00" />
<circle class="rass-point" cx="927.38" cy="439.23" r="2" />
<text class="rass-dev-na" x="933.38" y="436.23" text-anchor="start">(n/a)</text>
<circle class="rass-point" cx="906.15" cy="403.85" r="2" />
<text class="rass-dev-pos" x="900.15" y="400.85" text-anchor="end">(+0.7)</text>
<circle class="rass-point" cx="837.48" cy="368.46" r="2" />
<text class="rass-dev-pos" x="843.48" y="365.46" text-anchor="start">(+0.1)</text>
<circle class="rass-point" cx="773.19" cy="333.08" r="2" />
<text class="rass-dev-pos" x="767.19" y="330.08" text-anchor="end">(+0.1)</text>
<circle class="rass-point" cx="691.31" cy="297.69" r="2" />
<text class="rass-dev-neg" x="697.31" y="294.69" text-anchor="start">(-0.1)</text>
<circle class="rass-point" cx="612.17" cy="262.31" r="2" />
<text class="rass-dev-neg" x="606.17" y="259.31" text-anchor="end">(-0.1)</text>
<circle class="rass-point" cx="550.56" cy="226.92" r="2" />
<text class="rass-dev-pos" x="556.56" y="223.92" text-anchor="start">(+0.2)</text>
<circle class="rass-point" cx="499.04" cy="191.54" r="2" />
<text class="rass-dev-pos" x="493.04" y="188.54" text-anchor="end">(+0.3)</text>
<circle class="rass-point" cx="387.98" cy="156.15" r="2" />
<text class="rass-dev-neg" x="393.98" y="153.15" text-anchor="start">(-0.5)</text>
<circle class="rass-point" cx="307.44" cy="120.77" r="2" />
<text class="rass-dev-neg" x="301.44" y="117.77" text-anchor="end">(-0.1)</text>
<circle class="rass-point" cx="277.07" cy="85.38" r="2" />
<text class="rass-dev-pos" x="283.07" y="82.38" text-anchor="start">(+0.6)</text>
<rect class="station" x="253.18" y="82.03" width="6" height="6" />
<line class="barb-shaft" x1="256.18" y1="85.03" x2="258.37" y2="102.90" />
<line class="barb-feather" x1="258.37" y1="102.90" x2="251.18" y2="101.76" />
<text class="station-label" x="262.18" y="89.03" text-anchor="start">La Cumbre</text>
<text class="station-dev-na" x="262.18" y="99.03" text-anchor="start"><tspan class="station-dev-pos">(+2.5)</tspan><tspan fill="#444444"> (-17min)</tspan></text>
<rect class="station" x="419.35" y="253.01" width="6" height="6" />
<line class="barb-shaft" x1="422.35" y1="256.01" x2="437.53" y2="246.33" />
<line class="barb-feather" x1="437.53" y1="246.33" x2="439.61" y2="253.31" />
<text class="station-label" x="428.35" y="260.01" text-anchor="start">AntFarm</text>
<text class="station-dev-na" x="428.35" y="270.01" text-anchor="start"><tspan class="station-dev-pos">(+0.4)</tspan><tspan fill="#444444"> (-14min)</tspan></text>
<rect class="station" x="583.12" y="346.18" width="6" height="6" />
<line class="barb-shaft" x1="586.12" y1="349.18" x2="602.81" y2="342.43" />
<line class="barb-feather" x1="602.81" y1="342.43" x2="603.19" y2="346.59" />
<text class="station-label" x="592.12" y="353.18" text-anchor="start">SM Pass</text>
<text class="station-dev-na" x="592.12" y="363.18" text-anchor="start"><tspan class="station-dev-pos">(+0.1)</tspan><tspan fill="#444444"> (+14min)</tspan></text>
<rect class="station" x="732.04" y="422.89" width="6" height="6" />
<circle class="barb-shaft" cx="735.04" cy="425.89" r="2.5" fill="none" />
<text class="station-label" x="741.04" y="429.89" text-anchor="start">Parma</text>
<text class="station-dev-na" x="741.04" y="439.89" text-anchor="start"><tspan class="station-dev-pos">(+0.3)</tspan><tspan fill="#444444"> (+10min)</tspan></text>
<rect class="station" x="880.06" y="505.94" width="6" height="6" />
<line class="barb-shaft" x1="883.06" y1="508.94" x2="899.98" y2="502.78" />
<line class="barb-feather" x1="899.98" y1="502.78" x2="900.22" y2="506.95" />
<text class="station-label" x="889.06" y="498.00" text-anchor="start">Airport</text>
<text class="station-dev-na" x="889.06" y="508.00" text-anchor="start">(n/a)</text>
<line class="rass" x1="90" y1="562" x2="114" y2="562" />
<text class="label" x="120" y="566">RASS @ 17:55</text>
<line class="dalr" x1="310" y1="562" x2="334" y2="562" />
<text class="label" x="340" y="566">DALR (9.8 C/km)</text>
<text class="legend-h" x="90" y="596">Stations</text>
<text class="legend-row" x="90" y="612"><tspan>La Cumbre 1201m @ 18:37 - 5.6C, winds 173, 14g17mph, DALR dev </tspan><tspan fill="#c62828">VOR:+1.2C</tspan><tspan>; </tspan><tspan fill="#c62828">AntFarm:+2.5C</tspan><tspan>; </tspan><tspan fill="#c62828">SM Pass:+2.9C</tspan><tspan>; </tspan><tspan fill="#c62828">Parma:+3.0C</tspan><tspan>; </tspan><tspan fill="#c62828">Airport:+3.3C</tspan></text>
<text class="legend-row" x="90" y="626"><tspan>VOR 1070m @ 17:20 - 5.6C, winds 199, 7g11mph, DALR dev </tspan><tspan fill="#c62828">AntFarm:+1.3C</tspan><tspan>; </tspan><tspan fill="#c62828">SM Pass:+1.6C</tspan><tspan>; </tspan><tspan fill="#c62828">Parma:+1.7C</tspan><tspan>; </tspan><tspan fill="#c62828">Airport:+2.1C</tspan></text>
<text class="legend-row" x="90" y="640"><tspan>AntFarm 718m @ 18:20 - 7.8C, winds 057, 9g12mph, DALR dev </tspan><tspan fill="#c62828">SM Pass:+0.4C</tspan><tspan>; </tspan><tspan fill="#c62828">Parma:+0.5C</tspan><tspan>; </tspan><tspan fill="#c62828">Airport:+0.8C</tspan></text>
<text class="legend-row" x="90" y="654">Montecito 494m @ missing - temp missing, winds missing, DALR dev missing</text>
<text class="legend-row" x="90" y="668"><tspan>SM Pass 454m @ 18:06 - 10.0C, winds 068, 4g13mph, DALR dev </tspan><tspan fill="#c62828">Parma:+0.1C</tspan><tspan>; </tspan><tspan fill="#c62828">Airport:+0.4C</tspan></text>
<text class="legend-row" x="90" y="682"><tspan>Parma 238m @ 18:20 - 12.0C, winds 254, 0g3mph, DALR dev </tspan><tspan fill="#c62828">Airport:+0.3C</tspan></text>
<text class="legend-row" x="90" y="696">Airport 3m @ 18:30 - 14.0C, winds 070, 7g18mph, DALR dev n/a</text>
</svg>