<svg xmlns="http://www.w3.org/2000/svg" width="1180" height="760" viewBox="0 0 1180 760">
<style>
  .axis { stroke: #202020; stroke-width: 1; }
  .grid { stroke: #dddddd; stroke-width: 1; }
  .title { font-family: Helvetica, Arial, sans-serif; font-size: 16px; font-weight: 600; fill: #111111; }
  .label { font-family: Helvetica, Arial, sans-serif; font-size: 12px; fill: #222222; }
  .legend-h { font-family: Helvetica, Arial, sans-serif; font-size: 12px; font-weight: 600; fill: #222222; }
  .legend-row { font-family: Helvetica, Arial, sans-serif; font-size: 11px; fill: #333333; }
  .rass { fill: none; stroke: #000000; stroke-width: 2; }
  .dalr { fill: none; stroke: #000000; stroke-width: 1.5; stroke-dasharray: 6 4; stroke-opacity: 0.45; }
  .rass-point { fill: #0077b6; }
  .station { fill: #f4a261; stroke: #8b4c12; stroke-width: 1; }
  .barb-shaft { stroke: #1f2937; stroke-width: 1.3; }
  .barb-feather { stroke: #1f2937; stroke-width: 1.2; }
  .barb-flag { fill: #1f2937; stroke: #1f2937; stroke-width: 1; }
  .station-label { font-family: Helvetica, Arial, sans-serif; font-size: 11px; fill: #444444; }
  .station-dev-pos { font-family: Helvetica, Arial, sans-serif; font-size: 10px; fill: #c62828; }
  .station-dev-neg { font-family: Helvetica, Arial, sans-serif; font-size: 10px; fill: #1565c0; }
  .station-dev-na { font-family: Helvetica, Arial, sans-serif; font-size: 10px; fill: #666666; }
  .rass-dev-pos { font-family: Helvetica, Arial, sans-serif; font-size: 9px; fill: #c62828; }
  .rass-dev-neg { font-family: Helvetica, Arial, sans-serif; font-size: 9px; fill: #1565c0; }
  .rass-dev-na { font-family: Helvetica, Arial, sans-serif; font-size: 9px; fill: #666666; }
</style>
<rect x="0" y="0" width="1180" height="760" fill="#ffffff" />
<text class="title" x="90" y="28">Estimated LCL @ VOR: 3604 ft - winds 191, 6g13mph (12:50 PST)</text>
<line class="grid" x1="90" y1="510.00" x2="1110" y2="510.00" />
<text class="label" x="82" y="514.00" text-anchor="end">0</text>
<line class="grid" x1="90" y1="452.50" x2="1110" y2="452.50" />
<text class="label" x="82" y="456.50" text-anchor="end">500</text>
<line class="grid" x1="90" y1="395.00" x2="1110" y2="395.00" />
<text class="label" x="82" y="399.00" text-anchor="end">1000</text>
<line class="grid" x1="90" y1="337.50" x2="1110" y2="337.50" />
<text class="label" x="82" y="341.50" text-anchor="end">1500</text>
<line class="grid" x1="90" y1="280.00" x2="1110" y2="280.00" />
<text class="label" x="82" y="284.00" text-anchor="end">2000</text>
<line class="grid" x1="90" y1="222.50" x2="1110" y2="222.50" />
<text class="label" x="82" y="226.50" text-anchor="end">2500</text>
<line class="grid" x1="90" y1="165.00" x2="1110" y2="165.00" />
<text class="label" x="82" y="169.00" text-anchor="end">3000</text>
<line class="grid" x1="90" y1="107.50" x2="1110" y2="107.50" />
<text class="label" x="82" y="111.50" text-anchor="end">3500</text>
<line class="grid" x1="90" y1="50.00" x2="1110" y2="50.00" />
<text class="label" x="82" y="54.00" text-anchor="end">4000</text>
<line class="grid" x1="167.73" y1="50" x2="167.73" y2="510" />
<text class="label" x="167.73" y="528" text-anchor="middle">40.0</text>
<line class="grid" x1="371.69" y1="50" x2="371.69" y2="510" />
<text class="label" x="371.69" y="528" text-anchor="middle">45.0</text>
<line class="grid" x1="575.64" y1="50" x2="575.64" y2="510" />
<text class="label" x="575.64" y="528" text-anchor="middle">50.0</text>
<line class="grid" x1="779.60" y1="50" x2="779.60" y2="510" />
<text class="label" x="779.60" y="528" text-anchor="middle">55.0</text>
<line class="grid" x1="983.55" y1="50" x2="983.55" y2="510" />
<text class="label" x="983.55" y="528" text-anchor="middle">60.0</text>
<line class="axis" x1="90" y1="50" x2="90" y2="510" />
<line class="axis" x1="90" y1="510" x2="1110" y2="510" />
<text class="label" x="600.00" y="546" text-anchor="middle">Temperature (F)</text>
<text class="label" x="26" y="280.00" text-anchor="middle" transform="rotate(-90 26 280.00)">Altitude (ft)</text>
<path class="rass" d="M846.94,434.54 L811.99,396.81 L743.49,359.08 L705.38,321.35 L682.40,283.62 L621.83,245.89 L562.50,208.16 L476.74,170.43" />
<path class="dalr" d="M991.48,510.00 L110.40,50.00" />
<circle class="rass-point" cx="846.94" cy="434.54" r="2" />
<text class="rass-dev-na" x="852.94" y="431.54" text-anchor="start">(n/a)</text>
<circle class="rass-point" cx="811.99" cy="396.81" r="2" />
<text class="rass-dev-pos" x="805.99" y="393.81" text-anchor="end">(+0.9)</text>
<circle class="rass-point" cx="743.49" cy="359.08" r="2" />
<text class="rass-dev-pos" x="749.49" y="356.08" text-anchor="start">(+0.1)</text>
<circle class="rass-point" cx="705.38" cy="321.35" r="2" />
<text class="rass-dev-pos" x="699.38" y="318.35" text-anchor="end">(+0.8)</text>
<circle class="rass-point" cx="682.40" cy="283.62" r="2" />
<text class="rass-dev-pos" x="688.40" y="280.62" text-anchor="start">(+1.2)</text>
<circle class="rass-point" cx="621.83" cy="245.89" r="2" />
<text class="rass-dev-pos" x="615.83" y="242.89" text-anchor="end">(+0.3)</text>
<circle class="rass-point" cx="562.50" cy="208.16" r="2" />
<text class="rass-dev-pos" x="568.50" y="205.16" text-anchor="start">(+0.3)</text>
<circle class="rass-point" cx="476.74" cy="170.43" r="2" />
<text class="rass-dev-neg" x="470.74" y="167.43" text-anchor="end">(-0.3)</text>
<rect class="station" x="409.48" y="53.87" width="6" height="6" />
<line class="barb-shaft" x1="412.48" y1="56.87" x2="414.67" y2="74.73" />
<line class="barb-feather" x1="414.67" y1="74.73" x2="407.48" y2="73.60" />
<text class="station-label" x="418.48" y="64.00" text-anchor="start">La Cumbre</text>
<text class="station-dev-na" x="418.48" y="74.00" text-anchor="start"><tspan class="station-dev-pos">(+5.4)</tspan><tspan fill="#444444"> (-18min)</tspan></text>
<rect class="station" x="282.62" y="103.33" width="6" height="6" />
<line class="barb-shaft" x1="285.62" y1="106.33" x2="282.22" y2="124.01" />
<line class="barb-feather" x1="282.22" y1="124.01" x2="278.52" y2="122.07" />
<text class="station-label" x="291.62" y="110.33" text-anchor="start">VOR</text>
<text class="station-dev-na" x="291.62" y="120.33" text-anchor="start"><tspan class="station-dev-neg">(-0.7)</tspan><tspan fill="#444444"> (+0min)</tspan></text>
<rect class="station" x="564.05" y="236.18" width="6" height="6" />
<line class="barb-shaft" x1="567.05" y1="239.18" x2="582.79" y2="230.44" />
<line class="barb-feather" x1="582.79" y1="230.44" x2="583.68" y2="234.52" />
<text class="station-label" x="573.05" y="243.18" text-anchor="start">AntFarm</text>
<text class="station-dev-na" x="573.05" y="253.18" text-anchor="start"><tspan class="station-dev-pos">(+0.3)</tspan><tspan fill="#444444"> (+0min)</tspan></text>
<rect class="station" x="899.82" y="417.32" width="6" height="6" />
<line class="barb-shaft" x1="902.82" y1="420.32" x2="899.88" y2="438.07" />
<line class="barb-feather" x1="899.88" y1="438.07" x2="896.13" y2="436.24" />
<text class="station-label" x="908.82" y="424.32" text-anchor="start">Parma</text>
<text class="station-dev-na" x="908.82" y="434.32" text-anchor="start"><tspan class="station-dev-neg">(-0.4)</tspan><tspan fill="#444444"> (+5min)</tspan></text>
<rect class="station" x="1086.60" y="505.87" width="6" height="6" />
<line class="barb-shaft" x1="1089.60" y1="508.87" x2="1101.17" y2="522.66" />
<line class="barb-feather" x1="1101.17" y1="522.66" x2="1094.53" y2="525.62" />
<text class="station-label" x="1083.60" y="498.00" text-anchor="end">Airport</text>
<text class="station-dev-na" x="1083.60" y="508.00" text-anchor="end">(n/a)</text>
<line class="rass" x1="90" y1="562" x2="114" y2="562" />
<text class="label" x="120" y="566">RASS @ 12:55</text>
<line class="dalr" x1="310" y1="562" x2="334" y2="562" />
<text class="label" x="340" y="566">DALR (5.4 F/1000 ft)</text>
<text class="legend-h" x="90" y="596">Stations</text>
<text class="legend-row" x="90" y="612"><tspan>La Cumbre 3940ft @ 13:08 - 46.0F, winds 173, 13g15mph, DALR dev </tspan><tspan fill="#c62828">VOR:+5.4F</tspan><tspan>; </tspan><tspan fill="#c62828">AntFarm:+4.8F</tspan><tspan>; </tspan><tspan fill="#c62828">Montecito:+1.5F</tspan><tspan>; </tspan><tspan fill="#c62828">SM Pass:+3.2F</tspan><tspan>; </tspan><tspan fill="#c62828">Parma:+5.0F</tspan><tspan>; </tspan><tspan fill="#c62828">Airport:+4.6F</tspan></text>
<text class="legend-row" x="90" y="626"><tspan>VOR 3510ft @ 12:50 - 42.9F, winds 191, 6g13mph, DALR dev </tspan><tspan fill="#1565c0">AntFarm:-0.7F</tspan><tspan>; </tspan><tspan fill="#1565c0">Montecito:-3.9F</tspan><tspan>; </tspan><tspan fill="#1565c0">SM Pass:-2.2F</tspan><tspan>; </tspan><tspan fill="#1565c0">Parma:-0.4F</tspan><tspan>; </tspan><tspan fill="#1565c0">Airport:-0.8F</tspan></text>
<text class="legend-row" x="90" y="640"><tspan>AntFarm 2355ft @ 12:50 - 49.8F, winds 061, 5g10mph, DALR dev </tspan><tspan fill="#1565c0">Montecito:-3.2F</tspan><tspan>; </tspan><tspan fill="#1565c0">SM Pass:-1.5F</tspan><tspan>; </tspan><tspan fill="#c62828">Parma:+0.3F</tspan><tspan>; </tspan><tspan fill="#1565c0">Airport:-0.1F</tspan></text>
<text class="legend-row" x="90" y="654"><tspan>Montecito 1619ft @ 11:47 - 57.0F, winds 178, 5g19mph, DALR dev </tspan><tspan fill="#c62828">SM Pass:+1.7F</tspan><tspan>; </tspan><tspan fill="#c62828">Parma:+3.5F</tspan><tspan>; </tspan><tspan fill="#c62828">Airport:+3.1F</tspan></text>
<text class="legend-row" x="90" y="668"><tspan>SM Pass 1491ft @ 12:06 - 56.0F, winds 144, 7g22mph, DALR dev </tspan><tspan fill="#c62828">Parma:+1.8F</tspan><tspan>; </tspan><tspan fill="#c62828">Airport:+1.4F</tspan></text>
<text class="legend-row" x="90" y="682"><tspan>Parma 780ft @ 12:50 - 58.0F, winds 189, 3g10mph, DALR dev </tspan><tspan fill="#1565c0">Airport:-0.4F</tspan></text>
<text class="legend-row" x="90" y="696">Airport 10ft @ 12:55 - 62.6F, winds 140, 10g18mph, DALR dev n/a</text>
</svg>