<svg xmlns="http://www.w3.org/2000/svg" width="1180" height="760" viewBox="0 0 1180 760">
<style>
  .axis { stroke: #202020; stroke-width: 1; }
  .grid { stroke: #dddddd; stroke-width: 1; }
  .title { font-family: Helvetica, Arial, sans-serif; font-size: 16px; font-weight: 600; fill: #111111; }
  .label { font-family: Helvetica, Arial, sans-serif; font-size: 12px; fill: #222222; }
  .legend-h { font-family: Helvetica, Arial, sans-serif; font-size: 12px; font-weight: 600; fill: #222222; }
  .legend-row { font-family: Helvetica, Arial, sans-serif; font-size: 11px; fill: #333333; }
  .rass { fill: none; stroke: #000000; stroke-width: 2; }
  .dalr { fill: none; stroke: #000000; stroke-width: 1.5; stroke-dasharray: 6 4; stroke-opacity: 0.45; }
  .rass-point { fill: #0077b6; }
  .station { fill: #f4a261; stroke: #8b4c12; stroke-width: 1; }
  .barb-shaft { stroke: #1f2937; stroke-width: 1.3; }
  .barb-feather { stroke: #1f2937; stroke-width: 1.2; }
  .barb-flag { fill: #1f2937; stroke: #1f2937; stroke-width: 1; }
  .station-label { font-family: Helvetica, Arial, sans-serif; font-size: 11px; fill: #444444; }
  .station-dev-pos { font-family: Helvetica, Arial, sans-serif; font-size: 10px; fill: #c62828; }
  .station-dev-neg { font-family: Helvetica, Arial, sans-serif; font-size: 10px; fill: #1565c0; }
  .station-dev-na { font-family: Helvetica, Arial, sans-serif; font-size: 10px; fill: #666666; }
  .rass-dev-pos { font-family: Helvetica, Arial, sans-serif; font-size: 9px; fill: #c62828; }
  .rass-dev-neg { font-family: Helvetica, Arial, sans-serif; font-size: 9px; fill: #1565c0; }
  .rass-dev-na { font-family: Helvetica, Arial, sans-serif; font-size: 9px; fill: #666666; }
</style>
<rect x="0" y="0" width="1180" height="760" fill="#ffffff" />
<text class="title" x="90" y="28">Estimated LCL @ VOR: 1074 m - winds 191, 6g13mph (12:50 PST)</text>
<line class="grid" x1="90" y1="510.00" x2="1110" y2="510.00" />
<text class="label" x="82" y="514.00" text-anchor="end">0</text>
<line class="grid" x1="90" y1="439.23" x2="1110" y2="439.23" />
<text class="label" x="82" y="443.23" text-anchor="end">200</text>
<line class="grid" x1="90" y1="368.46" x2="1110" y2="368.46" />
<text class="label" x="82" y="372.46" text-anchor="end">400</text>
<line class="grid" x1="90" y1="297.69" x2="1110" y2="297.69" />
<text class="label" x="82" y="301.69" text-anchor="end">600</text>
<line class="grid" x1="90" y1="226.92" x2="1110" y2="226.92" />
<text class="label" x="82" y="230.92" text-anchor="end">800</text>
<line class="grid" x1="90" y1="156.15" x2="1110" y2="156.15" />
<text class="label" x="82" y="160.15" text-anchor="end">1000</text>
<line class="grid" x1="90" y1="85.38" x2="1110" y2="85.38" />
<text class="label" x="82" y="89.38" text-anchor="end">1200</text>
<line class="grid" x1="277.20" y1="50" x2="277.20" y2="510" />
<text class="label" x="277.20" y="528" text-anchor="middle">5.0</text>
<line class="grid" x1="639.29" y1="50" x2="639.29" y2="510" />
<text class="label" x="639.29" y="528" text-anchor="middle">10.0</text>
<line class="grid" x1="1001.37" y1="50" x2="1001.37" y2="510" />
<text class="label" x="1001.37" y="528" text-anchor="middle">15.0</text>
<line class="axis" x1="90" y1="50" x2="90" y2="510" />
<line class="axis" x1="90" y1="510" x2="1110" y2="510" />
<text class="label" x="600.00" y="546" text-anchor="middle">Temperature (C)</text>
<text class="label" x="26" y="280.00" text-anchor="middle" transform="rotate(-90 26 280.00)">Altitude (m)</text>
<path class="rass" d="M906.87,439.23 L872.40,403.85 L804.83,368.46 L767.25,333.08 L744.58,297.69 L684.84,262.31 L626.32,226.92 L541.74,191.54" />
<path class="dalr" d="M1048.81,510.00 L126.21,50.00" />
<circle class="rass-point" cx="906.87" cy="439.23" r="2" />
<text class="rass-dev-na" x="912.87" y="436.23" text-anchor="start">(n/a)</text>
<circle class="rass-point" cx="872.40" cy="403.85" r="2" />
<text class="rass-dev-pos" x="866.40" y="400.85" text-anchor="end">(+0.5)</text>
<circle class="rass-point" cx="804.83" cy="368.46" r="2" />
<text class="rass-dev-pos" x="810.83" y="365.46" text-anchor="start">(+0.0)</text>
<circle class="rass-point" cx="767.25" cy="333.08" r="2" />
<text class="rass-dev-pos" x="761.25" y="330.08" text-anchor="end">(+0.5)</text>
<circle class="rass-point" cx="744.58" cy="297.69" r="2" />
<text class="rass-dev-pos" x="750.58" y="294.69" text-anchor="start">(+0.7)</text>
<circle class="rass-point" cx="684.84" cy="262.31" r="2" />
<text class="rass-dev-pos" x="678.84" y="259.31" text-anchor="end">(+0.2)</text>
<circle class="rass-point" cx="626.32" cy="226.92" r="2" />
<text class="rass-dev-pos" x="632.32" y="223.92" text-anchor="start">(+0.2)</text>
<circle class="rass-point" cx="541.74" cy="191.54" r="2" />
<text class="rass-dev-neg" x="535.74" y="188.54" text-anchor="end">(-0.2)</text>
<rect class="station" x="475.36" y="82.03" width="6" height="6" />
<line class="barb-shaft" x1="478.36" y1="85.03" x2="480.55" y2="102.90" />
<line class="barb-feather" x1="480.55" y1="102.90" x2="473.36" y2="101.76" />
<line class="barb-feather" x1="480.07" y1="98.93" x2="475.95" y2="98.22" />
<text class="station-label" x="484.36" y="89.03" text-anchor="start">La Cumbre</text>
<text class="station-dev-na" x="484.36" y="99.03" text-anchor="start"><tspan class="station-dev-pos">(+3.0)</tspan><tspan fill="#444444"> (-34min)</tspan></text>
<rect class="station" x="350.24" y="128.42" width="6" height="6" />
<line class="barb-shaft" x1="353.24" y1="131.42" x2="349.83" y2="149.10" />
<line class="barb-feather" x1="349.83" y1="149.10" x2="346.13" y2="147.16" />
<text class="station-label" x="359.24" y="135.42" text-anchor="start">VOR</text>
<text class="station-dev-na" x="359.24" y="145.42" text-anchor="start"><tspan class="station-dev-neg">(-0.4)</tspan><tspan fill="#444444"> (+0min)</tspan></text>
<rect class="station" x="627.81" y="253.01" width="6" height="6" />
<line class="barb-shaft" x1="630.81" y1="256.01" x2="646.55" y2="247.27" />
<line class="barb-feather" x1="646.55" y1="247.27" x2="647.44" y2="251.35" />
<text class="station-label" x="636.81" y="260.01" text-anchor="start">AntFarm</text>
<text class="station-dev-na" x="636.81" y="270.01" text-anchor="start"><tspan class="station-dev-neg">(-2.0)</tspan><tspan fill="#444444"> (+16min)</tspan></text>
<rect class="station" x="958.11" y="346.18" width="6" height="6" />
<line class="barb-shaft" x1="961.11" y1="349.18" x2="969.84" y2="364.92" />
<line class="barb-feather" x1="969.84" y1="364.92" x2="965.76" y2="365.81" />
<text class="station-label" x="967.11" y="353.18" text-anchor="start">SM Pass</text>
<text class="station-dev-na" x="967.11" y="363.18" text-anchor="start"><tspan class="station-dev-pos">(+1.9)</tspan><tspan fill="#444444"> (+4min)</tspan></text>
<rect class="station" x="974.62" y="422.89" width="6" height="6" />
<line class="barb-shaft" x1="977.62" y1="425.89" x2="972.72" y2="443.21" />
<line class="barb-feather" x1="972.72" y1="443.21" x2="969.20" y2="440.97" />
<text class="station-label" x="983.62" y="429.89" text-anchor="start">Parma</text>
<text class="station-dev-na" x="983.62" y="439.89" text-anchor="start"><tspan class="station-dev-pos">(+1.0)</tspan><tspan fill="#444444"> (+5min)</tspan></text>
<rect class="station" x="1070.79" y="505.94" width="6" height="6" />
<line class="barb-shaft" x1="1073.79" y1="508.94" x2="1085.36" y2="522.73" />
<line class="barb-feather" x1="1085.36" y1="522.73" x2="1078.71" y2="525.69" />
<text class="station-label" x="1067.79" y="498.00" text-anchor="end">Airport</text>
<text class="station-dev-na" x="1067.79" y="508.00" text-anchor="end">(n/a)</text>
<line class="rass" x1="90" y1="562" x2="114" y2="562" />
<text class="label" x="120" y="566">RASS @ 12:55</text>
<line class="dalr" x1="310" y1="562" x2="334" y2="562" />
<text class="label" x="340" y="566">DALR (9.8 C/km)</text>
<text class="legend-h" x="90" y="596">Stations</text>
<text class="legend-row" x="90" y="612"><tspan>La Cumbre 1201m @ 13:24 - 7.8C, winds 173, 16g19mph, DALR dev </tspan><tspan fill="#c62828">VOR:+3.0C</tspan><tspan>; </tspan><tspan fill="#c62828">AntFarm:+2.6C</tspan><tspan>; </tspan><tspan fill="#c62828">SM Pass:+0.6C</tspan><tspan>; </tspan><tspan fill="#c62828">Parma:+2.5C</tspan><tspan>; </tspan><tspan fill="#c62828">Airport:+3.5C</tspan></text>
<text class="legend-row" x="90" y="626"><tspan>VOR 1070m @ 12:50 - 6.1C, winds 191, 6g13mph, DALR dev </tspan><tspan fill="#1565c0">AntFarm:-0.4C</tspan><tspan>; </tspan><tspan fill="#1565c0">SM Pass:-2.4C</tspan><tspan>; </tspan><tspan fill="#1565c0">Parma:-0.5C</tspan><tspan>; </tspan><tspan fill="#c62828">Airport:+0.5C</tspan></text>
<text class="legend-row" x="90" y="640"><tspan>AntFarm 718m @ 12:50 - 9.9C, winds 061, 5g10mph, DALR dev </tspan><tspan fill="#1565c0">SM Pass:-2.0C</tspan><tspan>; </tspan><tspan fill="#1565c0">Parma:-0.1C</tspan><tspan>; </tspan><tspan fill="#c62828">Airport:+0.9C</tspan></text>
<text class="legend-row" x="90" y="654">Montecito 494m @ missing - temp missing, winds missing, DALR dev missing</text>
<text class="legend-row" x="90" y="668"><tspan>SM Pass 454m @ 13:06 - 14.4C, winds 151, 6g16mph, DALR dev </tspan><tspan fill="#c62828">Parma:+1.9C</tspan><tspan>; </tspan><tspan fill="#c62828">Airport:+2.9C</tspan></text>
<text class="legend-row" x="90" y="682"><tspan>Parma 238m @ 13:10 - 14.7C, winds 196, 3g6mph, DALR dev </tspan><tspan fill="#c62828">Airport:+1.0C</tspan></text>
<text class="legend-row" x="90" y="696">Airport 3m @ 13:15 - 16.0C, winds 140, 12g18mph, DALR dev n/a</text>
</svg>