<svg xmlns="http://www.w3.org/2000/svg" width="1180" height="760" viewBox="0 0 1180 760">
<style>
  .axis { stroke: #202020; stroke-width: 1; }
  .grid { stroke: #dddddd; stroke-width: 1; }
  .title { font-family: Helvetica, Arial, sans-serif; font-size: 16px; font-weight: 600; fill: #111111; }
  .label { font-family: Helvetica, Arial, sans-serif; font-size: 12px; fill: #222222; }
  .legend-h { font-family: Helvetica, Arial, sans-serif; font-size: 12px; font-weight: 600; fill: #222222; }
  .legend-row { font-family: Helvetica, Arial, sans-serif; font-size: 11px; fill: #333333; }
  .rass { fill: none; stroke: #000000; stroke-width: 2; }
  .dalr { fill: none; stroke: #000000; stroke-width: 1.5; stroke-dasharray: 6 4; stroke-opacity: 0.45; }
  .rass-point { fill: #0077b6; }
  .station { fill: #f4a261; stroke: #8b4c12; stroke-width: 1; }
  .barb-shaft { stroke: #1f2937; stroke-width: 1.3; }
  .barb-feather { stroke: #1f2937; stroke-width: 1.2; }
  .barb-flag { fill: #1f2937; stroke: #1f2937; stroke-width: 1; }
  .station-label { font-family: Helvetica, Arial, sans-serif; font-size: 11px; fill: #444444; }
  .station-dev-pos { font-family: Helvetica, Arial, sans-serif; font-size: 10px; fill: #c62828; }
  .station-dev-neg { font-family: Helvetica, Arial, sans-serif; font-size: 10px; fill: #1565c0; }
  .station-dev-na { font-family: Helvetica, Arial, sans-serif; font-size: 10px; fill: #666666; }
  .rass-dev-pos { font-family: Helvetica, Arial, sans-serif; font-size: 9px; fill: #c62828; }
  .rass-dev-neg { font-family: Helvetica, Arial, sans-serif; font-size: 9px; fill: #1565c0; }
  .rass-dev-na { font-family: Helvetica, Arial, sans-serif; font-size: 9px; fill: #666666; }
</style>
<rect x="0" y="0" width="1180" height="760" fill="#ffffff" />
<text class="title" x="90" y="28">Estimated LCL @ VOR: 1109 m - winds 202, 7g15mph (12:40 PST)</text>
<line class="grid" x1="90" y1="510.00" x2="1110" y2="510.00" />
<text class="label" x="82" y="514.00" text-anchor="end">0</text>
<line class="grid" x1="90" y1="439.23" x2="1110" y2="439.23" />
<text class="label" x="82" y="443.23" text-anchor="end">200</text>
<line class="grid" x1="90" y1="368.46" x2="1110" y2="368.46" />
<text class="label" x="82" y="372.46" text-anchor="end">400</text>
<line class="grid" x1="90" y1="297.69" x2="1110" y2="297.69" />
<text class="label" x="82" y="301.69" text-anchor="end">600</text>
<line class="grid" x1="90" y1="226.92" x2="1110" y2="226.92" />
<text class="label" x="82" y="230.92" text-anchor="end">800</text>
<line class="grid" x1="90" y1="156.15" x2="1110" y2="156.15" />
<text class="label" x="82" y="160.15" text-anchor="end">1000</text>
<line class="grid" x1="90" y1="85.38" x2="1110" y2="85.38" />
<text class="label" x="82" y="89.38" text-anchor="end">1200</text>
<line class="grid" x1="265.26" y1="50" x2="265.26" y2="510" />
<text class="label" x="265.26" y="528" text-anchor="middle">5.0</text>
<line class="grid" x1="632.54" y1="50" x2="632.54" y2="510" />
<text class="label" x="632.54" y="528" text-anchor="middle">10.0</text>
<line class="grid" x1="999.82" y1="50" x2="999.82" y2="510" />
<text class="label" x="999.82" y="528" text-anchor="middle">15.0</text>
<line class="axis" x1="90" y1="50" x2="90" y2="510" />
<line class="axis" x1="90" y1="510" x2="1110" y2="510" />
<text class="label" x="600.00" y="546" text-anchor="middle">Temperature (C)</text>
<text class="label" x="26" y="280.00" text-anchor="middle" transform="rotate(-90 26 280.00)">Altitude (m)</text>
<path class="rass" d="M918.58,439.23 L876.63,403.85 L827.93,368.46 L778.94,333.08 L693.88,297.69 L625.64,262.31" />
<path class="dalr" d="M1062.55,510.00 L126.73,50.00" />
<circle class="rass-point" cx="918.58" cy="439.23" r="2" />
<text class="rass-dev-na" x="924.58" y="436.23" text-anchor="start">(n/a)</text>
<circle class="rass-point" cx="876.63" cy="403.85" r="2" />
<text class="rass-dev-pos" x="870.63" y="400.85" text-anchor="end">(+0.4)</text>
<circle class="rass-point" cx="827.93" cy="368.46" r="2" />
<text class="rass-dev-pos" x="833.93" y="365.46" text-anchor="start">(+0.3)</text>
<circle class="rass-point" cx="778.94" cy="333.08" r="2" />
<text class="rass-dev-pos" x="772.94" y="330.08" text-anchor="end">(+0.3)</text>
<circle class="rass-point" cx="693.88" cy="297.69" r="2" />
<text class="rass-dev-neg" x="699.88" y="294.69" text-anchor="start">(-0.2)</text>
<circle class="rass-point" cx="625.64" cy="262.31" r="2" />
<text class="rass-dev-pos" x="619.64" y="259.31" text-anchor="end">(+0.1)</text>
<rect class="station" x="466.31" y="82.03" width="6" height="6" />
<line class="barb-shaft" x1="469.31" y1="85.03" x2="469.94" y2="103.02" />
<line class="barb-feather" x1="469.94" y1="103.02" x2="462.87" y2="101.27" />
<text class="station-label" x="475.31" y="89.03" text-anchor="start">La Cumbre</text>
<text class="station-dev-na" x="475.31" y="99.03" text-anchor="start"><tspan class="station-dev-pos">(+3.0)</tspan><tspan fill="#444444"> (-16min)</tspan></text>
<rect class="station" x="343.07" y="128.42" width="6" height="6" />
<line class="barb-shaft" x1="346.07" y1="131.42" x2="339.24" y2="148.07" />
<line class="barb-feather" x1="339.24" y1="148.07" x2="335.99" y2="145.45" />
<text class="station-label" x="352.07" y="135.42" text-anchor="start">VOR</text>
<text class="station-dev-na" x="352.07" y="145.42" text-anchor="start"><tspan class="station-dev-neg">(-0.3)</tspan><tspan fill="#444444"> (+0min)</tspan></text>
<rect class="station" x="620.58" y="253.01" width="6" height="6" />
<line class="barb-shaft" x1="623.58" y1="256.01" x2="639.10" y2="246.90" />
<line class="barb-feather" x1="639.10" y1="246.90" x2="640.09" y2="250.96" />
<text class="station-label" x="629.58" y="260.01" text-anchor="start">AntFarm</text>
<text class="station-dev-na" x="629.58" y="270.01" text-anchor="start"><tspan class="station-dev-neg">(-0.9)</tspan><tspan fill="#444444"> (-34min)</tspan></text>
<rect class="station" x="874.37" y="346.18" width="6" height="6" />
<line class="barb-shaft" x1="877.37" y1="349.18" x2="887.95" y2="363.74" />
<line class="barb-feather" x1="887.95" y1="363.74" x2="884.01" y2="365.12" />
<text class="station-label" x="883.37" y="353.18" text-anchor="start">SM Pass</text>
<text class="station-dev-na" x="883.37" y="363.18" text-anchor="start"><tspan class="station-dev-pos">(+1.1)</tspan><tspan fill="#444444"> (+34min)</tspan></text>
<rect class="station" x="953.19" y="422.89" width="6" height="6" />
<circle class="barb-shaft" cx="956.19" cy="425.89" r="2.5" fill="none" />
<text class="station-label" x="962.19" y="429.89" text-anchor="start">Parma</text>
<text class="station-dev-na" x="962.19" y="439.89" text-anchor="start"><tspan class="station-dev-pos">(+0.7)</tspan><tspan fill="#444444"> (+0min)</tspan></text>
<rect class="station" x="1070.27" y="505.94" width="6" height="6" />
<line class="barb-shaft" x1="1073.27" y1="508.94" x2="1087.06" y2="520.51" />
<line class="barb-feather" x1="1087.06" y1="520.51" x2="1081.03" y2="524.59" />
<text class="station-label" x="1067.27" y="498.00" text-anchor="end">Airport</text>
<text class="station-dev-na" x="1067.27" y="508.00" text-anchor="end">(n/a)</text>
<line class="rass" x1="90" y1="562" x2="114" y2="562" />
<text class="label" x="120" y="566">RASS @ 11:55</text>
<line class="dalr" x1="310" y1="562" x2="334" y2="562" />
<text class="label" x="340" y="566">DALR (9.8 C/km)</text>
<text class="legend-h" x="90" y="596">Stations</text>
<text class="legend-row" x="90" y="612"><tspan>La Cumbre 1201m @ 12:56 - 7.8C, winds 178, 12g16mph, DALR dev </tspan><tspan fill="#c62828">VOR:+3.0C</tspan><tspan>; </tspan><tspan fill="#c62828">AntFarm:+2.6C</tspan><tspan>; </tspan><tspan fill="#c62828">Montecito:+0.8C</tspan><tspan>; </tspan><tspan fill="#c62828">SM Pass:+1.8C</tspan><tspan>; </tspan><tspan fill="#c62828">Parma:+2.8C</tspan><tspan>; </tspan><tspan fill="#c62828">Airport:+3.5C</tspan></text>
<text class="legend-row" x="90" y="626"><tspan>VOR 1070m @ 12:40 - 6.1C, winds 202, 7g15mph, DALR dev </tspan><tspan fill="#1565c0">AntFarm:-0.3C</tspan><tspan>; </tspan><tspan fill="#1565c0">Montecito:-2.1C</tspan><tspan>; </tspan><tspan fill="#1565c0">SM Pass:-1.2C</tspan><tspan>; </tspan><tspan fill="#1565c0">Parma:-0.2C</tspan><tspan>; </tspan><tspan fill="#c62828">Airport:+0.6C</tspan></text>
<text class="legend-row" x="90" y="640"><tspan>AntFarm 718m @ 12:40 - 9.9C, winds 060, 5g10mph, DALR dev </tspan><tspan fill="#1565c0">Montecito:-1.8C</tspan><tspan>; </tspan><tspan fill="#1565c0">SM Pass:-0.9C</tspan><tspan>; </tspan><tspan fill="#c62828">Parma:+0.2C</tspan><tspan>; </tspan><tspan fill="#c62828">Airport:+0.9C</tspan></text>
<text class="legend-row" x="90" y="654"><tspan>Montecito 494m @ 11:47 - 13.9C, winds 178, 5g19mph, DALR dev </tspan><tspan fill="#c62828">SM Pass:+0.9C</tspan><tspan>; </tspan><tspan fill="#c62828">Parma:+2.0C</tspan><tspan>; </tspan><tspan fill="#c62828">Airport:+2.7C</tspan></text>
<text class="legend-row" x="90" y="668"><tspan>SM Pass 454m @ 12:06 - 13.3C, winds 144, 7g22mph, DALR dev </tspan><tspan fill="#c62828">Parma:+1.1C</tspan><tspan>; </tspan><tspan fill="#c62828">Airport:+1.8C</tspan></text>
<text class="legend-row" x="90" y="682"><tspan>Parma 238m @ 12:40 - 14.4C, winds 190, 3g10mph, DALR dev </tspan><tspan fill="#c62828">Airport:+0.7C</tspan></text>
<text class="legend-row" x="90" y="696">Airport 3m @ 12:40 - 16.0C, winds 130, 10g18mph, DALR dev n/a</text>
</svg>