<svg xmlns="http://www.w3.org/2000/svg" width="1180" height="760" viewBox="0 0 1180 760">
<style>
  .axis { stroke: #202020; stroke-width: 1; }
  .grid { stroke: #dddddd; stroke-width: 1; }
  .title { font-family: Helvetica, Arial, sans-serif; font-size: 16px; font-weight: 600; fill: #111111; }
  .label { font-family: Helvetica, Arial, sans-serif; font-size: 12px; fill: #222222; }
  .legend-h { font-family: Helvetica, Arial, sans-serif; font-size: 12px; font-weight: 600; fill: #222222; }
  .legend-row { font-family: Helvetica, Arial, sans-serif; font-size: 11px; fill: #333333; }
  .rass { fill: none; stroke: #000000; stroke-width: 2; }
  .dalr { fill: none; stroke: #000000; stroke-width: 1.5; stroke-dasharray: 6 4; stroke-opacity: 0.45; }
  .rass-point { fill: #0077b6; }
  .station { fill: #f4a261; stroke: #8b4c12; stroke-width: 1; }
  .barb-shaft { stroke: #1f2937; stroke-width: 1.3; }
  .barb-feather { stroke: #1f2937; stroke-width: 1.2; }
  .barb-flag { fill: #1f2937; stroke: #1f2937; stroke-width: 1; }
  .station-label { font-family: Helvetica, Arial, sans-serif; font-size: 11px; fill: #444444; }
  .station-dev-pos { font-family: Helvetica, Arial, sans-serif; font-size: 10px; fill: #c62828; }
  .station-dev-neg { font-family: Helvetica, Arial, sans-serif; font-size: 10px; fill: #1565c0; }
  .station-dev-na { font-family: Helvetica, Arial, sans-serif; font-size: 10px; fill: #666666; }
  .rass-dev-pos { font-family: Helvetica, Arial, sans-serif; font-size: 9px; fill: #c62828; }
  .rass-dev-neg { font-family: Helvetica, Arial, sans-serif; font-size: 9px; fill: #1565c0; }
  .rass-dev-na { font-family: Helvetica, Arial, sans-serif; font-size: 9px; fill: #666666; }
</style>
<rect x="0" y="0" width="1180" height="760" fill="#ffffff" />
<text class="title" x="90" y="28">Estimated LCL @ VOR: 1070 m - winds 204, 10g15mph (16:30 PST)</text>
<line class="grid" x1="90" y1="510.00" x2="1110" y2="510.00" />
<text class="label" x="82" y="514.00" text-anchor="end">0</text>
<line class="grid" x1="90" y1="439.23" x2="1110" y2="439.23" />
<text class="label" x="82" y="443.23" text-anchor="end">200</text>
<line class="grid" x1="90" y1="368.46" x2="1110" y2="368.46" />
<text class="label" x="82" y="372.46" text-anchor="end">400</text>
<line class="grid" x1="90" y1="297.69" x2="1110" y2="297.69" />
<text class="label" x="82" y="301.69" text-anchor="end">600</text>
<line class="grid" x1="90" y1="226.92" x2="1110" y2="226.92" />
<text class="label" x="82" y="230.92" text-anchor="end">800</text>
<line class="grid" x1="90" y1="156.15" x2="1110" y2="156.15" />
<text class="label" x="82" y="160.15" text-anchor="end">1000</text>
<line class="grid" x1="90" y1="85.38" x2="1110" y2="85.38" />
<text class="label" x="82" y="89.38" text-anchor="end">1200</text>
<line class="grid" x1="229.79" y1="50" x2="229.79" y2="510" />
<text class="label" x="229.79" y="528" text-anchor="middle">5.0</text>
<line class="grid" x1="600.97" y1="50" x2="600.97" y2="510" />
<text class="label" x="600.97" y="528" text-anchor="middle">10.0</text>
<line class="grid" x1="972.14" y1="50" x2="972.14" y2="510" />
<text class="label" x="972.14" y="528" text-anchor="middle">15.0</text>
<line class="axis" x1="90" y1="50" x2="90" y2="510" />
<line class="axis" x1="90" y1="510" x2="1110" y2="510" />
<text class="label" x="600.00" y="546" text-anchor="middle">Temperature (C)</text>
<text class="label" x="26" y="280.00" text-anchor="middle" transform="rotate(-90 26 280.00)">Altitude (m)</text>
<path class="rass" d="M927.38,439.23 L906.15,403.85 L864.58,368.46 L764.28,333.08 L682.55,297.69 L627.69,262.31 L599.70,226.92 L483.08,191.54 L392.51,156.15 L362.07,120.77" />
<path class="dalr" d="M1072.88,510.00 L127.12,50.00" />
<circle class="rass-point" cx="927.38" cy="439.23" r="2" />
<text class="rass-dev-na" x="933.38" y="436.23" text-anchor="start">(n/a)</text>
<circle class="rass-point" cx="906.15" cy="403.85" r="2" />
<text class="rass-dev-pos" x="900.15" y="400.85" text-anchor="end">(+0.7)</text>
<circle class="rass-point" cx="864.58" cy="368.46" r="2" />
<text class="rass-dev-pos" x="870.58" y="365.46" text-anchor="start">(+0.4)</text>
<circle class="rass-point" cx="764.28" cy="333.08" r="2" />
<text class="rass-dev-neg" x="758.28" y="330.08" text-anchor="end">(-0.4)</text>
<circle class="rass-point" cx="682.55" cy="297.69" r="2" />
<text class="rass-dev-neg" x="688.55" y="294.69" text-anchor="start">(-0.1)</text>
<circle class="rass-point" cx="627.69" cy="262.31" r="2" />
<text class="rass-dev-pos" x="621.69" y="259.31" text-anchor="end">(+0.2)</text>
<circle class="rass-point" cx="599.70" cy="226.92" r="2" />
<text class="rass-dev-pos" x="605.70" y="223.92" text-anchor="start">(+0.6)</text>
<circle class="rass-point" cx="483.08" cy="191.54" r="2" />
<text class="rass-dev-neg" x="477.08" y="188.54" text-anchor="end">(-0.6)</text>
<circle class="rass-point" cx="392.51" cy="156.15" r="2" />
<text class="rass-dev-neg" x="398.51" y="153.15" text-anchor="start">(-0.2)</text>
<circle class="rass-point" cx="362.07" cy="120.77" r="2" />
<text class="rass-dev-pos" x="356.07" y="117.77" text-anchor="end">(+0.6)</text>
<rect class="station" x="309.27" y="82.03" width="6" height="6" />
<line class="barb-shaft" x1="312.27" y1="85.03" x2="323.10" y2="99.41" />
<line class="barb-feather" x1="323.10" y1="99.41" x2="316.31" y2="102.02" />
<line class="barb-feather" x1="320.70" y1="96.21" x2="316.78" y2="97.66" />
<text class="station-label" x="318.27" y="89.03" text-anchor="start">La Cumbre</text>
<text class="station-dev-na" x="318.27" y="99.03" text-anchor="start"><tspan class="station-dev-pos">(+1.8)</tspan><tspan fill="#444444"> (-19min)</tspan></text>
<rect class="station" x="272.14" y="128.42" width="6" height="6" />
<line class="barb-shaft" x1="275.14" y1="131.42" x2="267.85" y2="147.88" />
<line class="barb-feather" x1="267.85" y1="147.88" x2="262.26" y2="143.21" />
<text class="station-label" x="281.14" y="135.42" text-anchor="start">VOR</text>
<text class="station-dev-na" x="281.14" y="145.42" text-anchor="start"><tspan class="station-dev-pos">(+0.7)</tspan><tspan fill="#444444"> (+0min)</tspan></text>
<rect class="station" x="475.03" y="253.01" width="6" height="6" />
<line class="barb-shaft" x1="478.03" y1="256.01" x2="493.20" y2="246.32" />
<line class="barb-feather" x1="493.20" y1="246.32" x2="494.34" y2="250.34" />
<text class="station-label" x="484.03" y="260.01" text-anchor="start">AntFarm</text>
<text class="station-dev-na" x="484.03" y="270.01" text-anchor="start"><tspan class="station-dev-neg">(-0.2)</tspan><tspan fill="#444444"> (-24min)</tspan></text>
<rect class="station" x="680.44" y="346.18" width="6" height="6" />
<line class="barb-shaft" x1="683.44" y1="349.18" x2="692.98" y2="364.44" />
<line class="barb-feather" x1="692.98" y1="364.44" x2="688.95" y2="365.54" />
<text class="station-label" x="689.44" y="353.18" text-anchor="start">SM Pass</text>
<text class="station-dev-na" x="689.44" y="363.18" text-anchor="start"><tspan class="station-dev-pos">(+0.0)</tspan><tspan fill="#444444"> (+24min)</tspan></text>
<rect class="station" x="835.52" y="422.89" width="6" height="6" />
<circle class="barb-shaft" cx="838.52" cy="425.89" r="2.5" fill="none" />
<text class="station-label" x="844.52" y="429.89" text-anchor="start">Parma</text>
<text class="station-dev-na" x="844.52" y="439.89" text-anchor="start"><tspan class="station-dev-neg">(-0.5)</tspan><tspan fill="#444444"> (+10min)</tspan></text>
<rect class="station" x="1043.38" y="505.94" width="6" height="6" />
<line class="barb-shaft" x1="1046.38" y1="508.94" x2="1061.97" y2="517.94" />
<line class="barb-feather" x1="1061.97" y1="517.94" x2="1056.74" y2="523.00" />
<text class="station-label" x="1052.38" y="498.00" text-anchor="start">Airport</text>
<text class="station-dev-na" x="1052.38" y="508.00" text-anchor="start">(n/a)</text>
<line class="rass" x1="90" y1="562" x2="114" y2="562" />
<text class="label" x="120" y="566">RASS @ 15:55</text>
<line class="dalr" x1="310" y1="562" x2="334" y2="562" />
<text class="label" x="340" y="566">DALR (9.8 C/km)</text>
<text class="legend-h" x="90" y="596">Stations</text>
<text class="legend-row" x="90" y="612"><tspan>La Cumbre 1201m @ 16:49 - 6.1C, winds 143, 15g20mph, DALR dev </tspan><tspan fill="#c62828">VOR:+1.8C</tspan><tspan>; </tspan><tspan fill="#c62828">AntFarm:+2.5C</tspan><tspan>; </tspan><tspan fill="#c62828">SM Pass:+2.3C</tspan><tspan>; </tspan><tspan fill="#c62828">Parma:+2.4C</tspan><tspan>; </tspan><tspan fill="#c62828">Airport:+1.9C</tspan></text>
<text class="legend-row" x="90" y="626"><tspan>VOR 1070m @ 16:30 - 5.6C, winds 204, 10g15mph, DALR dev </tspan><tspan fill="#c62828">AntFarm:+0.7C</tspan><tspan>; </tspan><tspan fill="#c62828">SM Pass:+0.5C</tspan><tspan>; </tspan><tspan fill="#c62828">Parma:+0.6C</tspan><tspan>; </tspan><tspan fill="#c62828">Airport:+0.1C</tspan></text>
<text class="legend-row" x="90" y="640"><tspan>AntFarm 718m @ 16:30 - 8.3C, winds 057, 7g11mph, DALR dev </tspan><tspan fill="#1565c0">SM Pass:-0.2C</tspan><tspan>; </tspan><tspan fill="#1565c0">Parma:-0.2C</tspan><tspan>; </tspan><tspan fill="#1565c0">Airport:-0.7C</tspan></text>
<text class="legend-row" x="90" y="654">Montecito 494m @ missing - temp missing, winds missing, DALR dev missing</text>
<text class="legend-row" x="90" y="668"><tspan>SM Pass 454m @ 16:06 - 11.1C, winds 148, 6g15mph, DALR dev </tspan><tspan fill="#c62828">Parma:+0.0C</tspan><tspan>; </tspan><tspan fill="#1565c0">Airport:-0.5C</tspan></text>
<text class="legend-row" x="90" y="682"><tspan>Parma 238m @ 16:30 - 13.2C, winds 192, 1g4mph, DALR dev </tspan><tspan fill="#1565c0">Airport:-0.5C</tspan></text>
<text class="legend-row" x="90" y="696">Airport 3m @ 16:40 - 16.0C, winds 120, 9g18mph, DALR dev n/a</text>
</svg>