<svg xmlns="http://www.w3.org/2000/svg" width="1180" height="760" viewBox="0 0 1180 760">
<style>
  .axis { stroke: #202020; stroke-width: 1; }
  .grid { stroke: #dddddd; stroke-width: 1; }
  .title { font-family: Helvetica, Arial, sans-serif; font-size: 16px; font-weight: 600; fill: #111111; }
  .label { font-family: Helvetica, Arial, sans-serif; font-size: 12px; fill: #222222; }
  .legend-h { font-family: Helvetica, Arial, sans-serif; font-size: 12px; font-weight: 600; fill: #222222; }
  .legend-row { font-family: Helvetica, Arial, sans-serif; font-size: 11px; fill: #333333; }
  .rass { fill: none; stroke: #000000; stroke-width: 2; }
  .dalr { fill: none; stroke: #000000; stroke-width: 1.5; stroke-dasharray: 6 4; stroke-opacity: 0.45; }
  .rass-point { fill: #0077b6; }
  .station { fill: #f4a261; stroke: #8b4c12; stroke-width: 1; }
  .barb-shaft { stroke: #1f2937; stroke-width: 1.3; }
  .barb-feather { stroke: #1f2937; stroke-width: 1.2; }
  .barb-flag { fill: #1f2937; stroke: #1f2937; stroke-width: 1; }
  .station-label { font-family: Helvetica, Arial, sans-serif; font-size: 11px; fill: #444444; }
  .station-dev-pos { font-family: Helvetica, Arial, sans-serif; font-size: 10px; fill: #c62828; }
  .station-dev-neg { font-family: Helvetica, Arial, sans-serif; font-size: 10px; fill: #1565c0; }
  .station-dev-na { font-family: Helvetica, Arial, sans-serif; font-size: 10px; fill: #666666; }
  .rass-dev-pos { font-family: Helvetica, Arial, sans-serif; font-size: 9px; fill: #c62828; }
  .rass-dev-neg { font-family: Helvetica, Arial, sans-serif; font-size: 9px; fill: #1565c0; }
  .rass-dev-na { font-family: Helvetica, Arial, sans-serif; font-size: 9px; fill: #666666; }
</style>
<rect x="0" y="0" width="1180" height="760" fill="#ffffff" />
<text class="title" x="90" y="28">Estimated LCL @ VOR: 3511 ft - winds 162, 8g15mph (21:20 PST)</text>
<line class="grid" x1="90" y1="510.00" x2="1110" y2="510.00" />
<text class="label" x="82" y="514.00" text-anchor="end">0</text>
<line class="grid" x1="90" y1="452.50" x2="1110" y2="452.50" />
<text class="label" x="82" y="456.50" text-anchor="end">500</text>
<line class="grid" x1="90" y1="395.00" x2="1110" y2="395.00" />
<text class="label" x="82" y="399.00" text-anchor="end">1000</text>
<line class="grid" x1="90" y1="337.50" x2="1110" y2="337.50" />
<text class="label" x="82" y="341.50" text-anchor="end">1500</text>
<line class="grid" x1="90" y1="280.00" x2="1110" y2="280.00" />
<text class="label" x="82" y="284.00" text-anchor="end">2000</text>
<line class="grid" x1="90" y1="222.50" x2="1110" y2="222.50" />
<text class="label" x="82" y="226.50" text-anchor="end">2500</text>
<line class="grid" x1="90" y1="165.00" x2="1110" y2="165.00" />
<text class="label" x="82" y="169.00" text-anchor="end">3000</text>
<line class="grid" x1="90" y1="107.50" x2="1110" y2="107.50" />
<text class="label" x="82" y="111.50" text-anchor="end">3500</text>
<line class="grid" x1="90" y1="50.00" x2="1110" y2="50.00" />
<text class="label" x="82" y="54.00" text-anchor="end">4000</text>
<line class="grid" x1="176.09" y1="50" x2="176.09" y2="510" />
<text class="label" x="176.09" y="528" text-anchor="middle">40.0</text>
<line class="grid" x1="401.75" y1="50" x2="401.75" y2="510" />
<text class="label" x="401.75" y="528" text-anchor="middle">45.0</text>
<line class="grid" x1="627.42" y1="50" x2="627.42" y2="510" />
<text class="label" x="627.42" y="528" text-anchor="middle">50.0</text>
<line class="grid" x1="853.08" y1="50" x2="853.08" y2="510" />
<text class="label" x="853.08" y="528" text-anchor="middle">55.0</text>
<line class="grid" x1="1078.75" y1="50" x2="1078.75" y2="510" />
<text class="label" x="1078.75" y="528" text-anchor="middle">60.0</text>
<line class="axis" x1="90" y1="50" x2="90" y2="510" />
<line class="axis" x1="90" y1="510" x2="1110" y2="510" />
<text class="label" x="600.00" y="546" text-anchor="middle">Temperature (F)</text>
<text class="label" x="26" y="280.00" text-anchor="middle" transform="rotate(-90 26 280.00)">Altitude (ft)</text>
<path class="rass" d="M927.51,434.54 L881.13,396.81 L819.87,359.08 L772.02,321.35 L705.65,283.62 L604.67,245.89 L555.12,208.16 L529.69,170.43" />
<path class="dalr" d="M1087.43,510.00 L112.57,50.00" />
<circle class="rass-point" cx="927.51" cy="434.54" r="2" />
<text class="rass-dev-na" x="933.51" y="431.54" text-anchor="start">(n/a)</text>
<circle class="rass-point" cx="881.13" cy="396.81" r="2" />
<text class="rass-dev-pos" x="875.13" y="393.81" text-anchor="end">(+0.7)</text>
<circle class="rass-point" cx="819.87" cy="359.08" r="2" />
<text class="rass-dev-pos" x="825.87" y="356.08" text-anchor="start">(+0.4)</text>
<circle class="rass-point" cx="772.02" cy="321.35" r="2" />
<text class="rass-dev-pos" x="766.02" y="318.35" text-anchor="end">(+0.7)</text>
<circle class="rass-point" cx="705.65" cy="283.62" r="2" />
<text class="rass-dev-pos" x="711.65" y="280.62" text-anchor="start">(+0.3)</text>
<circle class="rass-point" cx="604.67" cy="245.89" r="2" />
<text class="rass-dev-neg" x="598.67" y="242.89" text-anchor="end">(-0.5)</text>
<circle class="rass-point" cx="555.12" cy="208.16" r="2" />
<text class="rass-dev-pos" x="561.12" y="205.16" text-anchor="start">(+0.7)</text>
<circle class="rass-point" cx="529.69" cy="170.43" r="2" />
<text class="rass-dev-pos" x="523.69" y="167.43" text-anchor="end">(+1.2)</text>
<rect class="station" x="308.49" y="53.87" width="6" height="6" />
<line class="barb-shaft" x1="311.49" y1="56.87" x2="311.17" y2="74.86" />
<line class="barb-feather" x1="311.17" y1="74.86" x2="304.21" y2="72.74" />
<line class="barb-feather" x1="311.24" y1="70.86" x2="307.27" y2="69.60" />
<text class="station-label" x="317.49" y="64.00" text-anchor="start">La Cumbre</text>
<text class="station-dev-na" x="317.49" y="74.00" text-anchor="start"><tspan class="station-dev-pos">(+2.1)</tspan><tspan fill="#444444"> (21:48)</tspan></text>
<rect class="station" x="317.50" y="103.33" width="6" height="6" />
<line class="barb-shaft" x1="320.50" y1="106.33" x2="325.94" y2="123.49" />
<line class="barb-feather" x1="325.94" y1="123.49" x2="321.76" y2="123.55" />
<text class="station-label" x="326.50" y="110.33" text-anchor="start">VOR</text>
<text class="station-dev-na" x="326.50" y="120.33" text-anchor="start"><tspan class="station-dev-pos">(+1.7)</tspan><tspan fill="#444444"> (21:20)</tspan></text>
<rect class="station" x="523.76" y="236.18" width="6" height="6" />
<line class="barb-shaft" x1="526.76" y1="239.18" x2="542.49" y2="230.42" />
<line class="barb-feather" x1="542.49" y1="230.42" x2="543.39" y2="234.50" />
<text class="station-label" x="532.76" y="243.18" text-anchor="start">AntFarm</text>
<text class="station-dev-na" x="532.76" y="253.18" text-anchor="start"><tspan class="station-dev-pos">(+1.3)</tspan><tspan fill="#444444"> (21:20)</tspan></text>
<rect class="station" x="837.02" y="417.32" width="6" height="6" />
<circle class="barb-shaft" cx="840.02" cy="420.32" r="2.5" fill="none" />
<text class="station-label" x="846.02" y="424.32" text-anchor="start">Parma</text>
<text class="station-dev-na" x="846.02" y="434.32" text-anchor="start"><tspan class="station-dev-pos">(+1.7)</tspan><tspan fill="#444444"> (21:30)</tspan></text>
<rect class="station" x="832.06" y="410.07" width="6" height="6" />
<circle class="barb-shaft" cx="835.06" cy="413.07" r="2.5" fill="none" />
<text class="station-label" x="841.06" y="453.07" text-anchor="start">Romero Cyn</text>
<text class="station-dev-na" x="841.06" y="463.07" text-anchor="start"><tspan class="station-dev-pos">(+0.2)</tspan><tspan fill="#444444"> (21:30)</tspan></text>
<rect class="station" x="949.37" y="505.87" width="6" height="6" />
<line class="barb-shaft" x1="952.37" y1="508.87" x2="955.50" y2="526.59" />
<line class="barb-feather" x1="955.50" y1="526.59" x2="951.35" y2="526.11" />
<text class="station-label" x="958.37" y="498.00" text-anchor="start">Airport</text>
<text class="station-dev-na" x="958.37" y="508.00" text-anchor="start"><tspan class="station-dev-na">(n/a)</tspan><tspan fill="#444444"> (21:40)</tspan></text>
<line class="rass" x1="90" y1="562" x2="114" y2="562" />
<text class="label" x="120" y="566">RASS @ 20:55</text>
<line class="dalr" x1="310" y1="562" x2="334" y2="562" />
<text class="label" x="340" y="566">DALR (5.4 F/1000 ft)</text>
<text class="legend-h" x="90" y="596">Stations</text>
<text class="legend-row" x="90" y="612"><tspan>La Cumbre @ 21:48 - 43.0F, winds 181, 16g21mph, DALR dev </tspan><tspan fill="#c62828">VOR:+2.1F</tspan><tspan>; </tspan><tspan fill="#c62828">AntFarm:+3.8F</tspan><tspan>; </tspan><tspan fill="#c62828">Montecito:+5.5F</tspan><tspan>; </tspan><tspan fill="#c62828">Romero Cyn:+5.1F</tspan><tspan>; </tspan><tspan fill="#c62828">Parma:+5.4F</tspan><tspan>; </tspan><tspan fill="#c62828">Airport:+7.0F</tspan></text>
<text class="legend-row" x="90" y="626"><tspan>VOR @ 21:30 - 43.2F, winds 162, 8g15mph, DALR dev </tspan><tspan fill="#c62828">AntFarm:+1.7F</tspan><tspan>; </tspan><tspan fill="#c62828">Montecito:+3.4F</tspan><tspan>; </tspan><tspan fill="#c62828">Romero Cyn:+3.0F</tspan><tspan>; </tspan><tspan fill="#c62828">Parma:+3.2F</tspan><tspan>; </tspan><tspan fill="#c62828">Airport:+4.9F</tspan></text>
<text class="legend-row" x="90" y="640"><tspan>AntFarm @ 21:30 - 47.8F, winds 061, 6g10mph, DALR dev </tspan><tspan fill="#c62828">Montecito:+1.7F</tspan><tspan>; </tspan><tspan fill="#c62828">Romero Cyn:+1.3F</tspan><tspan>; </tspan><tspan fill="#c62828">Parma:+1.6F</tspan><tspan>; </tspan><tspan fill="#c62828">Airport:+3.2F</tspan></text>
<text class="legend-row" x="90" y="654"><tspan>Montecito @ 20:47 - 50.0F, winds 263, 1g7mph, DALR dev </tspan><tspan fill="#1565c0">Romero Cyn:-0.4F</tspan><tspan>; </tspan><tspan fill="#1565c0">Parma:-0.2F</tspan><tspan>; </tspan><tspan fill="#c62828">Airport:+1.5F</tspan></text>
<text class="legend-row" x="90" y="668">SM Pass @ 21:06 - temp missing, winds 141, 4g10mph, DALR dev missing</text>
<text class="legend-row" x="90" y="682"><tspan>Parma @ 21:30 - 54.7F, winds 194, 1g3mph, DALR dev </tspan><tspan fill="#c62828">Airport:+1.7F</tspan></text>
<text class="legend-row" x="90" y="696"><tspan>Romero Cyn @ 21:30 - 54.6F, winds 173, 2g6mph, DALR dev </tspan><tspan fill="#c62828">Parma:+0.2F</tspan><tspan>; </tspan><tspan fill="#c62828">Airport:+1.9F</tspan></text>
<text class="legend-row" x="90" y="710">Airport @ 21:40 - 57.2F, winds 170, 6g17mph, DALR dev n/a</text>
</svg>