<svg xmlns="http://www.w3.org/2000/svg" width="1180" height="760" viewBox="0 0 1180 760">
<style>
  .axis { stroke: #202020; stroke-width: 1; }
  .grid { stroke: #dddddd; stroke-width: 1; }
  .title { font-family: Helvetica, Arial, sans-serif; font-size: 16px; font-weight: 600; fill: #111111; }
  .label { font-family: Helvetica, Arial, sans-serif; font-size: 12px; fill: #222222; }
  .legend-h { font-family: Helvetica, Arial, sans-serif; font-size: 12px; font-weight: 600; fill: #222222; }
  .legend-row { font-family: Helvetica, Arial, sans-serif; font-size: 11px; fill: #333333; }
  .rass { fill: none; stroke: #000000; stroke-width: 2; }
  .dalr { fill: none; stroke: #000000; stroke-width: 1.5; stroke-dasharray: 6 4; stroke-opacity: 0.45; }
  .rass-point { fill: #0077b6; }
  .station { fill: #f4a261; stroke: #8b4c12; stroke-width: 1; }
  .barb-shaft { stroke: #1f2937; stroke-width: 1.3; }
  .barb-feather { stroke: #1f2937; stroke-width: 1.2; }
  .barb-flag { fill: #1f2937; stroke: #1f2937; stroke-width: 1; }
  .station-label { font-family: Helvetica, Arial, sans-serif; font-size: 11px; fill: #444444; }
  .station-dev-pos { font-family: Helvetica, Arial, sans-serif; font-size: 10px; fill: #c62828; }
  .station-dev-neg { font-family: Helvetica, Arial, sans-serif; font-size: 10px; fill: #1565c0; }
  .station-dev-na { font-family: Helvetica, Arial, sans-serif; font-size: 10px; fill: #666666; }
  .rass-dev-pos { font-family: Helvetica, Arial, sans-serif; font-size: 9px; fill: #c62828; }
  .rass-dev-neg { font-family: Helvetica, Arial, sans-serif; font-size: 9px; fill: #1565c0; }
  .rass-dev-na { font-family: Helvetica, Arial, sans-serif; font-size: 9px; fill: #666666; }
</style>
<rect x="0" y="0" width="1180" height="760" fill="#ffffff" />
<text class="title" x="90" y="28">Estimated LCL @ VOR: 1079 m - winds 206, 10g17mph (14:40 PST)</text>
<line class="grid" x1="90" y1="510.00" x2="1110" y2="510.00" />
<text class="label" x="82" y="514.00" text-anchor="end">0</text>
<line class="grid" x1="90" y1="439.23" x2="1110" y2="439.23" />
<text class="label" x="82" y="443.23" text-anchor="end">200</text>
<line class="grid" x1="90" y1="368.46" x2="1110" y2="368.46" />
<text class="label" x="82" y="372.46" text-anchor="end">400</text>
<line class="grid" x1="90" y1="297.69" x2="1110" y2="297.69" />
<text class="label" x="82" y="301.69" text-anchor="end">600</text>
<line class="grid" x1="90" y1="226.92" x2="1110" y2="226.92" />
<text class="label" x="82" y="230.92" text-anchor="end">800</text>
<line class="grid" x1="90" y1="156.15" x2="1110" y2="156.15" />
<text class="label" x="82" y="160.15" text-anchor="end">1000</text>
<line class="grid" x1="90" y1="85.38" x2="1110" y2="85.38" />
<text class="label" x="82" y="89.38" text-anchor="end">1200</text>
<line class="grid" x1="252.28" y1="50" x2="252.28" y2="510" />
<text class="label" x="252.28" y="528" text-anchor="middle">5.0</text>
<line class="grid" x1="623.46" y1="50" x2="623.46" y2="510" />
<text class="label" x="623.46" y="528" text-anchor="middle">10.0</text>
<line class="grid" x1="994.64" y1="50" x2="994.64" y2="510" />
<text class="label" x="994.64" y="528" text-anchor="middle">15.0</text>
<line class="axis" x1="90" y1="50" x2="90" y2="510" />
<line class="axis" x1="90" y1="510" x2="1110" y2="510" />
<text class="label" x="600.00" y="546" text-anchor="middle">Temperature (C)</text>
<text class="label" x="26" y="280.00" text-anchor="middle" transform="rotate(-90 26 280.00)">Altitude (m)</text>
<path class="rass" d="M927.38,439.23 L884.99,403.85 L815.43,368.46 L763.99,333.08 L671.93,297.69 L618.78,262.31 L581.74,226.92" />
<path class="dalr" d="M1072.88,510.00 L127.12,50.00" />
<circle class="rass-point" cx="927.38" cy="439.23" r="2" />
<text class="rass-dev-na" x="933.38" y="436.23" text-anchor="start">(n/a)</text>
<circle class="rass-point" cx="884.99" cy="403.85" r="2" />
<text class="rass-dev-pos" x="878.99" y="400.85" text-anchor="end">(+0.4)</text>
<circle class="rass-point" cx="815.43" cy="368.46" r="2" />
<text class="rass-dev-pos" x="821.43" y="365.46" text-anchor="start">(+0.0)</text>
<circle class="rass-point" cx="763.99" cy="333.08" r="2" />
<text class="rass-dev-pos" x="757.99" y="330.08" text-anchor="end">(+0.3)</text>
<circle class="rass-point" cx="671.93" cy="297.69" r="2" />
<text class="rass-dev-neg" x="677.93" y="294.69" text-anchor="start">(-0.3)</text>
<circle class="rass-point" cx="618.78" cy="262.31" r="2" />
<text class="rass-dev-pos" x="612.78" y="259.31" text-anchor="end">(+0.3)</text>
<circle class="rass-point" cx="581.74" cy="226.92" r="2" />
<text class="rass-dev-pos" x="587.74" y="223.92" text-anchor="start">(+0.5)</text>
<rect class="station" x="373.01" y="82.03" width="6" height="6" />
<line class="barb-shaft" x1="376.01" y1="85.03" x2="376.63" y2="103.02" />
<line class="barb-feather" x1="376.63" y1="103.02" x2="369.57" y2="101.27" />
<line class="barb-feather" x1="376.49" y1="99.02" x2="372.45" y2="97.96" />
<text class="station-label" x="382.01" y="89.03" text-anchor="start">La Cumbre</text>
<text class="station-dev-na" x="382.01" y="99.03" text-anchor="start"><tspan class="station-dev-pos">(+1.9)</tspan><tspan fill="#444444"> (-16min)</tspan></text>
<rect class="station" x="324.33" y="128.42" width="6" height="6" />
<line class="barb-shaft" x1="327.33" y1="131.42" x2="319.56" y2="147.65" />
<line class="barb-feather" x1="319.56" y1="147.65" x2="314.11" y2="142.82" />
<text class="station-label" x="333.33" y="135.42" text-anchor="start">VOR</text>
<text class="station-dev-na" x="333.33" y="145.42" text-anchor="start"><tspan class="station-dev-pos">(+0.4)</tspan><tspan fill="#444444"> (+0min)</tspan></text>
<rect class="station" x="552.01" y="253.01" width="6" height="6" />
<line class="barb-shaft" x1="555.01" y1="256.01" x2="571.04" y2="247.82" />
<line class="barb-feather" x1="571.04" y1="247.82" x2="571.79" y2="251.93" />
<text class="station-label" x="561.01" y="260.01" text-anchor="start">AntFarm</text>
<text class="station-dev-na" x="561.01" y="270.01" text-anchor="start"><tspan class="station-dev-neg">(-1.7)</tspan><tspan fill="#444444"> (-34min)</tspan></text>
<rect class="station" x="867.89" y="346.18" width="6" height="6" />
<line class="barb-shaft" x1="870.89" y1="349.18" x2="880.43" y2="364.44" />
<line class="barb-feather" x1="880.43" y1="364.44" x2="876.40" y2="365.54" />
<text class="station-label" x="876.89" y="353.18" text-anchor="start">SM Pass</text>
<text class="station-dev-na" x="876.89" y="363.18" text-anchor="start"><tspan class="station-dev-pos">(+1.7)</tspan><tspan fill="#444444"> (+34min)</tspan></text>
<rect class="station" x="902.11" y="422.89" width="6" height="6" />
<circle class="barb-shaft" cx="905.11" cy="425.89" r="2.5" fill="none" />
<text class="station-label" x="911.11" y="429.89" text-anchor="start">Parma</text>
<text class="station-dev-na" x="911.11" y="439.89" text-anchor="start"><tspan class="station-dev-pos">(+0.1)</tspan><tspan fill="#444444"> (+5min)</tspan></text>
<rect class="station" x="1065.87" y="505.94" width="6" height="6" />
<line class="barb-shaft" x1="1068.87" y1="508.94" x2="1082.66" y2="520.51" />
<line class="barb-feather" x1="1082.66" y1="520.51" x2="1079.17" y2="522.80" />
<text class="station-label" x="1062.87" y="498.00" text-anchor="end">Airport</text>
<text class="station-dev-na" x="1062.87" y="508.00" text-anchor="end">(n/a)</text>
<line class="rass" x1="90" y1="562" x2="114" y2="562" />
<text class="label" x="120" y="566">RASS @ 13:55</text>
<line class="dalr" x1="310" y1="562" x2="334" y2="562" />
<text class="label" x="340" y="566">DALR (9.8 C/km)</text>
<text class="legend-h" x="90" y="596">Stations</text>
<text class="legend-row" x="90" y="612"><tspan>La Cumbre 1201m @ 14:56 - 6.7C, winds 178, 17g20mph, DALR dev </tspan><tspan fill="#c62828">VOR:+1.9C</tspan><tspan>; </tspan><tspan fill="#c62828">AntFarm:+2.3C</tspan><tspan>; </tspan><tspan fill="#c62828">Montecito:+1.4C</tspan><tspan>; </tspan><tspan fill="#c62828">SM Pass:+0.6C</tspan><tspan>; </tspan><tspan fill="#c62828">Parma:+2.3C</tspan><tspan>; </tspan><tspan fill="#c62828">Airport:+2.4C</tspan></text>
<text class="legend-row" x="90" y="626"><tspan>VOR 1070m @ 14:40 - 6.0C, winds 206, 10g17mph, DALR dev </tspan><tspan fill="#c62828">AntFarm:+0.4C</tspan><tspan>; </tspan><tspan fill="#1565c0">Montecito:-0.6C</tspan><tspan>; </tspan><tspan fill="#1565c0">SM Pass:-1.3C</tspan><tspan>; </tspan><tspan fill="#c62828">Parma:+0.4C</tspan><tspan>; </tspan><tspan fill="#c62828">Airport:+0.5C</tspan></text>
<text class="legend-row" x="90" y="640"><tspan>AntFarm 718m @ 14:40 - 9.1C, winds 063, 4g9mph, DALR dev </tspan><tspan fill="#1565c0">Montecito:-0.9C</tspan><tspan>; </tspan><tspan fill="#1565c0">SM Pass:-1.7C</tspan><tspan>; </tspan><tspan fill="#1565c0">Parma:-0.0C</tspan><tspan>; </tspan><tspan fill="#c62828">Airport:+0.1C</tspan></text>
<text class="legend-row" x="90" y="654"><tspan>Montecito 494m @ 13:47 - 12.2C, winds 206, 6g15mph, DALR dev </tspan><tspan fill="#1565c0">SM Pass:-0.7C</tspan><tspan>; </tspan><tspan fill="#c62828">Parma:+0.9C</tspan><tspan>; </tspan><tspan fill="#c62828">Airport:+1.0C</tspan></text>
<text class="legend-row" x="90" y="668"><tspan>SM Pass 454m @ 14:06 - 13.3C, winds 148, 6g15mph, DALR dev </tspan><tspan fill="#c62828">Parma:+1.7C</tspan><tspan>; </tspan><tspan fill="#c62828">Airport:+1.8C</tspan></text>
<text class="legend-row" x="90" y="682"><tspan>Parma 238m @ 14:40 - 13.8C, winds 195, 2g6mph, DALR dev </tspan><tspan fill="#c62828">Airport:+0.1C</tspan></text>
<text class="legend-row" x="90" y="696">Airport 3m @ 14:45 - 16.0C, winds 130, 8g18mph, DALR dev n/a</text>
</svg>