<svg xmlns="http://www.w3.org/2000/svg" width="1180" height="760" viewBox="0 0 1180 760">
<style>
  .axis { stroke: #202020; stroke-width: 1; }
  .grid { stroke: #dddddd; stroke-width: 1; }
  .title { font-family: Helvetica, Arial, sans-serif; font-size: 16px; font-weight: 600; fill: #111111; }
  .label { font-family: Helvetica, Arial, sans-serif; font-size: 12px; fill: #222222; }
  .legend-h { font-family: Helvetica, Arial, sans-serif; font-size: 12px; font-weight: 600; fill: #222222; }
  .legend-row { font-family: Helvetica, Arial, sans-serif; font-size: 11px; fill: #333333; }
  .rass { fill: none; stroke: #000000; stroke-width: 2; }
  .dalr { fill: none; stroke: #000000; stroke-width: 1.5; stroke-dasharray: 6 4; stroke-opacity: 0.45; }
  .rass-point { fill: #0077b6; }
  .station { fill: #f4a261; stroke: #8b4c12; stroke-width: 1; }
  .barb-shaft { stroke: #1f2937; stroke-width: 1.3; }
  .barb-feather { stroke: #1f2937; stroke-width: 1.2; }
  .barb-flag { fill: #1f2937; stroke: #1f2937; stroke-width: 1; }
  .station-label { font-family: Helvetica, Arial, sans-serif; font-size: 11px; fill: #444444; }
  .station-dev-pos { font-family: Helvetica, Arial, sans-serif; font-size: 10px; fill: #c62828; }
  .station-dev-neg { font-family: Helvetica, Arial, sans-serif; font-size: 10px; fill: #1565c0; }
  .station-dev-na { font-family: Helvetica, Arial, sans-serif; font-size: 10px; fill: #666666; }
  .rass-dev-pos { font-family: Helvetica, Arial, sans-serif; font-size: 9px; fill: #c62828; }
  .rass-dev-neg { font-family: Helvetica, Arial, sans-serif; font-size: 9px; fill: #1565c0; }
  .rass-dev-na { font-family: Helvetica, Arial, sans-serif; font-size: 9px; fill: #666666; }
</style>
<rect x="0" y="0" width="1180" height="760" fill="#ffffff" />
<text class="title" x="90" y="28">Estimated LCL @ VOR: 1099 m - winds 191, 6g13mph (12:50 PST)</text>
<line class="grid" x1="90" y1="510.00" x2="1110" y2="510.00" />
<text class="label" x="82" y="514.00" text-anchor="end">0</text>
<line class="grid" x1="90" y1="439.23" x2="1110" y2="439.23" />
<text class="label" x="82" y="443.23" text-anchor="end">200</text>
<line class="grid" x1="90" y1="368.46" x2="1110" y2="368.46" />
<text class="label" x="82" y="372.46" text-anchor="end">400</text>
<line class="grid" x1="90" y1="297.69" x2="1110" y2="297.69" />
<text class="label" x="82" y="301.69" text-anchor="end">600</text>
<line class="grid" x1="90" y1="226.92" x2="1110" y2="226.92" />
<text class="label" x="82" y="230.92" text-anchor="end">800</text>
<line class="grid" x1="90" y1="156.15" x2="1110" y2="156.15" />
<text class="label" x="82" y="160.15" text-anchor="end">1000</text>
<line class="grid" x1="90" y1="85.38" x2="1110" y2="85.38" />
<text class="label" x="82" y="89.38" text-anchor="end">1200</text>
<line class="grid" x1="264.79" y1="50" x2="264.79" y2="510" />
<text class="label" x="264.79" y="528" text-anchor="middle">5.0</text>
<line class="grid" x1="602.87" y1="50" x2="602.87" y2="510" />
<text class="label" x="602.87" y="528" text-anchor="middle">10.0</text>
<line class="grid" x1="940.96" y1="50" x2="940.96" y2="510" />
<text class="label" x="940.96" y="528" text-anchor="middle">15.0</text>
<line class="axis" x1="90" y1="50" x2="90" y2="510" />
<line class="axis" x1="90" y1="510" x2="1110" y2="510" />
<text class="label" x="600.00" y="546" text-anchor="middle">Temperature (C)</text>
<text class="label" x="26" y="280.00" text-anchor="middle" transform="rotate(-90 26 280.00)">Altitude (m)</text>
<path class="rass" d="M852.72,439.23 L820.53,403.85 L757.45,368.46 L722.35,333.08 L701.19,297.69 L645.40,262.31 L590.77,226.92 L511.79,191.54" />
<path class="dalr" d="M985.25,510.00 L123.81,50.00" />
<circle class="rass-point" cx="852.72" cy="439.23" r="2" />
<text class="rass-dev-na" x="858.72" y="436.23" text-anchor="start">(n/a)</text>
<circle class="rass-point" cx="820.53" cy="403.85" r="2" />
<text class="rass-dev-pos" x="814.53" y="400.85" text-anchor="end">(+0.5)</text>
<circle class="rass-point" cx="757.45" cy="368.46" r="2" />
<text class="rass-dev-pos" x="763.45" y="365.46" text-anchor="start">(+0.0)</text>
<circle class="rass-point" cx="722.35" cy="333.08" r="2" />
<text class="rass-dev-pos" x="716.35" y="330.08" text-anchor="end">(+0.5)</text>
<circle class="rass-point" cx="701.19" cy="297.69" r="2" />
<text class="rass-dev-pos" x="707.19" y="294.69" text-anchor="start">(+0.7)</text>
<circle class="rass-point" cx="645.40" cy="262.31" r="2" />
<text class="rass-dev-pos" x="639.40" y="259.31" text-anchor="end">(+0.2)</text>
<circle class="rass-point" cx="590.77" cy="226.92" r="2" />
<text class="rass-dev-pos" x="596.77" y="223.92" text-anchor="start">(+0.2)</text>
<circle class="rass-point" cx="511.79" cy="191.54" r="2" />
<text class="rass-dev-neg" x="505.79" y="188.54" text-anchor="end">(-0.2)</text>
<rect class="station" x="449.61" y="82.03" width="6" height="6" />
<line class="barb-shaft" x1="452.61" y1="85.03" x2="454.81" y2="102.90" />
<line class="barb-feather" x1="454.81" y1="102.90" x2="447.62" y2="101.76" />
<text class="station-label" x="458.61" y="89.03" text-anchor="start">La Cumbre</text>
<text class="station-dev-na" x="458.61" y="99.03" text-anchor="start"><tspan class="station-dev-pos">(+3.0)</tspan><tspan fill="#444444"> (-18min)</tspan></text>
<rect class="station" x="332.79" y="128.42" width="6" height="6" />
<line class="barb-shaft" x1="335.79" y1="131.42" x2="332.38" y2="149.10" />
<line class="barb-feather" x1="332.38" y1="149.10" x2="328.68" y2="147.16" />
<text class="station-label" x="341.79" y="135.42" text-anchor="start">VOR</text>
<text class="station-dev-na" x="341.79" y="145.42" text-anchor="start"><tspan class="station-dev-neg">(-0.4)</tspan><tspan fill="#444444"> (+0min)</tspan></text>
<rect class="station" x="591.96" y="253.01" width="6" height="6" />
<line class="barb-shaft" x1="594.96" y1="256.01" x2="610.70" y2="247.27" />
<line class="barb-feather" x1="610.70" y1="247.27" x2="611.59" y2="251.35" />
<text class="station-label" x="600.96" y="260.01" text-anchor="start">AntFarm</text>
<text class="station-dev-na" x="600.96" y="270.01" text-anchor="start"><tspan class="station-dev-pos">(+0.1)</tspan><tspan fill="#444444"> (+0min)</tspan></text>
<rect class="station" x="901.17" y="422.89" width="6" height="6" />
<line class="barb-shaft" x1="904.17" y1="425.89" x2="901.23" y2="443.65" />
<line class="barb-feather" x1="901.23" y1="443.65" x2="897.48" y2="441.81" />
<text class="station-label" x="910.17" y="429.89" text-anchor="start">Parma</text>
<text class="station-dev-na" x="910.17" y="439.89" text-anchor="start"><tspan class="station-dev-neg">(-0.2)</tspan><tspan fill="#444444"> (+5min)</tspan></text>
<rect class="station" x="1073.19" y="505.94" width="6" height="6" />
<line class="barb-shaft" x1="1076.19" y1="508.94" x2="1087.76" y2="522.73" />
<line class="barb-feather" x1="1087.76" y1="522.73" x2="1081.11" y2="525.69" />
<text class="station-label" x="1070.19" y="498.00" text-anchor="end">Airport</text>
<text class="station-dev-na" x="1070.19" y="508.00" text-anchor="end">(n/a)</text>
<line class="rass" x1="90" y1="562" x2="114" y2="562" />
<text class="label" x="120" y="566">RASS @ 12:55</text>
<line class="dalr" x1="310" y1="562" x2="334" y2="562" />
<text class="label" x="340" y="566">DALR (9.8 C/km)</text>
<text class="legend-h" x="90" y="596">Stations</text>
<text class="legend-row" x="90" y="612"><tspan>La Cumbre 1201m @ 13:08 - 7.8C, winds 173, 13g15mph, DALR dev </tspan><tspan fill="#c62828">VOR:+3.0C</tspan><tspan>; </tspan><tspan fill="#c62828">AntFarm:+2.6C</tspan><tspan>; </tspan><tspan fill="#c62828">Montecito:+0.8C</tspan><tspan>; </tspan><tspan fill="#c62828">SM Pass:+1.8C</tspan><tspan>; </tspan><tspan fill="#c62828">Parma:+2.8C</tspan><tspan>; </tspan><tspan fill="#c62828">Airport:+2.5C</tspan></text>
<text class="legend-row" x="90" y="626"><tspan>VOR 1070m @ 12:50 - 6.1C, winds 191, 6g13mph, DALR dev </tspan><tspan fill="#1565c0">AntFarm:-0.4C</tspan><tspan>; </tspan><tspan fill="#1565c0">Montecito:-2.2C</tspan><tspan>; </tspan><tspan fill="#1565c0">SM Pass:-1.3C</tspan><tspan>; </tspan><tspan fill="#1565c0">Parma:-0.3C</tspan><tspan>; </tspan><tspan fill="#1565c0">Airport:-0.5C</tspan></text>
<text class="legend-row" x="90" y="640"><tspan>AntFarm 718m @ 12:50 - 9.9C, winds 061, 5g10mph, DALR dev </tspan><tspan fill="#1565c0">Montecito:-1.8C</tspan><tspan>; </tspan><tspan fill="#1565c0">SM Pass:-0.9C</tspan><tspan>; </tspan><tspan fill="#c62828">Parma:+0.1C</tspan><tspan>; </tspan><tspan fill="#1565c0">Airport:-0.1C</tspan></text>
<text class="legend-row" x="90" y="654"><tspan>Montecito 494m @ 11:47 - 13.9C, winds 178, 5g19mph, DALR dev </tspan><tspan fill="#c62828">SM Pass:+0.9C</tspan><tspan>; </tspan><tspan fill="#c62828">Parma:+1.9C</tspan><tspan>; </tspan><tspan fill="#c62828">Airport:+1.7C</tspan></text>
<text class="legend-row" x="90" y="668"><tspan>SM Pass 454m @ 12:06 - 13.3C, winds 144, 7g22mph, DALR dev </tspan><tspan fill="#c62828">Parma:+1.0C</tspan><tspan>; </tspan><tspan fill="#c62828">Airport:+0.8C</tspan></text>
<text class="legend-row" x="90" y="682"><tspan>Parma 238m @ 12:50 - 14.5C, winds 189, 3g10mph, DALR dev </tspan><tspan fill="#1565c0">Airport:-0.2C</tspan></text>
<text class="legend-row" x="90" y="696">Airport 3m @ 12:55 - 17.0C, winds 140, 10g18mph, DALR dev n/a</text>
</svg>