<svg xmlns="http://www.w3.org/2000/svg" width="1180" height="760" viewBox="0 0 1180 760">
<style>
  .axis { stroke: #202020; stroke-width: 1; }
  .grid { stroke: #dddddd; stroke-width: 1; }
  .title { font-family: Helvetica, Arial, sans-serif; font-size: 16px; font-weight: 600; fill: #111111; }
  .label { font-family: Helvetica, Arial, sans-serif; font-size: 12px; fill: #222222; }
  .legend-h { font-family: Helvetica, Arial, sans-serif; font-size: 12px; font-weight: 600; fill: #222222; }
  .legend-row { font-family: Helvetica, Arial, sans-serif; font-size: 11px; fill: #333333; }
  .rass { fill: none; stroke: #000000; stroke-width: 2; }
  .dalr { fill: none; stroke: #000000; stroke-width: 1.5; stroke-dasharray: 6 4; stroke-opacity: 0.45; }
  .rass-point { fill: #0077b6; }
  .station { fill: #f4a261; stroke: #8b4c12; stroke-width: 1; }
  .barb-shaft { stroke: #1f2937; stroke-width: 1.3; }
  .barb-feather { stroke: #1f2937; stroke-width: 1.2; }
  .barb-flag { fill: #1f2937; stroke: #1f2937; stroke-width: 1; }
  .station-label { font-family: Helvetica, Arial, sans-serif; font-size: 11px; fill: #444444; }
  .station-dev-pos { font-family: Helvetica, Arial, sans-serif; font-size: 10px; fill: #c62828; }
  .station-dev-neg { font-family: Helvetica, Arial, sans-serif; font-size: 10px; fill: #1565c0; }
  .station-dev-na { font-family: Helvetica, Arial, sans-serif; font-size: 10px; fill: #666666; }
  .rass-dev-pos { font-family: Helvetica, Arial, sans-serif; font-size: 9px; fill: #c62828; }
  .rass-dev-neg { font-family: Helvetica, Arial, sans-serif; font-size: 9px; fill: #1565c0; }
  .rass-dev-na { font-family: Helvetica, Arial, sans-serif; font-size: 9px; fill: #666666; }
</style>
<rect x="0" y="0" width="1180" height="760" fill="#ffffff" />
<text class="title" x="90" y="28">Estimated LCL @ VOR: 1078 m - winds 178, 7g11mph (07:20 PST)</text>
<line class="grid" x1="90" y1="510.00" x2="1110" y2="510.00" />
<text class="label" x="82" y="514.00" text-anchor="end">0</text>
<line class="grid" x1="90" y1="439.23" x2="1110" y2="439.23" />
<text class="label" x="82" y="443.23" text-anchor="end">200</text>
<line class="grid" x1="90" y1="368.46" x2="1110" y2="368.46" />
<text class="label" x="82" y="372.46" text-anchor="end">400</text>
<line class="grid" x1="90" y1="297.69" x2="1110" y2="297.69" />
<text class="label" x="82" y="301.69" text-anchor="end">600</text>
<line class="grid" x1="90" y1="226.92" x2="1110" y2="226.92" />
<text class="label" x="82" y="230.92" text-anchor="end">800</text>
<line class="grid" x1="90" y1="156.15" x2="1110" y2="156.15" />
<text class="label" x="82" y="160.15" text-anchor="end">1000</text>
<line class="grid" x1="90" y1="85.38" x2="1110" y2="85.38" />
<text class="label" x="82" y="89.38" text-anchor="end">1200</text>
<line class="grid" x1="304.32" y1="50" x2="304.32" y2="510" />
<text class="label" x="304.32" y="528" text-anchor="middle">5.0</text>
<line class="grid" x1="675.50" y1="50" x2="675.50" y2="510" />
<text class="label" x="675.50" y="528" text-anchor="middle">10.0</text>
<line class="grid" x1="1046.68" y1="50" x2="1046.68" y2="510" />
<text class="label" x="1046.68" y="528" text-anchor="middle">15.0</text>
<line class="axis" x1="90" y1="50" x2="90" y2="510" />
<line class="axis" x1="90" y1="510" x2="1110" y2="510" />
<text class="label" x="600.00" y="546" text-anchor="middle">Temperature (C)</text>
<text class="label" x="26" y="280.00" text-anchor="middle" transform="rotate(-90 26 280.00)">Altitude (m)</text>
<path class="rass" d="M927.38,439.23 L877.94,403.85 L821.67,368.46 L745.80,333.08 L692.35,297.69 L671.49,262.31 L614.33,226.92 L533.63,191.54 L452.94,156.15 L409.96,120.77" />
<path class="dalr" d="M1072.88,510.00 L127.12,50.00" />
<circle class="rass-point" cx="927.38" cy="439.23" r="2" />
<text class="rass-dev-na" x="933.38" y="436.23" text-anchor="start">(n/a)</text>
<circle class="rass-point" cx="877.94" cy="403.85" r="2" />
<text class="rass-dev-pos" x="871.94" y="400.85" text-anchor="end">(+0.3)</text>
<circle class="rass-point" cx="821.67" cy="368.46" r="2" />
<text class="rass-dev-pos" x="827.67" y="365.46" text-anchor="start">(+0.2)</text>
<circle class="rass-point" cx="745.80" cy="333.08" r="2" />
<text class="rass-dev-neg" x="739.80" y="330.08" text-anchor="end">(-0.0)</text>
<circle class="rass-point" cx="692.35" cy="297.69" r="2" />
<text class="rass-dev-pos" x="698.35" y="294.69" text-anchor="start">(+0.3)</text>
<circle class="rass-point" cx="671.49" cy="262.31" r="2" />
<text class="rass-dev-pos" x="665.49" y="259.31" text-anchor="end">(+0.7)</text>
<circle class="rass-point" cx="614.33" cy="226.92" r="2" />
<text class="rass-dev-pos" x="620.33" y="223.92" text-anchor="start">(+0.2)</text>
<circle class="rass-point" cx="533.63" cy="191.54" r="2" />
<text class="rass-dev-neg" x="527.63" y="188.54" text-anchor="end">(-0.1)</text>
<circle class="rass-point" cx="452.94" cy="156.15" r="2" />
<text class="rass-dev-neg" x="458.94" y="153.15" text-anchor="start">(-0.1)</text>
<circle class="rass-point" cx="409.96" cy="120.77" r="2" />
<text class="rass-dev-pos" x="403.96" y="117.77" text-anchor="end">(+0.4)</text>
<rect class="station" x="301.32" y="82.03" width="6" height="6" />
<line class="barb-shaft" x1="304.32" y1="85.03" x2="310.18" y2="102.05" />
<line class="barb-feather" x1="310.18" y1="102.05" x2="306.01" y2="102.22" />
<text class="station-label" x="310.32" y="89.03" text-anchor="start">La Cumbre</text>
<text class="station-dev-na" x="310.32" y="99.03" text-anchor="start"><tspan class="station-dev-pos">(+1.6)</tspan><tspan fill="#444444"> (-19min)</tspan></text>
<rect class="station" x="276.15" y="128.42" width="6" height="6" />
<line class="barb-shaft" x1="279.15" y1="131.42" x2="279.75" y2="149.41" />
<line class="barb-feather" x1="279.75" y1="149.41" x2="275.71" y2="148.34" />
<text class="station-label" x="285.15" y="135.42" text-anchor="start">VOR</text>
<text class="station-dev-na" x="285.15" y="145.42" text-anchor="start"><tspan class="station-dev-pos">(+0.5)</tspan><tspan fill="#444444"> (+0min)</tspan></text>
<rect class="station" x="498.04" y="253.01" width="6" height="6" />
<line class="barb-shaft" x1="501.04" y1="256.01" x2="516.57" y2="246.90" />
<line class="barb-feather" x1="516.57" y1="246.90" x2="517.56" y2="250.96" />
<text class="station-label" x="507.04" y="260.01" text-anchor="start">AntFarm</text>
<text class="station-dev-na" x="507.04" y="270.01" text-anchor="start"><tspan class="station-dev-pos">(+0.4)</tspan><tspan fill="#444444"> (-33min)</tspan></text>
<rect class="station" x="631.22" y="332.38" width="6" height="6" />
<circle class="barb-shaft" cx="634.22" cy="335.38" r="2.5" fill="none" />
<text class="station-label" x="640.22" y="339.38" text-anchor="start">Montecito</text>
<text class="station-dev-na" x="640.22" y="349.38" text-anchor="start"><tspan class="station-dev-neg">(-0.2)</tspan><tspan fill="#444444"> (+19min)</tspan></text>
<rect class="station" x="672.50" y="346.18" width="6" height="6" />
<line class="barb-shaft" x1="675.50" y1="349.18" x2="691.81" y2="341.57" />
<line class="barb-feather" x1="691.81" y1="341.57" x2="692.41" y2="345.70" />
<text class="station-label" x="681.50" y="365.18" text-anchor="start">SM Pass</text>
<text class="station-dev-na" x="681.50" y="375.18" text-anchor="start"><tspan class="station-dev-pos">(+1.5)</tspan><tspan fill="#444444"> (+14min)</tspan></text>
<rect class="station" x="722.38" y="422.89" width="6" height="6" />
<circle class="barb-shaft" cx="725.38" cy="425.89" r="2.5" fill="none" />
<text class="station-label" x="731.38" y="429.89" text-anchor="start">Parma</text>
<text class="station-dev-na" x="731.38" y="439.89" text-anchor="start"><tspan class="station-dev-neg">(-0.0)</tspan><tspan fill="#444444"> (+10min)</tspan></text>
<rect class="station" x="895.20" y="505.94" width="6" height="6" />
<line class="barb-shaft" x1="898.20" y1="508.94" x2="915.12" y2="502.78" />
<line class="barb-feather" x1="915.12" y1="502.78" x2="915.36" y2="506.95" />
<text class="station-label" x="904.20" y="498.00" text-anchor="start">Airport</text>
<text class="station-dev-na" x="904.20" y="508.00" text-anchor="start">(n/a)</text>
<line class="rass" x1="90" y1="562" x2="114" y2="562" />
<text class="label" x="120" y="566">RASS @ 06:55</text>
<line class="dalr" x1="310" y1="562" x2="334" y2="562" />
<text class="label" x="340" y="566">DALR (9.8 C/km)</text>
<text class="legend-h" x="90" y="596">Stations</text>
<text class="legend-row" x="90" y="612"><tspan>La Cumbre 1201m @ 07:39 - 5.0C, winds 161, 8g15mph, DALR dev </tspan><tspan fill="#c62828">VOR:+1.6C</tspan><tspan>; </tspan><tspan fill="#c62828">AntFarm:+2.1C</tspan><tspan>; </tspan><tspan fill="#c62828">Montecito:+2.5C</tspan><tspan>; </tspan><tspan fill="#c62828">SM Pass:+2.3C</tspan><tspan>; </tspan><tspan fill="#c62828">Parma:+3.8C</tspan><tspan>; </tspan><tspan fill="#c62828">Airport:+3.7C</tspan></text>
<text class="legend-row" x="90" y="626"><tspan>VOR 1070m @ 07:20 - 4.7C, winds 178, 7g11mph, DALR dev </tspan><tspan fill="#c62828">AntFarm:+0.5C</tspan><tspan>; </tspan><tspan fill="#c62828">Montecito:+0.9C</tspan><tspan>; </tspan><tspan fill="#c62828">SM Pass:+0.7C</tspan><tspan>; </tspan><tspan fill="#c62828">Parma:+2.1C</tspan><tspan>; </tspan><tspan fill="#c62828">Airport:+2.1C</tspan></text>
<text class="legend-row" x="90" y="640"><tspan>AntFarm 718m @ 07:20 - 7.6C, winds 060, 6g8mph, DALR dev </tspan><tspan fill="#c62828">Montecito:+0.4C</tspan><tspan>; </tspan><tspan fill="#c62828">SM Pass:+0.2C</tspan><tspan>; </tspan><tspan fill="#c62828">Parma:+1.7C</tspan><tspan>; </tspan><tspan fill="#c62828">Airport:+1.7C</tspan></text>
<text class="legend-row" x="90" y="654"><tspan>Montecito 494m @ 06:47 - 9.4C, winds 081, 1g10mph, DALR dev </tspan><tspan fill="#1565c0">SM Pass:-0.2C</tspan><tspan>; </tspan><tspan fill="#c62828">Parma:+1.3C</tspan><tspan>; </tspan><tspan fill="#c62828">Airport:+1.3C</tspan></text>
<text class="legend-row" x="90" y="668"><tspan>SM Pass 454m @ 07:06 - 10.0C, winds 065, 5g10mph, DALR dev </tspan><tspan fill="#c62828">Parma:+1.5C</tspan><tspan>; </tspan><tspan fill="#c62828">Airport:+1.4C</tspan></text>
<text class="legend-row" x="90" y="682"><tspan>Parma 238m @ 07:20 - 10.7C, winds 014, 1g2mph, DALR dev </tspan><tspan fill="#1565c0">Airport:-0.0C</tspan></text>
<text class="legend-row" x="90" y="696">Airport 3m @ 07:30 - 13.0C, winds 070, 8g17mph, DALR dev n/a</text>
</svg>