<svg xmlns="http://www.w3.org/2000/svg" width="1180" height="760" viewBox="0 0 1180 760">
<style>
  .axis { stroke: #202020; stroke-width: 1; }
  .grid { stroke: #dddddd; stroke-width: 1; }
  .title { font-family: Helvetica, Arial, sans-serif; font-size: 16px; font-weight: 600; fill: #111111; }
  .label { font-family: Helvetica, Arial, sans-serif; font-size: 12px; fill: #222222; }
  .legend-h { font-family: Helvetica, Arial, sans-serif; font-size: 12px; font-weight: 600; fill: #222222; }
  .legend-row { font-family: Helvetica, Arial, sans-serif; font-size: 11px; fill: #333333; }
  .rass { fill: none; stroke: #000000; stroke-width: 2; }
  .dalr { fill: none; stroke: #000000; stroke-width: 1.5; stroke-dasharray: 6 4; stroke-opacity: 0.45; }
  .rass-point { fill: #0077b6; }
  .station { fill: #f4a261; stroke: #8b4c12; stroke-width: 1; }
  .barb-shaft { stroke: #1f2937; stroke-width: 1.3; }
  .barb-feather { stroke: #1f2937; stroke-width: 1.2; }
  .barb-flag { fill: #1f2937; stroke: #1f2937; stroke-width: 1; }
  .station-label { font-family: Helvetica, Arial, sans-serif; font-size: 11px; fill: #444444; }
  .station-dev-pos { font-family: Helvetica, Arial, sans-serif; font-size: 10px; fill: #c62828; }
  .station-dev-neg { font-family: Helvetica, Arial, sans-serif; font-size: 10px; fill: #1565c0; }
  .station-dev-na { font-family: Helvetica, Arial, sans-serif; font-size: 10px; fill: #666666; }
  .rass-dev-pos { font-family: Helvetica, Arial, sans-serif; font-size: 9px; fill: #c62828; }
  .rass-dev-neg { font-family: Helvetica, Arial, sans-serif; font-size: 9px; fill: #1565c0; }
  .rass-dev-na { font-family: Helvetica, Arial, sans-serif; font-size: 9px; fill: #666666; }
</style>
<rect x="0" y="0" width="1180" height="760" fill="#ffffff" />
<text class="title" x="90" y="28">Estimated LCL @ VOR: 3511 ft - winds 176, 7g15mph (21:20 PST)</text>
<line class="grid" x1="90" y1="510.00" x2="1110" y2="510.00" />
<text class="label" x="82" y="514.00" text-anchor="end">0</text>
<line class="grid" x1="90" y1="452.50" x2="1110" y2="452.50" />
<text class="label" x="82" y="456.50" text-anchor="end">500</text>
<line class="grid" x1="90" y1="395.00" x2="1110" y2="395.00" />
<text class="label" x="82" y="399.00" text-anchor="end">1000</text>
<line class="grid" x1="90" y1="337.50" x2="1110" y2="337.50" />
<text class="label" x="82" y="341.50" text-anchor="end">1500</text>
<line class="grid" x1="90" y1="280.00" x2="1110" y2="280.00" />
<text class="label" x="82" y="284.00" text-anchor="end">2000</text>
<line class="grid" x1="90" y1="222.50" x2="1110" y2="222.50" />
<text class="label" x="82" y="226.50" text-anchor="end">2500</text>
<line class="grid" x1="90" y1="165.00" x2="1110" y2="165.00" />
<text class="label" x="82" y="169.00" text-anchor="end">3000</text>
<line class="grid" x1="90" y1="107.50" x2="1110" y2="107.50" />
<text class="label" x="82" y="111.50" text-anchor="end">3500</text>
<line class="grid" x1="90" y1="50.00" x2="1110" y2="50.00" />
<text class="label" x="82" y="54.00" text-anchor="end">4000</text>
<line class="grid" x1="159.44" y1="50" x2="159.44" y2="510" />
<text class="label" x="159.44" y="528" text-anchor="middle">40.0</text>
<line class="grid" x1="385.10" y1="50" x2="385.10" y2="510" />
<text class="label" x="385.10" y="528" text-anchor="middle">45.0</text>
<line class="grid" x1="610.76" y1="50" x2="610.76" y2="510" />
<text class="label" x="610.76" y="528" text-anchor="middle">50.0</text>
<line class="grid" x1="836.43" y1="50" x2="836.43" y2="510" />
<text class="label" x="836.43" y="528" text-anchor="middle">55.0</text>
<line class="grid" x1="1062.09" y1="50" x2="1062.09" y2="510" />
<text class="label" x="1062.09" y="528" text-anchor="middle">60.0</text>
<line class="axis" x1="90" y1="50" x2="90" y2="510" />
<line class="axis" x1="90" y1="510" x2="1110" y2="510" />
<text class="label" x="600.00" y="546" text-anchor="middle">Temperature (F)</text>
<text class="label" x="26" y="280.00" text-anchor="middle" transform="rotate(-90 26 280.00)">Altitude (ft)</text>
<path class="rass" d="M927.51,434.54 L919.80,396.81 L808.09,359.08 L699.07,321.35 L604.02,283.62 L542.52,245.89 L494.27,208.16 L431.31,170.43 L387.03,132.70 L365.58,94.97 L376.55,57.24" />
<path class="dalr" d="M1087.43,510.00 L112.57,50.00" />
<circle class="rass-point" cx="927.51" cy="434.54" r="2" />
<text class="rass-dev-na" x="933.51" y="431.54" text-anchor="start">(n/a)</text>
<circle class="rass-point" cx="919.80" cy="396.81" r="2" />
<text class="rass-dev-pos" x="913.80" y="393.81" text-anchor="end">(+1.6)</text>
<circle class="rass-point" cx="808.09" cy="359.08" r="2" />
<text class="rass-dev-neg" x="814.09" y="356.08" text-anchor="start">(-0.7)</text>
<circle class="rass-point" cx="699.07" cy="321.35" r="2" />
<text class="rass-dev-neg" x="693.07" y="318.35" text-anchor="end">(-0.6)</text>
<circle class="rass-point" cx="604.02" cy="283.62" r="2" />
<text class="rass-dev-neg" x="610.02" y="280.62" text-anchor="start">(-0.3)</text>
<circle class="rass-point" cx="542.52" cy="245.89" r="2" />
<text class="rass-dev-pos" x="536.52" y="242.89" text-anchor="end">(+0.4)</text>
<circle class="rass-point" cx="494.27" cy="208.16" r="2" />
<text class="rass-dev-pos" x="500.27" y="205.16" text-anchor="start">(+0.7)</text>
<circle class="rass-point" cx="431.31" cy="170.43" r="2" />
<text class="rass-dev-pos" x="425.31" y="167.43" text-anchor="end">(+0.4)</text>
<circle class="rass-point" cx="387.03" cy="132.70" r="2" />
<text class="rass-dev-pos" x="393.03" y="129.70" text-anchor="start">(+0.8)</text>
<circle class="rass-point" cx="365.58" cy="94.97" r="2" />
<text class="rass-dev-pos" x="359.58" y="91.97" text-anchor="end">(+1.3)</text>
<circle class="rass-point" cx="376.55" cy="57.24" r="2" />
<text class="rass-dev-pos" x="382.55" y="58.00" text-anchor="start">(+2.0)</text>
<rect class="station" x="291.83" y="53.87" width="6" height="6" />
<line class="barb-shaft" x1="294.83" y1="56.87" x2="297.34" y2="74.69" />
<line class="barb-feather" x1="297.34" y1="74.69" x2="290.13" y2="73.69" />
<text class="station-label" x="300.83" y="64.00" text-anchor="start">La Cumbre</text>
<text class="station-dev-na" x="300.83" y="74.00" text-anchor="start"><tspan class="station-dev-pos">(+2.1)</tspan><tspan fill="#444444"> (-45min)</tspan></text>
<rect class="station" x="300.84" y="103.33" width="6" height="6" />
<line class="barb-shaft" x1="303.84" y1="106.33" x2="305.10" y2="124.29" />
<line class="barb-feather" x1="305.10" y1="124.29" x2="301.03" y2="123.37" />
<text class="station-label" x="309.84" y="110.33" text-anchor="start">VOR</text>
<text class="station-dev-na" x="309.84" y="120.33" text-anchor="start"><tspan class="station-dev-pos">(+1.8)</tspan><tspan fill="#444444"> (+30min)</tspan></text>
<rect class="station" x="502.15" y="236.18" width="6" height="6" />
<line class="barb-shaft" x1="505.15" y1="239.18" x2="520.38" y2="229.57" />
<line class="barb-feather" x1="520.38" y1="229.57" x2="521.50" y2="233.59" />
<text class="station-label" x="511.15" y="243.18" text-anchor="start">AntFarm</text>
<text class="station-dev-na" x="511.15" y="253.18" text-anchor="start"><tspan class="station-dev-pos">(+1.6)</tspan><tspan fill="#444444"> (-3min)</tspan></text>
<rect class="station" x="607.76" y="320.80" width="6" height="6" />
<line class="barb-shaft" x1="610.76" y1="323.80" x2="600.44" y2="338.55" />
<line class="barb-feather" x1="600.44" y1="338.55" x2="597.85" y2="335.27" />
<text class="station-label" x="616.76" y="327.80" text-anchor="start">Montecito</text>
<text class="station-dev-na" x="616.76" y="337.80" text-anchor="start"><tspan class="station-dev-neg">(-0.2)</tspan><tspan fill="#444444"> (+3min)</tspan></text>
<rect class="station" x="820.37" y="417.32" width="6" height="6" />
<circle class="barb-shaft" cx="823.37" cy="420.32" r="2.5" fill="none" />
<text class="station-label" x="829.37" y="424.32" text-anchor="start">Parma</text>
<text class="station-dev-na" x="829.37" y="434.32" text-anchor="start"><tspan class="station-dev-pos">(+1.7)</tspan><tspan fill="#444444"> (+5min)</tspan></text>
<rect class="station" x="932.72" y="505.87" width="6" height="6" />
<line class="barb-shaft" x1="935.72" y1="508.87" x2="935.72" y2="526.87" />
<line class="barb-feather" x1="935.72" y1="526.87" x2="931.72" y2="525.67" />
<text class="station-label" x="941.72" y="498.00" text-anchor="start">Airport</text>
<text class="station-dev-na" x="941.72" y="508.00" text-anchor="start">(n/a)</text>
<line class="rass" x1="90" y1="562" x2="114" y2="562" />
<text class="label" x="120" y="566">RASS @ 21:55</text>
<line class="dalr" x1="310" y1="562" x2="334" y2="562" />
<text class="label" x="340" y="566">DALR (5.4 F/1000 ft)</text>
<text class="legend-h" x="90" y="596">Stations</text>
<text class="legend-row" x="90" y="612"><tspan>La Cumbre 3940ft @ 22:05 - 43.0F, winds 172, 9g21mph, DALR dev </tspan><tspan fill="#c62828">VOR:+2.1F</tspan><tspan>; </tspan><tspan fill="#c62828">AntFarm:+3.9F</tspan><tspan>; </tspan><tspan fill="#c62828">Montecito:+5.5F</tspan><tspan>; </tspan><tspan fill="#c62828">Parma:+5.4F</tspan><tspan>; </tspan><tspan fill="#c62828">Airport:+7.0F</tspan></text>
<text class="legend-row" x="90" y="626"><tspan>VOR 3510ft @ 21:50 - 43.2F, winds 176, 7g15mph, DALR dev </tspan><tspan fill="#c62828">AntFarm:+1.8F</tspan><tspan>; </tspan><tspan fill="#c62828">Montecito:+3.4F</tspan><tspan>; </tspan><tspan fill="#c62828">Parma:+3.2F</tspan><tspan>; </tspan><tspan fill="#c62828">Airport:+4.9F</tspan></text>
<text class="legend-row" x="90" y="640"><tspan>AntFarm 2355ft @ 21:50 - 47.7F, winds 058, 5g10mph, DALR dev </tspan><tspan fill="#c62828">Montecito:+1.6F</tspan><tspan>; </tspan><tspan fill="#c62828">Parma:+1.5F</tspan><tspan>; </tspan><tspan fill="#c62828">Airport:+3.1F</tspan></text>
<text class="legend-row" x="90" y="654"><tspan>Montecito 1619ft @ 21:47 - 50.0F, winds 215, 4g11mph, DALR dev </tspan><tspan fill="#1565c0">Parma:-0.2F</tspan><tspan>; </tspan><tspan fill="#c62828">Airport:+1.5F</tspan></text>
<text class="legend-row" x="90" y="668">SM Pass 1491ft @ 21:06 - temp missing, winds 141, 4g10mph, DALR dev missing</text>
<text class="legend-row" x="90" y="682"><tspan>Parma 780ft @ 21:50 - 54.7F, winds 187, 1g3mph, DALR dev </tspan><tspan fill="#c62828">Airport:+1.7F</tspan></text>
<text class="legend-row" x="90" y="696">Airport 10ft @ 21:55 - 57.2F, winds 180, 5g17mph, DALR dev n/a</text>
</svg>