<svg xmlns="http://www.w3.org/2000/svg" width="1180" height="760" viewBox="0 0 1180 760">
<style>
  .axis { stroke: #202020; stroke-width: 1; }
  .grid { stroke: #dddddd; stroke-width: 1; }
  .title { font-family: Helvetica, Arial, sans-serif; font-size: 16px; font-weight: 600; fill: #111111; }
  .label { font-family: Helvetica, Arial, sans-serif; font-size: 12px; fill: #222222; }
  .legend-h { font-family: Helvetica, Arial, sans-serif; font-size: 12px; font-weight: 600; fill: #222222; }
  .legend-row { font-family: Helvetica, Arial, sans-serif; font-size: 11px; fill: #333333; }
  .rass { fill: none; stroke: #000000; stroke-width: 2; }
  .dalr { fill: none; stroke: #000000; stroke-width: 1.5; stroke-dasharray: 6 4; stroke-opacity: 0.45; }
  .rass-point { fill: #0077b6; }
  .station { fill: #f4a261; stroke: #8b4c12; stroke-width: 1; }
  .barb-shaft { stroke: #1f2937; stroke-width: 1.3; }
  .barb-feather { stroke: #1f2937; stroke-width: 1.2; }
  .barb-flag { fill: #1f2937; stroke: #1f2937; stroke-width: 1; }
  .station-label { font-family: Helvetica, Arial, sans-serif; font-size: 11px; fill: #444444; }
  .station-dev-pos { font-family: Helvetica, Arial, sans-serif; font-size: 10px; fill: #c62828; }
  .station-dev-neg { font-family: Helvetica, Arial, sans-serif; font-size: 10px; fill: #1565c0; }
  .station-dev-na { font-family: Helvetica, Arial, sans-serif; font-size: 10px; fill: #666666; }
  .rass-dev-pos { font-family: Helvetica, Arial, sans-serif; font-size: 9px; fill: #c62828; }
  .rass-dev-neg { font-family: Helvetica, Arial, sans-serif; font-size: 9px; fill: #1565c0; }
  .rass-dev-na { font-family: Helvetica, Arial, sans-serif; font-size: 9px; fill: #666666; }
</style>
<rect x="0" y="0" width="1180" height="760" fill="#ffffff" />
<text class="title" x="90" y="28">Estimated LCL @ VOR: 3511 ft - winds 175, 7g15mph (21:00 PST)</text>
<line class="grid" x1="90" y1="510.00" x2="1110" y2="510.00" />
<text class="label" x="82" y="514.00" text-anchor="end">0</text>
<line class="grid" x1="90" y1="452.50" x2="1110" y2="452.50" />
<text class="label" x="82" y="456.50" text-anchor="end">500</text>
<line class="grid" x1="90" y1="395.00" x2="1110" y2="395.00" />
<text class="label" x="82" y="399.00" text-anchor="end">1000</text>
<line class="grid" x1="90" y1="337.50" x2="1110" y2="337.50" />
<text class="label" x="82" y="341.50" text-anchor="end">1500</text>
<line class="grid" x1="90" y1="280.00" x2="1110" y2="280.00" />
<text class="label" x="82" y="284.00" text-anchor="end">2000</text>
<line class="grid" x1="90" y1="222.50" x2="1110" y2="222.50" />
<text class="label" x="82" y="226.50" text-anchor="end">2500</text>
<line class="grid" x1="90" y1="165.00" x2="1110" y2="165.00" />
<text class="label" x="82" y="169.00" text-anchor="end">3000</text>
<line class="grid" x1="90" y1="107.50" x2="1110" y2="107.50" />
<text class="label" x="82" y="111.50" text-anchor="end">3500</text>
<line class="grid" x1="90" y1="50.00" x2="1110" y2="50.00" />
<text class="label" x="82" y="54.00" text-anchor="end">4000</text>
<line class="grid" x1="176.09" y1="50" x2="176.09" y2="510" />
<text class="label" x="176.09" y="528" text-anchor="middle">40.0</text>
<line class="grid" x1="401.75" y1="50" x2="401.75" y2="510" />
<text class="label" x="401.75" y="528" text-anchor="middle">45.0</text>
<line class="grid" x1="627.42" y1="50" x2="627.42" y2="510" />
<text class="label" x="627.42" y="528" text-anchor="middle">50.0</text>
<line class="grid" x1="853.08" y1="50" x2="853.08" y2="510" />
<text class="label" x="853.08" y="528" text-anchor="middle">55.0</text>
<line class="grid" x1="1078.75" y1="50" x2="1078.75" y2="510" />
<text class="label" x="1078.75" y="528" text-anchor="middle">60.0</text>
<line class="axis" x1="90" y1="50" x2="90" y2="510" />
<line class="axis" x1="90" y1="510" x2="1110" y2="510" />
<text class="label" x="600.00" y="546" text-anchor="middle">Temperature (F)</text>
<text class="label" x="26" y="280.00" text-anchor="middle" transform="rotate(-90 26 280.00)">Altitude (ft)</text>
<path class="rass" d="M927.51,434.54 L881.13,396.81 L819.87,359.08 L772.02,321.35 L705.65,283.62 L604.67,245.89 L555.12,208.16 L529.69,170.43" />
<path class="dalr" d="M1087.43,510.00 L112.57,50.00" />
<circle class="rass-point" cx="927.51" cy="434.54" r="2" />
<text class="rass-dev-na" x="933.51" y="431.54" text-anchor="start">(n/a)</text>
<circle class="rass-point" cx="881.13" cy="396.81" r="2" />
<text class="rass-dev-pos" x="875.13" y="393.81" text-anchor="end">(+0.7)</text>
<circle class="rass-point" cx="819.87" cy="359.08" r="2" />
<text class="rass-dev-pos" x="825.87" y="356.08" text-anchor="start">(+0.4)</text>
<circle class="rass-point" cx="772.02" cy="321.35" r="2" />
<text class="rass-dev-pos" x="766.02" y="318.35" text-anchor="end">(+0.7)</text>
<circle class="rass-point" cx="705.65" cy="283.62" r="2" />
<text class="rass-dev-pos" x="711.65" y="280.62" text-anchor="start">(+0.3)</text>
<circle class="rass-point" cx="604.67" cy="245.89" r="2" />
<text class="rass-dev-neg" x="598.67" y="242.89" text-anchor="end">(-0.5)</text>
<circle class="rass-point" cx="555.12" cy="208.16" r="2" />
<text class="rass-dev-pos" x="561.12" y="205.16" text-anchor="start">(+0.7)</text>
<circle class="rass-point" cx="529.69" cy="170.43" r="2" />
<text class="rass-dev-pos" x="523.69" y="167.43" text-anchor="end">(+1.2)</text>
<rect class="station" x="308.49" y="53.87" width="6" height="6" />
<line class="barb-shaft" x1="311.49" y1="56.87" x2="317.05" y2="73.99" />
<line class="barb-feather" x1="317.05" y1="73.99" x2="309.78" y2="74.25" />
<text class="station-label" x="317.49" y="64.00" text-anchor="start">La Cumbre</text>
<text class="station-dev-na" x="317.49" y="74.00" text-anchor="start"><tspan class="station-dev-pos">(+2.1)</tspan><tspan fill="#444444"> (21:12)</tspan></text>
<rect class="station" x="316.60" y="103.33" width="6" height="6" />
<line class="barb-shaft" x1="319.60" y1="106.33" x2="321.05" y2="124.27" />
<line class="barb-feather" x1="321.05" y1="124.27" x2="316.96" y2="123.40" />
<text class="station-label" x="325.60" y="110.33" text-anchor="start">VOR</text>
<text class="station-dev-na" x="325.60" y="120.33" text-anchor="start"><tspan class="station-dev-pos">(+3.4)</tspan><tspan fill="#444444"> (21:00)</tspan></text>
<rect class="station" x="624.42" y="320.80" width="6" height="6" />
<circle class="barb-shaft" cx="627.42" cy="323.80" r="2.5" fill="none" />
<text class="station-label" x="633.42" y="327.80" text-anchor="start">Montecito</text>
<text class="station-dev-na" x="633.42" y="337.80" text-anchor="start"><tspan class="station-dev-neg">(-0.6)</tspan><tspan fill="#444444"> (20:47)</tspan></text>
<rect class="station" x="826.13" y="417.32" width="6" height="6" />
<circle class="barb-shaft" cx="829.13" cy="420.32" r="2.5" fill="none" />
<text class="station-label" x="835.13" y="424.32" text-anchor="start">Parma</text>
<text class="station-dev-na" x="835.13" y="434.32" text-anchor="start"><tspan class="station-dev-pos">(+5.0)</tspan><tspan fill="#444444"> (21:00)</tspan></text>
<rect class="station" x="840.19" y="410.07" width="6" height="6" />
<circle class="barb-shaft" cx="843.19" cy="413.07" r="2.5" fill="none" />
<text class="station-label" x="849.19" y="453.07" text-anchor="start">Romero Cyn</text>
<text class="station-dev-na" x="849.19" y="463.07" text-anchor="start"><tspan class="station-dev-pos">(+0.7)</tspan><tspan fill="#444444"> (21:00)</tspan></text>
<rect class="station" x="786.90" y="505.87" width="6" height="6" />
<circle class="barb-shaft" cx="789.90" cy="508.87" r="2.5" fill="none" />
<text class="station-label" x="795.90" y="498.00" text-anchor="start">Airport</text>
<text class="station-dev-na" x="795.90" y="508.00" text-anchor="start"><tspan class="station-dev-na">(n/a)</tspan><tspan fill="#444444"> (21:00)</tspan></text>
<line class="rass" x1="90" y1="562" x2="114" y2="562" />
<text class="label" x="120" y="566">RASS @ 20:55</text>
<line class="dalr" x1="310" y1="562" x2="334" y2="562" />
<text class="label" x="340" y="566">DALR (5.4 F/1000 ft)</text>
<text class="legend-h" x="90" y="596">Stations</text>
<text class="legend-row" x="90" y="612"><tspan>La Cumbre @ 21:12 - 43.0F, winds 162, 14g22mph, DALR dev </tspan><tspan fill="#c62828">VOR:+2.1F</tspan><tspan>; </tspan><tspan fill="#c62828">AntFarm:+3.4F</tspan><tspan>; </tspan><tspan fill="#c62828">Montecito:+5.5F</tspan><tspan>; </tspan><tspan fill="#c62828">Romero Cyn:+4.9F</tspan><tspan>; </tspan><tspan fill="#c62828">Parma:+5.6F</tspan><tspan>; </tspan><tspan fill="#c62828">Airport:+10.6F</tspan></text>
<text class="legend-row" x="90" y="626"><tspan>VOR @ 21:00 - 43.2F, winds 175, 7g15mph, DALR dev </tspan><tspan fill="#c62828">AntFarm:+1.3F</tspan><tspan>; </tspan><tspan fill="#c62828">Montecito:+3.4F</tspan><tspan>; </tspan><tspan fill="#c62828">Romero Cyn:+2.8F</tspan><tspan>; </tspan><tspan fill="#c62828">Parma:+3.5F</tspan><tspan>; </tspan><tspan fill="#c62828">Airport:+8.5F</tspan></text>
<text class="legend-row" x="90" y="640"><tspan>AntFarm @ 21:00 - 48.1F, winds 061, 8g13mph, DALR dev </tspan><tspan fill="#c62828">Montecito:+2.1F</tspan><tspan>; </tspan><tspan fill="#c62828">Romero Cyn:+1.5F</tspan><tspan>; </tspan><tspan fill="#c62828">Parma:+2.2F</tspan><tspan>; </tspan><tspan fill="#c62828">Airport:+7.2F</tspan></text>
<text class="legend-row" x="90" y="654"><tspan>Montecito @ 20:47 - 50.0F, winds 263, 1g7mph, DALR dev </tspan><tspan fill="#1565c0">Romero Cyn:-0.6F</tspan><tspan>; </tspan><tspan fill="#c62828">Parma:+0.1F</tspan><tspan>; </tspan><tspan fill="#c62828">Airport:+5.1F</tspan></text>
<text class="legend-row" x="90" y="668">SM Pass @ 20:06 - temp missing, winds 137, 4g9mph, DALR dev missing</text>
<text class="legend-row" x="90" y="682"><tspan>Parma @ 21:00 - 54.5F, winds 191, 0g2mph, DALR dev </tspan><tspan fill="#c62828">Airport:+5.0F</tspan></text>
<text class="legend-row" x="90" y="696"><tspan>Romero Cyn @ 21:00 - 54.8F, winds 186, 2g8mph, DALR dev </tspan><tspan fill="#c62828">Parma:+0.7F</tspan><tspan>; </tspan><tspan fill="#c62828">Airport:+5.7F</tspan></text>
<text class="legend-row" x="90" y="710">Airport @ 21:00 - 53.6F, winds 000, 0g17mph, DALR dev n/a</text>
</svg>