<svg xmlns="http://www.w3.org/2000/svg" width="1180" height="760" viewBox="0 0 1180 760">
<style>
  .axis { stroke: #202020; stroke-width: 1; }
  .grid { stroke: #dddddd; stroke-width: 1; }
  .title { font-family: Helvetica, Arial, sans-serif; font-size: 16px; font-weight: 600; fill: #111111; }
  .label { font-family: Helvetica, Arial, sans-serif; font-size: 12px; fill: #222222; }
  .legend-h { font-family: Helvetica, Arial, sans-serif; font-size: 12px; font-weight: 600; fill: #222222; }
  .legend-row { font-family: Helvetica, Arial, sans-serif; font-size: 11px; fill: #333333; }
  .rass { fill: none; stroke: #000000; stroke-width: 2; }
  .dalr { fill: none; stroke: #000000; stroke-width: 1.5; stroke-dasharray: 6 4; stroke-opacity: 0.45; }
  .rass-point { fill: #0077b6; }
  .station { fill: #f4a261; stroke: #8b4c12; stroke-width: 1; }
  .barb-shaft { stroke: #1f2937; stroke-width: 1.3; }
  .barb-feather { stroke: #1f2937; stroke-width: 1.2; }
  .barb-flag { fill: #1f2937; stroke: #1f2937; stroke-width: 1; }
  .station-label { font-family: Helvetica, Arial, sans-serif; font-size: 11px; fill: #444444; }
  .station-dev-pos { font-family: Helvetica, Arial, sans-serif; font-size: 10px; fill: #c62828; }
  .station-dev-neg { font-family: Helvetica, Arial, sans-serif; font-size: 10px; fill: #1565c0; }
  .station-dev-na { font-family: Helvetica, Arial, sans-serif; font-size: 10px; fill: #666666; }
  .rass-dev-pos { font-family: Helvetica, Arial, sans-serif; font-size: 9px; fill: #c62828; }
  .rass-dev-neg { font-family: Helvetica, Arial, sans-serif; font-size: 9px; fill: #1565c0; }
  .rass-dev-na { font-family: Helvetica, Arial, sans-serif; font-size: 9px; fill: #666666; }
</style>
<rect x="0" y="0" width="1180" height="760" fill="#ffffff" />
<text class="title" x="90" y="28">Estimated LCL @ VOR: 1079 m - winds 150, 7g15mph (20:10 PST)</text>
<line class="grid" x1="90" y1="510.00" x2="1110" y2="510.00" />
<text class="label" x="82" y="514.00" text-anchor="end">0</text>
<line class="grid" x1="90" y1="439.23" x2="1110" y2="439.23" />
<text class="label" x="82" y="443.23" text-anchor="end">200</text>
<line class="grid" x1="90" y1="368.46" x2="1110" y2="368.46" />
<text class="label" x="82" y="372.46" text-anchor="end">400</text>
<line class="grid" x1="90" y1="297.69" x2="1110" y2="297.69" />
<text class="label" x="82" y="301.69" text-anchor="end">600</text>
<line class="grid" x1="90" y1="226.92" x2="1110" y2="226.92" />
<text class="label" x="82" y="230.92" text-anchor="end">800</text>
<line class="grid" x1="90" y1="156.15" x2="1110" y2="156.15" />
<text class="label" x="82" y="160.15" text-anchor="end">1000</text>
<line class="grid" x1="90" y1="85.38" x2="1110" y2="85.38" />
<text class="label" x="82" y="89.38" text-anchor="end">1200</text>
<line class="grid" x1="281.83" y1="50" x2="281.83" y2="510" />
<text class="label" x="281.83" y="528" text-anchor="middle">5.0</text>
<line class="grid" x1="653.00" y1="50" x2="653.00" y2="510" />
<text class="label" x="653.00" y="528" text-anchor="middle">10.0</text>
<line class="grid" x1="1024.18" y1="50" x2="1024.18" y2="510" />
<text class="label" x="1024.18" y="528" text-anchor="middle">15.0</text>
<line class="axis" x1="90" y1="50" x2="90" y2="510" />
<line class="axis" x1="90" y1="510" x2="1110" y2="510" />
<text class="label" x="600.00" y="546" text-anchor="middle">Temperature (C)</text>
<text class="label" x="26" y="280.00" text-anchor="middle" transform="rotate(-90 26 280.00)">Altitude (m)</text>
<path class="rass" d="M927.38,439.23 L899.10,403.85 L857.23,368.46 L782.69,333.08 L698.81,297.69 L636.90,262.31 L591.09,226.92 L543.66,191.54 L489.09,156.15 L458.66,120.77 L448.56,85.38 L434.08,50.00" />
<path class="dalr" d="M1072.88,510.00 L127.12,50.00" />
<circle class="rass-point" cx="927.38" cy="439.23" r="2" />
<text class="rass-dev-na" x="933.38" y="436.23" text-anchor="start">(n/a)</text>
<circle class="rass-point" cx="899.10" cy="403.85" r="2" />
<text class="rass-dev-pos" x="893.10" y="400.85" text-anchor="end">(+0.6)</text>
<circle class="rass-point" cx="857.23" cy="368.46" r="2" />
<text class="rass-dev-pos" x="863.23" y="365.46" text-anchor="start">(+0.4)</text>
<circle class="rass-point" cx="782.69" cy="333.08" r="2" />
<text class="rass-dev-neg" x="776.69" y="330.08" text-anchor="end">(-0.0)</text>
<circle class="rass-point" cx="698.81" cy="297.69" r="2" />
<text class="rass-dev-neg" x="704.81" y="294.69" text-anchor="start">(-0.1)</text>
<circle class="rass-point" cx="636.90" cy="262.31" r="2" />
<text class="rass-dev-pos" x="630.90" y="259.31" text-anchor="end">(+0.1)</text>
<circle class="rass-point" cx="591.09" cy="226.92" r="2" />
<text class="rass-dev-pos" x="597.09" y="223.92" text-anchor="start">(+0.4)</text>
<circle class="rass-point" cx="543.66" cy="191.54" r="2" />
<text class="rass-dev-pos" x="537.66" y="188.54" text-anchor="end">(+0.3)</text>
<circle class="rass-point" cx="489.09" cy="156.15" r="2" />
<text class="rass-dev-pos" x="495.09" y="153.15" text-anchor="start">(+0.2)</text>
<circle class="rass-point" cx="458.66" cy="120.77" r="2" />
<text class="rass-dev-pos" x="452.66" y="117.77" text-anchor="end">(+0.6)</text>
<circle class="rass-point" cx="448.56" cy="85.38" r="2" />
<text class="rass-dev-pos" x="454.56" y="82.38" text-anchor="start">(+0.8)</text>
<circle class="rass-point" cx="434.08" cy="50.00" r="2" />
<text class="rass-dev-pos" x="428.08" y="58.00" text-anchor="end">(+0.8)</text>
<rect class="station" x="361.31" y="82.03" width="6" height="6" />
<line class="barb-shaft" x1="364.31" y1="85.03" x2="363.68" y2="103.02" />
<line class="barb-feather" x1="363.68" y1="103.02" x2="356.76" y2="100.78" />
<text class="station-label" x="370.31" y="89.03" text-anchor="start">La Cumbre</text>
<text class="station-dev-na" x="370.31" y="99.03" text-anchor="start"><tspan class="station-dev-pos">(+1.5)</tspan><tspan fill="#444444"> (20:31)</tspan></text>
<rect class="station" x="348.53" y="128.42" width="6" height="6" />
<line class="barb-shaft" x1="351.53" y1="131.42" x2="360.48" y2="147.04" />
<line class="barb-feather" x1="360.48" y1="147.04" x2="356.41" y2="147.99" />
<text class="station-label" x="357.53" y="135.42" text-anchor="start">VOR</text>
<text class="station-dev-na" x="357.53" y="145.42" text-anchor="start"><tspan class="station-dev-pos">(+0.4)</tspan><tspan fill="#444444"> (20:10)</tspan></text>
<rect class="station" x="573.69" y="253.01" width="6" height="6" />
<line class="barb-shaft" x1="576.69" y1="256.01" x2="592.29" y2="247.02" />
<line class="barb-feather" x1="592.29" y1="247.02" x2="594.05" y2="254.08" />
<text class="station-label" x="582.69" y="260.01" text-anchor="start">AntFarm</text>
<text class="station-dev-na" x="582.69" y="270.01" text-anchor="start"><tspan class="station-dev-pos">(+0.6)</tspan><tspan fill="#444444"> (20:10)</tspan></text>
<rect class="station" x="691.28" y="332.38" width="6" height="6" />
<line class="barb-shaft" x1="694.28" y1="335.38" x2="694.91" y2="353.37" />
<line class="barb-feather" x1="694.91" y1="353.37" x2="690.87" y2="352.31" />
<text class="station-label" x="700.28" y="339.38" text-anchor="start">Montecito</text>
<text class="station-dev-na" x="700.28" y="349.38" text-anchor="start"><tspan class="station-dev-pos">(+0.0)</tspan><tspan fill="#444444"> (19:47)</tspan></text>
<rect class="station" x="850.89" y="422.89" width="6" height="6" />
<circle class="barb-shaft" cx="853.89" cy="425.89" r="2.5" fill="none" />
<text class="station-label" x="859.89" y="429.89" text-anchor="start">Parma</text>
<text class="station-dev-na" x="859.89" y="439.89" text-anchor="start"><tspan class="station-dev-pos">(+2.0)</tspan><tspan fill="#444444"> (20:10)</tspan></text>
<rect class="station" x="861.58" y="416.10" width="6" height="6" />
<circle class="barb-shaft" cx="864.58" cy="419.10" r="2.5" fill="none" />
<text class="station-label" x="870.58" y="459.10" text-anchor="start">Romero Cyn</text>
<text class="station-dev-na" x="870.58" y="469.10" text-anchor="start"><tspan class="station-dev-pos">(+0.3)</tspan><tspan fill="#444444"> (20:10)</tspan></text>
<rect class="station" x="872.71" y="505.94" width="6" height="6" />
<circle class="barb-shaft" cx="875.71" cy="508.94" r="2.5" fill="none" />
<text class="station-label" x="881.71" y="498.00" text-anchor="start">Airport</text>
<text class="station-dev-na" x="881.71" y="508.00" text-anchor="start"><tspan class="station-dev-na">(n/a)</tspan><tspan fill="#444444"> (20:15)</tspan></text>
<line class="rass" x1="90" y1="562" x2="114" y2="562" />
<text class="label" x="120" y="566">RASS @ 19:55</text>
<line class="dalr" x1="310" y1="562" x2="334" y2="562" />
<text class="label" x="340" y="566">DALR (9.8 C/km)</text>
<text class="legend-h" x="90" y="596">Stations</text>
<text class="legend-row" x="90" y="612"><tspan>La Cumbre @ 20:31 - 6.1C, winds 182, 12g22mph, DALR dev </tspan><tspan fill="#c62828">VOR:+1.5C</tspan><tspan>; </tspan><tspan fill="#c62828">AntFarm:+1.9C</tspan><tspan>; </tspan><tspan fill="#c62828">Montecito:+2.5C</tspan><tspan>; </tspan><tspan fill="#c62828">SM Pass:+2.3C</tspan><tspan>; </tspan><tspan fill="#c62828">Romero Cyn:+2.5C</tspan><tspan>; </tspan><tspan fill="#c62828">Parma:+2.8C</tspan><tspan>; </tspan><tspan fill="#c62828">Airport:+4.9C</tspan></text>
<text class="legend-row" x="90" y="626"><tspan>VOR @ 20:10 - 5.9C, winds 150, 7g15mph, DALR dev </tspan><tspan fill="#c62828">AntFarm:+0.4C</tspan><tspan>; </tspan><tspan fill="#c62828">Montecito:+1.0C</tspan><tspan>; </tspan><tspan fill="#c62828">SM Pass:+0.9C</tspan><tspan>; </tspan><tspan fill="#c62828">Romero Cyn:+1.1C</tspan><tspan>; </tspan><tspan fill="#c62828">Parma:+1.4C</tspan><tspan>; </tspan><tspan fill="#c62828">Airport:+3.4C</tspan></text>
<text class="legend-row" x="90" y="640"><tspan>AntFarm @ 20:10 - 9.0C, winds 060, 9g15mph, DALR dev </tspan><tspan fill="#c62828">Montecito:+0.6C</tspan><tspan>; </tspan><tspan fill="#c62828">SM Pass:+0.4C</tspan><tspan>; </tspan><tspan fill="#c62828">Romero Cyn:+0.6C</tspan><tspan>; </tspan><tspan fill="#c62828">Parma:+1.0C</tspan><tspan>; </tspan><tspan fill="#c62828">Airport:+3.0C</tspan></text>
<text class="legend-row" x="90" y="654"><tspan>Montecito @ 19:47 - 10.6C, winds 178, 4g11mph, DALR dev </tspan><tspan fill="#1565c0">SM Pass:-0.2C</tspan><tspan>; </tspan><tspan fill="#c62828">Romero Cyn:+0.0C</tspan><tspan>; </tspan><tspan fill="#c62828">Parma:+0.4C</tspan><tspan>; </tspan><tspan fill="#c62828">Airport:+2.4C</tspan></text>
<text class="legend-row" x="90" y="668"><tspan>SM Pass @ 20:06 - 11.1C, winds 137, 4g9mph, DALR dev </tspan><tspan fill="#c62828">Romero Cyn:+0.2C</tspan><tspan>; </tspan><tspan fill="#c62828">Parma:+0.5C</tspan><tspan>; </tspan><tspan fill="#c62828">Airport:+2.5C</tspan></text>
<text class="legend-row" x="90" y="682"><tspan>Parma @ 20:10 - 12.7C, winds 198, 1g3mph, DALR dev </tspan><tspan fill="#c62828">Airport:+2.0C</tspan></text>
<text class="legend-row" x="90" y="696"><tspan>Romero Cyn @ 20:10 - 12.9C, winds 160, 2g6mph, DALR dev </tspan><tspan fill="#c62828">Parma:+0.3C</tspan><tspan>; </tspan><tspan fill="#c62828">Airport:+2.3C</tspan></text>
<text class="legend-row" x="90" y="710">Airport @ 20:15 - 13.0C, winds 000, 0g17mph, DALR dev n/a</text>
</svg>