<svg xmlns="http://www.w3.org/2000/svg" width="1180" height="760" viewBox="0 0 1180 760">
<style>
  .axis { stroke: #202020; stroke-width: 1; }
  .grid { stroke: #dddddd; stroke-width: 1; }
  .title { font-family: Helvetica, Arial, sans-serif; font-size: 16px; font-weight: 600; fill: #111111; }
  .label { font-family: Helvetica, Arial, sans-serif; font-size: 12px; fill: #222222; }
  .legend-h { font-family: Helvetica, Arial, sans-serif; font-size: 12px; font-weight: 600; fill: #222222; }
  .legend-row { font-family: Helvetica, Arial, sans-serif; font-size: 11px; fill: #333333; }
  .rass { fill: none; stroke: #000000; stroke-width: 2; }
  .dalr { fill: none; stroke: #000000; stroke-width: 1.5; stroke-dasharray: 6 4; stroke-opacity: 0.45; }
  .rass-point { fill: #0077b6; }
  .station { fill: #f4a261; stroke: #8b4c12; stroke-width: 1; }
  .barb-shaft { stroke: #1f2937; stroke-width: 1.3; }
  .barb-feather { stroke: #1f2937; stroke-width: 1.2; }
  .barb-flag { fill: #1f2937; stroke: #1f2937; stroke-width: 1; }
  .station-label { font-family: Helvetica, Arial, sans-serif; font-size: 11px; fill: #444444; }
  .station-dev-pos { font-family: Helvetica, Arial, sans-serif; font-size: 10px; fill: #c62828; }
  .station-dev-neg { font-family: Helvetica, Arial, sans-serif; font-size: 10px; fill: #1565c0; }
  .station-dev-na { font-family: Helvetica, Arial, sans-serif; font-size: 10px; fill: #666666; }
  .rass-dev-pos { font-family: Helvetica, Arial, sans-serif; font-size: 9px; fill: #c62828; }
  .rass-dev-neg { font-family: Helvetica, Arial, sans-serif; font-size: 9px; fill: #1565c0; }
  .rass-dev-na { font-family: Helvetica, Arial, sans-serif; font-size: 9px; fill: #666666; }
</style>
<rect x="0" y="0" width="1180" height="760" fill="#ffffff" />
<text class="title" x="90" y="28">Estimated LCL @ VOR: 3547 ft - winds 188, 7g12mph (07:40 PST)</text>
<line class="grid" x1="90" y1="510.00" x2="1110" y2="510.00" />
<text class="label" x="82" y="514.00" text-anchor="end">0</text>
<line class="grid" x1="90" y1="452.50" x2="1110" y2="452.50" />
<text class="label" x="82" y="456.50" text-anchor="end">500</text>
<line class="grid" x1="90" y1="395.00" x2="1110" y2="395.00" />
<text class="label" x="82" y="399.00" text-anchor="end">1000</text>
<line class="grid" x1="90" y1="337.50" x2="1110" y2="337.50" />
<text class="label" x="82" y="341.50" text-anchor="end">1500</text>
<line class="grid" x1="90" y1="280.00" x2="1110" y2="280.00" />
<text class="label" x="82" y="284.00" text-anchor="end">2000</text>
<line class="grid" x1="90" y1="222.50" x2="1110" y2="222.50" />
<text class="label" x="82" y="226.50" text-anchor="end">2500</text>
<line class="grid" x1="90" y1="165.00" x2="1110" y2="165.00" />
<text class="label" x="82" y="169.00" text-anchor="end">3000</text>
<line class="grid" x1="90" y1="107.50" x2="1110" y2="107.50" />
<text class="label" x="82" y="111.50" text-anchor="end">3500</text>
<line class="grid" x1="90" y1="50.00" x2="1110" y2="50.00" />
<text class="label" x="82" y="54.00" text-anchor="end">4000</text>
<line class="grid" x1="200.54" y1="50" x2="200.54" y2="510" />
<text class="label" x="200.54" y="528" text-anchor="middle">40.0</text>
<line class="grid" x1="426.21" y1="50" x2="426.21" y2="510" />
<text class="label" x="426.21" y="528" text-anchor="middle">45.0</text>
<line class="grid" x1="651.87" y1="50" x2="651.87" y2="510" />
<text class="label" x="651.87" y="528" text-anchor="middle">50.0</text>
<line class="grid" x1="877.53" y1="50" x2="877.53" y2="510" />
<text class="label" x="877.53" y="528" text-anchor="middle">55.0</text>
<line class="grid" x1="1103.20" y1="50" x2="1103.20" y2="510" />
<text class="label" x="1103.20" y="528" text-anchor="middle">60.0</text>
<line class="axis" x1="90" y1="50" x2="90" y2="510" />
<line class="axis" x1="90" y1="510" x2="1110" y2="510" />
<text class="label" x="600.00" y="546" text-anchor="middle">Temperature (F)</text>
<text class="label" x="26" y="280.00" text-anchor="middle" transform="rotate(-90 26 280.00)">Altitude (ft)</text>
<path class="rass" d="M927.51,434.54 L873.41,396.81 L811.83,359.08 L728.80,321.35 L670.31,283.62 L647.48,245.89 L584.93,208.16 L496.62,170.43 L408.32,132.70 L361.28,94.97" />
<path class="dalr" d="M1087.43,510.00 L112.57,50.00" />
<circle class="rass-point" cx="927.51" cy="434.54" r="2" />
<text class="rass-dev-na" x="933.51" y="431.54" text-anchor="start">(n/a)</text>
<circle class="rass-point" cx="873.41" cy="396.81" r="2" />
<text class="rass-dev-pos" x="867.41" y="393.81" text-anchor="end">(+0.6)</text>
<circle class="rass-point" cx="811.83" cy="359.08" r="2" />
<text class="rass-dev-pos" x="817.83" y="356.08" text-anchor="start">(+0.4)</text>
<circle class="rass-point" cx="728.80" cy="321.35" r="2" />
<text class="rass-dev-neg" x="722.80" y="318.35" text-anchor="end">(-0.1)</text>
<circle class="rass-point" cx="670.31" cy="283.62" r="2" />
<text class="rass-dev-pos" x="676.31" y="280.62" text-anchor="start">(+0.5)</text>
<circle class="rass-point" cx="647.48" cy="245.89" r="2" />
<text class="rass-dev-pos" x="641.48" y="242.89" text-anchor="end">(+1.3)</text>
<circle class="rass-point" cx="584.93" cy="208.16" r="2" />
<text class="rass-dev-pos" x="590.93" y="205.16" text-anchor="start">(+0.4)</text>
<circle class="rass-point" cx="496.62" cy="170.43" r="2" />
<text class="rass-dev-neg" x="490.62" y="167.43" text-anchor="end">(-0.2)</text>
<circle class="rass-point" cx="408.32" cy="132.70" r="2" />
<text class="rass-dev-neg" x="414.32" y="129.70" text-anchor="start">(-0.2)</text>
<circle class="rass-point" cx="361.28" cy="94.97" r="2" />
<text class="rass-dev-pos" x="355.28" y="91.97" text-anchor="end">(+0.7)</text>
<rect class="station" x="242.68" y="53.87" width="6" height="6" />
<line class="barb-shaft" x1="245.68" y1="56.87" x2="249.42" y2="74.47" />
<line class="barb-feather" x1="249.42" y1="74.47" x2="245.26" y2="74.13" />
<text class="station-label" x="251.68" y="64.00" text-anchor="start">La Cumbre</text>
<text class="station-dev-na" x="251.68" y="74.00" text-anchor="start"><tspan class="station-dev-pos">(+2.8)</tspan><tspan fill="#444444"> (-11min)</tspan></text>
<rect class="station" x="221.47" y="103.33" width="6" height="6" />
<line class="barb-shaft" x1="224.47" y1="106.33" x2="221.87" y2="124.14" />
<line class="barb-feather" x1="221.87" y1="124.14" x2="218.09" y2="122.38" />
<text class="station-label" x="230.47" y="110.33" text-anchor="start">VOR</text>
<text class="station-dev-na" x="230.47" y="120.33" text-anchor="start"><tspan class="station-dev-pos">(+1.0)</tspan><tspan fill="#444444"> (+0min)</tspan></text>
<rect class="station" x="456.58" y="236.18" width="6" height="6" />
<line class="barb-shaft" x1="459.58" y1="239.18" x2="474.89" y2="229.71" />
<line class="barb-feather" x1="474.89" y1="229.71" x2="476.87" y2="236.72" />
<text class="station-label" x="465.58" y="243.18" text-anchor="start">AntFarm</text>
<text class="station-dev-na" x="465.58" y="253.18" text-anchor="start"><tspan class="station-dev-pos">(+0.4)</tspan><tspan fill="#444444"> (-34min)</tspan></text>
<rect class="station" x="648.87" y="335.52" width="6" height="6" />
<line class="barb-shaft" x1="651.87" y1="338.52" x2="668.18" y2="330.91" />
<line class="barb-feather" x1="668.18" y1="330.91" x2="668.79" y2="335.04" />
<text class="station-label" x="657.87" y="342.52" text-anchor="start">SM Pass</text>
<text class="station-dev-na" x="657.87" y="352.52" text-anchor="start"><tspan class="station-dev-pos">(+2.3)</tspan><tspan fill="#444444"> (+34min)</tspan></text>
<rect class="station" x="719.71" y="417.32" width="6" height="6" />
<circle class="barb-shaft" cx="722.71" cy="420.32" r="2.5" fill="none" />
<text class="station-label" x="728.71" y="424.32" text-anchor="start">Parma</text>
<text class="station-dev-na" x="728.71" y="434.32" text-anchor="start"><tspan class="station-dev-pos">(+0.3)</tspan><tspan fill="#444444"> (+5min)</tspan></text>
<rect class="station" x="892.59" y="505.87" width="6" height="6" />
<line class="barb-shaft" x1="895.59" y1="508.87" x2="913.59" y2="508.87" />
<line class="barb-feather" x1="913.59" y1="508.87" x2="912.39" y2="512.87" />
<text class="station-label" x="901.59" y="498.00" text-anchor="start">Airport</text>
<text class="station-dev-na" x="901.59" y="508.00" text-anchor="start">(n/a)</text>
<line class="rass" x1="90" y1="562" x2="114" y2="562" />
<text class="label" x="120" y="566">RASS @ 06:55</text>
<line class="dalr" x1="310" y1="562" x2="334" y2="562" />
<text class="label" x="340" y="566">DALR (5.4 F/1000 ft)</text>
<text class="legend-h" x="90" y="596">Stations</text>
<text class="legend-row" x="90" y="612"><tspan>La Cumbre 3940ft @ 07:51 - 41.0F, winds 168, 7g15mph, DALR dev </tspan><tspan fill="#c62828">VOR:+2.8F</tspan><tspan>; </tspan><tspan fill="#c62828">AntFarm:+3.8F</tspan><tspan>; </tspan><tspan fill="#c62828">Montecito:+4.5F</tspan><tspan>; </tspan><tspan fill="#c62828">SM Pass:+4.2F</tspan><tspan>; </tspan><tspan fill="#c62828">Parma:+6.5F</tspan><tspan>; </tspan><tspan fill="#c62828">Airport:+6.8F</tspan></text>
<text class="legend-row" x="90" y="626"><tspan>VOR 3510ft @ 07:40 - 40.5F, winds 188, 7g12mph, DALR dev </tspan><tspan fill="#c62828">AntFarm:+1.0F</tspan><tspan>; </tspan><tspan fill="#c62828">Montecito:+1.7F</tspan><tspan>; </tspan><tspan fill="#c62828">SM Pass:+1.4F</tspan><tspan>; </tspan><tspan fill="#c62828">Parma:+3.7F</tspan><tspan>; </tspan><tspan fill="#c62828">Airport:+4.0F</tspan></text>
<text class="legend-row" x="90" y="640"><tspan>AntFarm 2355ft @ 07:40 - 45.7F, winds 058, 9g12mph, DALR dev </tspan><tspan fill="#c62828">Montecito:+0.7F</tspan><tspan>; </tspan><tspan fill="#c62828">SM Pass:+0.4F</tspan><tspan>; </tspan><tspan fill="#c62828">Parma:+2.7F</tspan><tspan>; </tspan><tspan fill="#c62828">Airport:+3.0F</tspan></text>
<text class="legend-row" x="90" y="654"><tspan>Montecito 1619ft @ 06:47 - 49.0F, winds 081, 1g10mph, DALR dev </tspan><tspan fill="#1565c0">SM Pass:-0.3F</tspan><tspan>; </tspan><tspan fill="#c62828">Parma:+2.0F</tspan><tspan>; </tspan><tspan fill="#c62828">Airport:+2.3F</tspan></text>
<text class="legend-row" x="90" y="668"><tspan>SM Pass 1491ft @ 07:06 - 50.0F, winds 065, 5g10mph, DALR dev </tspan><tspan fill="#c62828">Parma:+2.3F</tspan><tspan>; </tspan><tspan fill="#c62828">Airport:+2.6F</tspan></text>
<text class="legend-row" x="90" y="682"><tspan>Parma 780ft @ 07:40 - 51.6F, winds 312, 0g1mph, DALR dev </tspan><tspan fill="#c62828">Airport:+0.3F</tspan></text>
<text class="legend-row" x="90" y="696">Airport 10ft @ 07:45 - 55.4F, winds 090, 6g17mph, DALR dev n/a</text>
</svg>