<svg xmlns="http://www.w3.org/2000/svg" width="1180" height="760" viewBox="0 0 1180 760">
<style>
  .axis { stroke: #202020; stroke-width: 1; }
  .grid { stroke: #dddddd; stroke-width: 1; }
  .title { font-family: Helvetica, Arial, sans-serif; font-size: 16px; font-weight: 600; fill: #111111; }
  .label { font-family: Helvetica, Arial, sans-serif; font-size: 12px; fill: #222222; }
  .legend-h { font-family: Helvetica, Arial, sans-serif; font-size: 12px; font-weight: 600; fill: #222222; }
  .legend-row { font-family: Helvetica, Arial, sans-serif; font-size: 11px; fill: #333333; }
  .rass { fill: none; stroke: #000000; stroke-width: 2; }
  .dalr { fill: none; stroke: #000000; stroke-width: 1.5; stroke-dasharray: 6 4; stroke-opacity: 0.45; }
  .rass-point { fill: #0077b6; }
  .station { fill: #f4a261; stroke: #8b4c12; stroke-width: 1; }
  .barb-shaft { stroke: #1f2937; stroke-width: 1.3; }
  .barb-feather { stroke: #1f2937; stroke-width: 1.2; }
  .barb-flag { fill: #1f2937; stroke: #1f2937; stroke-width: 1; }
  .station-label { font-family: Helvetica, Arial, sans-serif; font-size: 11px; fill: #444444; }
  .station-dev-pos { font-family: Helvetica, Arial, sans-serif; font-size: 10px; fill: #c62828; }
  .station-dev-neg { font-family: Helvetica, Arial, sans-serif; font-size: 10px; fill: #1565c0; }
  .station-dev-na { font-family: Helvetica, Arial, sans-serif; font-size: 10px; fill: #666666; }
  .rass-dev-pos { font-family: Helvetica, Arial, sans-serif; font-size: 9px; fill: #c62828; }
  .rass-dev-neg { font-family: Helvetica, Arial, sans-serif; font-size: 9px; fill: #1565c0; }
  .rass-dev-na { font-family: Helvetica, Arial, sans-serif; font-size: 9px; fill: #666666; }
</style>
<rect x="0" y="0" width="1180" height="760" fill="#ffffff" />
<text class="title" x="90" y="28">Estimated LCL @ VOR: 1144 m - winds 198, 8g15mph (12:30 PST)</text>
<line class="grid" x1="90" y1="510.00" x2="1110" y2="510.00" />
<text class="label" x="82" y="514.00" text-anchor="end">0</text>
<line class="grid" x1="90" y1="439.23" x2="1110" y2="439.23" />
<text class="label" x="82" y="443.23" text-anchor="end">200</text>
<line class="grid" x1="90" y1="368.46" x2="1110" y2="368.46" />
<text class="label" x="82" y="372.46" text-anchor="end">400</text>
<line class="grid" x1="90" y1="297.69" x2="1110" y2="297.69" />
<text class="label" x="82" y="301.69" text-anchor="end">600</text>
<line class="grid" x1="90" y1="226.92" x2="1110" y2="226.92" />
<text class="label" x="82" y="230.92" text-anchor="end">800</text>
<line class="grid" x1="90" y1="156.15" x2="1110" y2="156.15" />
<text class="label" x="82" y="160.15" text-anchor="end">1000</text>
<line class="grid" x1="90" y1="85.38" x2="1110" y2="85.38" />
<text class="label" x="82" y="89.38" text-anchor="end">1200</text>
<line class="grid" x1="253.49" y1="50" x2="253.49" y2="510" />
<text class="label" x="253.49" y="528" text-anchor="middle">5.0</text>
<line class="grid" x1="596.09" y1="50" x2="596.09" y2="510" />
<text class="label" x="596.09" y="528" text-anchor="middle">10.0</text>
<line class="grid" x1="938.70" y1="50" x2="938.70" y2="510" />
<text class="label" x="938.70" y="528" text-anchor="middle">15.0</text>
<line class="axis" x1="90" y1="50" x2="90" y2="510" />
<line class="axis" x1="90" y1="510" x2="1110" y2="510" />
<text class="label" x="600.00" y="546" text-anchor="middle">Temperature (C)</text>
<text class="label" x="26" y="280.00" text-anchor="middle" transform="rotate(-90 26 280.00)">Altitude (m)</text>
<path class="rass" d="M862.91,439.23 L823.79,403.85 L778.36,368.46 L732.66,333.08 L653.31,297.69 L589.65,262.31" />
<path class="dalr" d="M997.22,510.00 L124.26,50.00" />
<circle class="rass-point" cx="862.91" cy="439.23" r="2" />
<text class="rass-dev-na" x="868.91" y="436.23" text-anchor="start">(n/a)</text>
<circle class="rass-point" cx="823.79" cy="403.85" r="2" />
<text class="rass-dev-pos" x="817.79" y="400.85" text-anchor="end">(+0.4)</text>
<circle class="rass-point" cx="778.36" cy="368.46" r="2" />
<text class="rass-dev-pos" x="784.36" y="365.46" text-anchor="start">(+0.3)</text>
<circle class="rass-point" cx="732.66" cy="333.08" r="2" />
<text class="rass-dev-pos" x="726.66" y="330.08" text-anchor="end">(+0.3)</text>
<circle class="rass-point" cx="653.31" cy="297.69" r="2" />
<text class="rass-dev-neg" x="659.31" y="294.69" text-anchor="start">(-0.2)</text>
<circle class="rass-point" cx="589.65" cy="262.31" r="2" />
<text class="rass-dev-pos" x="583.65" y="259.31" text-anchor="end">(+0.1)</text>
<rect class="station" x="440.83" y="82.03" width="6" height="6" />
<line class="barb-shaft" x1="443.83" y1="85.03" x2="445.39" y2="102.96" />
<line class="barb-feather" x1="445.39" y1="102.96" x2="438.25" y2="101.58" />
<text class="station-label" x="449.83" y="89.03" text-anchor="start">La Cumbre</text>
<text class="station-dev-na" x="449.83" y="99.03" text-anchor="start"><tspan class="station-dev-pos">(+2.9)</tspan><tspan fill="#444444"> (-10min)</tspan></text>
<rect class="station" x="328.54" y="128.42" width="6" height="6" />
<line class="barb-shaft" x1="331.54" y1="131.42" x2="326.09" y2="148.58" />
<line class="barb-feather" x1="326.09" y1="148.58" x2="322.64" y2="146.22" />
<text class="station-label" x="337.54" y="135.42" text-anchor="start">VOR</text>
<text class="station-dev-na" x="337.54" y="145.42" text-anchor="start"><tspan class="station-dev-neg">(-0.0)</tspan><tspan fill="#444444"> (+0min)</tspan></text>
<rect class="station" x="567.60" y="253.01" width="6" height="6" />
<line class="barb-shaft" x1="570.60" y1="256.01" x2="586.38" y2="247.35" />
<line class="barb-feather" x1="586.38" y1="247.35" x2="587.26" y2="251.43" />
<text class="station-label" x="576.60" y="260.01" text-anchor="start">AntFarm</text>
<text class="station-dev-na" x="576.60" y="270.01" text-anchor="start"><tspan class="station-dev-neg">(-2.1)</tspan><tspan fill="#444444"> (-43min)</tspan></text>
<rect class="station" x="859.57" y="332.38" width="6" height="6" />
<line class="barb-shaft" x1="862.57" y1="335.38" x2="863.20" y2="353.37" />
<line class="barb-feather" x1="863.20" y1="353.37" x2="859.16" y2="352.31" />
<text class="station-label" x="868.57" y="339.38" text-anchor="start">Montecito</text>
<text class="station-dev-na" x="868.57" y="349.38" text-anchor="start"><tspan class="station-dev-pos">(+0.9)</tspan><tspan fill="#444444"> (+19min)</tspan></text>
<rect class="station" x="821.47" y="346.18" width="6" height="6" />
<line class="barb-shaft" x1="824.47" y1="349.18" x2="835.05" y2="363.74" />
<line class="barb-feather" x1="835.05" y1="363.74" x2="831.11" y2="365.12" />
<text class="station-label" x="830.47" y="365.18" text-anchor="start">SM Pass</text>
<text class="station-dev-na" x="830.47" y="375.18" text-anchor="start"><tspan class="station-dev-pos">(+0.9)</tspan><tspan fill="#444444"> (+24min)</tspan></text>
<rect class="station" x="903.36" y="422.89" width="6" height="6" />
<line class="barb-shaft" x1="906.36" y1="425.89" x2="901.31" y2="443.17" />
<line class="barb-feather" x1="901.31" y1="443.17" x2="897.80" y2="440.89" />
<text class="station-label" x="912.36" y="429.89" text-anchor="start">Parma</text>
<text class="station-dev-na" x="912.36" y="439.89" text-anchor="start"><tspan class="station-dev-neg">(-0.2)</tspan><tspan fill="#444444"> (+5min)</tspan></text>
<rect class="station" x="1072.74" y="505.94" width="6" height="6" />
<line class="barb-shaft" x1="1075.74" y1="508.94" x2="1089.53" y2="520.51" />
<line class="barb-feather" x1="1089.53" y1="520.51" x2="1083.50" y2="524.59" />
<text class="station-label" x="1069.74" y="498.00" text-anchor="end">Airport</text>
<text class="station-dev-na" x="1069.74" y="508.00" text-anchor="end">(n/a)</text>
<line class="rass" x1="90" y1="562" x2="114" y2="562" />
<text class="label" x="120" y="566">RASS @ 11:55</text>
<line class="dalr" x1="310" y1="562" x2="334" y2="562" />
<text class="label" x="340" y="566">DALR (9.8 C/km)</text>
<text class="legend-h" x="90" y="596">Stations</text>
<text class="legend-row" x="90" y="612"><tspan>La Cumbre 1201m @ 12:40 - 7.8C, winds 175, 12g17mph, DALR dev </tspan><tspan fill="#c62828">VOR:+2.9C</tspan><tspan>; </tspan><tspan fill="#c62828">AntFarm:+2.9C</tspan><tspan>; </tspan><tspan fill="#c62828">Montecito:+0.8C</tspan><tspan>; </tspan><tspan fill="#c62828">SM Pass:+1.8C</tspan><tspan>; </tspan><tspan fill="#c62828">Parma:+2.7C</tspan><tspan>; </tspan><tspan fill="#c62828">Airport:+2.5C</tspan></text>
<text class="legend-row" x="90" y="626"><tspan>VOR 1070m @ 12:30 - 6.1C, winds 198, 8g15mph, DALR dev </tspan><tspan fill="#1565c0">AntFarm:-0.0C</tspan><tspan>; </tspan><tspan fill="#1565c0">Montecito:-2.1C</tspan><tspan>; </tspan><tspan fill="#1565c0">SM Pass:-1.2C</tspan><tspan>; </tspan><tspan fill="#1565c0">Parma:-0.2C</tspan><tspan>; </tspan><tspan fill="#1565c0">Airport:-0.4C</tspan></text>
<text class="legend-row" x="90" y="640"><tspan>AntFarm 718m @ 12:30 - 9.6C, winds 061, 6g13mph, DALR dev </tspan><tspan fill="#1565c0">Montecito:-2.1C</tspan><tspan>; </tspan><tspan fill="#1565c0">SM Pass:-1.1C</tspan><tspan>; </tspan><tspan fill="#1565c0">Parma:-0.2C</tspan><tspan>; </tspan><tspan fill="#1565c0">Airport:-0.4C</tspan></text>
<text class="legend-row" x="90" y="654"><tspan>Montecito 494m @ 11:47 - 13.9C, winds 178, 5g19mph, DALR dev </tspan><tspan fill="#c62828">SM Pass:+0.9C</tspan><tspan>; </tspan><tspan fill="#c62828">Parma:+1.9C</tspan><tspan>; </tspan><tspan fill="#c62828">Airport:+1.7C</tspan></text>
<text class="legend-row" x="90" y="668"><tspan>SM Pass 454m @ 12:06 - 13.3C, winds 144, 7g22mph, DALR dev </tspan><tspan fill="#c62828">Parma:+0.9C</tspan><tspan>; </tspan><tspan fill="#c62828">Airport:+0.8C</tspan></text>
<text class="legend-row" x="90" y="682"><tspan>Parma 238m @ 12:30 - 14.5C, winds 196, 4g9mph, DALR dev </tspan><tspan fill="#1565c0">Airport:-0.2C</tspan></text>
<text class="legend-row" x="90" y="696">Airport 3m @ 12:35 - 17.0C, winds 130, 10g18mph, DALR dev n/a</text>
</svg>