<svg xmlns="http://www.w3.org/2000/svg" width="1180" height="760" viewBox="0 0 1180 760">
<style>
  .axis { stroke: #202020; stroke-width: 1; }
  .grid { stroke: #dddddd; stroke-width: 1; }
  .title { font-family: Helvetica, Arial, sans-serif; font-size: 16px; font-weight: 600; fill: #111111; }
  .label { font-family: Helvetica, Arial, sans-serif; font-size: 12px; fill: #222222; }
  .legend-h { font-family: Helvetica, Arial, sans-serif; font-size: 12px; font-weight: 600; fill: #222222; }
  .legend-row { font-family: Helvetica, Arial, sans-serif; font-size: 11px; fill: #333333; }
  .rass { fill: none; stroke: #000000; stroke-width: 2; }
  .dalr { fill: none; stroke: #000000; stroke-width: 1.5; stroke-dasharray: 6 4; stroke-opacity: 0.45; }
  .rass-point { fill: #0077b6; }
  .station { fill: #f4a261; stroke: #8b4c12; stroke-width: 1; }
  .barb-shaft { stroke: #1f2937; stroke-width: 1.3; }
  .barb-feather { stroke: #1f2937; stroke-width: 1.2; }
  .barb-flag { fill: #1f2937; stroke: #1f2937; stroke-width: 1; }
  .station-label { font-family: Helvetica, Arial, sans-serif; font-size: 11px; fill: #444444; }
  .station-dev-pos { font-family: Helvetica, Arial, sans-serif; font-size: 10px; fill: #c62828; }
  .station-dev-neg { font-family: Helvetica, Arial, sans-serif; font-size: 10px; fill: #1565c0; }
  .station-dev-na { font-family: Helvetica, Arial, sans-serif; font-size: 10px; fill: #666666; }
  .rass-dev-pos { font-family: Helvetica, Arial, sans-serif; font-size: 9px; fill: #c62828; }
  .rass-dev-neg { font-family: Helvetica, Arial, sans-serif; font-size: 9px; fill: #1565c0; }
  .rass-dev-na { font-family: Helvetica, Arial, sans-serif; font-size: 9px; fill: #666666; }
</style>
<rect x="0" y="0" width="1180" height="760" fill="#ffffff" />
<text class="title" x="90" y="28">Estimated LCL @ VOR: missing - winds 181, 9g17mph</text>
<line class="grid" x1="90" y1="510.00" x2="1110" y2="510.00" />
<text class="label" x="82" y="514.00" text-anchor="end">0</text>
<line class="grid" x1="90" y1="452.50" x2="1110" y2="452.50" />
<text class="label" x="82" y="456.50" text-anchor="end">500</text>
<line class="grid" x1="90" y1="395.00" x2="1110" y2="395.00" />
<text class="label" x="82" y="399.00" text-anchor="end">1000</text>
<line class="grid" x1="90" y1="337.50" x2="1110" y2="337.50" />
<text class="label" x="82" y="341.50" text-anchor="end">1500</text>
<line class="grid" x1="90" y1="280.00" x2="1110" y2="280.00" />
<text class="label" x="82" y="284.00" text-anchor="end">2000</text>
<line class="grid" x1="90" y1="222.50" x2="1110" y2="222.50" />
<text class="label" x="82" y="226.50" text-anchor="end">2500</text>
<line class="grid" x1="90" y1="165.00" x2="1110" y2="165.00" />
<text class="label" x="82" y="169.00" text-anchor="end">3000</text>
<line class="grid" x1="90" y1="107.50" x2="1110" y2="107.50" />
<text class="label" x="82" y="111.50" text-anchor="end">3500</text>
<line class="grid" x1="90" y1="50.00" x2="1110" y2="50.00" />
<text class="label" x="82" y="54.00" text-anchor="end">4000</text>
<line class="grid" x1="175.93" y1="50" x2="175.93" y2="510" />
<text class="label" x="175.93" y="528" text-anchor="middle">40.0</text>
<line class="grid" x1="401.59" y1="50" x2="401.59" y2="510" />
<text class="label" x="401.59" y="528" text-anchor="middle">45.0</text>
<line class="grid" x1="627.26" y1="50" x2="627.26" y2="510" />
<text class="label" x="627.26" y="528" text-anchor="middle">50.0</text>
<line class="grid" x1="852.92" y1="50" x2="852.92" y2="510" />
<text class="label" x="852.92" y="528" text-anchor="middle">55.0</text>
<line class="grid" x1="1078.58" y1="50" x2="1078.58" y2="510" />
<text class="label" x="1078.58" y="528" text-anchor="middle">60.0</text>
<line class="axis" x1="90" y1="50" x2="90" y2="510" />
<line class="axis" x1="90" y1="510" x2="1110" y2="510" />
<text class="label" x="600.00" y="546" text-anchor="middle">Temperature (F)</text>
<text class="label" x="26" y="280.00" text-anchor="middle" transform="rotate(-90 26 280.00)">Altitude (ft)</text>
<path class="rass" d="M927.51,434.54 L896.56,396.81 L858.22,359.08 L826.53,321.35 L742.37,283.62 L643.26,245.89 L525.06,208.16 L467.21,170.43 L425.70,132.70 L369.57,94.97" />
<path class="dalr" d="M1087.43,510.00 L112.57,50.00" />
<circle class="rass-point" cx="927.51" cy="434.54" r="2" />
<text class="rass-dev-na" x="933.51" y="431.54" text-anchor="start">(n/a)</text>
<circle class="rass-point" cx="896.56" cy="396.81" r="2" />
<text class="rass-dev-pos" x="890.56" y="393.81" text-anchor="end">(+1.1)</text>
<circle class="rass-point" cx="858.22" cy="359.08" r="2" />
<text class="rass-dev-pos" x="864.22" y="356.08" text-anchor="start">(+0.9)</text>
<circle class="rass-point" cx="826.53" cy="321.35" r="2" />
<text class="rass-dev-pos" x="820.53" y="318.35" text-anchor="end">(+1.1)</text>
<circle class="rass-point" cx="742.37" cy="283.62" r="2" />
<text class="rass-dev-neg" x="748.37" y="280.62" text-anchor="start">(-0.1)</text>
<circle class="rass-point" cx="643.26" cy="245.89" r="2" />
<text class="rass-dev-neg" x="637.26" y="242.89" text-anchor="end">(-0.4)</text>
<circle class="rass-point" cx="525.06" cy="208.16" r="2" />
<text class="rass-dev-neg" x="531.06" y="205.16" text-anchor="start">(-0.8)</text>
<circle class="rass-point" cx="467.21" cy="170.43" r="2" />
<text class="rass-dev-pos" x="461.21" y="167.43" text-anchor="end">(+0.5)</text>
<circle class="rass-point" cx="425.70" cy="132.70" r="2" />
<text class="rass-dev-pos" x="431.70" y="129.70" text-anchor="start">(+0.9)</text>
<circle class="rass-point" cx="369.57" cy="94.97" r="2" />
<text class="rass-dev-pos" x="363.57" y="91.97" text-anchor="end">(+0.5)</text>
<rect class="station" x="263.19" y="53.87" width="6" height="6" />
<line class="barb-shaft" x1="266.19" y1="56.87" x2="267.45" y2="74.82" />
<line class="barb-feather" x1="267.45" y1="74.82" x2="260.33" y2="73.32" />
<line class="barb-feather" x1="267.17" y1="70.83" x2="263.10" y2="69.91" />
<text class="station-label" x="272.19" y="64.00" text-anchor="start">La Cumbre</text>
<text class="station-dev-na" x="272.19" y="74.00" text-anchor="start"><tspan class="station-dev-pos">(+4.1)</tspan><tspan fill="#444444"> (-17min)</tspan></text>
<rect class="station" x="466.33" y="236.18" width="6" height="6" />
<line class="barb-shaft" x1="469.33" y1="239.18" x2="484.67" y2="229.77" />
<line class="barb-feather" x1="484.67" y1="229.77" x2="486.63" y2="236.79" />
<text class="station-label" x="475.33" y="243.18" text-anchor="start">AntFarm</text>
<text class="station-dev-na" x="475.33" y="253.18" text-anchor="start"><tspan class="station-dev-pos">(+0.5)</tspan><tspan fill="#444444"> (-33min)</tspan></text>
<rect class="station" x="624.25" y="320.80" width="6" height="6" />
<line class="barb-shaft" x1="627.25" y1="323.80" x2="643.70" y2="316.48" />
<line class="barb-feather" x1="643.70" y1="316.48" x2="644.23" y2="320.63" />
<text class="station-label" x="633.25" y="327.80" text-anchor="start">Montecito</text>
<text class="station-dev-na" x="633.25" y="337.80" text-anchor="start"><tspan class="station-dev-pos">(+0.7)</tspan><tspan fill="#444444"> (+19min)</tspan></text>
<rect class="station" x="624.25" y="335.52" width="6" height="6" />
<line class="barb-shaft" x1="627.25" y1="338.52" x2="644.64" y2="343.18" />
<line class="barb-feather" x1="644.64" y1="343.18" x2="642.45" y2="346.73" />
<text class="station-label" x="633.25" y="354.52" text-anchor="start">SM Pass</text>
<text class="station-dev-na" x="633.25" y="364.52" text-anchor="start"><tspan class="station-dev-pos">(+0.8)</tspan><tspan fill="#444444"> (+14min)</tspan></text>
<rect class="station" x="759.68" y="417.32" width="6" height="6" />
<circle class="barb-shaft" cx="762.68" cy="420.32" r="2.5" fill="none" />
<text class="station-label" x="768.68" y="424.32" text-anchor="start">Parma</text>
<text class="station-dev-na" x="768.68" y="434.32" text-anchor="start"><tspan class="station-dev-pos">(+1.8)</tspan><tspan fill="#444444"> (+10min)</tspan></text>
<rect class="station" x="867.97" y="505.87" width="6" height="6" />
<line class="barb-shaft" x1="870.97" y1="508.87" x2="888.70" y2="505.74" />
<line class="barb-feather" x1="888.70" y1="505.74" x2="888.21" y2="509.89" />
<text class="station-label" x="876.97" y="498.00" text-anchor="start">Airport</text>
<text class="station-dev-na" x="876.97" y="508.00" text-anchor="start">(n/a)</text>
<line class="rass" x1="90" y1="562" x2="114" y2="562" />
<text class="label" x="120" y="566">RASS @ 18:55</text>
<line class="dalr" x1="310" y1="562" x2="334" y2="562" />
<text class="label" x="340" y="566">DALR (5.4 F/1000 ft)</text>
<text class="legend-h" x="90" y="596">Stations</text>
<text class="legend-row" x="90" y="612"><tspan>La Cumbre 3940ft @ 19:37 - 42.0F, winds 176, 16g21mph, DALR dev </tspan><tspan fill="#c62828">AntFarm:+4.1F</tspan><tspan>; </tspan><tspan fill="#c62828">Montecito:+4.5F</tspan><tspan>; </tspan><tspan fill="#c62828">SM Pass:+5.2F</tspan><tspan>; </tspan><tspan fill="#c62828">Parma:+6.1F</tspan><tspan>; </tspan><tspan fill="#c62828">Airport:+7.8F</tspan></text>
<text class="legend-row" x="90" y="626">VOR 3510ft @ 19:20 - temp missing, winds 181, 9g17mph, DALR dev missing</text>
<text class="legend-row" x="90" y="640"><tspan>AntFarm 2355ft @ 19:20 - 46.5F, winds 058, 10g14mph, DALR dev </tspan><tspan fill="#c62828">Montecito:+0.5F</tspan><tspan>; </tspan><tspan fill="#c62828">SM Pass:+1.2F</tspan><tspan>; </tspan><tspan fill="#c62828">Parma:+2.0F</tspan><tspan>; </tspan><tspan fill="#c62828">Airport:+3.8F</tspan></text>
<text class="legend-row" x="90" y="654"><tspan>Montecito 1619ft @ 18:47 - 50.0F, winds 066, 5g11mph, DALR dev </tspan><tspan fill="#c62828">SM Pass:+0.7F</tspan><tspan>; </tspan><tspan fill="#c62828">Parma:+1.5F</tspan><tspan>; </tspan><tspan fill="#c62828">Airport:+3.3F</tspan></text>
<text class="legend-row" x="90" y="668"><tspan>SM Pass 1491ft @ 19:06 - 50.0F, winds 105, 7g14mph, DALR dev </tspan><tspan fill="#c62828">Parma:+0.8F</tspan><tspan>; </tspan><tspan fill="#c62828">Airport:+2.6F</tspan></text>
<text class="legend-row" x="90" y="682"><tspan>Parma 780ft @ 19:20 - 53.0F, winds 236, 1g2mph, DALR dev </tspan><tspan fill="#c62828">Airport:+1.8F</tspan></text>
<text class="legend-row" x="90" y="696">Airport 10ft @ 19:30 - 55.4F, winds 080, 8g18mph, DALR dev n/a</text>
</svg>