<svg xmlns="http://www.w3.org/2000/svg" width="1180" height="760" viewBox="0 0 1180 760">
<style>
  .axis { stroke: #202020; stroke-width: 1; }
  .grid { stroke: #dddddd; stroke-width: 1; }
  .title { font-family: Helvetica, Arial, sans-serif; font-size: 16px; font-weight: 600; fill: #111111; }
  .label { font-family: Helvetica, Arial, sans-serif; font-size: 12px; fill: #222222; }
  .legend-h { font-family: Helvetica, Arial, sans-serif; font-size: 12px; font-weight: 600; fill: #222222; }
  .legend-row { font-family: Helvetica, Arial, sans-serif; font-size: 11px; fill: #333333; }
  .rass { fill: none; stroke: #000000; stroke-width: 2; }
  .dalr { fill: none; stroke: #000000; stroke-width: 1.5; stroke-dasharray: 6 4; stroke-opacity: 0.45; }
  .rass-point { fill: #0077b6; }
  .station { fill: #f4a261; stroke: #8b4c12; stroke-width: 1; }
  .barb-shaft { stroke: #1f2937; stroke-width: 1.3; }
  .barb-feather { stroke: #1f2937; stroke-width: 1.2; }
  .barb-flag { fill: #1f2937; stroke: #1f2937; stroke-width: 1; }
  .station-label { font-family: Helvetica, Arial, sans-serif; font-size: 11px; fill: #444444; }
  .station-dev-pos { font-family: Helvetica, Arial, sans-serif; font-size: 10px; fill: #c62828; }
  .station-dev-neg { font-family: Helvetica, Arial, sans-serif; font-size: 10px; fill: #1565c0; }
  .station-dev-na { font-family: Helvetica, Arial, sans-serif; font-size: 10px; fill: #666666; }
  .rass-dev-pos { font-family: Helvetica, Arial, sans-serif; font-size: 9px; fill: #c62828; }
  .rass-dev-neg { font-family: Helvetica, Arial, sans-serif; font-size: 9px; fill: #1565c0; }
  .rass-dev-na { font-family: Helvetica, Arial, sans-serif; font-size: 9px; fill: #666666; }
</style>
<rect x="0" y="0" width="1180" height="760" fill="#ffffff" />
<text class="title" x="90" y="28">Estimated LCL @ VOR: 3545 ft - winds 174, 8g19mph (17:40 PST)</text>
<line class="grid" x1="90" y1="510.00" x2="1110" y2="510.00" />
<text class="label" x="82" y="514.00" text-anchor="end">0</text>
<line class="grid" x1="90" y1="452.50" x2="1110" y2="452.50" />
<text class="label" x="82" y="456.50" text-anchor="end">500</text>
<line class="grid" x1="90" y1="395.00" x2="1110" y2="395.00" />
<text class="label" x="82" y="399.00" text-anchor="end">1000</text>
<line class="grid" x1="90" y1="337.50" x2="1110" y2="337.50" />
<text class="label" x="82" y="341.50" text-anchor="end">1500</text>
<line class="grid" x1="90" y1="280.00" x2="1110" y2="280.00" />
<text class="label" x="82" y="284.00" text-anchor="end">2000</text>
<line class="grid" x1="90" y1="222.50" x2="1110" y2="222.50" />
<text class="label" x="82" y="226.50" text-anchor="end">2500</text>
<line class="grid" x1="90" y1="165.00" x2="1110" y2="165.00" />
<text class="label" x="82" y="169.00" text-anchor="end">3000</text>
<line class="grid" x1="90" y1="107.50" x2="1110" y2="107.50" />
<text class="label" x="82" y="111.50" text-anchor="end">3500</text>
<line class="grid" x1="90" y1="50.00" x2="1110" y2="50.00" />
<text class="label" x="82" y="54.00" text-anchor="end">4000</text>
<line class="grid" x1="167.97" y1="50" x2="167.97" y2="510" />
<text class="label" x="167.97" y="528" text-anchor="middle">40.0</text>
<line class="grid" x1="393.63" y1="50" x2="393.63" y2="510" />
<text class="label" x="393.63" y="528" text-anchor="middle">45.0</text>
<line class="grid" x1="619.29" y1="50" x2="619.29" y2="510" />
<text class="label" x="619.29" y="528" text-anchor="middle">50.0</text>
<line class="grid" x1="844.96" y1="50" x2="844.96" y2="510" />
<text class="label" x="844.96" y="528" text-anchor="middle">55.0</text>
<line class="grid" x1="1070.62" y1="50" x2="1070.62" y2="510" />
<text class="label" x="1070.62" y="528" text-anchor="middle">60.0</text>
<line class="axis" x1="90" y1="50" x2="90" y2="510" />
<line class="axis" x1="90" y1="510" x2="1110" y2="510" />
<text class="label" x="600.00" y="546" text-anchor="middle">Temperature (F)</text>
<text class="label" x="26" y="280.00" text-anchor="middle" transform="rotate(-90 26 280.00)">Altitude (ft)</text>
<path class="rass" d="M927.51,434.54 L881.13,396.81 L849.53,359.08 L818.57,321.35 L787.62,283.62 L744.16,245.89 L680.14,208.16 L605.00,170.43 L542.60,132.70 L512.22,94.97 L496.70,57.24" />
<path class="dalr" d="M1087.43,510.00 L112.57,50.00" />
<circle class="rass-point" cx="927.51" cy="434.54" r="2" />
<text class="rass-dev-na" x="933.51" y="431.54" text-anchor="start">(n/a)</text>
<circle class="rass-point" cx="881.13" cy="396.81" r="2" />
<text class="rass-dev-pos" x="875.13" y="393.81" text-anchor="end">(+0.7)</text>
<circle class="rass-point" cx="849.53" cy="359.08" r="2" />
<text class="rass-dev-pos" x="855.53" y="356.08" text-anchor="start">(+1.1)</text>
<circle class="rass-point" cx="818.57" cy="321.35" r="2" />
<text class="rass-dev-pos" x="812.57" y="318.35" text-anchor="end">(+1.1)</text>
<circle class="rass-point" cx="787.62" cy="283.62" r="2" />
<text class="rass-dev-pos" x="793.62" y="280.62" text-anchor="start">(+1.1)</text>
<circle class="rass-point" cx="744.16" cy="245.89" r="2" />
<text class="rass-dev-pos" x="738.16" y="242.89" text-anchor="end">(+0.8)</text>
<circle class="rass-point" cx="680.14" cy="208.16" r="2" />
<text class="rass-dev-pos" x="686.14" y="205.16" text-anchor="start">(+0.4)</text>
<circle class="rass-point" cx="605.00" cy="170.43" r="2" />
<text class="rass-dev-pos" x="599.00" y="167.43" text-anchor="end">(+0.1)</text>
<circle class="rass-point" cx="542.60" cy="132.70" r="2" />
<text class="rass-dev-pos" x="548.60" y="129.70" text-anchor="start">(+0.4)</text>
<circle class="rass-point" cx="512.22" cy="94.97" r="2" />
<text class="rass-dev-pos" x="506.22" y="91.97" text-anchor="end">(+1.1)</text>
<circle class="rass-point" cx="496.70" cy="57.24" r="2" />
<text class="rass-dev-pos" x="502.70" y="58.00" text-anchor="start">(+1.4)</text>
<rect class="station" x="390.63" y="53.87" width="6" height="6" />
<line class="barb-shaft" x1="393.63" y1="56.87" x2="405.20" y2="70.66" />
<line class="barb-feather" x1="405.20" y1="70.66" x2="398.55" y2="73.62" />
<text class="station-label" x="399.63" y="64.00" text-anchor="start">La Cumbre</text>
<text class="station-dev-na" x="399.63" y="74.00" text-anchor="start"><tspan class="station-dev-pos">(+3.0)</tspan><tspan fill="#444444"> (17:58)</tspan></text>
<rect class="station" x="359.90" y="103.33" width="6" height="6" />
<line class="barb-shaft" x1="362.90" y1="106.33" x2="364.88" y2="124.22" />
<line class="barb-feather" x1="364.88" y1="124.22" x2="360.77" y2="123.47" />
<text class="station-label" x="368.90" y="110.33" text-anchor="start">VOR</text>
<text class="station-dev-na" x="368.90" y="120.33" text-anchor="start"><tspan class="station-dev-pos">(+2.2)</tspan><tspan fill="#444444"> (17:40)</tspan></text>
<rect class="station" x="751.72" y="335.52" width="6" height="6" />
<line class="barb-shaft" x1="754.72" y1="338.52" x2="764.78" y2="353.44" />
<line class="barb-feather" x1="764.78" y1="353.44" x2="760.80" y2="354.68" />
<text class="station-label" x="760.72" y="342.52" text-anchor="start">SM Pass</text>
<text class="station-dev-na" x="760.72" y="352.52" text-anchor="start"><tspan class="station-dev-pos">(+0.9)</tspan><tspan fill="#444444"> (17:06)</tspan></text>
<rect class="station" x="889.83" y="417.32" width="6" height="6" />
<circle class="barb-shaft" cx="892.83" cy="420.32" r="2.5" fill="none" />
<text class="station-label" x="898.83" y="424.32" text-anchor="start">Parma</text>
<text class="station-dev-na" x="898.83" y="434.32" text-anchor="start"><tspan class="station-dev-pos">(+3.0)</tspan><tspan fill="#444444"> (17:40)</tspan></text>
<rect class="station" x="870.41" y="410.07" width="6" height="6" />
<line class="barb-shaft" x1="873.41" y1="413.07" x2="879.57" y2="429.99" />
<line class="barb-feather" x1="879.57" y1="429.99" x2="875.40" y2="430.23" />
<text class="station-label" x="879.41" y="453.07" text-anchor="start">Romero Cyn</text>
<text class="station-dev-na" x="879.41" y="463.07" text-anchor="start"><tspan class="station-dev-neg">(-0.1)</tspan><tspan fill="#444444"> (17:40)</tspan></text>
<rect class="station" x="941.25" y="505.87" width="6" height="6" />
<line class="barb-shaft" x1="944.25" y1="508.87" x2="926.52" y2="511.99" />
<line class="barb-feather" x1="926.52" y1="511.99" x2="927.01" y2="507.85" />
<text class="station-label" x="950.25" y="498.00" text-anchor="start">Airport</text>
<text class="station-dev-na" x="950.25" y="508.00" text-anchor="start"><tspan class="station-dev-na">(n/a)</tspan><tspan fill="#444444"> (17:50)</tspan></text>
<line class="rass" x1="90" y1="562" x2="114" y2="562" />
<text class="label" x="120" y="566">RASS @ 16:55</text>
<line class="dalr" x1="310" y1="562" x2="334" y2="562" />
<text class="label" x="340" y="566">DALR (5.4 F/1000 ft)</text>
<text class="legend-h" x="90" y="596">Stations</text>
<text class="legend-row" x="90" y="612"><tspan>La Cumbre @ 17:58 - 45.0F, winds 140, 13g21mph, DALR dev </tspan><tspan fill="#c62828">VOR:+3.0F</tspan><tspan>; </tspan><tspan fill="#c62828">AntFarm:+4.5F</tspan><tspan>; </tspan><tspan fill="#c62828">Montecito:+5.5F</tspan><tspan>; </tspan><tspan fill="#c62828">SM Pass:+5.2F</tspan><tspan>; </tspan><tspan fill="#c62828">Romero Cyn:+6.1F</tspan><tspan>; </tspan><tspan fill="#c62828">Parma:+6.0F</tspan><tspan>; </tspan><tspan fill="#c62828">Airport:+9.0F</tspan></text>
<text class="legend-row" x="90" y="626"><tspan>VOR @ 17:40 - 44.3F, winds 174, 8g19mph, DALR dev </tspan><tspan fill="#c62828">AntFarm:+1.5F</tspan><tspan>; </tspan><tspan fill="#c62828">Montecito:+2.5F</tspan><tspan>; </tspan><tspan fill="#c62828">SM Pass:+2.2F</tspan><tspan>; </tspan><tspan fill="#c62828">Romero Cyn:+3.1F</tspan><tspan>; </tspan><tspan fill="#c62828">Parma:+3.0F</tspan><tspan>; </tspan><tspan fill="#c62828">Airport:+6.0F</tspan></text>
<text class="legend-row" x="90" y="640"><tspan>AntFarm @ 17:40 - 49.1F, winds 057, 7g10mph, DALR dev </tspan><tspan fill="#c62828">Montecito:+1.1F</tspan><tspan>; </tspan><tspan fill="#c62828">SM Pass:+0.8F</tspan><tspan>; </tspan><tspan fill="#c62828">Romero Cyn:+1.6F</tspan><tspan>; </tspan><tspan fill="#c62828">Parma:+1.5F</tspan><tspan>; </tspan><tspan fill="#c62828">Airport:+4.6F</tspan></text>
<text class="legend-row" x="90" y="654"><tspan>Montecito @ 16:47 - 52.0F, winds 203, 3g12mph, DALR dev </tspan><tspan fill="#1565c0">SM Pass:-0.3F</tspan><tspan>; </tspan><tspan fill="#c62828">Romero Cyn:+0.6F</tspan><tspan>; </tspan><tspan fill="#c62828">Parma:+0.5F</tspan><tspan>; </tspan><tspan fill="#c62828">Airport:+3.5F</tspan></text>
<text class="legend-row" x="90" y="668"><tspan>SM Pass @ 17:06 - 53.0F, winds 146, 5g12mph, DALR dev </tspan><tspan fill="#c62828">Romero Cyn:+0.9F</tspan><tspan>; </tspan><tspan fill="#c62828">Parma:+0.8F</tspan><tspan>; </tspan><tspan fill="#c62828">Airport:+3.8F</tspan></text>
<text class="legend-row" x="90" y="682"><tspan>Parma @ 17:40 - 56.1F, winds 196, 1g4mph, DALR dev </tspan><tspan fill="#c62828">Airport:+3.0F</tspan></text>
<text class="legend-row" x="90" y="696"><tspan>Romero Cyn @ 17:40 - 55.6F, winds 160, 4g7mph, DALR dev </tspan><tspan fill="#1565c0">Parma:-0.1F</tspan><tspan>; </tspan><tspan fill="#c62828">Airport:+2.9F</tspan></text>
<text class="legend-row" x="90" y="710">Airport @ 17:50 - 57.2F, winds 260, 6g17mph, DALR dev n/a</text>
</svg>