<svg xmlns="http://www.w3.org/2000/svg" width="1180" height="760" viewBox="0 0 1180 760">
<style>
  .axis { stroke: #202020; stroke-width: 1; }
  .grid { stroke: #dddddd; stroke-width: 1; }
  .title { font-family: Helvetica, Arial, sans-serif; font-size: 16px; font-weight: 600; fill: #111111; }
  .label { font-family: Helvetica, Arial, sans-serif; font-size: 12px; fill: #222222; }
  .legend-h { font-family: Helvetica, Arial, sans-serif; font-size: 12px; font-weight: 600; fill: #222222; }
  .legend-row { font-family: Helvetica, Arial, sans-serif; font-size: 11px; fill: #333333; }
  .rass { fill: none; stroke: #000000; stroke-width: 2; }
  .dalr { fill: none; stroke: #000000; stroke-width: 1.5; stroke-dasharray: 6 4; stroke-opacity: 0.45; }
  .rass-point { fill: #0077b6; }
  .station { fill: #f4a261; stroke: #8b4c12; stroke-width: 1; }
  .barb-shaft { stroke: #1f2937; stroke-width: 1.3; }
  .barb-feather { stroke: #1f2937; stroke-width: 1.2; }
  .barb-flag { fill: #1f2937; stroke: #1f2937; stroke-width: 1; }
  .station-label { font-family: Helvetica, Arial, sans-serif; font-size: 11px; fill: #444444; }
  .station-dev-pos { font-family: Helvetica, Arial, sans-serif; font-size: 10px; fill: #c62828; }
  .station-dev-neg { font-family: Helvetica, Arial, sans-serif; font-size: 10px; fill: #1565c0; }
  .station-dev-na { font-family: Helvetica, Arial, sans-serif; font-size: 10px; fill: #666666; }
  .rass-dev-pos { font-family: Helvetica, Arial, sans-serif; font-size: 9px; fill: #c62828; }
  .rass-dev-neg { font-family: Helvetica, Arial, sans-serif; font-size: 9px; fill: #1565c0; }
  .rass-dev-na { font-family: Helvetica, Arial, sans-serif; font-size: 9px; fill: #666666; }
</style>
<rect x="0" y="0" width="1180" height="760" fill="#ffffff" />
<text class="title" x="90" y="28">Estimated LCL @ VOR: 4416 ft - winds 117, 5g11mph (09:40 PST)</text>
<line class="grid" x1="90" y1="510.00" x2="1110" y2="510.00" />
<text class="label" x="82" y="514.00" text-anchor="end">0</text>
<line class="grid" x1="90" y1="452.50" x2="1110" y2="452.50" />
<text class="label" x="82" y="456.50" text-anchor="end">500</text>
<line class="grid" x1="90" y1="395.00" x2="1110" y2="395.00" />
<text class="label" x="82" y="399.00" text-anchor="end">1000</text>
<line class="grid" x1="90" y1="337.50" x2="1110" y2="337.50" />
<text class="label" x="82" y="341.50" text-anchor="end">1500</text>
<line class="grid" x1="90" y1="280.00" x2="1110" y2="280.00" />
<text class="label" x="82" y="284.00" text-anchor="end">2000</text>
<line class="grid" x1="90" y1="222.50" x2="1110" y2="222.50" />
<text class="label" x="82" y="226.50" text-anchor="end">2500</text>
<line class="grid" x1="90" y1="165.00" x2="1110" y2="165.00" />
<text class="label" x="82" y="169.00" text-anchor="end">3000</text>
<line class="grid" x1="90" y1="107.50" x2="1110" y2="107.50" />
<text class="label" x="82" y="111.50" text-anchor="end">3500</text>
<line class="grid" x1="90" y1="50.00" x2="1110" y2="50.00" />
<text class="label" x="82" y="54.00" text-anchor="end">4000</text>
<line class="grid" x1="159.01" y1="50" x2="159.01" y2="510" />
<text class="label" x="159.01" y="528" text-anchor="middle">40.0</text>
<line class="grid" x1="382.25" y1="50" x2="382.25" y2="510" />
<text class="label" x="382.25" y="528" text-anchor="middle">45.0</text>
<line class="grid" x1="605.49" y1="50" x2="605.49" y2="510" />
<text class="label" x="605.49" y="528" text-anchor="middle">50.0</text>
<line class="grid" x1="828.72" y1="50" x2="828.72" y2="510" />
<text class="label" x="828.72" y="528" text-anchor="middle">55.0</text>
<line class="grid" x1="1051.96" y1="50" x2="1051.96" y2="510" />
<text class="label" x="1051.96" y="528" text-anchor="middle">60.0</text>
<line class="axis" x1="90" y1="50" x2="90" y2="510" />
<line class="axis" x1="90" y1="510" x2="1110" y2="510" />
<text class="label" x="600.00" y="546" text-anchor="middle">Temperature (F)</text>
<text class="label" x="26" y="280.00" text-anchor="middle" transform="rotate(-90 26 280.00)">Altitude (ft)</text>
<path class="rass" d="M918.51,434.54 L880.25,396.81 L834.61,359.08 L739.94,321.35 L666.80,283.62 L628.87,245.89" />
<path class="dalr" d="M1076.71,510.00 L112.32,50.00" />
<circle class="rass-point" cx="918.51" cy="434.54" r="2" />
<text class="rass-dev-na" x="924.51" y="431.54" text-anchor="start">(n/a)</text>
<circle class="rass-point" cx="880.25" cy="396.81" r="2" />
<text class="rass-dev-pos" x="874.25" y="393.81" text-anchor="end">(+0.9)</text>
<circle class="rass-point" cx="834.61" cy="359.08" r="2" />
<text class="rass-dev-pos" x="840.61" y="356.08" text-anchor="start">(+0.7)</text>
<circle class="rass-point" cx="739.94" cy="321.35" r="2" />
<text class="rass-dev-neg" x="733.94" y="318.35" text-anchor="end">(-0.3)</text>
<circle class="rass-point" cx="666.80" cy="283.62" r="2" />
<text class="rass-dev-pos" x="672.80" y="280.62" text-anchor="start">(+0.1)</text>
<circle class="rass-point" cx="628.87" cy="245.89" r="2" />
<text class="rass-dev-pos" x="622.87" y="242.89" text-anchor="end">(+0.9)</text>
<rect class="station" x="334.60" y="53.87" width="6" height="6" />
<line class="barb-shaft" x1="337.60" y1="56.87" x2="346.87" y2="72.30" />
<line class="barb-feather" x1="346.87" y1="72.30" x2="342.82" y2="73.33" />
<text class="station-label" x="343.60" y="64.00" text-anchor="start">La Cumbre</text>
<text class="station-dev-na" x="343.60" y="74.00" text-anchor="start"><tspan class="station-dev-pos">(+2.8)</tspan><tspan fill="#444444"> (-15min)</tspan></text>
<rect class="station" x="315.42" y="103.33" width="6" height="6" />
<line class="barb-shaft" x1="318.42" y1="106.33" x2="334.42" y2="114.59" />
<line class="barb-feather" x1="334.42" y1="114.59" x2="331.51" y2="117.59" />
<text class="station-label" x="324.42" y="110.33" text-anchor="start">VOR</text>
<text class="station-dev-na" x="324.42" y="120.33" text-anchor="start"><tspan class="station-dev-pos">(+1.9)</tspan><tspan fill="#444444"> (+0min)</tspan></text>
<rect class="station" x="510.55" y="236.18" width="6" height="6" />
<line class="barb-shaft" x1="513.55" y1="239.18" x2="529.74" y2="231.32" />
<line class="barb-feather" x1="529.74" y1="231.32" x2="531.00" y2="238.49" />
<line class="barb-feather" x1="526.14" y1="233.06" x2="526.81" y2="237.19" />
<text class="station-label" x="519.55" y="243.18" text-anchor="start">AntFarm</text>
<text class="station-dev-na" x="519.55" y="253.18" text-anchor="start"><tspan class="station-dev-pos">(+1.6)</tspan><tspan fill="#444444"> (-34min)</tspan></text>
<rect class="station" x="647.17" y="335.52" width="6" height="6" />
<line class="barb-shaft" x1="650.17" y1="338.52" x2="668.16" y2="338.83" />
<line class="barb-feather" x1="668.16" y1="338.83" x2="666.04" y2="345.80" />
<text class="station-label" x="656.17" y="342.52" text-anchor="start">SM Pass</text>
<text class="station-dev-na" x="656.17" y="352.52" text-anchor="start"><tspan class="station-dev-neg">(-2.0)</tspan><tspan fill="#444444"> (+34min)</tspan></text>
<rect class="station" x="909.24" y="417.32" width="6" height="6" />
<circle class="barb-shaft" cx="912.24" cy="420.32" r="2.5" fill="none" />
<text class="station-label" x="918.24" y="424.32" text-anchor="start">Parma</text>
<text class="station-dev-na" x="918.24" y="434.32" text-anchor="start"><tspan class="station-dev-pos">(+0.2)</tspan><tspan fill="#444444"> (+5min)</tspan></text>
<rect class="station" x="1084.68" y="505.87" width="6" height="6" />
<line class="barb-shaft" x1="1087.68" y1="508.87" x2="1105.40" y2="511.99" />
<line class="barb-feather" x1="1105.40" y1="511.99" x2="1102.22" y2="518.54" />
<text class="station-label" x="1081.68" y="498.00" text-anchor="end">Airport</text>
<text class="station-dev-na" x="1081.68" y="508.00" text-anchor="end">(n/a)</text>
<line class="rass" x1="90" y1="562" x2="114" y2="562" />
<text class="label" x="120" y="566">RASS @ 08:55</text>
<line class="dalr" x1="310" y1="562" x2="334" y2="562" />
<text class="label" x="340" y="566">DALR (5.4 F/1000 ft)</text>
<text class="legend-h" x="90" y="596">Stations</text>
<text class="legend-row" x="90" y="612"><tspan>La Cumbre 3940ft @ 09:55 - 44.0F, winds 149, 5g15mph, DALR dev </tspan><tspan fill="#c62828">VOR:+2.8F</tspan><tspan>; </tspan><tspan fill="#c62828">AntFarm:+4.6F</tspan><tspan>; </tspan><tspan fill="#c62828">Montecito:+6.5F</tspan><tspan>; </tspan><tspan fill="#c62828">SM Pass:+6.2F</tspan><tspan>; </tspan><tspan fill="#c62828">Parma:+4.2F</tspan><tspan>; </tspan><tspan fill="#c62828">Airport:+4.4F</tspan></text>
<text class="legend-row" x="90" y="626"><tspan>VOR 3510ft @ 09:40 - 43.6F, winds 117, 5g11mph, DALR dev </tspan><tspan fill="#c62828">AntFarm:+1.9F</tspan><tspan>; </tspan><tspan fill="#c62828">Montecito:+3.8F</tspan><tspan>; </tspan><tspan fill="#c62828">SM Pass:+3.5F</tspan><tspan>; </tspan><tspan fill="#c62828">Parma:+1.4F</tspan><tspan>; </tspan><tspan fill="#c62828">Airport:+1.7F</tspan></text>
<text class="legend-row" x="90" y="640"><tspan>AntFarm 2355ft @ 09:40 - 47.9F, winds 064, 15g19mph, DALR dev </tspan><tspan fill="#c62828">Montecito:+1.9F</tspan><tspan>; </tspan><tspan fill="#c62828">SM Pass:+1.6F</tspan><tspan>; </tspan><tspan fill="#1565c0">Parma:-0.4F</tspan><tspan>; </tspan><tspan fill="#1565c0">Airport:-0.2F</tspan></text>
<text class="legend-row" x="90" y="654"><tspan>Montecito 1619ft @ 08:47 - 50.0F, winds 053, 5g10mph, DALR dev </tspan><tspan fill="#1565c0">SM Pass:-0.3F</tspan><tspan>; </tspan><tspan fill="#1565c0">Parma:-2.3F</tspan><tspan>; </tspan><tspan fill="#1565c0">Airport:-2.1F</tspan></text>
<text class="legend-row" x="90" y="668"><tspan>SM Pass 1491ft @ 09:06 - 51.0F, winds 091, 10g16mph, DALR dev </tspan><tspan fill="#1565c0">Parma:-2.0F</tspan><tspan>; </tspan><tspan fill="#1565c0">Airport:-1.8F</tspan></text>
<text class="legend-row" x="90" y="682"><tspan>Parma 780ft @ 09:40 - 56.9F, winds 215, 2g5mph, DALR dev </tspan><tspan fill="#c62828">Airport:+0.2F</tspan></text>
<text class="legend-row" x="90" y="696">Airport 10ft @ 09:45 - 60.8F, winds 100, 9g17mph, DALR dev n/a</text>
</svg>