<svg xmlns="http://www.w3.org/2000/svg" width="1180" height="760" viewBox="0 0 1180 760">
<style>
  .axis { stroke: #202020; stroke-width: 1; }
  .grid { stroke: #dddddd; stroke-width: 1; }
  .title { font-family: Helvetica, Arial, sans-serif; font-size: 16px; font-weight: 600; fill: #111111; }
  .label { font-family: Helvetica, Arial, sans-serif; font-size: 12px; fill: #222222; }
  .legend-h { font-family: Helvetica, Arial, sans-serif; font-size: 12px; font-weight: 600; fill: #222222; }
  .legend-row { font-family: Helvetica, Arial, sans-serif; font-size: 11px; fill: #333333; }
  .rass { fill: none; stroke: #000000; stroke-width: 2; }
  .dalr { fill: none; stroke: #000000; stroke-width: 1.5; stroke-dasharray: 6 4; stroke-opacity: 0.45; }
  .rass-point { fill: #0077b6; }
  .station { fill: #f4a261; stroke: #8b4c12; stroke-width: 1; }
  .barb-shaft { stroke: #1f2937; stroke-width: 1.3; }
  .barb-feather { stroke: #1f2937; stroke-width: 1.2; }
  .barb-flag { fill: #1f2937; stroke: #1f2937; stroke-width: 1; }
  .station-label { font-family: Helvetica, Arial, sans-serif; font-size: 11px; fill: #444444; }
  .station-dev-pos { font-family: Helvetica, Arial, sans-serif; font-size: 10px; fill: #c62828; }
  .station-dev-neg { font-family: Helvetica, Arial, sans-serif; font-size: 10px; fill: #1565c0; }
  .station-dev-na { font-family: Helvetica, Arial, sans-serif; font-size: 10px; fill: #666666; }
  .rass-dev-pos { font-family: Helvetica, Arial, sans-serif; font-size: 9px; fill: #c62828; }
  .rass-dev-neg { font-family: Helvetica, Arial, sans-serif; font-size: 9px; fill: #1565c0; }
  .rass-dev-na { font-family: Helvetica, Arial, sans-serif; font-size: 9px; fill: #666666; }
</style>
<rect x="0" y="0" width="1180" height="760" fill="#ffffff" />
<text class="title" x="90" y="28">Estimated LCL @ VOR: 1344 m - winds 202, 10g17mph (11:00 PST)</text>
<line class="grid" x1="90" y1="510.00" x2="1110" y2="510.00" />
<text class="label" x="82" y="514.00" text-anchor="end">0</text>
<line class="grid" x1="90" y1="439.23" x2="1110" y2="439.23" />
<text class="label" x="82" y="443.23" text-anchor="end">200</text>
<line class="grid" x1="90" y1="368.46" x2="1110" y2="368.46" />
<text class="label" x="82" y="372.46" text-anchor="end">400</text>
<line class="grid" x1="90" y1="297.69" x2="1110" y2="297.69" />
<text class="label" x="82" y="301.69" text-anchor="end">600</text>
<line class="grid" x1="90" y1="226.92" x2="1110" y2="226.92" />
<text class="label" x="82" y="230.92" text-anchor="end">800</text>
<line class="grid" x1="90" y1="156.15" x2="1110" y2="156.15" />
<text class="label" x="82" y="160.15" text-anchor="end">1000</text>
<line class="grid" x1="90" y1="85.38" x2="1110" y2="85.38" />
<text class="label" x="82" y="89.38" text-anchor="end">1200</text>
<line class="grid" x1="277.08" y1="50" x2="277.08" y2="510" />
<text class="label" x="277.08" y="528" text-anchor="middle">5.0</text>
<line class="grid" x1="639.22" y1="50" x2="639.22" y2="510" />
<text class="label" x="639.22" y="528" text-anchor="middle">10.0</text>
<line class="grid" x1="1001.36" y1="50" x2="1001.36" y2="510" />
<text class="label" x="1001.36" y="528" text-anchor="middle">15.0</text>
<line class="axis" x1="90" y1="50" x2="90" y2="510" />
<line class="axis" x1="90" y1="510" x2="1110" y2="510" />
<text class="label" x="600.00" y="546" text-anchor="middle">Temperature (C)</text>
<text class="label" x="26" y="280.00" text-anchor="middle" transform="rotate(-90 26 280.00)">Altitude (m)</text>
<path class="rass" d="M906.99,439.23 L886.27,403.85 L845.71,368.46 L747.86,333.08 L650.30,297.69 L587.29,262.31 L537.31,226.92 L508.63,191.54" />
<path class="dalr" d="M1048.94,510.00 L126.21,50.00" />
<circle class="rass-point" cx="906.99" cy="439.23" r="2" />
<text class="rass-dev-na" x="912.99" y="436.23" text-anchor="start">(n/a)</text>
<circle class="rass-point" cx="886.27" cy="403.85" r="2" />
<text class="rass-dev-pos" x="880.27" y="400.85" text-anchor="end">(+0.7)</text>
<circle class="rass-point" cx="845.71" cy="368.46" r="2" />
<text class="rass-dev-pos" x="851.71" y="365.46" text-anchor="start">(+0.4)</text>
<circle class="rass-point" cx="747.86" cy="333.08" r="2" />
<text class="rass-dev-neg" x="741.86" y="330.08" text-anchor="end">(-0.4)</text>
<circle class="rass-point" cx="650.30" cy="297.69" r="2" />
<text class="rass-dev-neg" x="656.30" y="294.69" text-anchor="start">(-0.4)</text>
<circle class="rass-point" cx="587.29" cy="262.31" r="2" />
<text class="rass-dev-pos" x="581.29" y="259.31" text-anchor="end">(+0.1)</text>
<circle class="rass-point" cx="537.31" cy="226.92" r="2" />
<text class="rass-dev-pos" x="543.31" y="223.92" text-anchor="start">(+0.3)</text>
<circle class="rass-point" cx="508.63" cy="191.54" r="2" />
<text class="rass-dev-pos" x="502.63" y="188.54" text-anchor="end">(+0.6)</text>
<rect class="station" x="555.74" y="82.03" width="6" height="6" />
<line class="barb-shaft" x1="558.74" y1="85.03" x2="562.79" y2="102.57" />
<line class="barb-feather" x1="562.79" y1="102.57" x2="555.52" y2="102.20" />
<line class="barb-feather" x1="561.89" y1="98.67" x2="557.73" y2="98.40" />
<text class="station-label" x="564.74" y="89.03" text-anchor="start">La Cumbre</text>
<text class="station-dev-na" x="564.74" y="99.03" text-anchor="start"><tspan class="station-dev-pos">(+2.7)</tspan><tspan fill="#444444"> (-12min)</tspan></text>
<rect class="station" x="454.35" y="128.42" width="6" height="6" />
<line class="barb-shaft" x1="457.35" y1="131.42" x2="450.73" y2="148.16" />
<line class="barb-feather" x1="450.73" y1="148.16" x2="444.96" y2="143.72" />
<text class="station-label" x="463.35" y="135.42" text-anchor="start">VOR</text>
<text class="station-dev-na" x="463.35" y="145.42" text-anchor="start"><tspan class="station-dev-pos">(+0.4)</tspan><tspan fill="#444444"> (+0min)</tspan></text>
<rect class="station" x="678.08" y="253.01" width="6" height="6" />
<line class="barb-shaft" x1="681.08" y1="256.01" x2="696.28" y2="246.36" />
<line class="barb-feather" x1="696.28" y1="246.36" x2="697.41" y2="250.38" />
<text class="station-label" x="687.08" y="260.01" text-anchor="start">AntFarm</text>
<text class="station-dev-na" x="687.08" y="270.01" text-anchor="start"><tspan class="station-dev-neg">(-1.7)</tspan><tspan fill="#444444"> (-13min)</tspan></text>
<rect class="station" x="958.09" y="332.38" width="6" height="6" />
<line class="barb-shaft" x1="961.09" y1="335.38" x2="952.36" y2="351.12" />
<line class="barb-feather" x1="952.36" y1="351.12" x2="949.45" y2="348.13" />
<text class="station-label" x="967.09" y="339.38" text-anchor="start">Montecito</text>
<text class="station-dev-na" x="967.09" y="349.38" text-anchor="start"><tspan class="station-dev-pos">(+1.7)</tspan><tspan fill="#444444"> (+13min)</tspan></text>
<rect class="station" x="1018.86" y="422.89" width="6" height="6" />
<line class="barb-shaft" x1="1021.86" y1="425.89" x2="1019.04" y2="443.67" />
<line class="barb-feather" x1="1019.04" y1="443.67" x2="1015.28" y2="441.86" />
<text class="station-label" x="1027.86" y="429.89" text-anchor="start">Parma</text>
<text class="station-dev-na" x="1027.86" y="439.89" text-anchor="start"><tspan class="station-dev-pos">(+1.6)</tspan><tspan fill="#444444"> (+0min)</tspan></text>
<rect class="station" x="1070.79" y="505.94" width="6" height="6" />
<line class="barb-shaft" x1="1073.79" y1="508.94" x2="1089.37" y2="517.94" />
<line class="barb-feather" x1="1089.37" y1="517.94" x2="1084.14" y2="523.00" />
<text class="station-label" x="1067.79" y="498.00" text-anchor="end">Airport</text>
<text class="station-dev-na" x="1067.79" y="508.00" text-anchor="end">(n/a)</text>
<line class="rass" x1="90" y1="562" x2="114" y2="562" />
<text class="label" x="120" y="566">RASS @ 10:55</text>
<line class="dalr" x1="310" y1="562" x2="334" y2="562" />
<text class="label" x="340" y="566">DALR (9.8 C/km)</text>
<text class="legend-h" x="90" y="596">Stations</text>
<text class="legend-row" x="90" y="612"><tspan>La Cumbre 1201m @ 11:12 - 8.9C, winds 167, 16g23mph, DALR dev </tspan><tspan fill="#c62828">VOR:+2.7C</tspan><tspan>; </tspan><tspan fill="#c62828">AntFarm:+3.0C</tspan><tspan>; </tspan><tspan fill="#c62828">Montecito:+1.4C</tspan><tspan>; </tspan><tspan fill="#c62828">SM Pass:+1.8C</tspan><tspan>; </tspan><tspan fill="#c62828">Parma:+3.0C</tspan><tspan>; </tspan><tspan fill="#c62828">Airport:+4.6C</tspan></text>
<text class="legend-row" x="90" y="626"><tspan>VOR 1070m @ 11:00 - 7.5C, winds 202, 10g17mph, DALR dev </tspan><tspan fill="#c62828">AntFarm:+0.4C</tspan><tspan>; </tspan><tspan fill="#1565c0">Montecito:-1.3C</tspan><tspan>; </tspan><tspan fill="#1565c0">SM Pass:-0.9C</tspan><tspan>; </tspan><tspan fill="#c62828">Parma:+0.4C</tspan><tspan>; </tspan><tspan fill="#c62828">Airport:+1.9C</tspan></text>
<text class="legend-row" x="90" y="640"><tspan>AntFarm 718m @ 11:00 - 10.6C, winds 058, 8g16mph, DALR dev </tspan><tspan fill="#1565c0">Montecito:-1.7C</tspan><tspan>; </tspan><tspan fill="#1565c0">SM Pass:-1.3C</tspan><tspan>; </tspan><tspan fill="#1565c0">Parma:-0.0C</tspan><tspan>; </tspan><tspan fill="#c62828">Airport:+1.6C</tspan></text>
<text class="legend-row" x="90" y="654"><tspan>Montecito 494m @ 10:47 - 14.4C, winds 209, 5g17mph, DALR dev </tspan><tspan fill="#c62828">SM Pass:+0.4C</tspan><tspan>; </tspan><tspan fill="#c62828">Parma:+1.7C</tspan><tspan>; </tspan><tspan fill="#c62828">Airport:+3.3C</tspan></text>
<text class="legend-row" x="90" y="668"><tspan>SM Pass 454m @ 10:06 - 14.4C, winds 148, 6g19mph, DALR dev </tspan><tspan fill="#c62828">Parma:+1.3C</tspan><tspan>; </tspan><tspan fill="#c62828">Airport:+2.9C</tspan></text>
<text class="legend-row" x="90" y="682"><tspan>Parma 238m @ 11:00 - 15.3C, winds 189, 3g7mph, DALR dev </tspan><tspan fill="#c62828">Airport:+1.6C</tspan></text>
<text class="legend-row" x="90" y="696">Airport 3m @ 11:00 - 16.0C, winds 120, 13g17mph, DALR dev n/a</text>
</svg>