<svg xmlns="http://www.w3.org/2000/svg" width="1180" height="760" viewBox="0 0 1180 760">
<style>
  .axis { stroke: #202020; stroke-width: 1; }
  .grid { stroke: #dddddd; stroke-width: 1; }
  .title { font-family: Helvetica, Arial, sans-serif; font-size: 16px; font-weight: 600; fill: #111111; }
  .label { font-family: Helvetica, Arial, sans-serif; font-size: 12px; fill: #222222; }
  .legend-h { font-family: Helvetica, Arial, sans-serif; font-size: 12px; font-weight: 600; fill: #222222; }
  .legend-row { font-family: Helvetica, Arial, sans-serif; font-size: 11px; fill: #333333; }
  .rass { fill: none; stroke: #000000; stroke-width: 2; }
  .dalr { fill: none; stroke: #000000; stroke-width: 1.5; stroke-dasharray: 6 4; stroke-opacity: 0.45; }
  .rass-point { fill: #0077b6; }
  .station { fill: #f4a261; stroke: #8b4c12; stroke-width: 1; }
  .barb-shaft { stroke: #1f2937; stroke-width: 1.3; }
  .barb-feather { stroke: #1f2937; stroke-width: 1.2; }
  .barb-flag { fill: #1f2937; stroke: #1f2937; stroke-width: 1; }
  .station-label { font-family: Helvetica, Arial, sans-serif; font-size: 11px; fill: #444444; }
  .station-dev-pos { font-family: Helvetica, Arial, sans-serif; font-size: 10px; fill: #c62828; }
  .station-dev-neg { font-family: Helvetica, Arial, sans-serif; font-size: 10px; fill: #1565c0; }
  .station-dev-na { font-family: Helvetica, Arial, sans-serif; font-size: 10px; fill: #666666; }
  .rass-dev-pos { font-family: Helvetica, Arial, sans-serif; font-size: 9px; fill: #c62828; }
  .rass-dev-neg { font-family: Helvetica, Arial, sans-serif; font-size: 9px; fill: #1565c0; }
  .rass-dev-na { font-family: Helvetica, Arial, sans-serif; font-size: 9px; fill: #666666; }
</style>
<rect x="0" y="0" width="1180" height="760" fill="#ffffff" />
<text class="title" x="90" y="28">Estimated LCL @ VOR: 3517 ft - winds 166, 4g7mph (08:10 PST)</text>
<line class="grid" x1="90" y1="510.00" x2="1110" y2="510.00" />
<text class="label" x="82" y="514.00" text-anchor="end">0</text>
<line class="grid" x1="90" y1="456.51" x2="1110" y2="456.51" />
<text class="label" x="82" y="460.51" text-anchor="end">500</text>
<line class="grid" x1="90" y1="403.02" x2="1110" y2="403.02" />
<text class="label" x="82" y="407.02" text-anchor="end">1000</text>
<line class="grid" x1="90" y1="349.53" x2="1110" y2="349.53" />
<text class="label" x="82" y="353.53" text-anchor="end">1500</text>
<line class="grid" x1="90" y1="296.05" x2="1110" y2="296.05" />
<text class="label" x="82" y="300.05" text-anchor="end">2000</text>
<line class="grid" x1="90" y1="242.56" x2="1110" y2="242.56" />
<text class="label" x="82" y="246.56" text-anchor="end">2500</text>
<line class="grid" x1="90" y1="189.07" x2="1110" y2="189.07" />
<text class="label" x="82" y="193.07" text-anchor="end">3000</text>
<line class="grid" x1="90" y1="135.58" x2="1110" y2="135.58" />
<text class="label" x="82" y="139.58" text-anchor="end">3500</text>
<line class="grid" x1="90" y1="82.09" x2="1110" y2="82.09" />
<text class="label" x="82" y="86.09" text-anchor="end">4000</text>
<line class="grid" x1="283.81" y1="50" x2="283.81" y2="510" />
<text class="label" x="283.81" y="528" text-anchor="middle">40.0</text>
<line class="grid" x1="494.38" y1="50" x2="494.38" y2="510" />
<text class="label" x="494.38" y="528" text-anchor="middle">45.0</text>
<line class="grid" x1="704.95" y1="50" x2="704.95" y2="510" />
<text class="label" x="704.95" y="528" text-anchor="middle">50.0</text>
<line class="grid" x1="915.52" y1="50" x2="915.52" y2="510" />
<text class="label" x="915.52" y="528" text-anchor="middle">55.0</text>
<line class="axis" x1="90" y1="50" x2="90" y2="510" />
<line class="axis" x1="90" y1="510" x2="1110" y2="510" />
<text class="label" x="600.00" y="546" text-anchor="middle">Temperature (F)</text>
<text class="label" x="26" y="280.00" text-anchor="middle" transform="rotate(-90 26 280.00)">Altitude (ft)</text>
<path class="rass" d="M939.72,439.81 L918.04,404.71 L868.69,369.61 L811.61,334.51 L710.33,299.42 L654.69,264.32 L600.42,229.22 L527.26,194.12 L461.77,159.03 L412.80,123.93 L373.61,88.83 L341.24,53.73" />
<path class="dalr" d="M1088.94,510.00 L111.06,50.00" />
<circle class="rass-point" cx="939.72" cy="439.81" r="2" />
<text class="rass-dev-na" x="945.72" y="436.81" text-anchor="start">(n/a)</text>
<circle class="rass-point" cx="918.04" cy="404.71" r="2" />
<text class="rass-dev-pos" x="912.04" y="401.71" text-anchor="end">(+1.3)</text>
<circle class="rass-point" cx="868.69" cy="369.61" r="2" />
<text class="rass-dev-pos" x="874.69" y="366.61" text-anchor="start">(+0.6)</text>
<circle class="rass-point" cx="811.61" cy="334.51" r="2" />
<text class="rass-dev-pos" x="805.61" y="331.51" text-anchor="end">(+0.4)</text>
<circle class="rass-point" cx="710.33" cy="299.42" r="2" />
<text class="rass-dev-neg" x="716.33" y="296.42" text-anchor="start">(-0.6)</text>
<circle class="rass-point" cx="654.69" cy="264.32" r="2" />
<text class="rass-dev-pos" x="648.69" y="261.32" text-anchor="end">(+0.5)</text>
<circle class="rass-point" cx="600.42" cy="229.22" r="2" />
<text class="rass-dev-pos" x="606.42" y="226.22" text-anchor="start">(+0.5)</text>
<circle class="rass-point" cx="527.26" cy="194.12" r="2" />
<text class="rass-dev-pos" x="521.26" y="191.12" text-anchor="end">(+0.0)</text>
<circle class="rass-point" cx="461.77" cy="159.03" r="2" />
<text class="rass-dev-pos" x="467.77" y="156.03" text-anchor="start">(+0.2)</text>
<circle class="rass-point" cx="412.80" cy="123.93" r="2" />
<text class="rass-dev-pos" x="406.80" y="120.93" text-anchor="end">(+0.6)</text>
<circle class="rass-point" cx="373.61" cy="88.83" r="2" />
<text class="rass-dev-pos" x="379.61" y="85.83" text-anchor="start">(+0.8)</text>
<circle class="rass-point" cx="341.24" cy="53.73" r="2" />
<text class="rass-dev-pos" x="335.24" y="58.00" text-anchor="end">(+1.0)</text>
<rect class="station" x="322.93" y="85.48" width="6" height="6" />
<line class="barb-shaft" x1="325.93" y1="88.48" x2="339.51" y2="100.29" />
<line class="barb-feather" x1="339.51" y1="100.29" x2="335.98" y2="102.52" />
<text class="station-label" x="331.93" y="92.48" text-anchor="start">La Cumbre</text>
<text class="station-dev-na" x="331.93" y="102.48" text-anchor="start"><tspan class="station-dev-pos">(+2.5)</tspan><tspan fill="#444444"> (-13min)</tspan></text>
<rect class="station" x="315.80" y="131.49" width="6" height="6" />
<line class="barb-shaft" x1="318.80" y1="134.49" x2="323.25" y2="151.94" />
<line class="barb-feather" x1="323.25" y1="151.94" x2="319.07" y2="151.76" />
<text class="station-label" x="324.80" y="138.49" text-anchor="start">VOR</text>
<text class="station-dev-na" x="324.80" y="148.49" text-anchor="start"><tspan class="station-dev-pos">(+1.5)</tspan><tspan fill="#444444"> (+0min)</tspan></text>
<rect class="station" x="516.68" y="255.07" width="6" height="6" />
<line class="barb-shaft" x1="519.68" y1="258.07" x2="535.37" y2="249.23" />
<line class="barb-feather" x1="535.37" y1="249.23" x2="537.06" y2="256.32" />
<text class="station-label" x="525.68" y="262.07" text-anchor="start">AntFarm</text>
<text class="station-dev-na" x="525.68" y="272.07" text-anchor="start"><tspan class="station-dev-pos">(+0.6)</tspan><tspan fill="#444444"> (-23min)</tspan></text>
<rect class="station" x="659.80" y="333.79" width="6" height="6" />
<line class="barb-shaft" x1="662.80" y1="336.79" x2="680.27" y2="341.15" />
<line class="barb-feather" x1="680.27" y1="341.15" x2="678.14" y2="344.74" />
<text class="station-label" x="668.80" y="340.79" text-anchor="start">Montecito</text>
<text class="station-dev-na" x="668.80" y="350.79" text-anchor="start"><tspan class="station-dev-neg">(-1.3)</tspan><tspan fill="#444444"> (+19min)</tspan></text>
<rect class="station" x="744.10" y="347.48" width="6" height="6" />
<line class="barb-shaft" x1="747.10" y1="350.48" x2="764.88" y2="353.30" />
<line class="barb-feather" x1="764.88" y1="353.30" x2="763.07" y2="357.06" />
<text class="station-label" x="753.10" y="366.48" text-anchor="start">SM Pass</text>
<text class="station-dev-na" x="753.10" y="376.48" text-anchor="start"><tspan class="station-dev-pos">(+1.9)</tspan><tspan fill="#444444"> (+14min)</tspan></text>
<rect class="station" x="824.07" y="423.57" width="6" height="6" />
<circle class="barb-shaft" cx="827.07" cy="426.57" r="2.5" fill="none" />
<text class="station-label" x="833.07" y="430.57" text-anchor="start">Parma</text>
<text class="station-dev-na" x="833.07" y="440.57" text-anchor="start"><tspan class="station-dev-pos">(+1.7)</tspan><tspan fill="#444444"> (+0min)</tspan></text>
<rect class="station" x="929.37" y="505.95" width="6" height="6" />
<line class="barb-shaft" x1="932.37" y1="508.95" x2="950.09" y2="505.82" />
<line class="barb-feather" x1="950.09" y1="505.82" x2="949.61" y2="509.97" />
<text class="station-label" x="938.37" y="498.00" text-anchor="start">Airport</text>
<text class="station-dev-na" x="938.37" y="508.00" text-anchor="start">(n/a)</text>
<line class="rass" x1="90" y1="562" x2="114" y2="562" />
<text class="label" x="120" y="566">RASS @ 07:55</text>
<line class="dalr" x1="310" y1="562" x2="334" y2="562" />
<text class="label" x="340" y="566">DALR (5.4 F/1000 ft)</text>
<text class="legend-h" x="90" y="596">Stations</text>
<text class="legend-row" x="90" y="612"><tspan>La Cumbre 3940ft @ 08:23 - 41.0F, winds 131, 6g13mph, DALR dev </tspan><tspan fill="#c62828">VOR:+2.5F</tspan><tspan>; </tspan><tspan fill="#c62828">AntFarm:+4.0F</tspan><tspan>; </tspan><tspan fill="#c62828">Montecito:+4.5F</tspan><tspan>; </tspan><tspan fill="#c62828">SM Pass:+3.2F</tspan><tspan>; </tspan><tspan fill="#c62828">Parma:+5.2F</tspan><tspan>; </tspan><tspan fill="#c62828">Airport:+6.8F</tspan></text>
<text class="legend-row" x="90" y="626"><tspan>VOR 3510ft @ 08:10 - 40.8F, winds 166, 4g7mph, DALR dev </tspan><tspan fill="#c62828">AntFarm:+1.5F</tspan><tspan>; </tspan><tspan fill="#c62828">Montecito:+2.0F</tspan><tspan>; </tspan><tspan fill="#c62828">SM Pass:+0.7F</tspan><tspan>; </tspan><tspan fill="#c62828">Parma:+2.7F</tspan><tspan>; </tspan><tspan fill="#c62828">Airport:+4.3F</tspan></text>
<text class="legend-row" x="90" y="640"><tspan>AntFarm 2355ft @ 08:10 - 45.6F, winds 061, 10g12mph, DALR dev </tspan><tspan fill="#c62828">Montecito:+0.6F</tspan><tspan>; </tspan><tspan fill="#1565c0">SM Pass:-0.7F</tspan><tspan>; </tspan><tspan fill="#c62828">Parma:+1.2F</tspan><tspan>; </tspan><tspan fill="#c62828">Airport:+2.9F</tspan></text>
<text class="legend-row" x="90" y="654"><tspan>Montecito 1619ft @ 07:47 - 49.0F, winds 104, 5g8mph, DALR dev </tspan><tspan fill="#1565c0">SM Pass:-1.3F</tspan><tspan>; </tspan><tspan fill="#c62828">Parma:+0.6F</tspan><tspan>; </tspan><tspan fill="#c62828">Airport:+2.3F</tspan></text>
<text class="legend-row" x="90" y="668"><tspan>SM Pass 1491ft @ 08:06 - 51.0F, winds 099, 4g11mph, DALR dev </tspan><tspan fill="#c62828">Parma:+1.9F</tspan><tspan>; </tspan><tspan fill="#c62828">Airport:+3.6F</tspan></text>
<text class="legend-row" x="90" y="682"><tspan>Parma 780ft @ 08:20 - 52.9F, winds 237, 1g3mph, DALR dev </tspan><tspan fill="#c62828">Airport:+1.7F</tspan></text>
<text class="legend-row" x="90" y="696">Airport 10ft @ 08:20 - 55.4F, winds 080, 5g17mph, DALR dev n/a</text>
</svg>