<svg xmlns="http://www.w3.org/2000/svg" width="1180" height="760" viewBox="0 0 1180 760">
<style>
  .axis { stroke: #202020; stroke-width: 1; }
  .grid { stroke: #dddddd; stroke-width: 1; }
  .title { font-family: Helvetica, Arial, sans-serif; font-size: 16px; font-weight: 600; fill: #111111; }
  .label { font-family: Helvetica, Arial, sans-serif; font-size: 12px; fill: #222222; }
  .legend-h { font-family: Helvetica, Arial, sans-serif; font-size: 12px; font-weight: 600; fill: #222222; }
  .legend-row { font-family: Helvetica, Arial, sans-serif; font-size: 11px; fill: #333333; }
  .rass { fill: none; stroke: #000000; stroke-width: 2; }
  .dalr { fill: none; stroke: #000000; stroke-width: 1.5; stroke-dasharray: 6 4; stroke-opacity: 0.45; }
  .rass-point { fill: #0077b6; }
  .station { fill: #f4a261; stroke: #8b4c12; stroke-width: 1; }
  .barb-shaft { stroke: #1f2937; stroke-width: 1.3; }
  .barb-feather { stroke: #1f2937; stroke-width: 1.2; }
  .barb-flag { fill: #1f2937; stroke: #1f2937; stroke-width: 1; }
  .station-label { font-family: Helvetica, Arial, sans-serif; font-size: 11px; fill: #444444; }
  .station-dev-pos { font-family: Helvetica, Arial, sans-serif; font-size: 10px; fill: #c62828; }
  .station-dev-neg { font-family: Helvetica, Arial, sans-serif; font-size: 10px; fill: #1565c0; }
  .station-dev-na { font-family: Helvetica, Arial, sans-serif; font-size: 10px; fill: #666666; }
  .rass-dev-pos { font-family: Helvetica, Arial, sans-serif; font-size: 9px; fill: #c62828; }
  .rass-dev-neg { font-family: Helvetica, Arial, sans-serif; font-size: 9px; fill: #1565c0; }
  .rass-dev-na { font-family: Helvetica, Arial, sans-serif; font-size: 9px; fill: #666666; }
</style>
<rect x="0" y="0" width="1180" height="760" fill="#ffffff" />
<text class="title" x="90" y="28">Estimated LCL @ VOR: 3510 ft - winds 199, 7g11mph (17:20 PST)</text>
<line class="grid" x1="90" y1="510.00" x2="1110" y2="510.00" />
<text class="label" x="82" y="514.00" text-anchor="end">0</text>
<line class="grid" x1="90" y1="452.50" x2="1110" y2="452.50" />
<text class="label" x="82" y="456.50" text-anchor="end">500</text>
<line class="grid" x1="90" y1="395.00" x2="1110" y2="395.00" />
<text class="label" x="82" y="399.00" text-anchor="end">1000</text>
<line class="grid" x1="90" y1="337.50" x2="1110" y2="337.50" />
<text class="label" x="82" y="341.50" text-anchor="end">1500</text>
<line class="grid" x1="90" y1="280.00" x2="1110" y2="280.00" />
<text class="label" x="82" y="284.00" text-anchor="end">2000</text>
<line class="grid" x1="90" y1="222.50" x2="1110" y2="222.50" />
<text class="label" x="82" y="226.50" text-anchor="end">2500</text>
<line class="grid" x1="90" y1="165.00" x2="1110" y2="165.00" />
<text class="label" x="82" y="169.00" text-anchor="end">3000</text>
<line class="grid" x1="90" y1="107.50" x2="1110" y2="107.50" />
<text class="label" x="82" y="111.50" text-anchor="end">3500</text>
<line class="grid" x1="90" y1="50.00" x2="1110" y2="50.00" />
<text class="label" x="82" y="54.00" text-anchor="end">4000</text>
<line class="grid" x1="102.73" y1="50" x2="102.73" y2="510" />
<text class="label" x="102.73" y="528" text-anchor="middle">40.0</text>
<line class="grid" x1="328.40" y1="50" x2="328.40" y2="510" />
<text class="label" x="328.40" y="528" text-anchor="middle">45.0</text>
<line class="grid" x1="554.06" y1="50" x2="554.06" y2="510" />
<text class="label" x="554.06" y="528" text-anchor="middle">50.0</text>
<line class="grid" x1="779.72" y1="50" x2="779.72" y2="510" />
<text class="label" x="779.72" y="528" text-anchor="middle">55.0</text>
<line class="grid" x1="1005.39" y1="50" x2="1005.39" y2="510" />
<text class="label" x="1005.39" y="528" text-anchor="middle">60.0</text>
<line class="axis" x1="90" y1="50" x2="90" y2="510" />
<line class="axis" x1="90" y1="510" x2="1110" y2="510" />
<text class="label" x="600.00" y="546" text-anchor="middle">Temperature (F)</text>
<text class="label" x="26" y="280.00" text-anchor="middle" transform="rotate(-90 26 280.00)">Altitude (ft)</text>
<path class="rass" d="M927.51,434.54 L904.28,396.81 L829.13,359.08 L758.78,321.35 L669.17,283.62 L582.57,245.89 L515.15,208.16 L458.77,170.43 L337.23,132.70 L249.09,94.97 L215.86,57.24" />
<path class="dalr" d="M1087.43,510.00 L112.57,50.00" />
<circle class="rass-point" cx="927.51" cy="434.54" r="2" />
<text class="rass-dev-na" x="933.51" y="431.54" text-anchor="start">(n/a)</text>
<circle class="rass-point" cx="904.28" cy="396.81" r="2" />
<text class="rass-dev-pos" x="898.28" y="393.81" text-anchor="end">(+1.3)</text>
<circle class="rass-point" cx="829.13" cy="359.08" r="2" />
<text class="rass-dev-pos" x="835.13" y="356.08" text-anchor="start">(+0.1)</text>
<circle class="rass-point" cx="758.78" cy="321.35" r="2" />
<text class="rass-dev-pos" x="752.78" y="318.35" text-anchor="end">(+0.2)</text>
<circle class="rass-point" cx="669.17" cy="283.62" r="2" />
<text class="rass-dev-neg" x="675.17" y="280.62" text-anchor="start">(-0.2)</text>
<circle class="rass-point" cx="582.57" cy="245.89" r="2" />
<text class="rass-dev-neg" x="576.57" y="242.89" text-anchor="end">(-0.1)</text>
<circle class="rass-point" cx="515.15" cy="208.16" r="2" />
<text class="rass-dev-pos" x="521.15" y="205.16" text-anchor="start">(+0.3)</text>
<circle class="rass-point" cx="458.77" cy="170.43" r="2" />
<text class="rass-dev-pos" x="452.77" y="167.43" text-anchor="end">(+0.5)</text>
<circle class="rass-point" cx="337.23" cy="132.70" r="2" />
<text class="rass-dev-neg" x="343.23" y="129.70" text-anchor="start">(-0.9)</text>
<circle class="rass-point" cx="249.09" cy="94.97" r="2" />
<text class="rass-dev-neg" x="243.09" y="91.97" text-anchor="end">(-0.2)</text>
<circle class="rass-point" cx="215.86" cy="57.24" r="2" />
<text class="rass-dev-pos" x="221.86" y="58.00" text-anchor="start">(+1.0)</text>
<rect class="station" x="190.00" y="53.87" width="6" height="6" />
<line class="barb-shaft" x1="193.00" y1="56.87" x2="195.19" y2="74.73" />
<line class="barb-feather" x1="195.19" y1="74.73" x2="188.00" y2="73.60" />
<text class="station-label" x="199.00" y="64.00" text-anchor="start">La Cumbre</text>
<text class="station-dev-na" x="199.00" y="74.00" text-anchor="start"><tspan class="station-dev-pos">(+4.5)</tspan><tspan fill="#444444"> (-17min)</tspan></text>
<rect class="station" x="371.85" y="236.18" width="6" height="6" />
<line class="barb-shaft" x1="374.85" y1="239.18" x2="390.02" y2="229.50" />
<line class="barb-feather" x1="390.02" y1="229.50" x2="392.10" y2="236.47" />
<text class="station-label" x="380.85" y="243.18" text-anchor="start">AntFarm</text>
<text class="station-dev-na" x="380.85" y="253.18" text-anchor="start"><tspan class="station-dev-pos">(+0.7)</tspan><tspan fill="#444444"> (-14min)</tspan></text>
<rect class="station" x="551.06" y="335.52" width="6" height="6" />
<line class="barb-shaft" x1="554.06" y1="338.52" x2="570.75" y2="331.78" />
<line class="barb-feather" x1="570.75" y1="331.78" x2="571.13" y2="335.93" />
<text class="station-label" x="560.06" y="342.52" text-anchor="start">SM Pass</text>
<text class="station-dev-na" x="560.06" y="352.52" text-anchor="start"><tspan class="station-dev-pos">(+0.2)</tspan><tspan fill="#444444"> (+14min)</tspan></text>
<rect class="station" x="714.02" y="417.32" width="6" height="6" />
<circle class="barb-shaft" cx="717.02" cy="420.32" r="2.5" fill="none" />
<text class="station-label" x="723.02" y="424.32" text-anchor="start">Parma</text>
<text class="station-dev-na" x="723.02" y="434.32" text-anchor="start"><tspan class="station-dev-pos">(+0.6)</tspan><tspan fill="#444444"> (+10min)</tspan></text>
<rect class="station" x="876.01" y="505.87" width="6" height="6" />
<line class="barb-shaft" x1="879.01" y1="508.87" x2="895.93" y2="502.71" />
<line class="barb-feather" x1="895.93" y1="502.71" x2="896.17" y2="506.88" />
<text class="station-label" x="885.01" y="498.00" text-anchor="start">Airport</text>
<text class="station-dev-na" x="885.01" y="508.00" text-anchor="start">(n/a)</text>
<line class="rass" x1="90" y1="562" x2="114" y2="562" />
<text class="label" x="120" y="566">RASS @ 17:55</text>
<line class="dalr" x1="310" y1="562" x2="334" y2="562" />
<text class="label" x="340" y="566">DALR (5.4 F/1000 ft)</text>
<text class="legend-h" x="90" y="596">Stations</text>
<text class="legend-row" x="90" y="612"><tspan>La Cumbre 3940ft @ 18:37 - 42.0F, winds 173, 14g17mph, DALR dev </tspan><tspan fill="#c62828">VOR:+2.2F</tspan><tspan>; </tspan><tspan fill="#c62828">AntFarm:+4.5F</tspan><tspan>; </tspan><tspan fill="#c62828">SM Pass:+5.2F</tspan><tspan>; </tspan><tspan fill="#c62828">Parma:+5.5F</tspan><tspan>; </tspan><tspan fill="#c62828">Airport:+6.0F</tspan></text>
<text class="legend-row" x="90" y="626"><tspan>VOR 3510ft @ 17:20 - 42.1F, winds 199, 7g11mph, DALR dev </tspan><tspan fill="#c62828">AntFarm:+2.3F</tspan><tspan>; </tspan><tspan fill="#c62828">SM Pass:+3.0F</tspan><tspan>; </tspan><tspan fill="#c62828">Parma:+3.2F</tspan><tspan>; </tspan><tspan fill="#c62828">Airport:+3.8F</tspan></text>
<text class="legend-row" x="90" y="640"><tspan>AntFarm 2355ft @ 18:20 - 46.0F, winds 057, 9g12mph, DALR dev </tspan><tspan fill="#c62828">SM Pass:+0.7F</tspan><tspan>; </tspan><tspan fill="#c62828">Parma:+0.9F</tspan><tspan>; </tspan><tspan fill="#c62828">Airport:+1.5F</tspan></text>
<text class="legend-row" x="90" y="654">Montecito 1619ft @ missing - temp missing, winds missing, DALR dev missing</text>
<text class="legend-row" x="90" y="668"><tspan>SM Pass 1491ft @ 18:06 - 50.0F, winds 068, 4g13mph, DALR dev </tspan><tspan fill="#c62828">Parma:+0.2F</tspan><tspan>; </tspan><tspan fill="#c62828">Airport:+0.8F</tspan></text>
<text class="legend-row" x="90" y="682"><tspan>Parma 780ft @ 18:20 - 53.6F, winds 254, 0g3mph, DALR dev </tspan><tspan fill="#c62828">Airport:+0.6F</tspan></text>
<text class="legend-row" x="90" y="696">Airport 10ft @ 18:30 - 57.2F, winds 070, 7g18mph, DALR dev n/a</text>
</svg>