<svg xmlns="http://www.w3.org/2000/svg" width="1180" height="760" viewBox="0 0 1180 760">
<style>
  .axis { stroke: #202020; stroke-width: 1; }
  .grid { stroke: #dddddd; stroke-width: 1; }
  .title { font-family: Helvetica, Arial, sans-serif; font-size: 16px; font-weight: 600; fill: #111111; }
  .label { font-family: Helvetica, Arial, sans-serif; font-size: 12px; fill: #222222; }
  .legend-h { font-family: Helvetica, Arial, sans-serif; font-size: 12px; font-weight: 600; fill: #222222; }
  .legend-row { font-family: Helvetica, Arial, sans-serif; font-size: 11px; fill: #333333; }
  .rass { fill: none; stroke: #000000; stroke-width: 2; }
  .dalr { fill: none; stroke: #000000; stroke-width: 1.5; stroke-dasharray: 6 4; stroke-opacity: 0.45; }
  .rass-point { fill: #0077b6; }
  .station { fill: #f4a261; stroke: #8b4c12; stroke-width: 1; }
  .barb-shaft { stroke: #1f2937; stroke-width: 1.3; }
  .barb-feather { stroke: #1f2937; stroke-width: 1.2; }
  .barb-flag { fill: #1f2937; stroke: #1f2937; stroke-width: 1; }
  .station-label { font-family: Helvetica, Arial, sans-serif; font-size: 11px; fill: #444444; }
  .station-dev-pos { font-family: Helvetica, Arial, sans-serif; font-size: 10px; fill: #c62828; }
  .station-dev-neg { font-family: Helvetica, Arial, sans-serif; font-size: 10px; fill: #1565c0; }
  .station-dev-na { font-family: Helvetica, Arial, sans-serif; font-size: 10px; fill: #666666; }
  .rass-dev-pos { font-family: Helvetica, Arial, sans-serif; font-size: 9px; fill: #c62828; }
  .rass-dev-neg { font-family: Helvetica, Arial, sans-serif; font-size: 9px; fill: #1565c0; }
  .rass-dev-na { font-family: Helvetica, Arial, sans-serif; font-size: 9px; fill: #666666; }
</style>
<rect x="0" y="0" width="1180" height="760" fill="#ffffff" />
<text class="title" x="90" y="28">Estimated LCL @ VOR: 3527 ft - winds 208, 12g17mph (15:00 PST)</text>
<line class="grid" x1="90" y1="510.00" x2="1110" y2="510.00" />
<text class="label" x="82" y="514.00" text-anchor="end">0</text>
<line class="grid" x1="90" y1="452.50" x2="1110" y2="452.50" />
<text class="label" x="82" y="456.50" text-anchor="end">500</text>
<line class="grid" x1="90" y1="395.00" x2="1110" y2="395.00" />
<text class="label" x="82" y="399.00" text-anchor="end">1000</text>
<line class="grid" x1="90" y1="337.50" x2="1110" y2="337.50" />
<text class="label" x="82" y="341.50" text-anchor="end">1500</text>
<line class="grid" x1="90" y1="280.00" x2="1110" y2="280.00" />
<text class="label" x="82" y="284.00" text-anchor="end">2000</text>
<line class="grid" x1="90" y1="222.50" x2="1110" y2="222.50" />
<text class="label" x="82" y="226.50" text-anchor="end">2500</text>
<line class="grid" x1="90" y1="165.00" x2="1110" y2="165.00" />
<text class="label" x="82" y="169.00" text-anchor="end">3000</text>
<line class="grid" x1="90" y1="107.50" x2="1110" y2="107.50" />
<text class="label" x="82" y="111.50" text-anchor="end">3500</text>
<line class="grid" x1="90" y1="50.00" x2="1110" y2="50.00" />
<text class="label" x="82" y="54.00" text-anchor="end">4000</text>
<line class="grid" x1="166.37" y1="50" x2="166.37" y2="510" />
<text class="label" x="166.37" y="528" text-anchor="middle">40.0</text>
<line class="grid" x1="387.88" y1="50" x2="387.88" y2="510" />
<text class="label" x="387.88" y="528" text-anchor="middle">45.0</text>
<line class="grid" x1="609.39" y1="50" x2="609.39" y2="510" />
<text class="label" x="609.39" y="528" text-anchor="middle">50.0</text>
<line class="grid" x1="830.90" y1="50" x2="830.90" y2="510" />
<text class="label" x="830.90" y="528" text-anchor="middle">55.0</text>
<line class="grid" x1="1052.41" y1="50" x2="1052.41" y2="510" />
<text class="label" x="1052.41" y="528" text-anchor="middle">60.0</text>
<line class="axis" x1="90" y1="50" x2="90" y2="510" />
<line class="axis" x1="90" y1="510" x2="1110" y2="510" />
<text class="label" x="600.00" y="546" text-anchor="middle">Temperature (F)</text>
<text class="label" x="26" y="280.00" text-anchor="middle" transform="rotate(-90 26 280.00)">Altitude (ft)</text>
<path class="rass" d="M912.10,434.54 L881.71,396.81 L829.48,359.08 L776.29,321.35 L716.64,283.62 L618.96,245.89 L558.83,208.16 L502.45,170.43 L416.01,132.70 L354.61,94.97" />
<path class="dalr" d="M1069.07,510.00 L112.15,50.00" />
<circle class="rass-point" cx="912.10" cy="434.54" r="2" />
<text class="rass-dev-na" x="918.10" y="431.54" text-anchor="start">(n/a)</text>
<circle class="rass-point" cx="881.71" cy="396.81" r="2" />
<text class="rass-dev-pos" x="875.71" y="393.81" text-anchor="end">(+1.1)</text>
<circle class="rass-point" cx="829.48" cy="359.08" r="2" />
<text class="rass-dev-pos" x="835.48" y="356.08" text-anchor="start">(+0.6)</text>
<circle class="rass-point" cx="776.29" cy="321.35" r="2" />
<text class="rass-dev-pos" x="770.29" y="318.35" text-anchor="end">(+0.6)</text>
<circle class="rass-point" cx="716.64" cy="283.62" r="2" />
<text class="rass-dev-pos" x="722.64" y="280.62" text-anchor="start">(+0.4)</text>
<circle class="rass-point" cx="618.96" cy="245.89" r="2" />
<text class="rass-dev-neg" x="612.96" y="242.89" text-anchor="end">(-0.4)</text>
<circle class="rass-point" cx="558.83" cy="208.16" r="2" />
<text class="rass-dev-pos" x="564.83" y="205.16" text-anchor="start">(+0.4)</text>
<circle class="rass-point" cx="502.45" cy="170.43" r="2" />
<text class="rass-dev-pos" x="496.45" y="167.43" text-anchor="end">(+0.5)</text>
<circle class="rass-point" cx="416.01" cy="132.70" r="2" />
<text class="rass-dev-neg" x="422.01" y="129.70" text-anchor="start">(-0.2)</text>
<circle class="rass-point" cx="354.61" cy="94.97" r="2" />
<text class="rass-dev-pos" x="348.61" y="91.97" text-anchor="end">(+0.4)</text>
<rect class="station" x="340.58" y="53.87" width="6" height="6" />
<line class="barb-shaft" x1="343.58" y1="56.87" x2="345.77" y2="74.73" />
<line class="barb-feather" x1="345.77" y1="74.73" x2="338.58" y2="73.60" />
<line class="barb-feather" x1="345.29" y1="70.76" x2="338.09" y2="69.63" />
<text class="station-label" x="349.58" y="64.00" text-anchor="start">La Cumbre</text>
<text class="station-dev-na" x="349.58" y="74.00" text-anchor="start"><tspan class="station-dev-pos">(+3.5)</tspan><tspan fill="#444444"> (-8min)</tspan></text>
<rect class="station" x="289.17" y="103.33" width="6" height="6" />
<line class="barb-shaft" x1="292.17" y1="106.33" x2="283.80" y2="122.27" />
<line class="barb-feather" x1="283.80" y1="122.27" x2="278.54" y2="117.24" />
<text class="station-label" x="298.17" y="110.33" text-anchor="start">VOR</text>
<text class="station-dev-na" x="298.17" y="120.33" text-anchor="start"><tspan class="station-dev-pos">(+1.0)</tspan><tspan fill="#444444"> (+0min)</tspan></text>
<rect class="station" x="521.30" y="236.18" width="6" height="6" />
<circle class="barb-shaft" cx="524.30" cy="239.18" r="2.5" fill="none" />
<text class="station-label" x="530.30" y="243.18" text-anchor="start">AntFarm</text>
<text class="station-dev-na" x="530.30" y="253.18" text-anchor="start"><tspan class="station-dev-neg">(-0.9)</tspan><tspan fill="#444444"> (-13min)</tspan></text>
<rect class="station" x="739.32" y="320.80" width="6" height="6" />
<line class="barb-shaft" x1="742.32" y1="323.80" x2="736.46" y2="340.82" />
<line class="barb-feather" x1="736.46" y1="340.82" x2="733.07" y2="338.39" />
<text class="station-label" x="748.32" y="327.80" text-anchor="start">Montecito</text>
<text class="station-dev-na" x="748.32" y="337.80" text-anchor="start"><tspan class="station-dev-pos">(+1.0)</tspan><tspan fill="#444444"> (+13min)</tspan></text>
<rect class="station" x="896.97" y="417.32" width="6" height="6" />
<circle class="barb-shaft" cx="899.97" cy="420.32" r="2.5" fill="none" />
<text class="station-label" x="905.97" y="424.32" text-anchor="start">Parma</text>
<text class="station-dev-na" x="905.97" y="434.32" text-anchor="start"><tspan class="station-dev-neg">(-0.1)</tspan><tspan fill="#444444"> (+0min)</tspan></text>
<rect class="station" x="1084.85" y="505.87" width="6" height="6" />
<line class="barb-shaft" x1="1087.85" y1="508.87" x2="1101.64" y2="520.44" />
<line class="barb-feather" x1="1101.64" y1="520.44" x2="1095.61" y2="524.52" />
<text class="station-label" x="1081.85" y="498.00" text-anchor="end">Airport</text>
<text class="station-dev-na" x="1081.85" y="508.00" text-anchor="end">(n/a)</text>
<line class="rass" x1="90" y1="562" x2="114" y2="562" />
<text class="label" x="120" y="566">RASS @ 14:55</text>
<line class="dalr" x1="310" y1="562" x2="334" y2="562" />
<text class="label" x="340" y="566">DALR (5.4 F/1000 ft)</text>
<text class="legend-h" x="90" y="596">Stations</text>
<text class="legend-row" x="90" y="612"><tspan>La Cumbre 3940ft @ 15:08 - 44.0F, winds 173, 22g22mph, DALR dev </tspan><tspan fill="#c62828">VOR:+3.5F</tspan><tspan>; </tspan><tspan fill="#c62828">AntFarm:+4.5F</tspan><tspan>; </tspan><tspan fill="#c62828">Montecito:+3.5F</tspan><tspan>; </tspan><tspan fill="#c62828">SM Pass:+1.2F</tspan><tspan>; </tspan><tspan fill="#c62828">Parma:+4.5F</tspan><tspan>; </tspan><tspan fill="#c62828">Airport:+4.4F</tspan></text>
<text class="legend-row" x="90" y="626"><tspan>VOR 3510ft @ 15:00 - 42.8F, winds 208, 12g17mph, DALR dev </tspan><tspan fill="#c62828">AntFarm:+1.0F</tspan><tspan>; </tspan><tspan fill="#c62828">Montecito:+0.1F</tspan><tspan>; </tspan><tspan fill="#1565c0">SM Pass:-2.3F</tspan><tspan>; </tspan><tspan fill="#c62828">Parma:+1.0F</tspan><tspan>; </tspan><tspan fill="#c62828">Airport:+0.9F</tspan></text>
<text class="legend-row" x="90" y="640"><tspan>AntFarm 2355ft @ 15:00 - 48.1F, winds 058, 2g7mph, DALR dev </tspan><tspan fill="#1565c0">Montecito:-0.9F</tspan><tspan>; </tspan><tspan fill="#1565c0">SM Pass:-3.3F</tspan><tspan>; </tspan><tspan fill="#c62828">Parma:+0.0F</tspan><tspan>; </tspan><tspan fill="#1565c0">Airport:-0.1F</tspan></text>
<text class="legend-row" x="90" y="654"><tspan>Montecito 1619ft @ 14:47 - 53.0F, winds 199, 4g13mph, DALR dev </tspan><tspan fill="#1565c0">SM Pass:-2.3F</tspan><tspan>; </tspan><tspan fill="#c62828">Parma:+1.0F</tspan><tspan>; </tspan><tspan fill="#c62828">Airport:+0.9F</tspan></text>
<text class="legend-row" x="90" y="668"><tspan>SM Pass 1491ft @ 14:06 - 56.0F, winds 148, 6g15mph, DALR dev </tspan><tspan fill="#c62828">Parma:+3.3F</tspan><tspan>; </tspan><tspan fill="#c62828">Airport:+3.2F</tspan></text>
<text class="legend-row" x="90" y="682"><tspan>Parma 780ft @ 15:00 - 56.6F, winds 198, 3g8mph, DALR dev </tspan><tspan fill="#1565c0">Airport:-0.1F</tspan></text>
<text class="legend-row" x="90" y="696">Airport 10ft @ 15:00 - 60.8F, winds 130, 10g18mph, DALR dev n/a</text>
</svg>