<svg xmlns="http://www.w3.org/2000/svg" width="1180" height="760" viewBox="0 0 1180 760">
<style>
  .axis { stroke: #202020; stroke-width: 1; }
  .grid { stroke: #dddddd; stroke-width: 1; }
  .title { font-family: Helvetica, Arial, sans-serif; font-size: 16px; font-weight: 600; fill: #111111; }
  .label { font-family: Helvetica, Arial, sans-serif; font-size: 12px; fill: #222222; }
  .legend-h { font-family: Helvetica, Arial, sans-serif; font-size: 12px; font-weight: 600; fill: #222222; }
  .legend-row { font-family: Helvetica, Arial, sans-serif; font-size: 11px; fill: #333333; }
  .rass { fill: none; stroke: #000000; stroke-width: 2; }
  .dalr { fill: none; stroke: #000000; stroke-width: 1.5; stroke-dasharray: 6 4; stroke-opacity: 0.45; }
  .rass-point { fill: #0077b6; }
  .station { fill: #f4a261; stroke: #8b4c12; stroke-width: 1; }
  .barb-shaft { stroke: #1f2937; stroke-width: 1.3; }
  .barb-feather { stroke: #1f2937; stroke-width: 1.2; }
  .barb-flag { fill: #1f2937; stroke: #1f2937; stroke-width: 1; }
  .station-label { font-family: Helvetica, Arial, sans-serif; font-size: 11px; fill: #444444; }
  .station-dev-pos { font-family: Helvetica, Arial, sans-serif; font-size: 10px; fill: #c62828; }
  .station-dev-neg { font-family: Helvetica, Arial, sans-serif; font-size: 10px; fill: #1565c0; }
  .station-dev-na { font-family: Helvetica, Arial, sans-serif; font-size: 10px; fill: #666666; }
  .rass-dev-pos { font-family: Helvetica, Arial, sans-serif; font-size: 9px; fill: #c62828; }
  .rass-dev-neg { font-family: Helvetica, Arial, sans-serif; font-size: 9px; fill: #1565c0; }
  .rass-dev-na { font-family: Helvetica, Arial, sans-serif; font-size: 9px; fill: #666666; }
</style>
<rect x="0" y="0" width="1180" height="760" fill="#ffffff" />
<text class="title" x="90" y="28">Estimated LCL @ VOR: 4316 ft - winds 199, 9g17mph (11:10 PST)</text>
<line class="grid" x1="90" y1="510.00" x2="1110" y2="510.00" />
<text class="label" x="82" y="514.00" text-anchor="end">0</text>
<line class="grid" x1="90" y1="452.50" x2="1110" y2="452.50" />
<text class="label" x="82" y="456.50" text-anchor="end">500</text>
<line class="grid" x1="90" y1="395.00" x2="1110" y2="395.00" />
<text class="label" x="82" y="399.00" text-anchor="end">1000</text>
<line class="grid" x1="90" y1="337.50" x2="1110" y2="337.50" />
<text class="label" x="82" y="341.50" text-anchor="end">1500</text>
<line class="grid" x1="90" y1="280.00" x2="1110" y2="280.00" />
<text class="label" x="82" y="284.00" text-anchor="end">2000</text>
<line class="grid" x1="90" y1="222.50" x2="1110" y2="222.50" />
<text class="label" x="82" y="226.50" text-anchor="end">2500</text>
<line class="grid" x1="90" y1="165.00" x2="1110" y2="165.00" />
<text class="label" x="82" y="169.00" text-anchor="end">3000</text>
<line class="grid" x1="90" y1="107.50" x2="1110" y2="107.50" />
<text class="label" x="82" y="111.50" text-anchor="end">3500</text>
<line class="grid" x1="90" y1="50.00" x2="1110" y2="50.00" />
<text class="label" x="82" y="54.00" text-anchor="end">4000</text>
<line class="grid" x1="173.62" y1="50" x2="173.62" y2="510" />
<text class="label" x="173.62" y="528" text-anchor="middle">40.0</text>
<line class="grid" x1="393.43" y1="50" x2="393.43" y2="510" />
<text class="label" x="393.43" y="528" text-anchor="middle">45.0</text>
<line class="grid" x1="613.23" y1="50" x2="613.23" y2="510" />
<text class="label" x="613.23" y="528" text-anchor="middle">50.0</text>
<line class="grid" x1="833.04" y1="50" x2="833.04" y2="510" />
<text class="label" x="833.04" y="528" text-anchor="middle">55.0</text>
<line class="grid" x1="1052.85" y1="50" x2="1052.85" y2="510" />
<text class="label" x="1052.85" y="528" text-anchor="middle">60.0</text>
<line class="axis" x1="90" y1="50" x2="90" y2="510" />
<line class="axis" x1="90" y1="510" x2="1110" y2="510" />
<text class="label" x="600.00" y="546" text-anchor="middle">Temperature (F)</text>
<text class="label" x="26" y="280.00" text-anchor="middle" transform="rotate(-90 26 280.00)">Altitude (ft)</text>
<path class="rass" d="M905.78,434.54 L883.15,396.81 L838.84,359.08 L731.93,321.35 L625.34,283.62 L556.50,245.89 L501.90,208.16 L470.56,170.43" />
<path class="dalr" d="M1061.55,510.00 L111.98,50.00" />
<circle class="rass-point" cx="905.78" cy="434.54" r="2" />
<text class="rass-dev-na" x="911.78" y="431.54" text-anchor="start">(n/a)</text>
<circle class="rass-point" cx="883.15" cy="396.81" r="2" />
<text class="rass-dev-pos" x="877.15" y="393.81" text-anchor="end">(+1.3)</text>
<circle class="rass-point" cx="838.84" cy="359.08" r="2" />
<text class="rass-dev-pos" x="844.84" y="356.08" text-anchor="start">(+0.8)</text>
<circle class="rass-point" cx="731.93" cy="321.35" r="2" />
<text class="rass-dev-neg" x="725.93" y="318.35" text-anchor="end">(-0.7)</text>
<circle class="rass-point" cx="625.34" cy="283.62" r="2" />
<text class="rass-dev-neg" x="631.34" y="280.62" text-anchor="start">(-0.7)</text>
<circle class="rass-point" cx="556.50" cy="245.89" r="2" />
<text class="rass-dev-pos" x="550.50" y="242.89" text-anchor="end">(+0.2)</text>
<circle class="rass-point" cx="501.90" cy="208.16" r="2" />
<text class="rass-dev-pos" x="507.90" y="205.16" text-anchor="start">(+0.5)</text>
<circle class="rass-point" cx="470.56" cy="170.43" r="2" />
<text class="rass-dev-pos" x="464.56" y="167.43" text-anchor="end">(+1.1)</text>
<rect class="station" x="522.31" y="53.87" width="6" height="6" />
<line class="barb-shaft" x1="525.31" y1="56.87" x2="526.57" y2="74.82" />
<line class="barb-feather" x1="526.57" y1="74.82" x2="519.44" y2="73.32" />
<line class="barb-feather" x1="526.29" y1="70.83" x2="522.21" y2="69.91" />
<text class="station-label" x="531.31" y="64.00" text-anchor="start">La Cumbre</text>
<text class="station-dev-na" x="531.31" y="74.00" text-anchor="start"><tspan class="station-dev-pos">(+5.5)</tspan><tspan fill="#444444"> (-18min)</tspan></text>
<rect class="station" x="381.23" y="103.33" width="6" height="6" />
<line class="barb-shaft" x1="384.23" y1="106.33" x2="378.46" y2="123.38" />
<line class="barb-feather" x1="378.46" y1="123.38" x2="372.47" y2="119.24" />
<text class="station-label" x="390.23" y="110.33" text-anchor="start">VOR</text>
<text class="station-dev-na" x="390.23" y="120.33" text-anchor="start"><tspan class="station-dev-pos">(+0.1)</tspan><tspan fill="#444444"> (+0min)</tspan></text>
<rect class="station" x="652.89" y="236.18" width="6" height="6" />
<line class="barb-shaft" x1="655.89" y1="239.18" x2="671.49" y2="230.20" />
<line class="barb-feather" x1="671.49" y1="230.20" x2="672.44" y2="234.26" />
<text class="station-label" x="661.89" y="243.18" text-anchor="start">AntFarm</text>
<text class="station-dev-na" x="661.89" y="253.18" text-anchor="start"><tspan class="station-dev-neg">(-3.1)</tspan><tspan fill="#444444"> (-23min)</tspan></text>
<rect class="station" x="961.89" y="320.80" width="6" height="6" />
<line class="barb-shaft" x1="964.89" y1="323.80" x2="956.17" y2="339.55" />
<line class="barb-feather" x1="956.17" y1="339.55" x2="953.25" y2="336.56" />
<text class="station-label" x="970.89" y="327.80" text-anchor="start">Montecito</text>
<text class="station-dev-na" x="970.89" y="337.80" text-anchor="start"><tspan class="station-dev-neg">(-1.3)</tspan><tspan fill="#444444"> (+19min)</tspan></text>
<rect class="station" x="1049.89" y="335.52" width="6" height="6" />
<line class="barb-shaft" x1="1052.89" y1="338.52" x2="1062.95" y2="353.44" />
<line class="barb-feather" x1="1062.95" y1="353.44" x2="1058.96" y2="354.68" />
<text class="station-label" x="1058.89" y="354.52" text-anchor="start">SM Pass</text>
<text class="station-dev-na" x="1058.89" y="364.52" text-anchor="start"><tspan class="station-dev-pos">(+4.0)</tspan><tspan fill="#444444"> (+4min)</tspan></text>
<rect class="station" x="1042.37" y="417.32" width="6" height="6" />
<line class="barb-shaft" x1="1045.37" y1="420.32" x2="1044.05" y2="438.27" />
<line class="barb-feather" x1="1044.05" y1="438.27" x2="1040.15" y2="436.78" />
<text class="station-label" x="1051.37" y="424.32" text-anchor="start">Parma</text>
<text class="station-dev-na" x="1051.37" y="434.32" text-anchor="start"><tspan class="station-dev-pos">(+3.2)</tspan><tspan fill="#444444"> (+10min)</tspan></text>
<rect class="station" x="1085.02" y="505.87" width="6" height="6" />
<line class="barb-shaft" x1="1088.02" y1="508.87" x2="1103.61" y2="517.87" />
<line class="barb-feather" x1="1103.61" y1="517.87" x2="1098.38" y2="522.93" />
<text class="station-label" x="1082.02" y="498.00" text-anchor="end">Airport</text>
<text class="station-dev-na" x="1082.02" y="508.00" text-anchor="end">(n/a)</text>
<line class="rass" x1="90" y1="562" x2="114" y2="562" />
<text class="label" x="120" y="566">RASS @ 10:55</text>
<line class="dalr" x1="310" y1="562" x2="334" y2="562" />
<text class="label" x="340" y="566">DALR (5.4 F/1000 ft)</text>
<text class="legend-h" x="90" y="596">Stations</text>
<text class="legend-row" x="90" y="612"><tspan>La Cumbre 3940ft @ 11:28 - 48.0F, winds 176, 18g20mph, DALR dev </tspan><tspan fill="#c62828">VOR:+5.5F</tspan><tspan>; </tspan><tspan fill="#c62828">AntFarm:+5.6F</tspan><tspan>; </tspan><tspan fill="#c62828">Montecito:+2.5F</tspan><tspan>; </tspan><tspan fill="#c62828">SM Pass:+1.2F</tspan><tspan>; </tspan><tspan fill="#c62828">Parma:+5.2F</tspan><tspan>; </tspan><tspan fill="#c62828">Airport:+8.4F</tspan></text>
<text class="legend-row" x="90" y="626"><tspan>VOR 3510ft @ 11:10 - 44.8F, winds 199, 9g17mph, DALR dev </tspan><tspan fill="#c62828">AntFarm:+0.1F</tspan><tspan>; </tspan><tspan fill="#1565c0">Montecito:-3.0F</tspan><tspan>; </tspan><tspan fill="#1565c0">SM Pass:-4.3F</tspan><tspan>; </tspan><tspan fill="#1565c0">Parma:-0.3F</tspan><tspan>; </tspan><tspan fill="#c62828">Airport:+2.9F</tspan></text>
<text class="legend-row" x="90" y="640"><tspan>AntFarm 2355ft @ 11:10 - 51.0F, winds 060, 7g13mph, DALR dev </tspan><tspan fill="#1565c0">Montecito:-3.1F</tspan><tspan>; </tspan><tspan fill="#1565c0">SM Pass:-4.4F</tspan><tspan>; </tspan><tspan fill="#1565c0">Parma:-0.4F</tspan><tspan>; </tspan><tspan fill="#c62828">Airport:+2.8F</tspan></text>
<text class="legend-row" x="90" y="654"><tspan>Montecito 1619ft @ 10:47 - 58.0F, winds 209, 5g17mph, DALR dev </tspan><tspan fill="#1565c0">SM Pass:-1.3F</tspan><tspan>; </tspan><tspan fill="#c62828">Parma:+2.7F</tspan><tspan>; </tspan><tspan fill="#c62828">Airport:+5.9F</tspan></text>
<text class="legend-row" x="90" y="668"><tspan>SM Pass 1491ft @ 11:06 - 60.0F, winds 146, 8g18mph, DALR dev </tspan><tspan fill="#c62828">Parma:+4.0F</tspan><tspan>; </tspan><tspan fill="#c62828">Airport:+7.2F</tspan></text>
<text class="legend-row" x="90" y="682"><tspan>Parma 780ft @ 11:10 - 59.8F, winds 184, 3g9mph, DALR dev </tspan><tspan fill="#c62828">Airport:+3.2F</tspan></text>
<text class="legend-row" x="90" y="696">Airport 10ft @ 11:20 - 60.8F, winds 120, 13g18mph, DALR dev n/a</text>
</svg>