<svg xmlns="http://www.w3.org/2000/svg" width="1180" height="760" viewBox="0 0 1180 760">
<style>
  .axis { stroke: #202020; stroke-width: 1; }
  .grid { stroke: #dddddd; stroke-width: 1; }
  .title { font-family: Helvetica, Arial, sans-serif; font-size: 16px; font-weight: 600; fill: #111111; }
  .label { font-family: Helvetica, Arial, sans-serif; font-size: 12px; fill: #222222; }
  .legend-h { font-family: Helvetica, Arial, sans-serif; font-size: 12px; font-weight: 600; fill: #222222; }
  .legend-row { font-family: Helvetica, Arial, sans-serif; font-size: 11px; fill: #333333; }
  .rass { fill: none; stroke: #000000; stroke-width: 2; }
  .dalr { fill: none; stroke: #000000; stroke-width: 1.5; stroke-dasharray: 6 4; stroke-opacity: 0.45; }
  .rass-point { fill: #0077b6; }
  .station { fill: #f4a261; stroke: #8b4c12; stroke-width: 1; }
  .barb-shaft { stroke: #1f2937; stroke-width: 1.3; }
  .barb-feather { stroke: #1f2937; stroke-width: 1.2; }
  .barb-flag { fill: #1f2937; stroke: #1f2937; stroke-width: 1; }
  .station-label { font-family: Helvetica, Arial, sans-serif; font-size: 11px; fill: #444444; }
  .station-dev-pos { font-family: Helvetica, Arial, sans-serif; font-size: 10px; fill: #c62828; }
  .station-dev-neg { font-family: Helvetica, Arial, sans-serif; font-size: 10px; fill: #1565c0; }
  .station-dev-na { font-family: Helvetica, Arial, sans-serif; font-size: 10px; fill: #666666; }
  .rass-dev-pos { font-family: Helvetica, Arial, sans-serif; font-size: 9px; fill: #c62828; }
  .rass-dev-neg { font-family: Helvetica, Arial, sans-serif; font-size: 9px; fill: #1565c0; }
  .rass-dev-na { font-family: Helvetica, Arial, sans-serif; font-size: 9px; fill: #666666; }
</style>
<rect x="0" y="0" width="1180" height="760" fill="#ffffff" />
<text class="title" x="90" y="28">Estimated LCL @ VOR: 1154 m - winds 196, 8g13mph (13:50 PST)</text>
<line class="grid" x1="90" y1="510.00" x2="1110" y2="510.00" />
<text class="label" x="82" y="514.00" text-anchor="end">0</text>
<line class="grid" x1="90" y1="439.23" x2="1110" y2="439.23" />
<text class="label" x="82" y="443.23" text-anchor="end">200</text>
<line class="grid" x1="90" y1="368.46" x2="1110" y2="368.46" />
<text class="label" x="82" y="372.46" text-anchor="end">400</text>
<line class="grid" x1="90" y1="297.69" x2="1110" y2="297.69" />
<text class="label" x="82" y="301.69" text-anchor="end">600</text>
<line class="grid" x1="90" y1="226.92" x2="1110" y2="226.92" />
<text class="label" x="82" y="230.92" text-anchor="end">800</text>
<line class="grid" x1="90" y1="156.15" x2="1110" y2="156.15" />
<text class="label" x="82" y="160.15" text-anchor="end">1000</text>
<line class="grid" x1="90" y1="85.38" x2="1110" y2="85.38" />
<text class="label" x="82" y="89.38" text-anchor="end">1200</text>
<line class="grid" x1="252.28" y1="50" x2="252.28" y2="510" />
<text class="label" x="252.28" y="528" text-anchor="middle">5.0</text>
<line class="grid" x1="623.46" y1="50" x2="623.46" y2="510" />
<text class="label" x="623.46" y="528" text-anchor="middle">10.0</text>
<line class="grid" x1="994.64" y1="50" x2="994.64" y2="510" />
<text class="label" x="994.64" y="528" text-anchor="middle">15.0</text>
<line class="axis" x1="90" y1="50" x2="90" y2="510" />
<line class="axis" x1="90" y1="510" x2="1110" y2="510" />
<text class="label" x="600.00" y="546" text-anchor="middle">Temperature (C)</text>
<text class="label" x="26" y="280.00" text-anchor="middle" transform="rotate(-90 26 280.00)">Altitude (m)</text>
<path class="rass" d="M927.38,439.23 L884.99,403.85 L815.43,368.46 L763.99,333.08 L671.93,297.69 L618.78,262.31 L581.74,226.92" />
<path class="dalr" d="M1072.88,510.00 L127.12,50.00" />
<circle class="rass-point" cx="927.38" cy="439.23" r="2" />
<text class="rass-dev-na" x="933.38" y="436.23" text-anchor="start">(n/a)</text>
<circle class="rass-point" cx="884.99" cy="403.85" r="2" />
<text class="rass-dev-pos" x="878.99" y="400.85" text-anchor="end">(+0.4)</text>
<circle class="rass-point" cx="815.43" cy="368.46" r="2" />
<text class="rass-dev-pos" x="821.43" y="365.46" text-anchor="start">(+0.0)</text>
<circle class="rass-point" cx="763.99" cy="333.08" r="2" />
<text class="rass-dev-pos" x="757.99" y="330.08" text-anchor="end">(+0.3)</text>
<circle class="rass-point" cx="671.93" cy="297.69" r="2" />
<text class="rass-dev-neg" x="677.93" y="294.69" text-anchor="start">(-0.3)</text>
<circle class="rass-point" cx="618.78" cy="262.31" r="2" />
<text class="rass-dev-pos" x="612.78" y="259.31" text-anchor="end">(+0.3)</text>
<circle class="rass-point" cx="581.74" cy="226.92" r="2" />
<text class="rass-dev-pos" x="587.74" y="223.92" text-anchor="start">(+0.5)</text>
<rect class="station" x="414.25" y="82.03" width="6" height="6" />
<line class="barb-shaft" x1="417.25" y1="85.03" x2="419.75" y2="102.86" />
<line class="barb-feather" x1="419.75" y1="102.86" x2="412.54" y2="101.85" />
<text class="station-label" x="423.25" y="89.03" text-anchor="start">La Cumbre</text>
<text class="station-dev-na" x="423.25" y="99.03" text-anchor="start"><tspan class="station-dev-pos">(+1.9)</tspan><tspan fill="#444444"> (-18min)</tspan></text>
<rect class="station" x="367.24" y="128.42" width="6" height="6" />
<line class="barb-shaft" x1="370.24" y1="131.42" x2="365.43" y2="148.77" />
<line class="barb-feather" x1="365.43" y1="148.77" x2="361.90" y2="146.54" />
<text class="station-label" x="376.24" y="135.42" text-anchor="start">VOR</text>
<text class="station-dev-na" x="376.24" y="145.42" text-anchor="start"><tspan class="station-dev-pos">(+0.5)</tspan><tspan fill="#444444"> (+0min)</tspan></text>
<rect class="station" x="584.97" y="253.01" width="6" height="6" />
<line class="barb-shaft" x1="587.97" y1="256.01" x2="603.19" y2="246.39" />
<line class="barb-feather" x1="603.19" y1="246.39" x2="604.31" y2="250.42" />
<text class="station-label" x="593.97" y="260.01" text-anchor="start">AntFarm</text>
<text class="station-dev-na" x="593.97" y="270.01" text-anchor="start"><tspan class="station-dev-neg">(-0.5)</tspan><tspan fill="#444444"> (-3min)</tspan></text>
<rect class="station" x="785.41" y="332.38" width="6" height="6" />
<line class="barb-shaft" x1="788.41" y1="335.38" x2="780.52" y2="351.56" />
<line class="barb-feather" x1="780.52" y1="351.56" x2="777.45" y2="348.72" />
<text class="station-label" x="794.41" y="339.38" text-anchor="start">Montecito</text>
<text class="station-dev-na" x="794.41" y="349.38" text-anchor="start"><tspan class="station-dev-pos">(+0.5)</tspan><tspan fill="#444444"> (+3min)</tspan></text>
<rect class="station" x="935.14" y="422.89" width="6" height="6" />
<line class="barb-shaft" x1="938.14" y1="425.89" x2="932.85" y2="443.10" />
<line class="barb-feather" x1="932.85" y1="443.10" x2="929.38" y2="440.77" />
<text class="station-label" x="944.14" y="429.89" text-anchor="start">Parma</text>
<text class="station-dev-na" x="944.14" y="439.89" text-anchor="start"><tspan class="station-dev-pos">(+0.5)</tspan><tspan fill="#444444"> (+5min)</tspan></text>
<rect class="station" x="1065.87" y="505.94" width="6" height="6" />
<line class="barb-shaft" x1="1068.87" y1="508.94" x2="1080.44" y2="522.73" />
<line class="barb-feather" x1="1080.44" y1="522.73" x2="1073.80" y2="525.69" />
<text class="station-label" x="1062.87" y="498.00" text-anchor="end">Airport</text>
<text class="station-dev-na" x="1062.87" y="508.00" text-anchor="end">(n/a)</text>
<line class="rass" x1="90" y1="562" x2="114" y2="562" />
<text class="label" x="120" y="566">RASS @ 13:55</text>
<line class="dalr" x1="310" y1="562" x2="334" y2="562" />
<text class="label" x="340" y="566">DALR (9.8 C/km)</text>
<text class="legend-h" x="90" y="596">Stations</text>
<text class="legend-row" x="90" y="612"><tspan>La Cumbre 1201m @ 14:08 - 7.2C, winds 172, 14g21mph, DALR dev </tspan><tspan fill="#c62828">VOR:+1.9C</tspan><tspan>; </tspan><tspan fill="#c62828">AntFarm:+2.4C</tspan><tspan>; </tspan><tspan fill="#c62828">Montecito:+1.9C</tspan><tspan>; </tspan><tspan fill="#c62828">SM Pass:+0.1C</tspan><tspan>; </tspan><tspan fill="#c62828">Parma:+2.4C</tspan><tspan>; </tspan><tspan fill="#c62828">Airport:+3.0C</tspan></text>
<text class="legend-row" x="90" y="626"><tspan>VOR 1070m @ 13:50 - 6.6C, winds 196, 8g13mph, DALR dev </tspan><tspan fill="#c62828">AntFarm:+0.5C</tspan><tspan>; </tspan><tspan fill="#c62828">Montecito:+0.0C</tspan><tspan>; </tspan><tspan fill="#1565c0">SM Pass:-1.8C</tspan><tspan>; </tspan><tspan fill="#c62828">Parma:+0.5C</tspan><tspan>; </tspan><tspan fill="#c62828">Airport:+1.0C</tspan></text>
<text class="legend-row" x="90" y="640"><tspan>AntFarm 718m @ 13:50 - 9.5C, winds 058, 4g9mph, DALR dev </tspan><tspan fill="#1565c0">Montecito:-0.5C</tspan><tspan>; </tspan><tspan fill="#1565c0">SM Pass:-2.3C</tspan><tspan>; </tspan><tspan fill="#1565c0">Parma:-0.0C</tspan><tspan>; </tspan><tspan fill="#c62828">Airport:+0.5C</tspan></text>
<text class="legend-row" x="90" y="654"><tspan>Montecito 494m @ 13:47 - 12.2C, winds 206, 6g15mph, DALR dev </tspan><tspan fill="#1565c0">SM Pass:-1.8C</tspan><tspan>; </tspan><tspan fill="#c62828">Parma:+0.5C</tspan><tspan>; </tspan><tspan fill="#c62828">Airport:+1.0C</tspan></text>
<text class="legend-row" x="90" y="668"><tspan>SM Pass 454m @ 13:06 - 14.4C, winds 151, 6g16mph, DALR dev </tspan><tspan fill="#c62828">Parma:+2.3C</tspan><tspan>; </tspan><tspan fill="#c62828">Airport:+2.9C</tspan></text>
<text class="legend-row" x="90" y="682"><tspan>Parma 238m @ 13:50 - 14.2C, winds 197, 3g9mph, DALR dev </tspan><tspan fill="#c62828">Airport:+0.5C</tspan></text>
<text class="legend-row" x="90" y="696">Airport 3m @ 13:55 - 16.0C, winds 140, 9g18mph, DALR dev n/a</text>
</svg>