<svg xmlns="http://www.w3.org/2000/svg" width="1180" height="760" viewBox="0 0 1180 760">
<style>
  .axis { stroke: #202020; stroke-width: 1; }
  .grid { stroke: #dddddd; stroke-width: 1; }
  .title { font-family: Helvetica, Arial, sans-serif; font-size: 16px; font-weight: 600; fill: #111111; }
  .label { font-family: Helvetica, Arial, sans-serif; font-size: 12px; fill: #222222; }
  .legend-h { font-family: Helvetica, Arial, sans-serif; font-size: 12px; font-weight: 600; fill: #222222; }
  .legend-row { font-family: Helvetica, Arial, sans-serif; font-size: 11px; fill: #333333; }
  .rass { fill: none; stroke: #000000; stroke-width: 2; }
  .dalr { fill: none; stroke: #000000; stroke-width: 1.5; stroke-dasharray: 6 4; stroke-opacity: 0.45; }
  .rass-point { fill: #0077b6; }
  .station { fill: #f4a261; stroke: #8b4c12; stroke-width: 1; }
  .barb-shaft { stroke: #1f2937; stroke-width: 1.3; }
  .barb-feather { stroke: #1f2937; stroke-width: 1.2; }
  .barb-flag { fill: #1f2937; stroke: #1f2937; stroke-width: 1; }
  .station-label { font-family: Helvetica, Arial, sans-serif; font-size: 11px; fill: #444444; }
  .station-dev-pos { font-family: Helvetica, Arial, sans-serif; font-size: 10px; fill: #c62828; }
  .station-dev-neg { font-family: Helvetica, Arial, sans-serif; font-size: 10px; fill: #1565c0; }
  .station-dev-na { font-family: Helvetica, Arial, sans-serif; font-size: 10px; fill: #666666; }
  .rass-dev-pos { font-family: Helvetica, Arial, sans-serif; font-size: 9px; fill: #c62828; }
  .rass-dev-neg { font-family: Helvetica, Arial, sans-serif; font-size: 9px; fill: #1565c0; }
  .rass-dev-na { font-family: Helvetica, Arial, sans-serif; font-size: 9px; fill: #666666; }
</style>
<rect x="0" y="0" width="1180" height="760" fill="#ffffff" />
<text class="title" x="90" y="28">Estimated LCL @ VOR: 3510 ft - winds 200, 4g7mph (02:30 PST)</text>
<line class="grid" x1="90" y1="510.00" x2="1110" y2="510.00" />
<text class="label" x="82" y="514.00" text-anchor="end">0</text>
<line class="grid" x1="90" y1="468.93" x2="1110" y2="468.93" />
<text class="label" x="82" y="472.93" text-anchor="end">500</text>
<line class="grid" x1="90" y1="427.86" x2="1110" y2="427.86" />
<text class="label" x="82" y="431.86" text-anchor="end">1000</text>
<line class="grid" x1="90" y1="386.79" x2="1110" y2="386.79" />
<text class="label" x="82" y="390.79" text-anchor="end">1500</text>
<line class="grid" x1="90" y1="345.71" x2="1110" y2="345.71" />
<text class="label" x="82" y="349.71" text-anchor="end">2000</text>
<line class="grid" x1="90" y1="304.64" x2="1110" y2="304.64" />
<text class="label" x="82" y="308.64" text-anchor="end">2500</text>
<line class="grid" x1="90" y1="263.57" x2="1110" y2="263.57" />
<text class="label" x="82" y="267.57" text-anchor="end">3000</text>
<line class="grid" x1="90" y1="222.50" x2="1110" y2="222.50" />
<text class="label" x="82" y="226.50" text-anchor="end">3500</text>
<line class="grid" x1="90" y1="181.43" x2="1110" y2="181.43" />
<text class="label" x="82" y="185.43" text-anchor="end">4000</text>
<line class="grid" x1="90" y1="140.36" x2="1110" y2="140.36" />
<text class="label" x="82" y="144.36" text-anchor="end">4500</text>
<line class="grid" x1="90" y1="99.29" x2="1110" y2="99.29" />
<text class="label" x="82" y="103.29" text-anchor="end">5000</text>
<line class="grid" x1="90" y1="58.21" x2="1110" y2="58.21" />
<text class="label" x="82" y="62.21" text-anchor="end">5500</text>
<line class="grid" x1="125.27" y1="50" x2="125.27" y2="510" />
<text class="label" x="125.27" y="528" text-anchor="middle">30.0</text>
<line class="grid" x1="288.52" y1="50" x2="288.52" y2="510" />
<text class="label" x="288.52" y="528" text-anchor="middle">35.0</text>
<line class="grid" x1="451.78" y1="50" x2="451.78" y2="510" />
<text class="label" x="451.78" y="528" text-anchor="middle">40.0</text>
<line class="grid" x1="615.03" y1="50" x2="615.03" y2="510" />
<text class="label" x="615.03" y="528" text-anchor="middle">45.0</text>
<line class="grid" x1="778.28" y1="50" x2="778.28" y2="510" />
<text class="label" x="778.28" y="528" text-anchor="middle">50.0</text>
<line class="grid" x1="941.53" y1="50" x2="941.53" y2="510" />
<text class="label" x="941.53" y="528" text-anchor="middle">55.0</text>
<line class="grid" x1="1104.79" y1="50" x2="1104.79" y2="510" />
<text class="label" x="1104.79" y="528" text-anchor="middle">60.0</text>
<line class="axis" x1="90" y1="50" x2="90" y2="510" />
<line class="axis" x1="90" y1="510" x2="1110" y2="510" />
<text class="label" x="600.00" y="546" text-anchor="middle">Temperature (F)</text>
<text class="label" x="26" y="280.00" text-anchor="middle" transform="rotate(-90 26 280.00)">Altitude (ft)</text>
<path class="rass" d="M977.98,456.10 L966.82,429.15 L917.98,402.20 L888.01,375.25 L840.75,348.30 L790.39,321.35 L752.77,294.40 L711.22,267.45 L662.44,240.50 L615.37,213.55 L564.18,186.60 L511.11,159.65 L466.03,132.70 L433.88,105.75 L409.44,78.80 L381.46,51.85" />
<path class="dalr" d="M1093.67,510.00 L106.33,50.00" />
<circle class="rass-point" cx="977.98" cy="456.10" r="2" />
<text class="rass-dev-na" x="983.98" y="453.10" text-anchor="start">(n/a)</text>
<circle class="rass-point" cx="966.82" cy="429.15" r="2" />
<text class="rass-dev-pos" x="960.82" y="426.15" text-anchor="end">(+1.4)</text>
<circle class="rass-point" cx="917.98" cy="402.20" r="2" />
<text class="rass-dev-pos" x="923.98" y="399.20" text-anchor="start">(+0.3)</text>
<circle class="rass-point" cx="888.01" cy="375.25" r="2" />
<text class="rass-dev-pos" x="882.01" y="372.25" text-anchor="end">(+0.9)</text>
<circle class="rass-point" cx="840.75" cy="348.30" r="2" />
<text class="rass-dev-pos" x="846.75" y="345.30" text-anchor="start">(+0.3)</text>
<circle class="rass-point" cx="790.39" cy="321.35" r="2" />
<text class="rass-dev-pos" x="784.39" y="318.35" text-anchor="end">(+0.2)</text>
<circle class="rass-point" cx="752.77" cy="294.40" r="2" />
<text class="rass-dev-pos" x="758.77" y="291.40" text-anchor="start">(+0.6)</text>
<circle class="rass-point" cx="711.22" cy="267.45" r="2" />
<text class="rass-dev-pos" x="705.22" y="264.45" text-anchor="end">(+0.5)</text>
<circle class="rass-point" cx="662.44" cy="240.50" r="2" />
<text class="rass-dev-pos" x="668.44" y="237.50" text-anchor="start">(+0.3)</text>
<circle class="rass-point" cx="615.37" cy="213.55" r="2" />
<text class="rass-dev-pos" x="609.37" y="210.55" text-anchor="end">(+0.3)</text>
<circle class="rass-point" cx="564.18" cy="186.60" r="2" />
<text class="rass-dev-pos" x="570.18" y="183.60" text-anchor="start">(+0.2)</text>
<circle class="rass-point" cx="511.11" cy="159.65" r="2" />
<text class="rass-dev-pos" x="505.11" y="156.65" text-anchor="end">(+0.1)</text>
<circle class="rass-point" cx="466.03" cy="132.70" r="2" />
<text class="rass-dev-pos" x="472.03" y="129.70" text-anchor="start">(+0.4)</text>
<circle class="rass-point" cx="433.88" cy="105.75" r="2" />
<text class="rass-dev-pos" x="427.88" y="102.75" text-anchor="end">(+0.8)</text>
<circle class="rass-point" cx="409.44" cy="78.80" r="2" />
<text class="rass-dev-pos" x="415.44" y="75.80" text-anchor="start">(+1.0)</text>
<circle class="rass-point" cx="381.46" cy="51.85" r="2" />
<text class="rass-dev-pos" x="375.46" y="58.00" text-anchor="end">(+0.9)</text>
<rect class="station" x="481.43" y="183.33" width="6" height="6" />
<line class="barb-shaft" x1="484.43" y1="186.33" x2="489.09" y2="203.72" />
<line class="barb-feather" x1="489.09" y1="203.72" x2="484.91" y2="203.60" />
<text class="station-label" x="490.43" y="190.33" text-anchor="start">La Cumbre</text>
<text class="station-dev-na" x="490.43" y="200.33" text-anchor="start"><tspan class="station-dev-pos">(+3.4)</tspan><tspan fill="#444444"> (-36min)</tspan></text>
<rect class="station" x="446.16" y="218.66" width="6" height="6" />
<line class="barb-shaft" x1="449.16" y1="221.66" x2="442.89" y2="238.54" />
<line class="barb-feather" x1="442.89" y1="238.54" x2="439.56" y2="236.02" />
<text class="station-label" x="455.16" y="225.66" text-anchor="start">VOR</text>
<text class="station-dev-na" x="455.16" y="235.66" text-anchor="start"><tspan class="station-dev-neg">(-0.1)</tspan><tspan fill="#444444"> (-20min)</tspan></text>
<rect class="station" x="653.15" y="313.55" width="6" height="6" />
<line class="barb-shaft" x1="656.15" y1="316.55" x2="671.09" y2="306.50" />
<line class="barb-feather" x1="671.09" y1="306.50" x2="672.33" y2="310.49" />
<text class="station-label" x="662.15" y="320.55" text-anchor="start">AntFarm</text>
<text class="station-dev-na" x="662.15" y="330.55" text-anchor="start"><tspan class="station-dev-pos">(+1.2)</tspan><tspan fill="#444444"> (+37min)</tspan></text>
<rect class="station" x="742.60" y="374.00" width="6" height="6" />
<circle class="barb-shaft" cx="745.60" cy="377.00" r="2.5" fill="none" />
<text class="station-label" x="751.60" y="381.00" text-anchor="start">Montecito</text>
<text class="station-dev-na" x="751.60" y="391.00" text-anchor="start"><tspan class="station-dev-pos">(+1.2)</tspan><tspan fill="#444444"> (+3min)</tspan></text>
<rect class="station" x="852.98" y="442.94" width="6" height="6" />
<circle class="barb-shaft" cx="855.98" cy="445.94" r="2.5" fill="none" />
<text class="station-label" x="861.98" y="449.94" text-anchor="start">Parma</text>
<text class="station-dev-na" x="861.98" y="459.94" text-anchor="start"><tspan class="station-dev-pos">(+1.1)</tspan><tspan fill="#444444"> (+0min)</tspan></text>
<rect class="station" x="951.59" y="506.19" width="6" height="6" />
<line class="barb-shaft" x1="954.59" y1="509.19" x2="971.51" y2="503.04" />
<line class="barb-feather" x1="971.51" y1="503.04" x2="971.75" y2="507.20" />
<text class="station-label" x="960.59" y="498.00" text-anchor="start">Airport</text>
<text class="station-dev-na" x="960.59" y="508.00" text-anchor="start">(n/a)</text>
<line class="rass" x1="90" y1="562" x2="114" y2="562" />
<text class="label" x="120" y="566">RASS @ 02:55</text>
<line class="dalr" x1="310" y1="562" x2="334" y2="562" />
<text class="label" x="340" y="566">DALR (5.4 F/1000 ft)</text>
<text class="legend-h" x="90" y="596">Stations</text>
<text class="legend-row" x="90" y="612"><tspan>La Cumbre 3940ft @ 03:06 - 41.0F, winds 165, 4g8mph, DALR dev </tspan><tspan fill="#c62828">VOR:+3.4F</tspan><tspan>; </tspan><tspan fill="#c62828">AntFarm:+3.3F</tspan><tspan>; </tspan><tspan fill="#c62828">Montecito:+4.5F</tspan><tspan>; </tspan><tspan fill="#c62828">SM Pass:+4.2F</tspan><tspan>; </tspan><tspan fill="#c62828">Parma:+5.7F</tspan><tspan>; </tspan><tspan fill="#c62828">Airport:+6.8F</tspan></text>
<text class="legend-row" x="90" y="626"><tspan>VOR 3510ft @ 02:50 - 39.9F, winds 200, 4g7mph, DALR dev </tspan><tspan fill="#1565c0">AntFarm:-0.1F</tspan><tspan>; </tspan><tspan fill="#c62828">Montecito:+1.1F</tspan><tspan>; </tspan><tspan fill="#c62828">SM Pass:+0.8F</tspan><tspan>; </tspan><tspan fill="#c62828">Parma:+2.3F</tspan><tspan>; </tspan><tspan fill="#c62828">Airport:+3.4F</tspan></text>
<text class="legend-row" x="90" y="640"><tspan>AntFarm 2355ft @ 02:50 - 46.3F, winds 056, 4g6mph, DALR dev </tspan><tspan fill="#c62828">Montecito:+1.2F</tspan><tspan>; </tspan><tspan fill="#c62828">SM Pass:+0.9F</tspan><tspan>; </tspan><tspan fill="#c62828">Parma:+2.4F</tspan><tspan>; </tspan><tspan fill="#c62828">Airport:+3.5F</tspan></text>
<text class="legend-row" x="90" y="654"><tspan>Montecito 1619ft @ 02:47 - 49.0F, winds 168, 1g9mph, DALR dev </tspan><tspan fill="#1565c0">SM Pass:-0.3F</tspan><tspan>; </tspan><tspan fill="#c62828">Parma:+1.2F</tspan><tspan>; </tspan><tspan fill="#c62828">Airport:+2.3F</tspan></text>
<text class="legend-row" x="90" y="668"><tspan>SM Pass 1491ft @ 02:06 - 50.0F, winds 060, 5g8mph, DALR dev </tspan><tspan fill="#c62828">Parma:+1.5F</tspan><tspan>; </tspan><tspan fill="#c62828">Airport:+2.6F</tspan></text>
<text class="legend-row" x="90" y="682"><tspan>Parma 780ft @ 02:50 - 52.4F, winds 011, 1g2mph, DALR dev </tspan><tspan fill="#c62828">Airport:+1.1F</tspan></text>
<text class="legend-row" x="90" y="696">Airport 10ft @ 02:50 - 55.4F, winds 070, 8g17mph, DALR dev n/a</text>
</svg>