<svg xmlns="http://www.w3.org/2000/svg" width="1180" height="760" viewBox="0 0 1180 760">
<style>
  .axis { stroke: #202020; stroke-width: 1; }
  .grid { stroke: #dddddd; stroke-width: 1; }
  .title { font-family: Helvetica, Arial, sans-serif; font-size: 16px; font-weight: 600; fill: #111111; }
  .label { font-family: Helvetica, Arial, sans-serif; font-size: 12px; fill: #222222; }
  .legend-h { font-family: Helvetica, Arial, sans-serif; font-size: 12px; font-weight: 600; fill: #222222; }
  .legend-row { font-family: Helvetica, Arial, sans-serif; font-size: 11px; fill: #333333; }
  .rass { fill: none; stroke: #000000; stroke-width: 2; }
  .dalr { fill: none; stroke: #000000; stroke-width: 1.5; stroke-dasharray: 6 4; stroke-opacity: 0.45; }
  .rass-point { fill: #0077b6; }
  .station { fill: #f4a261; stroke: #8b4c12; stroke-width: 1; }
  .barb-shaft { stroke: #1f2937; stroke-width: 1.3; }
  .barb-feather { stroke: #1f2937; stroke-width: 1.2; }
  .barb-flag { fill: #1f2937; stroke: #1f2937; stroke-width: 1; }
  .station-label { font-family: Helvetica, Arial, sans-serif; font-size: 11px; fill: #444444; }
  .station-dev-pos { font-family: Helvetica, Arial, sans-serif; font-size: 10px; fill: #c62828; }
  .station-dev-neg { font-family: Helvetica, Arial, sans-serif; font-size: 10px; fill: #1565c0; }
  .station-dev-na { font-family: Helvetica, Arial, sans-serif; font-size: 10px; fill: #666666; }
  .rass-dev-pos { font-family: Helvetica, Arial, sans-serif; font-size: 9px; fill: #c62828; }
  .rass-dev-neg { font-family: Helvetica, Arial, sans-serif; font-size: 9px; fill: #1565c0; }
  .rass-dev-na { font-family: Helvetica, Arial, sans-serif; font-size: 9px; fill: #666666; }
</style>
<rect x="0" y="0" width="1180" height="760" fill="#ffffff" />
<text class="title" x="90" y="28">Estimated LCL @ VOR: 1070 m - winds 199, 7g11mph (17:20 PST)</text>
<line class="grid" x1="90" y1="510.00" x2="1110" y2="510.00" />
<text class="label" x="82" y="514.00" text-anchor="end">0</text>
<line class="grid" x1="90" y1="439.23" x2="1110" y2="439.23" />
<text class="label" x="82" y="443.23" text-anchor="end">200</text>
<line class="grid" x1="90" y1="368.46" x2="1110" y2="368.46" />
<text class="label" x="82" y="372.46" text-anchor="end">400</text>
<line class="grid" x1="90" y1="297.69" x2="1110" y2="297.69" />
<text class="label" x="82" y="301.69" text-anchor="end">600</text>
<line class="grid" x1="90" y1="226.92" x2="1110" y2="226.92" />
<text class="label" x="82" y="230.92" text-anchor="end">800</text>
<line class="grid" x1="90" y1="156.15" x2="1110" y2="156.15" />
<text class="label" x="82" y="160.15" text-anchor="end">1000</text>
<line class="grid" x1="90" y1="85.38" x2="1110" y2="85.38" />
<text class="label" x="82" y="89.38" text-anchor="end">1200</text>
<line class="grid" x1="193.04" y1="50" x2="193.04" y2="510" />
<text class="label" x="193.04" y="528" text-anchor="middle">5.0</text>
<line class="grid" x1="564.22" y1="50" x2="564.22" y2="510" />
<text class="label" x="564.22" y="528" text-anchor="middle">10.0</text>
<line class="grid" x1="935.40" y1="50" x2="935.40" y2="510" />
<text class="label" x="935.40" y="528" text-anchor="middle">15.0</text>
<line class="axis" x1="90" y1="50" x2="90" y2="510" />
<line class="axis" x1="90" y1="510" x2="1110" y2="510" />
<text class="label" x="600.00" y="546" text-anchor="middle">Temperature (C)</text>
<text class="label" x="26" y="280.00" text-anchor="middle" transform="rotate(-90 26 280.00)">Altitude (m)</text>
<path class="rass" d="M927.38,439.23 L870.81,403.85 L787.15,368.46 L740.90,333.08 L686.34,297.69 L606.83,262.31 L559.62,226.92 L514.26,191.54 L455.02,156.15" />
<path class="dalr" d="M1072.88,510.00 L127.12,50.00" />
<circle class="rass-point" cx="927.38" cy="439.23" r="2" />
<text class="rass-dev-na" x="933.38" y="436.23" text-anchor="start">(n/a)</text>
<circle class="rass-point" cx="870.81" cy="403.85" r="2" />
<text class="rass-dev-pos" x="864.81" y="400.85" text-anchor="end">(+0.2)</text>
<circle class="rass-point" cx="787.15" cy="368.46" r="2" />
<text class="rass-dev-neg" x="793.15" y="365.46" text-anchor="start">(-0.1)</text>
<circle class="rass-point" cx="740.90" cy="333.08" r="2" />
<text class="rass-dev-pos" x="734.90" y="330.08" text-anchor="end">(+0.4)</text>
<circle class="rass-point" cx="686.34" cy="297.69" r="2" />
<text class="rass-dev-pos" x="692.34" y="294.69" text-anchor="start">(+0.2)</text>
<circle class="rass-point" cx="606.83" cy="262.31" r="2" />
<text class="rass-dev-neg" x="600.83" y="259.31" text-anchor="end">(-0.1)</text>
<circle class="rass-point" cx="559.62" cy="226.92" r="2" />
<text class="rass-dev-pos" x="565.62" y="223.92" text-anchor="start">(+0.3)</text>
<circle class="rass-point" cx="514.26" cy="191.54" r="2" />
<text class="rass-dev-pos" x="508.26" y="188.54" text-anchor="end">(+0.4)</text>
<circle class="rass-point" cx="455.02" cy="156.15" r="2" />
<text class="rass-dev-pos" x="461.02" y="153.15" text-anchor="start">(+0.2)</text>
<rect class="station" x="272.52" y="82.03" width="6" height="6" />
<line class="barb-shaft" x1="275.52" y1="85.03" x2="274.90" y2="103.02" />
<line class="barb-feather" x1="274.90" y1="103.02" x2="267.97" y2="100.78" />
<text class="station-label" x="281.52" y="89.03" text-anchor="start">La Cumbre</text>
<text class="station-dev-na" x="281.52" y="99.03" text-anchor="start"><tspan class="station-dev-pos">(+1.8)</tspan><tspan fill="#444444"> (-17min)</tspan></text>
<rect class="station" x="234.58" y="128.42" width="6" height="6" />
<line class="barb-shaft" x1="237.58" y1="131.42" x2="231.66" y2="148.42" />
<line class="barb-feather" x1="231.66" y1="148.42" x2="228.28" y2="145.97" />
<text class="station-label" x="243.58" y="135.42" text-anchor="start">VOR</text>
<text class="station-dev-na" x="243.58" y="145.42" text-anchor="start"><tspan class="station-dev-pos">(+0.9)</tspan><tspan fill="#444444"> (+0min)</tspan></text>
<rect class="station" x="423.88" y="253.01" width="6" height="6" />
<circle class="barb-shaft" cx="426.88" cy="256.01" r="2.5" fill="none" />
<text class="station-label" x="432.88" y="260.01" text-anchor="start">AntFarm</text>
<text class="station-dev-na" x="432.88" y="270.01" text-anchor="start"><tspan class="station-dev-neg">(-0.2)</tspan><tspan fill="#444444"> (-33min)</tspan></text>
<rect class="station" x="602.49" y="332.38" width="6" height="6" />
<line class="barb-shaft" x1="605.49" y1="335.38" x2="598.75" y2="352.07" />
<line class="barb-feather" x1="598.75" y1="352.07" x2="595.49" y2="349.46" />
<text class="station-label" x="611.49" y="339.38" text-anchor="start">Montecito</text>
<text class="station-dev-na" x="611.49" y="349.38" text-anchor="start"><tspan class="station-dev-pos">(+0.4)</tspan><tspan fill="#444444"> (+19min)</tspan></text>
<rect class="station" x="602.49" y="346.18" width="6" height="6" />
<line class="barb-shaft" x1="605.49" y1="349.18" x2="619.68" y2="360.26" />
<line class="barb-feather" x1="619.68" y1="360.26" x2="616.27" y2="362.67" />
<text class="station-label" x="611.49" y="365.18" text-anchor="start">SM Pass</text>
<text class="station-dev-na" x="611.49" y="375.18" text-anchor="start"><tspan class="station-dev-neg">(-0.2)</tspan><tspan fill="#444444"> (+14min)</tspan></text>
<rect class="station" x="776.95" y="422.89" width="6" height="6" />
<circle class="barb-shaft" cx="779.95" cy="425.89" r="2.5" fill="none" />
<text class="station-label" x="785.95" y="429.89" text-anchor="start">Parma</text>
<text class="station-dev-na" x="785.95" y="439.89" text-anchor="start"><tspan class="station-dev-pos">(+0.2)</tspan><tspan fill="#444444"> (+10min)</tspan></text>
<rect class="station" x="932.40" y="505.94" width="6" height="6" />
<line class="barb-shaft" x1="935.40" y1="508.94" x2="953.12" y2="512.06" />
<line class="barb-feather" x1="953.12" y1="512.06" x2="951.25" y2="515.79" />
<text class="station-label" x="941.40" y="498.00" text-anchor="start">Airport</text>
<text class="station-dev-na" x="941.40" y="508.00" text-anchor="start">(n/a)</text>
<line class="rass" x1="90" y1="562" x2="114" y2="562" />
<text class="label" x="120" y="566">RASS @ 16:55</text>
<line class="dalr" x1="310" y1="562" x2="334" y2="562" />
<text class="label" x="340" y="566">DALR (9.8 C/km)</text>
<text class="legend-h" x="90" y="596">Stations</text>
<text class="legend-row" x="90" y="612"><tspan>La Cumbre 1201m @ 17:37 - 6.1C, winds 182, 10g22mph, DALR dev </tspan><tspan fill="#c62828">VOR:+1.8C</tspan><tspan>; </tspan><tspan fill="#c62828">AntFarm:+2.7C</tspan><tspan>; </tspan><tspan fill="#c62828">Montecito:+2.5C</tspan><tspan>; </tspan><tspan fill="#c62828">SM Pass:+2.9C</tspan><tspan>; </tspan><tspan fill="#c62828">Parma:+2.6C</tspan><tspan>; </tspan><tspan fill="#c62828">Airport:+2.9C</tspan></text>
<text class="legend-row" x="90" y="626"><tspan>VOR 1070m @ 17:20 - 5.6C, winds 199, 7g11mph, DALR dev </tspan><tspan fill="#c62828">AntFarm:+0.9C</tspan><tspan>; </tspan><tspan fill="#c62828">Montecito:+0.7C</tspan><tspan>; </tspan><tspan fill="#c62828">SM Pass:+1.1C</tspan><tspan>; </tspan><tspan fill="#c62828">Parma:+0.8C</tspan><tspan>; </tspan><tspan fill="#c62828">Airport:+1.1C</tspan></text>
<text class="legend-row" x="90" y="640"><tspan>AntFarm 718m @ 17:20 - 8.1C, winds 033, 1g4mph, DALR dev </tspan><tspan fill="#1565c0">Montecito:-0.2C</tspan><tspan>; </tspan><tspan fill="#c62828">SM Pass:+0.2C</tspan><tspan>; </tspan><tspan fill="#1565c0">Parma:-0.1C</tspan><tspan>; </tspan><tspan fill="#c62828">Airport:+0.2C</tspan></text>
<text class="legend-row" x="90" y="654"><tspan>Montecito 494m @ 16:47 - 10.6C, winds 202, 3g11mph, DALR dev </tspan><tspan fill="#c62828">SM Pass:+0.4C</tspan><tspan>; </tspan><tspan fill="#c62828">Parma:+0.2C</tspan><tspan>; </tspan><tspan fill="#c62828">Airport:+0.4C</tspan></text>
<text class="legend-row" x="90" y="668"><tspan>SM Pass 454m @ 17:06 - 10.6C, winds 128, 5g14mph, DALR dev </tspan><tspan fill="#1565c0">Parma:-0.2C</tspan><tspan>; </tspan><tspan fill="#1565c0">Airport:-0.0C</tspan></text>
<text class="legend-row" x="90" y="682"><tspan>Parma 238m @ 17:20 - 12.9C, winds 180, 0g2mph, DALR dev </tspan><tspan fill="#c62828">Airport:+0.2C</tspan></text>
<text class="legend-row" x="90" y="696">Airport 3m @ 17:30 - 15.0C, winds 100, 7g18mph, DALR dev n/a</text>
</svg>