<svg xmlns="http://www.w3.org/2000/svg" width="1180" height="760" viewBox="0 0 1180 760">
<style>
  .axis { stroke: #202020; stroke-width: 1; }
  .grid { stroke: #dddddd; stroke-width: 1; }
  .title { font-family: Helvetica, Arial, sans-serif; font-size: 16px; font-weight: 600; fill: #111111; }
  .label { font-family: Helvetica, Arial, sans-serif; font-size: 12px; fill: #222222; }
  .legend-h { font-family: Helvetica, Arial, sans-serif; font-size: 12px; font-weight: 600; fill: #222222; }
  .legend-row { font-family: Helvetica, Arial, sans-serif; font-size: 11px; fill: #333333; }
  .rass { fill: none; stroke: #000000; stroke-width: 2; }
  .dalr { fill: none; stroke: #000000; stroke-width: 1.5; stroke-dasharray: 6 4; stroke-opacity: 0.45; }
  .rass-point { fill: #0077b6; }
  .station { fill: #f4a261; stroke: #8b4c12; stroke-width: 1; }
  .barb-shaft { stroke: #1f2937; stroke-width: 1.3; }
  .barb-feather { stroke: #1f2937; stroke-width: 1.2; }
  .barb-flag { fill: #1f2937; stroke: #1f2937; stroke-width: 1; }
  .station-label { font-family: Helvetica, Arial, sans-serif; font-size: 11px; fill: #444444; }
  .station-dev-pos { font-family: Helvetica, Arial, sans-serif; font-size: 10px; fill: #c62828; }
  .station-dev-neg { font-family: Helvetica, Arial, sans-serif; font-size: 10px; fill: #1565c0; }
  .station-dev-na { font-family: Helvetica, Arial, sans-serif; font-size: 10px; fill: #666666; }
  .rass-dev-pos { font-family: Helvetica, Arial, sans-serif; font-size: 9px; fill: #c62828; }
  .rass-dev-neg { font-family: Helvetica, Arial, sans-serif; font-size: 9px; fill: #1565c0; }
  .rass-dev-na { font-family: Helvetica, Arial, sans-serif; font-size: 9px; fill: #666666; }
</style>
<rect x="0" y="0" width="1180" height="760" fill="#ffffff" />
<text class="title" x="90" y="28">Estimated LCL @ VOR: 3581 ft - winds 171, 6g15mph (16:00 PST)</text>
<line class="grid" x1="90" y1="510.00" x2="1110" y2="510.00" />
<text class="label" x="82" y="514.00" text-anchor="end">0</text>
<line class="grid" x1="90" y1="452.50" x2="1110" y2="452.50" />
<text class="label" x="82" y="456.50" text-anchor="end">500</text>
<line class="grid" x1="90" y1="395.00" x2="1110" y2="395.00" />
<text class="label" x="82" y="399.00" text-anchor="end">1000</text>
<line class="grid" x1="90" y1="337.50" x2="1110" y2="337.50" />
<text class="label" x="82" y="341.50" text-anchor="end">1500</text>
<line class="grid" x1="90" y1="280.00" x2="1110" y2="280.00" />
<text class="label" x="82" y="284.00" text-anchor="end">2000</text>
<line class="grid" x1="90" y1="222.50" x2="1110" y2="222.50" />
<text class="label" x="82" y="226.50" text-anchor="end">2500</text>
<line class="grid" x1="90" y1="165.00" x2="1110" y2="165.00" />
<text class="label" x="82" y="169.00" text-anchor="end">3000</text>
<line class="grid" x1="90" y1="107.50" x2="1110" y2="107.50" />
<text class="label" x="82" y="111.50" text-anchor="end">3500</text>
<line class="grid" x1="90" y1="50.00" x2="1110" y2="50.00" />
<text class="label" x="82" y="54.00" text-anchor="end">4000</text>
<line class="grid" x1="158.71" y1="50" x2="158.71" y2="510" />
<text class="label" x="158.71" y="528" text-anchor="middle">40.0</text>
<line class="grid" x1="382.02" y1="50" x2="382.02" y2="510" />
<text class="label" x="382.02" y="528" text-anchor="middle">45.0</text>
<line class="grid" x1="605.33" y1="50" x2="605.33" y2="510" />
<text class="label" x="605.33" y="528" text-anchor="middle">50.0</text>
<line class="grid" x1="828.63" y1="50" x2="828.63" y2="510" />
<text class="label" x="828.63" y="528" text-anchor="middle">55.0</text>
<line class="grid" x1="1051.94" y1="50" x2="1051.94" y2="510" />
<text class="label" x="1051.94" y="528" text-anchor="middle">60.0</text>
<line class="axis" x1="90" y1="50" x2="90" y2="510" />
<line class="axis" x1="90" y1="510" x2="1110" y2="510" />
<text class="label" x="600.00" y="546" text-anchor="middle">Temperature (F)</text>
<text class="label" x="26" y="280.00" text-anchor="middle" transform="rotate(-90 26 280.00)">Altitude (ft)</text>
<path class="rass" d="M918.77,434.54 L911.13,396.81 L874.07,359.08 L870.62,321.35 L785.00,283.62 L710.32,245.89 L670.44,208.16 L628.96,170.43 L572.53,132.70 L530.08,94.97" />
<path class="dalr" d="M1077.02,510.00 L112.33,50.00" />
<circle class="rass-point" cx="918.77" cy="434.54" r="2" />
<text class="rass-dev-na" x="924.77" y="431.54" text-anchor="start">(n/a)</text>
<circle class="rass-point" cx="911.13" cy="396.81" r="2" />
<text class="rass-dev-pos" x="905.13" y="393.81" text-anchor="end">(+1.6)</text>
<circle class="rass-point" cx="874.07" cy="359.08" r="2" />
<text class="rass-dev-pos" x="880.07" y="356.08" text-anchor="start">(+0.9)</text>
<circle class="rass-point" cx="870.62" cy="321.35" r="2" />
<text class="rass-dev-pos" x="864.62" y="318.35" text-anchor="end">(+1.7)</text>
<circle class="rass-point" cx="785.00" cy="283.62" r="2" />
<text class="rass-dev-neg" x="791.00" y="280.62" text-anchor="start">(-0.1)</text>
<circle class="rass-point" cx="710.32" cy="245.89" r="2" />
<text class="rass-dev-pos" x="704.32" y="242.89" text-anchor="end">(+0.1)</text>
<circle class="rass-point" cx="670.44" cy="208.16" r="2" />
<text class="rass-dev-pos" x="676.44" y="205.16" text-anchor="start">(+0.9)</text>
<circle class="rass-point" cx="628.96" cy="170.43" r="2" />
<text class="rass-dev-pos" x="622.96" y="167.43" text-anchor="end">(+0.8)</text>
<circle class="rass-point" cx="572.53" cy="132.70" r="2" />
<text class="rass-dev-pos" x="578.53" y="129.70" text-anchor="start">(+0.5)</text>
<circle class="rass-point" cx="530.08" cy="94.97" r="2" />
<text class="rass-dev-pos" x="524.08" y="91.97" text-anchor="end">(+0.8)</text>
<rect class="station" x="513.00" y="53.87" width="6" height="6" />
<line class="barb-shaft" x1="516.00" y1="56.87" x2="521.86" y2="73.89" />
<line class="barb-feather" x1="521.86" y1="73.89" x2="514.59" y2="74.27" />
<text class="station-label" x="522.00" y="64.00" text-anchor="start">La Cumbre</text>
<text class="station-dev-na" x="522.00" y="74.00" text-anchor="start"><tspan class="station-dev-pos">(+4.7)</tspan><tspan fill="#444444"> (-14min)</tspan></text>
<rect class="station" x="407.14" y="103.33" width="6" height="6" />
<line class="barb-shaft" x1="410.14" y1="106.33" x2="412.95" y2="124.11" />
<line class="barb-feather" x1="412.95" y1="124.11" x2="408.82" y2="123.55" />
<text class="station-label" x="416.14" y="110.33" text-anchor="start">VOR</text>
<text class="station-dev-na" x="416.14" y="120.33" text-anchor="start"><tspan class="station-dev-pos">(+2.1)</tspan><tspan fill="#444444"> (+0min)</tspan></text>
<rect class="station" x="589.78" y="236.18" width="6" height="6" />
<line class="barb-shaft" x1="592.78" y1="239.18" x2="607.62" y2="228.98" />
<line class="barb-feather" x1="607.62" y1="228.98" x2="608.90" y2="232.96" />
<text class="station-label" x="598.78" y="243.18" text-anchor="start">AntFarm</text>
<text class="station-dev-na" x="598.78" y="253.18" text-anchor="start"><tspan class="station-dev-neg">(-1.3)</tspan><tspan fill="#444444"> (-13min)</tspan></text>
<rect class="station" x="825.65" y="320.80" width="6" height="6" />
<line class="barb-shaft" x1="828.65" y1="323.80" x2="824.91" y2="341.41" />
<line class="barb-feather" x1="824.91" y1="341.41" x2="821.25" y2="339.41" />
<text class="station-label" x="834.65" y="327.80" text-anchor="start">Montecito</text>
<text class="station-dev-na" x="834.65" y="337.80" text-anchor="start"><tspan class="station-dev-pos">(+1.5)</tspan><tspan fill="#444444"> (+13min)</tspan></text>
<rect class="station" x="943.99" y="417.32" width="6" height="6" />
<circle class="barb-shaft" cx="946.99" cy="420.32" r="2.5" fill="none" />
<text class="station-label" x="952.99" y="424.32" text-anchor="start">Parma</text>
<text class="station-dev-na" x="952.99" y="434.32" text-anchor="start"><tspan class="station-dev-pos">(+1.0)</tspan><tspan fill="#444444"> (+0min)</tspan></text>
<rect class="station" x="948.01" y="410.07" width="6" height="6" />
<line class="barb-shaft" x1="951.01" y1="413.07" x2="964.02" y2="425.51" />
<line class="barb-feather" x1="964.02" y1="425.51" x2="960.39" y2="427.57" />
<text class="station-label" x="957.01" y="453.07" text-anchor="start">Romero Cyn</text>
<text class="station-dev-na" x="957.01" y="463.07" text-anchor="start"><tspan class="station-dev-pos">(+0.4)</tspan><tspan fill="#444444"> (+0min)</tspan></text>
<rect class="station" x="1084.67" y="505.87" width="6" height="6" />
<line class="barb-shaft" x1="1087.67" y1="508.87" x2="1070.75" y2="515.02" />
<line class="barb-feather" x1="1070.75" y1="515.02" x2="1070.51" y2="510.86" />
<text class="station-label" x="1081.67" y="498.00" text-anchor="end">Airport</text>
<text class="station-dev-na" x="1081.67" y="508.00" text-anchor="end">(n/a)</text>
<line class="rass" x1="90" y1="562" x2="114" y2="562" />
<text class="label" x="120" y="566">RASS @ 15:55</text>
<line class="dalr" x1="310" y1="562" x2="334" y2="562" />
<text class="label" x="340" y="566">DALR (5.4 F/1000 ft)</text>
<text class="legend-h" x="90" y="596">Stations</text>
<text class="legend-row" x="90" y="612"><tspan>La Cumbre @ 16:14 - 48.0F, winds 161, 13g18mph, DALR dev </tspan><tspan fill="#c62828">VOR:+4.7F</tspan><tspan>; </tspan><tspan fill="#c62828">AntFarm:+6.8F</tspan><tspan>; </tspan><tspan fill="#c62828">Montecito:+5.5F</tspan><tspan>; </tspan><tspan fill="#c62828">SM Pass:+4.2F</tspan><tspan>; </tspan><tspan fill="#c62828">Romero Cyn:+7.0F</tspan><tspan>; </tspan><tspan fill="#c62828">Parma:+7.4F</tspan><tspan>; </tspan><tspan fill="#c62828">Airport:+8.4F</tspan></text>
<text class="legend-row" x="90" y="626"><tspan>VOR @ 16:00 - 45.6F, winds 171, 6g15mph, DALR dev </tspan><tspan fill="#c62828">AntFarm:+2.1F</tspan><tspan>; </tspan><tspan fill="#c62828">Montecito:+0.8F</tspan><tspan>; </tspan><tspan fill="#1565c0">SM Pass:-0.5F</tspan><tspan>; </tspan><tspan fill="#c62828">Romero Cyn:+2.3F</tspan><tspan>; </tspan><tspan fill="#c62828">Parma:+2.7F</tspan><tspan>; </tspan><tspan fill="#c62828">Airport:+3.7F</tspan></text>
<text class="legend-row" x="90" y="640"><tspan>AntFarm @ 16:00 - 49.7F, winds 056, 5g9mph, DALR dev </tspan><tspan fill="#1565c0">Montecito:-1.3F</tspan><tspan>; </tspan><tspan fill="#1565c0">SM Pass:-2.6F</tspan><tspan>; </tspan><tspan fill="#c62828">Romero Cyn:+0.1F</tspan><tspan>; </tspan><tspan fill="#c62828">Parma:+0.6F</tspan><tspan>; </tspan><tspan fill="#c62828">Airport:+1.6F</tspan></text>
<text class="legend-row" x="90" y="654"><tspan>Montecito @ 15:47 - 55.0F, winds 192, 5g15mph, DALR dev </tspan><tspan fill="#1565c0">SM Pass:-1.3F</tspan><tspan>; </tspan><tspan fill="#c62828">Romero Cyn:+1.5F</tspan><tspan>; </tspan><tspan fill="#c62828">Parma:+1.9F</tspan><tspan>; </tspan><tspan fill="#c62828">Airport:+2.9F</tspan></text>
<text class="legend-row" x="90" y="668"><tspan>SM Pass @ 15:06 - 57.0F, winds 139, 8g17mph, DALR dev </tspan><tspan fill="#c62828">Romero Cyn:+2.8F</tspan><tspan>; </tspan><tspan fill="#c62828">Parma:+3.2F</tspan><tspan>; </tspan><tspan fill="#c62828">Airport:+4.2F</tspan></text>
<text class="legend-row" x="90" y="682"><tspan>Parma @ 16:00 - 57.6F, winds 200, 2g7mph, DALR dev </tspan><tspan fill="#c62828">Airport:+1.0F</tspan></text>
<text class="legend-row" x="90" y="696"><tspan>Romero Cyn @ 16:00 - 57.7F, winds 134, 5g9mph, DALR dev </tspan><tspan fill="#c62828">Parma:+0.4F</tspan><tspan>; </tspan><tspan fill="#c62828">Airport:+1.4F</tspan></text>
<text class="legend-row" x="90" y="710">Airport @ 16:00 - 60.8F, winds 250, 5g17mph, DALR dev n/a</text>
</svg>