<svg xmlns="http://www.w3.org/2000/svg" width="1180" height="760" viewBox="0 0 1180 760">
<style>
  .axis { stroke: #202020; stroke-width: 1; }
  .grid { stroke: #dddddd; stroke-width: 1; }
  .title { font-family: Helvetica, Arial, sans-serif; font-size: 16px; font-weight: 600; fill: #111111; }
  .label { font-family: Helvetica, Arial, sans-serif; font-size: 12px; fill: #222222; }
  .legend-h { font-family: Helvetica, Arial, sans-serif; font-size: 12px; font-weight: 600; fill: #222222; }
  .legend-row { font-family: Helvetica, Arial, sans-serif; font-size: 11px; fill: #333333; }
  .rass { fill: none; stroke: #000000; stroke-width: 2; }
  .dalr { fill: none; stroke: #000000; stroke-width: 1.5; stroke-dasharray: 6 4; stroke-opacity: 0.45; }
  .rass-point { fill: #0077b6; }
  .station { fill: #f4a261; stroke: #8b4c12; stroke-width: 1; }
  .barb-shaft { stroke: #1f2937; stroke-width: 1.3; }
  .barb-feather { stroke: #1f2937; stroke-width: 1.2; }
  .barb-flag { fill: #1f2937; stroke: #1f2937; stroke-width: 1; }
  .station-label { font-family: Helvetica, Arial, sans-serif; font-size: 11px; fill: #444444; }
  .station-dev-pos { font-family: Helvetica, Arial, sans-serif; font-size: 10px; fill: #c62828; }
  .station-dev-neg { font-family: Helvetica, Arial, sans-serif; font-size: 10px; fill: #1565c0; }
  .station-dev-na { font-family: Helvetica, Arial, sans-serif; font-size: 10px; fill: #666666; }
  .rass-dev-pos { font-family: Helvetica, Arial, sans-serif; font-size: 9px; fill: #c62828; }
  .rass-dev-neg { font-family: Helvetica, Arial, sans-serif; font-size: 9px; fill: #1565c0; }
  .rass-dev-na { font-family: Helvetica, Arial, sans-serif; font-size: 9px; fill: #666666; }
</style>
<rect x="0" y="0" width="1180" height="760" fill="#ffffff" />
<text class="title" x="90" y="28">Estimated LCL @ VOR: 1389 m - winds 185, 5g10mph (10:20 PST)</text>
<line class="grid" x1="90" y1="510.00" x2="1110" y2="510.00" />
<text class="label" x="82" y="514.00" text-anchor="end">0</text>
<line class="grid" x1="90" y1="439.23" x2="1110" y2="439.23" />
<text class="label" x="82" y="443.23" text-anchor="end">200</text>
<line class="grid" x1="90" y1="368.46" x2="1110" y2="368.46" />
<text class="label" x="82" y="372.46" text-anchor="end">400</text>
<line class="grid" x1="90" y1="297.69" x2="1110" y2="297.69" />
<text class="label" x="82" y="301.69" text-anchor="end">600</text>
<line class="grid" x1="90" y1="226.92" x2="1110" y2="226.92" />
<text class="label" x="82" y="230.92" text-anchor="end">800</text>
<line class="grid" x1="90" y1="156.15" x2="1110" y2="156.15" />
<text class="label" x="82" y="160.15" text-anchor="end">1000</text>
<line class="grid" x1="90" y1="85.38" x2="1110" y2="85.38" />
<text class="label" x="82" y="89.38" text-anchor="end">1200</text>
<line class="grid" x1="217.33" y1="50" x2="217.33" y2="510" />
<text class="label" x="217.33" y="528" text-anchor="middle">5.0</text>
<line class="grid" x1="574.40" y1="50" x2="574.40" y2="510" />
<text class="label" x="574.40" y="528" text-anchor="middle">10.0</text>
<line class="grid" x1="931.47" y1="50" x2="931.47" y2="510" />
<text class="label" x="931.47" y="528" text-anchor="middle">15.0</text>
<line class="axis" x1="90" y1="50" x2="90" y2="510" />
<line class="axis" x1="90" y1="510" x2="1110" y2="510" />
<text class="label" x="600.00" y="546" text-anchor="middle">Temperature (C)</text>
<text class="label" x="26" y="280.00" text-anchor="middle" transform="rotate(-90 26 280.00)">Altitude (m)</text>
<path class="rass" d="M895.55,439.23 L875.12,403.85 L763.36,368.46 L660.09,333.08 L593.18,297.69 L526.48,262.31 L468.78,226.92 L399.86,191.54 L333.66,156.15" />
<path class="dalr" d="M1035.52,510.00 L125.71,50.00" />
<circle class="rass-point" cx="895.55" cy="439.23" r="2" />
<text class="rass-dev-na" x="901.55" y="436.23" text-anchor="start">(n/a)</text>
<circle class="rass-point" cx="875.12" cy="403.85" r="2" />
<text class="rass-dev-pos" x="869.12" y="400.85" text-anchor="end">(+0.7)</text>
<circle class="rass-point" cx="763.36" cy="368.46" r="2" />
<text class="rass-dev-neg" x="769.36" y="365.46" text-anchor="start">(-0.6)</text>
<circle class="rass-point" cx="660.09" cy="333.08" r="2" />
<text class="rass-dev-neg" x="654.09" y="330.08" text-anchor="end">(-0.5)</text>
<circle class="rass-point" cx="593.18" cy="297.69" r="2" />
<text class="rass-dev-pos" x="599.18" y="294.69" text-anchor="start">(+0.0)</text>
<circle class="rass-point" cx="526.48" cy="262.31" r="2" />
<text class="rass-dev-pos" x="520.48" y="259.31" text-anchor="end">(+0.0)</text>
<circle class="rass-point" cx="468.78" cy="226.92" r="2" />
<text class="rass-dev-pos" x="474.78" y="223.92" text-anchor="start">(+0.2)</text>
<circle class="rass-point" cx="399.86" cy="191.54" r="2" />
<text class="rass-dev-pos" x="393.86" y="188.54" text-anchor="end">(+0.0)</text>
<circle class="rass-point" cx="333.66" cy="156.15" r="2" />
<text class="rass-dev-pos" x="339.66" y="153.15" text-anchor="start">(+0.1)</text>
<rect class="station" x="492.05" y="82.03" width="6" height="6" />
<line class="barb-shaft" x1="495.05" y1="85.03" x2="495.68" y2="103.02" />
<line class="barb-feather" x1="495.68" y1="103.02" x2="488.61" y2="101.27" />
<text class="station-label" x="501.05" y="89.03" text-anchor="start">La Cumbre</text>
<text class="station-dev-na" x="501.05" y="99.03" text-anchor="start"><tspan class="station-dev-pos">(+2.4)</tspan><tspan fill="#444444"> (-11min)</tspan></text>
<rect class="station" x="410.72" y="128.42" width="6" height="6" />
<line class="barb-shaft" x1="413.72" y1="131.42" x2="412.21" y2="149.36" />
<line class="barb-feather" x1="412.21" y1="149.36" x2="408.33" y2="147.83" />
<text class="station-label" x="419.72" y="135.42" text-anchor="start">VOR</text>
<text class="station-dev-na" x="419.72" y="145.42" text-anchor="start"><tspan class="station-dev-pos">(+1.6)</tspan><tspan fill="#444444"> (+0min)</tspan></text>
<rect class="station" x="546.40" y="253.01" width="6" height="6" />
<line class="barb-shaft" x1="549.40" y1="256.01" x2="565.09" y2="247.18" />
<line class="barb-feather" x1="565.09" y1="247.18" x2="566.78" y2="254.26" />
<text class="station-label" x="555.40" y="260.01" text-anchor="start">AntFarm</text>
<text class="station-dev-na" x="555.40" y="270.01" text-anchor="start"><tspan class="station-dev-pos">(+0.7)</tspan><tspan fill="#444444"> (-33min)</tspan></text>
<rect class="station" x="650.74" y="332.38" width="6" height="6" />
<line class="barb-shaft" x1="653.74" y1="335.38" x2="670.18" y2="342.70" />
<line class="barb-feather" x1="670.18" y1="342.70" x2="665.51" y2="348.28" />
<text class="station-label" x="659.74" y="339.38" text-anchor="start">Montecito</text>
<text class="station-dev-na" x="659.74" y="349.38" text-anchor="start"><tspan class="station-dev-neg">(-1.0)</tspan><tspan fill="#444444"> (+33min)</tspan></text>
<rect class="station" x="904.68" y="422.89" width="6" height="6" />
<line class="barb-shaft" x1="907.68" y1="425.89" x2="900.65" y2="442.46" />
<line class="barb-feather" x1="900.65" y1="442.46" x2="897.44" y2="439.79" />
<text class="station-label" x="913.68" y="429.89" text-anchor="start">Parma</text>
<text class="station-dev-na" x="913.68" y="439.89" text-anchor="start"><tspan class="station-dev-neg">(-0.0)</tspan><tspan fill="#444444"> (+0min)</tspan></text>
<rect class="station" x="1071.29" y="505.94" width="6" height="6" />
<line class="barb-shaft" x1="1074.29" y1="508.94" x2="1089.88" y2="517.94" />
<line class="barb-feather" x1="1089.88" y1="517.94" x2="1084.65" y2="523.00" />
<text class="station-label" x="1068.29" y="498.00" text-anchor="end">Airport</text>
<text class="station-dev-na" x="1068.29" y="508.00" text-anchor="end">(n/a)</text>
<line class="rass" x1="90" y1="562" x2="114" y2="562" />
<text class="label" x="120" y="566">RASS @ 09:55</text>
<line class="dalr" x1="310" y1="562" x2="334" y2="562" />
<text class="label" x="340" y="566">DALR (9.8 C/km)</text>
<text class="legend-h" x="90" y="596">Stations</text>
<text class="legend-row" x="90" y="612"><tspan>La Cumbre 1201m @ 10:31 - 8.9C, winds 178, 12g17mph, DALR dev </tspan><tspan fill="#c62828">VOR:+2.4C</tspan><tspan>; </tspan><tspan fill="#c62828">AntFarm:+4.0C</tspan><tspan>; </tspan><tspan fill="#c62828">Montecito:+4.7C</tspan><tspan>; </tspan><tspan fill="#c62828">SM Pass:+5.6C</tspan><tspan>; </tspan><tspan fill="#c62828">Parma:+3.7C</tspan><tspan>; </tspan><tspan fill="#c62828">Airport:+3.6C</tspan></text>
<text class="legend-row" x="90" y="626"><tspan>VOR 1070m @ 10:20 - 7.7C, winds 185, 5g10mph, DALR dev </tspan><tspan fill="#c62828">AntFarm:+1.6C</tspan><tspan>; </tspan><tspan fill="#c62828">Montecito:+2.3C</tspan><tspan>; </tspan><tspan fill="#c62828">SM Pass:+3.2C</tspan><tspan>; </tspan><tspan fill="#c62828">Parma:+1.2C</tspan><tspan>; </tspan><tspan fill="#c62828">Airport:+1.2C</tspan></text>
<text class="legend-row" x="90" y="640"><tspan>AntFarm 718m @ 10:20 - 9.6C, winds 061, 14g20mph, DALR dev </tspan><tspan fill="#c62828">Montecito:+0.7C</tspan><tspan>; </tspan><tspan fill="#c62828">SM Pass:+1.7C</tspan><tspan>; </tspan><tspan fill="#1565c0">Parma:-0.3C</tspan><tspan>; </tspan><tspan fill="#1565c0">Airport:-0.3C</tspan></text>
<text class="legend-row" x="90" y="654"><tspan>Montecito 494m @ 09:47 - 11.1C, winds 114, 9g14mph, DALR dev </tspan><tspan fill="#c62828">SM Pass:+0.9C</tspan><tspan>; </tspan><tspan fill="#1565c0">Parma:-1.0C</tspan><tspan>; </tspan><tspan fill="#1565c0">Airport:-1.1C</tspan></text>
<text class="legend-row" x="90" y="668"><tspan>SM Pass 454m @ 10:06 - 10.6C, winds 148, 6g19mph, DALR dev </tspan><tspan fill="#1565c0">Parma:-2.0C</tspan><tspan>; </tspan><tspan fill="#1565c0">Airport:-2.0C</tspan></text>
<text class="legend-row" x="90" y="682"><tspan>Parma 238m @ 10:20 - 14.7C, winds 203, 3g10mph, DALR dev </tspan><tspan fill="#1565c0">Airport:-0.0C</tspan></text>
<text class="legend-row" x="90" y="696">Airport 3m @ 10:20 - 17.0C, winds 120, 12g17mph, DALR dev n/a</text>
</svg>