<svg xmlns="http://www.w3.org/2000/svg" width="1180" height="760" viewBox="0 0 1180 760">
<style>
  .axis { stroke: #202020; stroke-width: 1; }
  .grid { stroke: #dddddd; stroke-width: 1; }
  .title { font-family: Helvetica, Arial, sans-serif; font-size: 16px; font-weight: 600; fill: #111111; }
  .label { font-family: Helvetica, Arial, sans-serif; font-size: 12px; fill: #222222; }
  .legend-h { font-family: Helvetica, Arial, sans-serif; font-size: 12px; font-weight: 600; fill: #222222; }
  .legend-row { font-family: Helvetica, Arial, sans-serif; font-size: 11px; fill: #333333; }
  .rass { fill: none; stroke: #000000; stroke-width: 2; }
  .dalr { fill: none; stroke: #000000; stroke-width: 1.5; stroke-dasharray: 6 4; stroke-opacity: 0.45; }
  .rass-point { fill: #0077b6; }
  .station { fill: #f4a261; stroke: #8b4c12; stroke-width: 1; }
  .barb-shaft { stroke: #1f2937; stroke-width: 1.3; }
  .barb-feather { stroke: #1f2937; stroke-width: 1.2; }
  .barb-flag { fill: #1f2937; stroke: #1f2937; stroke-width: 1; }
  .station-label { font-family: Helvetica, Arial, sans-serif; font-size: 11px; fill: #444444; }
  .station-dev-pos { font-family: Helvetica, Arial, sans-serif; font-size: 10px; fill: #c62828; }
  .station-dev-neg { font-family: Helvetica, Arial, sans-serif; font-size: 10px; fill: #1565c0; }
  .station-dev-na { font-family: Helvetica, Arial, sans-serif; font-size: 10px; fill: #666666; }
  .rass-dev-pos { font-family: Helvetica, Arial, sans-serif; font-size: 9px; fill: #c62828; }
  .rass-dev-neg { font-family: Helvetica, Arial, sans-serif; font-size: 9px; fill: #1565c0; }
  .rass-dev-na { font-family: Helvetica, Arial, sans-serif; font-size: 9px; fill: #666666; }
</style>
<rect x="0" y="0" width="1180" height="760" fill="#ffffff" />
<text class="title" x="90" y="28">Estimated LCL @ VOR: 4191 ft - winds 131, 7g14mph (09:30 PST)</text>
<line class="grid" x1="90" y1="510.00" x2="1110" y2="510.00" />
<text class="label" x="82" y="514.00" text-anchor="end">0</text>
<line class="grid" x1="90" y1="452.50" x2="1110" y2="452.50" />
<text class="label" x="82" y="456.50" text-anchor="end">500</text>
<line class="grid" x1="90" y1="395.00" x2="1110" y2="395.00" />
<text class="label" x="82" y="399.00" text-anchor="end">1000</text>
<line class="grid" x1="90" y1="337.50" x2="1110" y2="337.50" />
<text class="label" x="82" y="341.50" text-anchor="end">1500</text>
<line class="grid" x1="90" y1="280.00" x2="1110" y2="280.00" />
<text class="label" x="82" y="284.00" text-anchor="end">2000</text>
<line class="grid" x1="90" y1="222.50" x2="1110" y2="222.50" />
<text class="label" x="82" y="226.50" text-anchor="end">2500</text>
<line class="grid" x1="90" y1="165.00" x2="1110" y2="165.00" />
<text class="label" x="82" y="169.00" text-anchor="end">3000</text>
<line class="grid" x1="90" y1="107.50" x2="1110" y2="107.50" />
<text class="label" x="82" y="111.50" text-anchor="end">3500</text>
<line class="grid" x1="90" y1="50.00" x2="1110" y2="50.00" />
<text class="label" x="82" y="54.00" text-anchor="end">4000</text>
<line class="grid" x1="159.01" y1="50" x2="159.01" y2="510" />
<text class="label" x="159.01" y="528" text-anchor="middle">40.0</text>
<line class="grid" x1="382.25" y1="50" x2="382.25" y2="510" />
<text class="label" x="382.25" y="528" text-anchor="middle">45.0</text>
<line class="grid" x1="605.49" y1="50" x2="605.49" y2="510" />
<text class="label" x="605.49" y="528" text-anchor="middle">50.0</text>
<line class="grid" x1="828.72" y1="50" x2="828.72" y2="510" />
<text class="label" x="828.72" y="528" text-anchor="middle">55.0</text>
<line class="grid" x1="1051.96" y1="50" x2="1051.96" y2="510" />
<text class="label" x="1051.96" y="528" text-anchor="middle">60.0</text>
<line class="axis" x1="90" y1="50" x2="90" y2="510" />
<line class="axis" x1="90" y1="510" x2="1110" y2="510" />
<text class="label" x="600.00" y="546" text-anchor="middle">Temperature (F)</text>
<text class="label" x="26" y="280.00" text-anchor="middle" transform="rotate(-90 26 280.00)">Altitude (ft)</text>
<path class="rass" d="M918.51,434.54 L880.25,396.81 L834.61,359.08 L739.94,321.35 L666.80,283.62 L628.87,245.89" />
<path class="dalr" d="M1076.71,510.00 L112.32,50.00" />
<circle class="rass-point" cx="918.51" cy="434.54" r="2" />
<text class="rass-dev-na" x="924.51" y="431.54" text-anchor="start">(n/a)</text>
<circle class="rass-point" cx="880.25" cy="396.81" r="2" />
<text class="rass-dev-pos" x="874.25" y="393.81" text-anchor="end">(+0.9)</text>
<circle class="rass-point" cx="834.61" cy="359.08" r="2" />
<text class="rass-dev-pos" x="840.61" y="356.08" text-anchor="start">(+0.7)</text>
<circle class="rass-point" cx="739.94" cy="321.35" r="2" />
<text class="rass-dev-neg" x="733.94" y="318.35" text-anchor="end">(-0.3)</text>
<circle class="rass-point" cx="666.80" cy="283.62" r="2" />
<text class="rass-dev-pos" x="672.80" y="280.62" text-anchor="start">(+0.1)</text>
<circle class="rass-point" cx="628.87" cy="245.89" r="2" />
<text class="rass-dev-pos" x="622.87" y="242.89" text-anchor="end">(+0.9)</text>
<rect class="station" x="289.95" y="53.87" width="6" height="6" />
<line class="barb-shaft" x1="292.95" y1="56.87" x2="305.00" y2="70.24" />
<line class="barb-feather" x1="305.00" y1="70.24" x2="298.46" y2="73.44" />
<text class="station-label" x="298.95" y="64.00" text-anchor="start">La Cumbre</text>
<text class="station-dev-na" x="298.95" y="74.00" text-anchor="start"><tspan class="station-dev-pos">(+2.6)</tspan><tspan fill="#444444"> (-9min)</tspan></text>
<rect class="station" x="276.12" y="103.33" width="6" height="6" />
<line class="barb-shaft" x1="279.12" y1="106.33" x2="292.68" y2="118.16" />
<line class="barb-feather" x1="292.68" y1="118.16" x2="289.15" y2="120.39" />
<text class="station-label" x="285.12" y="110.33" text-anchor="start">VOR</text>
<text class="station-dev-na" x="285.12" y="120.33" text-anchor="start"><tspan class="station-dev-pos">(+1.7)</tspan><tspan fill="#444444"> (+0min)</tspan></text>
<rect class="station" x="477.92" y="236.18" width="6" height="6" />
<line class="barb-shaft" x1="480.92" y1="239.18" x2="496.99" y2="231.06" />
<line class="barb-feather" x1="496.99" y1="231.06" x2="498.36" y2="238.21" />
<line class="barb-feather" x1="493.42" y1="232.86" x2="494.15" y2="236.98" />
<text class="station-label" x="486.92" y="243.18" text-anchor="start">AntFarm</text>
<text class="station-dev-na" x="486.92" y="253.18" text-anchor="start"><tspan class="station-dev-pos">(+1.2)</tspan><tspan fill="#444444"> (-43min)</tspan></text>
<rect class="station" x="602.48" y="320.80" width="6" height="6" />
<line class="barb-shaft" x1="605.48" y1="323.80" x2="619.86" y2="312.97" />
<line class="barb-feather" x1="619.86" y1="312.97" x2="621.31" y2="316.89" />
<text class="station-label" x="611.48" y="327.80" text-anchor="start">Montecito</text>
<text class="station-dev-na" x="611.48" y="337.80" text-anchor="start"><tspan class="station-dev-neg">(-0.3)</tspan><tspan fill="#444444"> (+19min)</tspan></text>
<rect class="station" x="647.17" y="335.52" width="6" height="6" />
<line class="barb-shaft" x1="650.17" y1="338.52" x2="668.16" y2="338.83" />
<line class="barb-feather" x1="668.16" y1="338.83" x2="666.04" y2="345.80" />
<text class="station-label" x="656.17" y="354.52" text-anchor="start">SM Pass</text>
<text class="station-dev-na" x="656.17" y="364.52" text-anchor="start"><tspan class="station-dev-neg">(-0.7)</tspan><tspan fill="#444444"> (+24min)</tspan></text>
<rect class="station" x="849.37" y="417.32" width="6" height="6" />
<circle class="barb-shaft" cx="852.37" cy="420.32" r="2.5" fill="none" />
<text class="station-label" x="858.37" y="424.32" text-anchor="start">Parma</text>
<text class="station-dev-na" x="858.37" y="434.32" text-anchor="start"><tspan class="station-dev-neg">(-1.1)</tspan><tspan fill="#444444"> (+5min)</tspan></text>
<rect class="station" x="1084.68" y="505.87" width="6" height="6" />
<line class="barb-shaft" x1="1087.68" y1="508.87" x2="1105.68" y2="508.87" />
<line class="barb-feather" x1="1105.68" y1="508.87" x2="1104.48" y2="512.87" />
<text class="station-label" x="1081.68" y="498.00" text-anchor="end">Airport</text>
<text class="station-dev-na" x="1081.68" y="508.00" text-anchor="end">(n/a)</text>
<line class="rass" x1="90" y1="562" x2="114" y2="562" />
<text class="label" x="120" y="566">RASS @ 08:55</text>
<line class="dalr" x1="310" y1="562" x2="334" y2="562" />
<text class="label" x="340" y="566">DALR (5.4 F/1000 ft)</text>
<text class="legend-h" x="90" y="596">Stations</text>
<text class="legend-row" x="90" y="612"><tspan>La Cumbre 3940ft @ 09:39 - 43.0F, winds 138, 13g16mph, DALR dev </tspan><tspan fill="#c62828">VOR:+2.6F</tspan><tspan>; </tspan><tspan fill="#c62828">AntFarm:+4.4F</tspan><tspan>; </tspan><tspan fill="#c62828">Montecito:+5.5F</tspan><tspan>; </tspan><tspan fill="#c62828">SM Pass:+5.2F</tspan><tspan>; </tspan><tspan fill="#c62828">Parma:+4.5F</tspan><tspan>; </tspan><tspan fill="#c62828">Airport:+3.4F</tspan></text>
<text class="legend-row" x="90" y="626"><tspan>VOR 3510ft @ 09:30 - 42.7F, winds 131, 7g14mph, DALR dev </tspan><tspan fill="#c62828">AntFarm:+1.7F</tspan><tspan>; </tspan><tspan fill="#c62828">Montecito:+2.9F</tspan><tspan>; </tspan><tspan fill="#c62828">SM Pass:+2.6F</tspan><tspan>; </tspan><tspan fill="#c62828">Parma:+1.9F</tspan><tspan>; </tspan><tspan fill="#c62828">Airport:+0.8F</tspan></text>
<text class="legend-row" x="90" y="640"><tspan>AntFarm 2355ft @ 09:30 - 47.2F, winds 063, 14g19mph, DALR dev </tspan><tspan fill="#c62828">Montecito:+1.2F</tspan><tspan>; </tspan><tspan fill="#c62828">SM Pass:+0.9F</tspan><tspan>; </tspan><tspan fill="#c62828">Parma:+0.2F</tspan><tspan>; </tspan><tspan fill="#1565c0">Airport:-0.9F</tspan></text>
<text class="legend-row" x="90" y="654"><tspan>Montecito 1619ft @ 08:47 - 50.0F, winds 053, 5g10mph, DALR dev </tspan><tspan fill="#1565c0">SM Pass:-0.3F</tspan><tspan>; </tspan><tspan fill="#1565c0">Parma:-1.0F</tspan><tspan>; </tspan><tspan fill="#1565c0">Airport:-2.1F</tspan></text>
<text class="legend-row" x="90" y="668"><tspan>SM Pass 1491ft @ 09:06 - 51.0F, winds 091, 10g16mph, DALR dev </tspan><tspan fill="#1565c0">Parma:-0.7F</tspan><tspan>; </tspan><tspan fill="#1565c0">Airport:-1.8F</tspan></text>
<text class="legend-row" x="90" y="682"><tspan>Parma 780ft @ 09:30 - 55.5F, winds 219, 2g6mph, DALR dev </tspan><tspan fill="#1565c0">Airport:-1.1F</tspan></text>
<text class="legend-row" x="90" y="696">Airport 10ft @ 09:35 - 60.8F, winds 090, 8g17mph, DALR dev n/a</text>
</svg>