<svg xmlns="http://www.w3.org/2000/svg" width="1180" height="760" viewBox="0 0 1180 760">
<style>
  .axis { stroke: #202020; stroke-width: 1; }
  .grid { stroke: #dddddd; stroke-width: 1; }
  .title { font-family: Helvetica, Arial, sans-serif; font-size: 16px; font-weight: 600; fill: #111111; }
  .label { font-family: Helvetica, Arial, sans-serif; font-size: 12px; fill: #222222; }
  .legend-h { font-family: Helvetica, Arial, sans-serif; font-size: 12px; font-weight: 600; fill: #222222; }
  .legend-row { font-family: Helvetica, Arial, sans-serif; font-size: 11px; fill: #333333; }
  .rass { fill: none; stroke: #000000; stroke-width: 2; }
  .dalr { fill: none; stroke: #000000; stroke-width: 1.5; stroke-dasharray: 6 4; stroke-opacity: 0.45; }
  .rass-point { fill: #0077b6; }
  .station { fill: #f4a261; stroke: #8b4c12; stroke-width: 1; }
  .barb-shaft { stroke: #1f2937; stroke-width: 1.3; }
  .barb-feather { stroke: #1f2937; stroke-width: 1.2; }
  .barb-flag { fill: #1f2937; stroke: #1f2937; stroke-width: 1; }
  .station-label { font-family: Helvetica, Arial, sans-serif; font-size: 11px; fill: #444444; }
  .station-dev-pos { font-family: Helvetica, Arial, sans-serif; font-size: 10px; fill: #c62828; }
  .station-dev-neg { font-family: Helvetica, Arial, sans-serif; font-size: 10px; fill: #1565c0; }
  .station-dev-na { font-family: Helvetica, Arial, sans-serif; font-size: 10px; fill: #666666; }
  .rass-dev-pos { font-family: Helvetica, Arial, sans-serif; font-size: 9px; fill: #c62828; }
  .rass-dev-neg { font-family: Helvetica, Arial, sans-serif; font-size: 9px; fill: #1565c0; }
  .rass-dev-na { font-family: Helvetica, Arial, sans-serif; font-size: 9px; fill: #666666; }
</style>
<rect x="0" y="0" width="1180" height="760" fill="#ffffff" />
<text class="title" x="90" y="28">Estimated LCL @ VOR: 1070 m - winds 199, 6g10mph (02:30 PST)</text>
<line class="grid" x1="90" y1="510.00" x2="1110" y2="510.00" />
<text class="label" x="82" y="514.00" text-anchor="end">0</text>
<line class="grid" x1="90" y1="444.29" x2="1110" y2="444.29" />
<text class="label" x="82" y="448.29" text-anchor="end">200</text>
<line class="grid" x1="90" y1="378.57" x2="1110" y2="378.57" />
<text class="label" x="82" y="382.57" text-anchor="end">400</text>
<line class="grid" x1="90" y1="312.86" x2="1110" y2="312.86" />
<text class="label" x="82" y="316.86" text-anchor="end">600</text>
<line class="grid" x1="90" y1="247.14" x2="1110" y2="247.14" />
<text class="label" x="82" y="251.14" text-anchor="end">800</text>
<line class="grid" x1="90" y1="181.43" x2="1110" y2="181.43" />
<text class="label" x="82" y="185.43" text-anchor="end">1000</text>
<line class="grid" x1="90" y1="115.71" x2="1110" y2="115.71" />
<text class="label" x="82" y="119.71" text-anchor="end">1200</text>
<line class="grid" x1="90" y1="50.00" x2="1110" y2="50.00" />
<text class="label" x="82" y="54.00" text-anchor="end">1400</text>
<line class="grid" x1="378.54" y1="50" x2="378.54" y2="510" />
<text class="label" x="378.54" y="528" text-anchor="middle">5.0</text>
<line class="grid" x1="725.01" y1="50" x2="725.01" y2="510" />
<text class="label" x="725.01" y="528" text-anchor="middle">10.0</text>
<line class="grid" x1="1071.47" y1="50" x2="1071.47" y2="510" />
<text class="label" x="1071.47" y="528" text-anchor="middle">15.0</text>
<line class="axis" x1="90" y1="50" x2="90" y2="510" />
<line class="axis" x1="90" y1="510" x2="1110" y2="510" />
<text class="label" x="600.00" y="546" text-anchor="middle">Temperature (C)</text>
<text class="label" x="26" y="280.00" text-anchor="middle" transform="rotate(-90 26 280.00)">Altitude (m)</text>
<path class="rass" d="M939.54,444.29 L913.14,411.43 L848.76,378.57 L806.77,345.71 L767.21,312.86 L658.07,280.00 L572.84,247.14 L533.06,214.29 L484.49,181.43 L420.81,148.57 L354.77,115.71 L292.20,82.86 L245.22,50.00" />
<path class="dalr" d="M1075.35,510.00 L124.65,50.00" />
<circle class="rass-point" cx="939.54" cy="444.29" r="2" />
<text class="rass-dev-na" x="945.54" y="441.29" text-anchor="start">(n/a)</text>
<circle class="rass-point" cx="913.14" cy="411.43" r="2" />
<text class="rass-dev-pos" x="907.14" y="408.43" text-anchor="end">(+0.6)</text>
<circle class="rass-point" cx="848.76" cy="378.57" r="2" />
<text class="rass-dev-pos" x="854.76" y="375.57" text-anchor="start">(+0.1)</text>
<circle class="rass-point" cx="806.77" cy="345.71" r="2" />
<text class="rass-dev-pos" x="800.77" y="342.71" text-anchor="end">(+0.4)</text>
<circle class="rass-point" cx="767.21" cy="312.86" r="2" />
<text class="rass-dev-pos" x="773.21" y="309.86" text-anchor="start">(+0.4)</text>
<circle class="rass-point" cx="658.07" cy="280.00" r="2" />
<text class="rass-dev-neg" x="652.07" y="277.00" text-anchor="end">(-0.6)</text>
<circle class="rass-point" cx="572.84" cy="247.14" r="2" />
<text class="rass-dev-neg" x="578.84" y="244.14" text-anchor="start">(-0.2)</text>
<circle class="rass-point" cx="533.06" cy="214.29" r="2" />
<text class="rass-dev-pos" x="527.06" y="211.29" text-anchor="end">(+0.4)</text>
<circle class="rass-point" cx="484.49" cy="181.43" r="2" />
<text class="rass-dev-pos" x="490.49" y="178.43" text-anchor="start">(+0.3)</text>
<circle class="rass-point" cx="420.81" cy="148.57" r="2" />
<text class="rass-dev-pos" x="414.81" y="145.57" text-anchor="end">(+0.1)</text>
<circle class="rass-point" cx="354.77" cy="115.71" r="2" />
<text class="rass-dev-pos" x="360.77" y="112.71" text-anchor="start">(+0.0)</text>
<circle class="rass-point" cx="292.20" cy="82.86" r="2" />
<text class="rass-dev-pos" x="286.20" y="79.86" text-anchor="end">(+0.1)</text>
<circle class="rass-point" cx="245.22" cy="50.00" r="2" />
<text class="rass-dev-pos" x="251.22" y="58.00" text-anchor="start">(+0.3)</text>
<rect class="station" x="414.03" y="112.39" width="6" height="6" />
<line class="barb-shaft" x1="417.03" y1="115.39" x2="408.31" y2="131.13" />
<line class="barb-feather" x1="408.31" y1="131.13" x2="405.39" y2="128.14" />
<text class="station-label" x="423.03" y="119.39" text-anchor="start">La Cumbre</text>
<text class="station-dev-na" x="423.03" y="129.39" text-anchor="start"><tspan class="station-dev-pos">(+2.4)</tspan><tspan fill="#444444"> (-16min)</tspan></text>
<rect class="station" x="333.96" y="155.46" width="6" height="6" />
<line class="barb-shaft" x1="336.96" y1="158.46" x2="331.07" y2="175.47" />
<line class="barb-feather" x1="331.07" y1="175.47" x2="327.68" y2="173.03" />
<text class="station-label" x="342.96" y="162.46" text-anchor="start">VOR</text>
<text class="station-dev-na" x="342.96" y="172.46" text-anchor="start"><tspan class="station-dev-neg">(-0.1)</tspan><tspan fill="#444444"> (-20min)</tspan></text>
<rect class="station" x="578.01" y="271.15" width="6" height="6" />
<circle class="barb-shaft" cx="581.01" cy="274.15" r="2.5" fill="none" />
<text class="station-label" x="587.01" y="278.15" text-anchor="start">AntFarm</text>
<text class="station-dev-na" x="587.01" y="288.15" text-anchor="start"><tspan class="station-dev-pos">(+0.7)</tspan><tspan fill="#444444"> (-23min)</tspan></text>
<rect class="station" x="683.48" y="344.85" width="6" height="6" />
<circle class="barb-shaft" cx="686.48" cy="347.85" r="2.5" fill="none" />
<text class="station-label" x="692.48" y="351.85" text-anchor="start">Montecito</text>
<text class="station-dev-na" x="692.48" y="361.85" text-anchor="start"><tspan class="station-dev-neg">(-0.2)</tspan><tspan fill="#444444"> (+19min)</tspan></text>
<rect class="station" x="722.01" y="357.66" width="6" height="6" />
<line class="barb-shaft" x1="725.01" y1="360.66" x2="740.59" y2="351.66" />
<line class="barb-feather" x1="740.59" y1="351.66" x2="741.55" y2="355.73" />
<text class="station-label" x="731.01" y="376.66" text-anchor="start">SM Pass</text>
<text class="station-dev-na" x="731.01" y="386.66" text-anchor="start"><tspan class="station-dev-pos">(+0.7)</tspan><tspan fill="#444444"> (+24min)</tspan></text>
<rect class="station" x="821.72" y="428.90" width="6" height="6" />
<circle class="barb-shaft" cx="824.72" cy="431.90" r="2.5" fill="none" />
<text class="station-label" x="830.72" y="435.90" text-anchor="start">Parma</text>
<text class="station-dev-na" x="830.72" y="445.90" text-anchor="start"><tspan class="station-dev-pos">(+0.7)</tspan><tspan fill="#444444"> (+5min)</tspan></text>
<rect class="station" x="929.89" y="506.01" width="6" height="6" />
<line class="barb-shaft" x1="932.89" y1="509.01" x2="944.46" y2="495.23" />
<line class="barb-feather" x1="944.46" y1="495.23" x2="946.75" y2="498.72" />
<text class="station-label" x="938.89" y="498.00" text-anchor="start">Airport</text>
<text class="station-dev-na" x="938.89" y="508.00" text-anchor="start">(n/a)</text>
<line class="rass" x1="90" y1="562" x2="114" y2="562" />
<text class="label" x="120" y="566">RASS @ 01:55</text>
<line class="dalr" x1="310" y1="562" x2="334" y2="562" />
<text class="label" x="340" y="566">DALR (9.8 C/km)</text>
<text class="legend-h" x="90" y="596">Stations</text>
<text class="legend-row" x="90" y="612"><tspan>La Cumbre 1201m @ 02:46 - 5.6C, winds 209, 6g11mph, DALR dev </tspan><tspan fill="#c62828">VOR:+2.4C</tspan><tspan>; </tspan><tspan fill="#c62828">AntFarm:+2.4C</tspan><tspan>; </tspan><tspan fill="#c62828">Montecito:+3.0C</tspan><tspan>; </tspan><tspan fill="#c62828">SM Pass:+2.9C</tspan><tspan>; </tspan><tspan fill="#c62828">Parma:+3.6C</tspan><tspan>; </tspan><tspan fill="#c62828">Airport:+4.3C</tspan></text>
<text class="legend-row" x="90" y="626"><tspan>VOR 1070m @ 02:30 - 4.4C, winds 199, 6g10mph, DALR dev </tspan><tspan fill="#1565c0">AntFarm:-0.1C</tspan><tspan>; </tspan><tspan fill="#c62828">Montecito:+0.6C</tspan><tspan>; </tspan><tspan fill="#c62828">SM Pass:+0.4C</tspan><tspan>; </tspan><tspan fill="#c62828">Parma:+1.1C</tspan><tspan>; </tspan><tspan fill="#c62828">Airport:+1.9C</tspan></text>
<text class="legend-row" x="90" y="640"><tspan>AntFarm 718m @ 02:30 - 7.9C, winds 054, 0g2mph, DALR dev </tspan><tspan fill="#c62828">Montecito:+0.7C</tspan><tspan>; </tspan><tspan fill="#c62828">SM Pass:+0.5C</tspan><tspan>; </tspan><tspan fill="#c62828">Parma:+1.2C</tspan><tspan>; </tspan><tspan fill="#c62828">Airport:+1.9C</tspan></text>
<text class="legend-row" x="90" y="654"><tspan>Montecito 494m @ 01:47 - 9.4C, winds 215, 2g8mph, DALR dev </tspan><tspan fill="#1565c0">SM Pass:-0.2C</tspan><tspan>; </tspan><tspan fill="#c62828">Parma:+0.5C</tspan><tspan>; </tspan><tspan fill="#c62828">Airport:+1.3C</tspan></text>
<text class="legend-row" x="90" y="668"><tspan>SM Pass 454m @ 02:06 - 10.0C, winds 060, 5g8mph, DALR dev </tspan><tspan fill="#c62828">Parma:+0.7C</tspan><tspan>; </tspan><tspan fill="#c62828">Airport:+1.4C</tspan></text>
<text class="legend-row" x="90" y="682"><tspan>Parma 238m @ 02:30 - 11.4C, winds 013, 0g1mph, DALR dev </tspan><tspan fill="#c62828">Airport:+0.7C</tspan></text>
<text class="legend-row" x="90" y="696">Airport 3m @ 02:35 - 13.0C, winds 040, 5g17mph, DALR dev n/a</text>
</svg>